<?xml version="1.0" encoding="utf-8"?>
<svg version="1.1" id="Layer_1"
xmlns="http://www.w3.org/2000/svg"
xmlns:xlink="http://www.w3.org/1999/xlink"
width="550px" height="400px"
xml:space="preserve">
<g id="ShapeID_2230" transform="matrix(0.784314, 0, 0, 0.784314, 0, 36)" >
<path 
style="fill:#FFFFFF;fill-opacity:1" d="M17.65 -31.4C16.55 -31.65 15.45 -31.8 14.35 -31.8C13.35 -31.8 12.6 -31.55 12.15 -31.05C11.75 -30.6 11.5 -29.7 11.5 -28.3L11.5 -26.45L16.75 -26.45L16.75 -20.95L11.5 -20.95L11.5 0L4.5 0L4.5 -20.95L0.6 -20.95L0.6 -26.45L4.5 -26.45L4.5 -28.4C4.5 -30.6 4.7 -32.3 5.2 -33.4C5.65 -34.5 6.5 -35.4 7.8 -36.1C9.1 -36.8 10.7 -37.15 12.65 -37.15C14.65 -37.15 16.6 -36.85 18.55 -36.25L17.65 -31.4" />
</g>
<g id="ShapeID_2231" transform="matrix(0.784314, 0, 0, 0.784314, 13.3, 36)" >
<path 
style="fill:#FFFFFF;fill-opacity:1" d="M3.6 -36.5L10.6 -36.5L10.6 0L3.6 0L3.6 -36.5" />
</g>
<g id="ShapeID_2232" transform="matrix(0.784314, 0, 0, 0.784314, 24.4, 36)" >
<path 
style="fill:#FFFFFF;fill-opacity:1" d="M12.75 9.15C12.05 9.65 11.2 10.05 10.1 10.35C9.1 10.6 7.9 10.75 6.55 10.75C5.2 10.75 3.9 10.65 2.6 10.35L2 4.85C3.05 5.05 4.05 5.15 4.95 5.15C6.55 5.15 7.75 4.7 8.55 3.75C9.3 2.85 9.9 1.6 10.35 0.1L0.3 -26.45L7.75 -26.45L14.05 -7.65L20.25 -26.45L27.5 -26.45L18.15 -1L16.45 3.65C15.85 5.15 15.3 6.35 14.7 7.15C14.15 7.95 13.5 8.65 12.75 9.15" />
</g>
</svg>
