<?xml version="1.0" encoding="utf-8"?>
<svg version="1.1" id="Layer_1"
xmlns="http://www.w3.org/2000/svg"
xmlns:xlink="http://www.w3.org/1999/xlink"
width="550px" height="400px"
xml:space="preserve">
<g id="ShapeID_2338" transform="matrix(0.313726, 0, 0, 0.313726, 38.55, 14.4)" >
<path 
style="fill:#FFFFFF;fill-opacity:1" d="M8.9 -31C7.6 -29.7 6.95 -27.95 6.95 -25.65L2.35 -26.1C2.65 -29.5 3.8 -32.15 5.9 -33.95C7.95 -35.75 10.7 -36.65 14.2 -36.65C17.7 -36.65 20.45 -35.7 22.5 -33.7C24.55 -31.8 25.6 -29.4 25.6 -26.5C25.6 -25.05 25.3 -23.6 24.7 -22.15C24.1 -20.75 23.1 -19.3 21.7 -17.7C20.3 -16.2 18 -14.05 14.8 -11.3C12.1 -9.05 10.4 -7.5 9.6 -6.7C8.85 -5.9 8.2 -5.1 7.7 -4.3L25.65 -4.3L25.65 0L1.5 0C1.5 -1.05 1.6 -2.1 2 -3.1C2.6 -4.7 3.6 -6.35 4.95 -7.95C6.3 -9.55 8.25 -11.35 10.85 -13.45C14.75 -16.7 17.45 -19.3 18.85 -21.2C20.25 -23.1 21 -24.9 21 -26.6C21 -28.35 20.35 -29.85 19.05 -31.1C17.8 -32.3 16.15 -32.95 14.1 -32.95C11.95 -32.95 10.2 -32.3 8.9 -31" />
</g>
<g id="ShapeID_2339" transform="matrix(0.313726, 0, 0, 0.313726, 47.4, 14.4)" >
<path 
style="fill:#FFFFFF;fill-opacity:1" d="M8.9 -31C7.6 -29.7 6.95 -27.95 6.95 -25.65L2.35 -26.1C2.65 -29.5 3.8 -32.15 5.9 -33.95C7.95 -35.75 10.7 -36.65 14.2 -36.65C17.7 -36.65 20.45 -35.7 22.5 -33.7C24.55 -31.8 25.6 -29.4 25.6 -26.5C25.6 -25.05 25.3 -23.6 24.7 -22.15C24.1 -20.75 23.1 -19.3 21.7 -17.7C20.3 -16.2 18 -14.05 14.8 -11.3C12.1 -9.05 10.4 -7.5 9.6 -6.7C8.85 -5.9 8.2 -5.1 7.7 -4.3L25.65 -4.3L25.65 0L1.5 0C1.5 -1.05 1.6 -2.1 2 -3.1C2.6 -4.7 3.6 -6.35 4.95 -7.95C6.3 -9.55 8.25 -11.35 10.85 -13.45C14.75 -16.7 17.45 -19.3 18.85 -21.2C20.25 -23.1 21 -24.9 21 -26.6C21 -28.35 20.35 -29.85 19.05 -31.1C17.8 -32.3 16.15 -32.95 14.1 -32.95C11.95 -32.95 10.2 -32.3 8.9 -31" />
</g>
<g id="ShapeID_2340" transform="matrix(0.313726, 0, 0, 0.313726, 56.25, 14.4)" >
<path 
style="fill:#FFFFFF;fill-opacity:1" d="M7.1 -16.7L2.9 -17.3L6.45 -36.05L24.6 -36.05L24.6 -31.75L10 -31.75L8 -21.95C10.2 -23.45 12.5 -24.25 14.9 -24.25C18.1 -24.25 20.8 -23.15 23 -20.9C25.2 -18.7 26.3 -15.9 26.3 -12.4C26.3 -9.1 25.35 -6.25 23.4 -3.8C21.1 -0.9 17.9 0.6 13.8 0.6C10.5 0.6 7.75 -0.3 5.65 -2.15C3.55 -4 2.4 -6.5 2.1 -9.6L6.8 -9.95C7.1 -7.65 7.9 -5.95 9.2 -4.8C10.45 -3.7 12 -3.1 13.8 -3.1C16 -3.1 17.8 -3.9 19.3 -5.5C20.8 -7.1 21.55 -9.3 21.55 -12C21.55 -14.55 20.85 -16.55 19.4 -18.05C18 -19.55 16.1 -20.3 13.75 -20.3C12.3 -20.3 11 -19.95 9.8 -19.25C8.65 -18.6 7.75 -17.75 7.1 -16.7" />
</g>
<g id="ShapeID_2341" transform="matrix(0.313726, 0, 0, 0.313726, 65.1, 14.4)" >
<path 
style="fill:#FFFFFF;fill-opacity:1" d="M7.1 -16.7L2.9 -17.3L6.45 -36.05L24.6 -36.05L24.6 -31.75L10 -31.75L8 -21.95C10.2 -23.45 12.5 -24.25 14.9 -24.25C18.1 -24.25 20.8 -23.15 23 -20.9C25.2 -18.7 26.3 -15.9 26.3 -12.4C26.3 -9.1 25.35 -6.25 23.4 -3.8C21.1 -0.9 17.9 0.6 13.8 0.6C10.5 0.6 7.75 -0.3 5.65 -2.15C3.55 -4 2.4 -6.5 2.1 -9.6L6.8 -9.95C7.1 -7.65 7.9 -5.95 9.2 -4.8C10.45 -3.7 12 -3.1 13.8 -3.1C16 -3.1 17.8 -3.9 19.3 -5.5C20.8 -7.1 21.55 -9.3 21.55 -12C21.55 -14.55 20.85 -16.55 19.4 -18.05C18 -19.55 16.1 -20.3 13.75 -20.3C12.3 -20.3 11 -19.95 9.8 -19.25C8.65 -18.6 7.75 -17.75 7.1 -16.7" />
</g>
</svg>
