<?xml version="1.0" encoding="utf-8"?>
<svg version="1.1" id="Layer_1"
xmlns="http://www.w3.org/2000/svg"
xmlns:xlink="http://www.w3.org/1999/xlink"
width="500px" height="548px"
xml:space="preserve">
<g id="ShapeID_1492" transform="matrix(0.705882, 0, 0, 0.705882, 58, 11.8)" >
<path 
style="fill:#000000;fill-opacity:1" d="M4.4 -36.5L9.95 -36.5L9.95 -28.4L8.65 -9.05L5.75 -9.05L4.4 -28.4L4.4 -36.5" />
<path 
style="fill:#000000;fill-opacity:1" d="M4.6 -5.1L9.75 -5.1L9.75 0L4.6 0L4.6 -5.1" />
</g>
<g id="ShapeID_1493" transform="matrix(0.705882, 0, 0, 0.705882, 106, 11.8)" >
<path 
style="fill:#000000;fill-opacity:1" d="M2.35 -36.5L7.45 -36.5L7.45 -30.5L6.3 -23.6L3.55 -23.6L2.35 -30.5L2.35 -36.5" />
<path 
style="fill:#000000;fill-opacity:1" d="M10.6 -36.5L15.7 -36.5L15.7 -30.5L14.5 -23.6L11.8 -23.6L10.6 -30.5L10.6 -36.5" />
</g>
<g id="ShapeID_1494" transform="matrix(0.705882, 0, 0, 0.705882, 154, 11.8)" >
 <clipPath  id="PathID2413_ClipPathURL" clip-rule="nonzero">
<path d="M21.75 -37.15L25.5 -37.15L23.3 -26.45L27.65 -26.45L27.65 -22.75L22.55 -22.75L20.7 -13.7L27.65 -13.7L27.65 -10L19.95 -10L17.8 0.6L14.05 0.6L16.2 -10L8.4 -10L6.25 0.6L2.55 0.6L4.7 -10L0.5 -10L0.5 -13.7L5.45 -13.7L7.3 -22.75L0.5 -22.75L0.5 -26.45L8.05 -26.45L10.25 -37.15L13.95 -37.15L11.8 -26.45L19.55 -26.45L21.75 -37.15M16.95 -13.7L18.8 -22.75L11 -22.75L9.2 -13.7L16.95 -13.7"/>
</clipPath>
<path 
style="clip-path:url(#PathID2413_ClipPathURL);fill:#000000;fill-opacity:1" d="M21.75 -37.15L25.5 -37.15L23.3 -26.45L27.65 -26.45L27.65 -22.75L22.55 -22.75L20.7 -13.7L27.65 -13.7L27.65 -10L19.95 -10L17.8 0.6L14.05 0.6L16.2 -10L8.4 -10L6.25 0.6L2.55 0.6L4.7 -10L0.5 -10L0.5 -13.7L5.45 -13.7L7.3 -22.75L0.5 -22.75L0.5 -26.45L8.05 -26.45L10.25 -37.15L13.95 -37.15L11.8 -26.45L19.55 -26.45L21.75 -37.15" />
</g>
<g id="ShapeID_1495" transform="matrix(0.705882, 0, 0, 0.705882, 202, 11.8)" >
 <clipPath  id="PathID2415_ClipPathURL" clip-rule="nonzero">
<path d="M12.65 -39.9L15.3 -39.9L15.3 -37.75C17.85 -37.5 19.9 -36.75 21.45 -35.45C23.4 -33.85 24.6 -31.6 25 -28.75L20.4 -28.05C20.15 -29.75 19.6 -31.1 18.7 -32.05C17.9 -33 16.75 -33.65 15.3 -33.95L15.3 -21.05C17.5 -20.5 19 -20.05 19.75 -19.7C21.15 -19.1 22.25 -18.35 23.15 -17.45C24 -16.6 24.65 -15.55 25.15 -14.3C25.65 -13.1 25.9 -11.8 25.9 -10.4C25.9 -7.3 24.9 -4.7 22.9 -2.6C20.95 -0.55 18.4 0.55 15.3 0.7L15.3 5.25L12.65 5.25L12.65 0.75C10.4 0.5 8.55 0 7.15 -0.7C5.8 -1.4 4.6 -2.6 3.55 -4.2C2.55 -5.8 1.95 -7.8 1.8 -10.15L6.3 -11C6.6 -8.6 7.2 -6.8 8.1 -5.7C9.35 -4.1 10.85 -3.25 12.65 -3.05L12.65 -17.1C10.85 -17.55 8.95 -18.35 7 -19.45C5.6 -20.2 4.5 -21.3 3.7 -22.7C2.95 -24.1 2.55 -25.75 2.55 -27.55C2.55 -30.7 3.65 -33.3 5.9 -35.3C7.4 -36.6 9.65 -37.45 12.65 -37.75L12.65 -39.9M8.5 -31.9C7.55 -30.8 7.05 -29.45 7.05 -27.9C7.05 -26.4 7.45 -25.1 8.3 -24.05C9.15 -23.05 10.6 -22.3 12.65 -21.75L12.65 -34C10.9 -33.75 9.5 -33.05 8.5 -31.9M19.6 -5.3C20.7 -6.6 21.3 -8.2 21.3 -10.1C21.3 -11.7 20.9 -13 20.1 -14C19.3 -15 17.7 -15.8 15.3 -16.4L15.3 -3.05C17 -3.25 18.45 -4 19.6 -5.3"/>
</clipPath>
<path 
style="clip-path:url(#PathID2415_ClipPathURL);fill:#000000;fill-opacity:1" d="M12.65 -39.9L15.3 -39.9L15.3 -37.75C17.85 -37.5 19.9 -36.75 21.45 -35.45C23.4 -33.85 24.6 -31.6 25 -28.75L20.4 -28.05C20.15 -29.75 19.6 -31.1 18.7 -32.05C17.9 -33 16.75 -33.65 15.3 -33.95L15.3 -21.05C17.5 -20.5 19 -20.05 19.75 -19.7C21.15 -19.1 22.25 -18.35 23.15 -17.45C24 -16.6 24.65 -15.55 25.15 -14.3C25.65 -13.1 25.9 -11.8 25.9 -10.4C25.9 -7.3 24.9 -4.7 22.9 -2.6C20.95 -0.55 18.4 0.55 15.3 0.7L15.3 5.25L12.65 5.25L12.65 0.75C10.4 0.5 8.55 0 7.15 -0.7C5.8 -1.4 4.6 -2.6 3.55 -4.2C2.55 -5.8 1.95 -7.8 1.8 -10.15L6.3 -11C6.6 -8.6 7.2 -6.8 8.1 -5.7C9.35 -4.1 10.85 -3.25 12.65 -3.05L12.65 -17.1C10.85 -17.55 8.95 -18.35 7 -19.45C5.6 -20.2 4.5 -21.3 3.7 -22.7C2.95 -24.1 2.55 -25.75 2.55 -27.55C2.55 -30.7 3.65 -33.3 5.9 -35.3C7.4 -36.6 9.65 -37.45 12.65 -37.75L12.65 -39.9" />
</g>
<g id="ShapeID_1496" transform="matrix(0.705882, 0, 0, 0.705882, 250, 11.8)" >
 <clipPath  id="PathID2418_ClipPathURL" clip-rule="nonzero">
<path d="M16.25 -34.6C17.75 -33 18.55 -30.6 18.55 -27.4C18.55 -24.35 17.8 -22 16.25 -20.3C14.75 -18.65 12.85 -17.8 10.65 -17.8C8.45 -17.8 6.65 -18.6 5.15 -20.25C3.7 -21.85 2.95 -24.35 2.95 -27.7C2.95 -30.3 3.6 -32.5 4.9 -34.35C6.2 -36.15 8.1 -37.1 10.6 -37.1C12.85 -37.1 14.75 -36.3 16.25 -34.6M7.95 -22.3C8.65 -21.4 9.6 -20.9 10.7 -20.9C11.8 -20.9 12.75 -21.35 13.5 -22.3C14.25 -23.25 14.65 -25 14.65 -27.6C14.65 -29.9 14.3 -31.55 13.5 -32.55C12.8 -33.5 11.85 -34 10.7 -34C9.6 -34 8.7 -33.55 7.95 -32.55C7.25 -31.6 6.85 -29.85 6.85 -27.25C6.85 -24.95 7.2 -23.3 7.95 -22.3"/>
</clipPath>
<path 
style="clip-path:url(#PathID2418_ClipPathURL);fill:#000000;fill-opacity:1" d="M16.25 -34.6C17.75 -33 18.55 -30.6 18.55 -27.4C18.55 -24.35 17.8 -22 16.25 -20.3C14.75 -18.65 12.85 -17.8 10.65 -17.8C8.45 -17.8 6.65 -18.6 5.15 -20.25C3.7 -21.85 2.95 -24.35 2.95 -27.7C2.95 -30.3 3.6 -32.5 4.9 -34.35C6.2 -36.15 8.1 -37.1 10.6 -37.1C12.85 -37.1 14.75 -36.3 16.25 -34.6" />
<path 
style="fill:#000000;fill-opacity:1" d="M30.75 -37.1L34.4 -37.1L14.45 1.35L10.75 1.35L30.75 -37.1" />
 <clipPath  id="PathID2421_ClipPathURL" clip-rule="nonzero">
<path d="M39.95 -15.45C41.45 -13.85 42.2 -11.45 42.2 -8.25C42.2 -5.2 41.45 -2.85 39.9 -1.15C38.4 0.5 36.55 1.35 34.3 1.35C32.1 1.35 30.25 0.55 28.75 -1.1C27.35 -2.75 26.6 -5.25 26.6 -8.55C26.6 -11.15 27.25 -13.35 28.55 -15.2C29.85 -17 31.75 -17.95 34.25 -17.95C36.55 -17.95 38.45 -17.15 39.95 -15.45M31.6 -3.15C32.3 -2.25 33.25 -1.75 34.35 -1.75C35.45 -1.75 36.4 -2.2 37.15 -3.15C37.9 -4.1 38.3 -5.85 38.3 -8.45C38.3 -10.75 37.95 -12.4 37.15 -13.4C36.45 -14.35 35.5 -14.85 34.4 -14.85C33.3 -14.85 32.35 -14.4 31.6 -13.4C30.9 -12.45 30.5 -10.7 30.5 -8.1C30.5 -5.8 30.85 -4.15 31.6 -3.15"/>
</clipPath>
<path 
style="clip-path:url(#PathID2421_ClipPathURL);fill:#000000;fill-opacity:1" d="M39.95 -15.45C41.45 -13.85 42.2 -11.45 42.2 -8.25C42.2 -5.2 41.45 -2.85 39.9 -1.15C38.4 0.5 36.55 1.35 34.3 1.35C32.1 1.35 30.25 0.55 28.75 -1.1C27.35 -2.75 26.6 -5.25 26.6 -8.55C26.6 -11.15 27.25 -13.35 28.55 -15.2C29.85 -17 31.75 -17.95 34.25 -17.95C36.55 -17.95 38.45 -17.15 39.95 -15.45" />
</g>
<g id="ShapeID_1497" transform="matrix(0.705882, 0, 0, 0.705882, 298, 11.8)" >
 <clipPath  id="PathID2423_ClipPathURL" clip-rule="nonzero">
<path d="M6.75 -28.95C6.75 -31.15 7.6 -33.05 9.3 -34.65C11 -36.25 13.2 -37.1 15.8 -37.1C18.3 -37.1 20.35 -36.35 21.95 -34.8C23.55 -33.3 24.35 -31.45 24.35 -29.25C24.35 -25.8 22.05 -22.85 17.35 -20.4L23.95 -12.05C24.7 -13.5 25.3 -15.2 25.75 -17.15L30.4 -16.15C29.6 -12.95 28.5 -10.35 27.1 -8.35C28.8 -6.15 30.7 -4.25 32.85 -2.75L29.85 0.8C28.05 -0.3 26.15 -2 24.25 -4.3C22.75 -2.7 21.15 -1.45 19.4 -0.6C17.7 0.2 15.8 0.6 13.75 0.6C10.05 0.6 7.05 -0.65 4.85 -3.15C3.1 -5.2 2.2 -7.5 2.2 -10.05C2.2 -12.3 2.9 -14.35 4.35 -16.15C5.8 -17.95 7.95 -19.55 10.85 -20.95C9.25 -22.85 8.15 -24.35 7.55 -25.55C7.05 -26.7 6.75 -27.85 6.75 -28.95M18.55 -32.2C17.75 -33 16.8 -33.4 15.6 -33.4C14.4 -33.4 13.35 -33 12.55 -32.2C11.75 -31.45 11.35 -30.5 11.35 -29.35C11.35 -28.8 11.45 -28.2 11.75 -27.55C12.05 -26.95 12.45 -26.3 13.05 -25.6L15.05 -23.3C17 -24.4 18.25 -25.4 18.85 -26.3C19.45 -27.15 19.75 -28.1 19.75 -29.15C19.75 -30.35 19.35 -31.4 18.55 -32.2M7.05 -10.35C7.05 -8.85 7.6 -7.3 8.8 -5.7C9.95 -4.15 11.6 -3.35 13.8 -3.35C15.1 -3.35 16.5 -3.75 17.95 -4.6C19.35 -5.4 20.5 -6.5 21.4 -7.8L13.2 -18C10.8 -16.6 9.15 -15.25 8.3 -14C7.5 -12.8 7.05 -11.55 7.05 -10.35"/>
</clipPath>
<path 
style="clip-path:url(#PathID2423_ClipPathURL);fill:#000000;fill-opacity:1" d="M6.75 -28.95C6.75 -31.15 7.6 -33.05 9.3 -34.65C11 -36.25 13.2 -37.1 15.8 -37.1C18.3 -37.1 20.35 -36.35 21.95 -34.8C23.55 -33.3 24.35 -31.45 24.35 -29.25C24.35 -25.8 22.05 -22.85 17.35 -20.4L23.95 -12.05C24.7 -13.5 25.3 -15.2 25.75 -17.15L30.4 -16.15C29.6 -12.95 28.5 -10.35 27.1 -8.35C28.8 -6.15 30.7 -4.25 32.85 -2.75L29.85 0.8C28.05 -0.3 26.15 -2 24.25 -4.3C22.75 -2.7 21.15 -1.45 19.4 -0.6C17.7 0.2 15.8 0.6 13.75 0.6C10.05 0.6 7.05 -0.65 4.85 -3.15C3.1 -5.2 2.2 -7.5 2.2 -10.05C2.2 -12.3 2.9 -14.35 4.35 -16.15C5.8 -17.95 7.95 -19.55 10.85 -20.95C9.25 -22.85 8.15 -24.35 7.55 -25.55C7.05 -26.7 6.75 -27.85 6.75 -28.95" />
</g>
<g id="ShapeID_1498" transform="matrix(0.705882, 0, 0, 0.705882, 346, 11.8)" >
<path 
style="fill:#000000;fill-opacity:1" d="M2.3 -36.5L7.4 -36.5L7.4 -30.4L6.2 -23.6L3.4 -23.6L2.3 -30.4L2.3 -36.5" />
</g>
<g id="ShapeID_1499" transform="matrix(0.705882, 0, 0, 0.705882, 394, 11.8)" >
<path 
style="fill:#000000;fill-opacity:1" d="M11.95 -37.15L15.15 -37.15C13.15 -33.7 11.8 -31.2 11.15 -29.7C10.15 -27.45 9.35 -25.05 8.75 -22.55C8.05 -19.45 7.7 -16.35 7.7 -13.2C7.7 -5.2 10.15 2.75 15.15 10.75L11.95 10.75C9.45 7.65 7.35 4.05 5.65 -0.15C3.95 -4.35 3.1 -8.7 3.1 -13.2C3.1 -17.15 3.7 -20.95 5 -24.55C6.5 -28.75 8.8 -32.95 11.95 -37.15" />
</g>
<g id="ShapeID_1500" transform="matrix(0.705882, 0, 0, 0.705882, 442, 11.8)" >
<path 
style="fill:#000000;fill-opacity:1" d="M7.1 -29.65C6.45 -31.15 5.1 -33.65 3.1 -37.15L6.3 -37.15C9.4 -32.95 11.7 -28.75 13.2 -24.55C14.5 -20.95 15.15 -17.2 15.15 -13.2C15.15 -8.7 14.3 -4.35 12.55 -0.15C10.85 4 8.75 7.65 6.3 10.75L3.1 10.75C8.05 2.8 10.55 -5.2 10.55 -13.2C10.55 -16.3 10.2 -19.35 9.45 -22.45C8.9 -24.95 8.1 -27.35 7.1 -29.65" />
</g>
<g id="ShapeID_1501" transform="matrix(0.705882, 0, 0, 0.705882, 10, 58)" >
<path 
style="fill:#000000;fill-opacity:1" d="M18.05 -29.85C15.95 -29.15 13.85 -28.7 11.8 -28.45C12.8 -27.55 14.25 -26 16.1 -23.75L13.1 -21.65C12.2 -22.95 11.05 -24.7 9.7 -26.95C8.5 -24.65 7.45 -22.85 6.5 -21.65L3.55 -23.75C5.45 -26.1 6.85 -27.65 7.7 -28.45C5.55 -28.85 3.5 -29.3 1.6 -29.85L2.7 -33.35C5.35 -32.45 7.25 -31.65 8.45 -30.95C8.15 -33.95 8 -36 8 -37.15L11.6 -37.15C11.55 -35.5 11.35 -33.45 11 -30.95C12.7 -31.8 14.65 -32.6 16.9 -33.35L18.05 -29.85" />
</g>
<g id="ShapeID_1502" transform="matrix(0.705882, 0, 0, 0.705882, 58, 58)" >
<path 
style="fill:#000000;fill-opacity:1" d="M12.75 -30.05L17 -30.05L17 -20.1L26.95 -20.1L26.95 -15.9L17 -15.9L17 -5.9L12.75 -5.9L12.75 -15.9L2.8 -15.9L2.8 -20.1L12.75 -20.1L12.75 -30.05" />
</g>
<g id="ShapeID_1503" transform="matrix(0.705882, 0, 0, 0.705882, 106, 58)" >
<path 
style="fill:#000000;fill-opacity:1" d="M8.65 4.55C8 5.7 6.95 6.6 5.5 7.25L4.25 5.35C5.15 4.95 5.85 4.35 6.3 3.5C6.75 2.7 7 1.55 7.05 0L4.55 0L4.55 -5.1L9.65 -5.1L9.65 0C9.65 1.9 9.35 3.4 8.65 4.55" />
</g>
<g id="ShapeID_1504" transform="matrix(0.705882, 0, 0, 0.705882, 154, 58)" >
<path 
style="fill:#000000;fill-opacity:1" d="M1.6 -15.45L15.4 -15.45L15.4 -10.95L1.6 -10.95L1.6 -15.45" />
</g>
<g id="ShapeID_1505" transform="matrix(0.705882, 0, 0, 0.705882, 202, 58)" >
<path 
style="fill:#000000;fill-opacity:1" d="M4.65 -5.1L9.75 -5.1L9.75 0L4.65 0L4.65 -5.1" />
</g>
<g id="ShapeID_1506" transform="matrix(0.705882, 0, 0, 0.705882, 250, 58)" >
<path 
style="fill:#000000;fill-opacity:1" d="M10.6 -37.15L14.2 -37.15L3.6 0.6L0 0.6L10.6 -37.15" />
</g>
<g id="ShapeID_1507" transform="matrix(0.705882, 0, 0, 0.705882, 298, 58)" >
 <clipPath  id="PathID2435_ClipPathURL" clip-rule="nonzero">
<path d="M22.8 -32C23.75 -30.55 24.5 -28.75 25.05 -26.6C25.6 -24.5 25.9 -21.6 25.9 -18C25.9 -13.7 25.45 -10.25 24.55 -7.6C23.7 -5 22.4 -2.95 20.6 -1.5C18.9 -0.1 16.7 0.6 14 0.6C10.5 0.6 7.7 -0.65 5.7 -3.15C3.3 -6.15 2.1 -11.1 2.1 -18C2.1 -22.3 2.5 -25.75 3.4 -28.4C4.3 -31 5.6 -33.05 7.35 -34.5C9.1 -35.9 11.3 -36.65 14 -36.65C15.9 -36.65 17.6 -36.25 19.1 -35.45C20.6 -34.65 21.8 -33.5 22.8 -32M19.15 -6.05C20.55 -8 21.3 -12 21.3 -18C21.3 -24 20.6 -27.95 19.2 -29.95C17.8 -31.95 16.05 -32.95 13.95 -32.95C11.9 -32.95 10.25 -32.1 9 -30.3C7.5 -28.1 6.7 -24 6.7 -18C6.7 -12 7.4 -8.05 8.8 -6.05C10.2 -4.1 11.9 -3.1 14 -3.1C16 -3.1 17.75 -4.05 19.15 -6.05"/>
</clipPath>
<path 
style="clip-path:url(#PathID2435_ClipPathURL);fill:#000000;fill-opacity:1" d="M22.8 -32C23.75 -30.55 24.5 -28.75 25.05 -26.6C25.6 -24.5 25.9 -21.6 25.9 -18C25.9 -13.7 25.45 -10.25 24.55 -7.6C23.7 -5 22.4 -2.95 20.6 -1.5C18.9 -0.1 16.7 0.6 14 0.6C10.5 0.6 7.7 -0.65 5.7 -3.15C3.3 -6.15 2.1 -11.1 2.1 -18C2.1 -22.3 2.5 -25.75 3.4 -28.4C4.3 -31 5.6 -33.05 7.35 -34.5C9.1 -35.9 11.3 -36.65 14 -36.65C15.9 -36.65 17.6 -36.25 19.1 -35.45C20.6 -34.65 21.8 -33.5 22.8 -32" />
</g>
<g id="ShapeID_1508" transform="matrix(0.705882, 0, 0, 0.705882, 346, 58)" >
<path 
style="fill:#000000;fill-opacity:1" d="M10.2 -25.45C8.5 -24.45 6.95 -23.65 5.55 -23.15L5.55 -27.45C8.05 -28.65 10.2 -30.05 12.1 -31.75C13.95 -33.4 15.3 -35.05 16.1 -36.65L19 -36.65L19 0L14.5 0L14.5 -28.55C13.4 -27.55 12 -26.5 10.2 -25.45" />
</g>
<g id="ShapeID_1509" transform="matrix(0.705882, 0, 0, 0.705882, 394, 58)" >
<path 
style="fill:#000000;fill-opacity:1" d="M8.9 -31C7.6 -29.7 6.95 -27.95 6.95 -25.65L2.35 -26.1C2.65 -29.5 3.8 -32.15 5.9 -33.95C7.95 -35.75 10.7 -36.65 14.2 -36.65C17.7 -36.65 20.45 -35.7 22.5 -33.7C24.55 -31.8 25.6 -29.4 25.6 -26.5C25.6 -25.05 25.3 -23.6 24.7 -22.15C24.1 -20.75 23.1 -19.3 21.7 -17.7C20.3 -16.2 18 -14.05 14.8 -11.3C12.1 -9.05 10.4 -7.5 9.6 -6.7C8.85 -5.9 8.2 -5.1 7.7 -4.3L25.65 -4.3L25.65 0L1.5 0C1.5 -1.05 1.6 -2.1 2 -3.1C2.6 -4.7 3.6 -6.35 4.95 -7.95C6.3 -9.55 8.25 -11.35 10.85 -13.45C14.75 -16.7 17.45 -19.3 18.85 -21.2C20.25 -23.1 21 -24.9 21 -26.6C21 -28.35 20.35 -29.85 19.05 -31.1C17.8 -32.3 16.15 -32.95 14.1 -32.95C11.95 -32.95 10.2 -32.3 8.9 -31" />
</g>
<g id="ShapeID_1510" transform="matrix(0.705882, 0, 0, 0.705882, 442, 58)" >
<path 
style="fill:#000000;fill-opacity:1" d="M13.65 -32.95C11.95 -32.95 10.5 -32.4 9.3 -31.3C8.15 -30.2 7.4 -28.6 7.1 -26.4L2.6 -27.2C3.1 -30.2 4.35 -32.5 6.3 -34.15C8.2 -35.8 10.65 -36.65 13.55 -36.65C15.55 -36.65 17.35 -36.25 19.05 -35.35C20.7 -34.5 22 -33.35 22.9 -31.85C23.8 -30.4 24.25 -28.85 24.25 -27.15C24.25 -25.6 23.85 -24.15 22.95 -22.85C22.15 -21.55 20.9 -20.55 19.2 -19.8C21.35 -19.3 23.05 -18.3 24.25 -16.7C25.45 -15.15 26.05 -13.2 26.05 -10.8C26.05 -7.6 24.9 -4.9 22.55 -2.7C20.25 -0.5 17.3 0.6 13.75 0.6C10.55 0.6 7.85 -0.35 5.7 -2.25C3.6 -4.15 2.45 -6.6 2.15 -9.7L6.65 -10.3C7.15 -7.75 8 -5.9 9.25 -4.75C10.45 -3.65 11.95 -3.1 13.75 -3.1C15.85 -3.1 17.65 -3.8 19.1 -5.25C20.55 -6.7 21.3 -8.5 21.3 -10.7C21.3 -12.7 20.65 -14.4 19.25 -15.75C17.95 -17.05 16.25 -17.75 14.15 -17.75C13.3 -17.75 12.25 -17.6 11 -17.3L11.5 -21.25C11.75 -21.25 12 -21.2 12.2 -21.2C14.1 -21.2 15.8 -21.65 17.35 -22.65C18.85 -23.65 19.65 -25.15 19.65 -27.25C19.65 -28.85 19.1 -30.2 17.95 -31.3C16.85 -32.4 15.45 -32.95 13.65 -32.95" />
</g>
<g id="ShapeID_1511" transform="matrix(0.705882, 0, 0, 0.705882, 10, 106)" >
 <clipPath  id="PathID2440_ClipPathURL" clip-rule="nonzero">
<path d="M17.3 -36.5L20.95 -36.5L20.95 -12.85L25.9 -12.85L25.9 -8.75L20.95 -8.75L20.95 0L16.45 0L16.45 -8.75L0.6 -8.75L0.6 -12.85L17.3 -36.5M16.45 -12.85L16.45 -29.2L5 -12.85L16.45 -12.85"/>
</clipPath>
<path 
style="clip-path:url(#PathID2440_ClipPathURL);fill:#000000;fill-opacity:1" d="M17.3 -36.5L20.95 -36.5L20.95 -12.85L25.9 -12.85L25.9 -8.75L20.95 -8.75L20.95 0L16.45 0L16.45 -8.75L0.6 -8.75L0.6 -12.85L17.3 -36.5" />
</g>
<g id="ShapeID_1512" transform="matrix(0.705882, 0, 0, 0.705882, 58, 106)" >
<path 
style="fill:#000000;fill-opacity:1" d="M7.1 -16.7L2.9 -17.3L6.45 -36.05L24.6 -36.05L24.6 -31.75L10 -31.75L8 -21.95C10.2 -23.45 12.5 -24.25 14.9 -24.25C18.1 -24.25 20.8 -23.15 23 -20.9C25.2 -18.7 26.3 -15.9 26.3 -12.4C26.3 -9.1 25.35 -6.25 23.4 -3.8C21.1 -0.9 17.9 0.6 13.8 0.6C10.5 0.6 7.75 -0.3 5.65 -2.15C3.55 -4 2.4 -6.5 2.1 -9.6L6.8 -9.95C7.1 -7.65 7.9 -5.95 9.2 -4.8C10.45 -3.7 12 -3.1 13.8 -3.1C16 -3.1 17.8 -3.9 19.3 -5.5C20.8 -7.1 21.55 -9.3 21.55 -12C21.55 -14.55 20.85 -16.55 19.4 -18.05C18 -19.55 16.1 -20.3 13.75 -20.3C12.3 -20.3 11 -19.95 9.8 -19.25C8.65 -18.6 7.75 -17.75 7.1 -16.7" />
</g>
<g id="ShapeID_1513" transform="matrix(0.705882, 0, 0, 0.705882, 106, 106)" >
 <clipPath  id="PathID2443_ClipPathURL" clip-rule="nonzero">
<path d="M22.85 -20.4C24.95 -18.2 26.05 -15.35 26.05 -11.85C26.05 -9.55 25.55 -7.45 24.55 -5.45C23.55 -3.5 22.2 -2 20.45 -0.95C18.75 0.05 16.75 0.6 14.55 0.6C10.85 0.6 7.8 -0.75 5.4 -3.5C3.1 -6.2 1.9 -10.75 1.9 -17.05C1.9 -24.1 3.2 -29.25 5.8 -32.45C8.1 -35.25 11.15 -36.65 15.05 -36.65C17.9 -36.65 20.25 -35.85 22.1 -34.2C23.95 -32.6 25.05 -30.4 25.45 -27.55L21 -27.2C20.6 -28.9 20 -30.2 19.25 -31C18.05 -32.3 16.55 -32.95 14.75 -32.95C13.35 -32.95 12.05 -32.55 10.95 -31.75C9.55 -30.75 8.45 -29.25 7.6 -27.25C6.8 -25.3 6.4 -22.5 6.35 -18.8C7.4 -20.45 8.7 -21.7 10.3 -22.5C11.85 -23.3 13.5 -23.7 15.2 -23.7C18.2 -23.7 20.75 -22.6 22.85 -20.4M19.4 -5.35C20.75 -6.85 21.45 -8.95 21.45 -11.6C21.45 -14.1 20.8 -16.05 19.4 -17.55C18.1 -19 16.4 -19.75 14.3 -19.75C12.3 -19.75 10.55 -19.05 9.15 -17.55C7.75 -16.1 7.05 -14.2 7.05 -11.85C7.05 -10.3 7.35 -8.8 8 -7.4C8.65 -6 9.55 -4.95 10.75 -4.2C11.9 -3.5 13.15 -3.1 14.5 -3.1C16.4 -3.1 18 -3.85 19.4 -5.35"/>
</clipPath>
<path 
style="clip-path:url(#PathID2443_ClipPathURL);fill:#000000;fill-opacity:1" d="M22.85 -20.4C24.95 -18.2 26.05 -15.35 26.05 -11.85C26.05 -9.55 25.55 -7.45 24.55 -5.45C23.55 -3.5 22.2 -2 20.45 -0.95C18.75 0.05 16.75 0.6 14.55 0.6C10.85 0.6 7.8 -0.75 5.4 -3.5C3.1 -6.2 1.9 -10.75 1.9 -17.05C1.9 -24.1 3.2 -29.25 5.8 -32.45C8.1 -35.25 11.15 -36.65 15.05 -36.65C17.9 -36.65 20.25 -35.85 22.1 -34.2C23.95 -32.6 25.05 -30.4 25.45 -27.55L21 -27.2C20.6 -28.9 20 -30.2 19.25 -31C18.05 -32.3 16.55 -32.95 14.75 -32.95C13.35 -32.95 12.05 -32.55 10.95 -31.75C9.55 -30.75 8.45 -29.25 7.6 -27.25C6.8 -25.3 6.4 -22.5 6.35 -18.8C7.4 -20.45 8.7 -21.7 10.3 -22.5C11.85 -23.3 13.5 -23.7 15.2 -23.7C18.2 -23.7 20.75 -22.6 22.85 -20.4" />
</g>
<g id="ShapeID_1514" transform="matrix(0.705882, 0, 0, 0.705882, 154, 106)" >
<path 
style="fill:#000000;fill-opacity:1" d="M13.8 -10C12.9 -7 12.35 -3.65 12.1 0L7.5 0C7.5 -2.85 8.05 -6.3 9.15 -10.4C10.25 -14.45 11.8 -18.35 13.8 -22.15C15.8 -25.95 17.95 -29.15 20.25 -31.75L2.4 -31.75L2.4 -36.05L26 -36.05L26 -32.55C23.7 -30.1 21.35 -26.8 19.05 -22.65C16.8 -18.55 15.05 -14.35 13.8 -10" />
</g>
<g id="ShapeID_1515" transform="matrix(0.705882, 0, 0, 0.705882, 202, 106)" >
 <clipPath  id="PathID2446_ClipPathURL" clip-rule="nonzero">
<path d="M23.25 -22.65C22.35 -21.45 21 -20.45 19.2 -19.75C21.4 -19.05 23.1 -17.85 24.3 -16.2C25.5 -14.6 26.1 -12.7 26.1 -10.4C26.1 -7.3 25 -4.7 22.75 -2.55C20.55 -0.45 17.65 0.6 14.05 0.6C10.45 0.6 7.55 -0.45 5.35 -2.55C3.15 -4.65 2.05 -7.35 2.05 -10.55C2.05 -12.9 2.65 -14.9 3.85 -16.5C5.05 -18.1 6.75 -19.15 8.95 -19.75C7.1 -20.45 5.7 -21.4 4.8 -22.65C3.95 -23.9 3.5 -25.4 3.5 -27.2C3.5 -29.85 4.45 -32.1 6.35 -33.9C8.25 -35.7 10.75 -36.65 13.95 -36.65C17.15 -36.65 19.7 -35.75 21.65 -33.85C23.6 -32 24.6 -29.75 24.6 -27.1C24.6 -25.4 24.15 -23.95 23.25 -22.65M18.35 -23.1C19.45 -24.2 20 -25.5 20 -27.1C20 -28.7 19.45 -30.1 18.3 -31.25C17.2 -32.35 15.75 -32.95 14.05 -32.95C12.35 -32.95 10.9 -32.4 9.75 -31.3C8.65 -30.2 8.1 -28.9 8.1 -27.35C8.1 -25.65 8.65 -24.2 9.75 -23.1C10.85 -22.05 12.3 -21.5 14.1 -21.5C15.8 -21.5 17.25 -22 18.35 -23.1M19.4 -5.15C20.8 -6.5 21.5 -8.25 21.5 -10.4C21.5 -12.5 20.8 -14.3 19.35 -15.7C17.95 -17.1 16.15 -17.85 13.95 -17.85C11.85 -17.85 10.1 -17.15 8.7 -15.75C7.35 -14.35 6.65 -12.6 6.65 -10.5C6.65 -9.25 6.9 -8 7.5 -6.8C8.1 -5.65 9 -4.75 10.2 -4.05C11.4 -3.45 12.7 -3.1 14.1 -3.1C16.2 -3.1 18 -3.75 19.4 -5.15"/>
</clipPath>
<path 
style="clip-path:url(#PathID2446_ClipPathURL);fill:#000000;fill-opacity:1" d="M23.25 -22.65C22.35 -21.45 21 -20.45 19.2 -19.75C21.4 -19.05 23.1 -17.85 24.3 -16.2C25.5 -14.6 26.1 -12.7 26.1 -10.4C26.1 -7.3 25 -4.7 22.75 -2.55C20.55 -0.45 17.65 0.6 14.05 0.6C10.45 0.6 7.55 -0.45 5.35 -2.55C3.15 -4.65 2.05 -7.35 2.05 -10.55C2.05 -12.9 2.65 -14.9 3.85 -16.5C5.05 -18.1 6.75 -19.15 8.95 -19.75C7.1 -20.45 5.7 -21.4 4.8 -22.65C3.95 -23.9 3.5 -25.4 3.5 -27.2C3.5 -29.85 4.45 -32.1 6.35 -33.9C8.25 -35.7 10.75 -36.65 13.95 -36.65C17.15 -36.65 19.7 -35.75 21.65 -33.85C23.6 -32 24.6 -29.75 24.6 -27.1C24.6 -25.4 24.15 -23.95 23.25 -22.65" />
</g>
<g id="ShapeID_1516" transform="matrix(0.705882, 0, 0, 0.705882, 250, 106)" >
 <clipPath  id="PathID2449_ClipPathURL" clip-rule="nonzero">
<path d="M12.85 -12.4C9.85 -12.4 7.3 -13.45 5.2 -15.65C3.15 -17.85 2.1 -20.7 2.1 -24.3C2.1 -28 3.15 -30.95 5.35 -33.25C7.5 -35.5 10.25 -36.65 13.55 -36.65C15.9 -36.65 18.05 -36 20.05 -34.7C22 -33.45 23.5 -31.65 24.55 -29.25C25.55 -26.9 26.1 -23.5 26.1 -19C26.1 -14.35 25.6 -10.65 24.55 -7.85C23.55 -5.1 22.05 -3 20.05 -1.55C18.05 -0.15 15.7 0.6 13 0.6C10.15 0.6 7.8 -0.15 5.95 -1.75C4.15 -3.3 3.1 -5.55 2.75 -8.45L7.05 -8.8C7.35 -6.8 8.05 -5.35 9.1 -4.45C10.1 -3.55 11.45 -3.1 13.1 -3.1C14.45 -3.1 15.65 -3.4 16.7 -4C17.75 -4.6 18.6 -5.45 19.25 -6.5C19.9 -7.55 20.45 -9 20.9 -10.8C21.35 -12.6 21.6 -14.4 21.6 -16.3C21.6 -16.5 21.6 -16.8 21.6 -17.2C20.7 -15.8 19.5 -14.6 17.9 -13.7C16.4 -12.85 14.7 -12.4 12.85 -12.4M8.9 -30.5C7.45 -28.9 6.7 -26.75 6.7 -24.15C6.7 -21.85 7.35 -20 8.75 -18.5C10.15 -17.1 11.85 -16.35 13.95 -16.35C16 -16.35 17.7 -17.05 19.05 -18.5C20.4 -19.95 21.1 -21.95 21.1 -24.55C21.1 -27.1 20.45 -29.15 19.05 -30.65C17.7 -32.15 16.05 -32.95 14.1 -32.95C12.1 -32.95 10.4 -32.15 8.9 -30.5"/>
</clipPath>
<path 
style="clip-path:url(#PathID2449_ClipPathURL);fill:#000000;fill-opacity:1" d="M12.85 -12.4C9.85 -12.4 7.3 -13.45 5.2 -15.65C3.15 -17.85 2.1 -20.7 2.1 -24.3C2.1 -28 3.15 -30.95 5.35 -33.25C7.5 -35.5 10.25 -36.65 13.55 -36.65C15.9 -36.65 18.05 -36 20.05 -34.7C22 -33.45 23.5 -31.65 24.55 -29.25C25.55 -26.9 26.1 -23.5 26.1 -19C26.1 -14.35 25.6 -10.65 24.55 -7.85C23.55 -5.1 22.05 -3 20.05 -1.55C18.05 -0.15 15.7 0.6 13 0.6C10.15 0.6 7.8 -0.15 5.95 -1.75C4.15 -3.3 3.1 -5.55 2.75 -8.45L7.05 -8.8C7.35 -6.8 8.05 -5.35 9.1 -4.45C10.1 -3.55 11.45 -3.1 13.1 -3.1C14.45 -3.1 15.65 -3.4 16.7 -4C17.75 -4.6 18.6 -5.45 19.25 -6.5C19.9 -7.55 20.45 -9 20.9 -10.8C21.35 -12.6 21.6 -14.4 21.6 -16.3C21.6 -16.5 21.6 -16.8 21.6 -17.2C20.7 -15.8 19.5 -14.6 17.9 -13.7C16.4 -12.85 14.7 -12.4 12.85 -12.4" />
</g>
<g id="ShapeID_1517" transform="matrix(0.705882, 0, 0, 0.705882, 298, 106)" >
<path 
style="fill:#000000;fill-opacity:1" d="M4.6 -26.45L9.7 -26.45L9.7 -21.35L4.6 -21.35L4.6 -26.45" />
<path 
style="fill:#000000;fill-opacity:1" d="M4.6 -5.1L9.7 -5.1L9.7 0L4.6 0L4.6 -5.1" />
</g>
<g id="ShapeID_1518" transform="matrix(0.705882, 0, 0, 0.705882, 346, 106)" >
<path 
style="fill:#000000;fill-opacity:1" d="M4.55 -26.45L9.65 -26.45L9.65 -21.35L4.55 -21.35L4.55 -26.45" />
<path 
style="fill:#000000;fill-opacity:1" d="M8.65 4.55C8 5.7 6.95 6.6 5.5 7.25L4.25 5.35C5.15 4.95 5.85 4.35 6.3 3.5C6.75 2.7 7 1.55 7.05 0L4.55 0L4.55 -5.1L9.65 -5.1L9.65 0C9.65 1.9 9.35 3.4 8.65 4.55" />
</g>
<g id="ShapeID_1519" transform="matrix(0.705882, 0, 0, 0.705882, 394, 106)" >
<path 
style="fill:#000000;fill-opacity:1" d="M26.95 -30.35L26.95 -25.85L7.85 -18L26.95 -10.1L26.95 -5.6L2.85 -15.95L2.85 -20.15L26.95 -30.35" />
</g>
<g id="ShapeID_1520" transform="matrix(0.705882, 0, 0, 0.705882, 442, 106)" >
<path 
style="fill:#000000;fill-opacity:1" d="M2.8 -21.45L2.8 -25.65L26.95 -25.65L26.95 -21.45L2.8 -21.45" />
<path 
style="fill:#000000;fill-opacity:1" d="M2.8 -10.4L2.8 -14.6L26.95 -14.6L26.95 -10.4L2.8 -10.4" />
</g>
<g id="ShapeID_1521" transform="matrix(0.705882, 0, 0, 0.705882, 10, 154)" >
<path 
style="fill:#000000;fill-opacity:1" d="M2.85 -10.1L21.9 -18L2.85 -25.85L2.85 -30.35L26.95 -20.15L26.95 -15.95L2.85 -5.6L2.85 -10.1" />
</g>
<g id="ShapeID_1522" transform="matrix(0.705882, 0, 0, 0.705882, 58, 154)" >
<path 
style="fill:#000000;fill-opacity:1" d="M9.35 -31.6C8.1 -30.4 7.3 -28.55 6.9 -26.05L2.3 -26.6C2.7 -29.95 3.9 -32.55 5.95 -34.35C8 -36.15 10.7 -37.1 14.1 -37.1C17.6 -37.1 20.45 -36.15 22.6 -34.15C24.7 -32.25 25.8 -29.9 25.8 -27.15C25.8 -25.55 25.45 -24.1 24.65 -22.7C23.95 -21.4 22.45 -19.75 20.25 -17.85C18.8 -16.55 17.85 -15.6 17.35 -14.95C16.95 -14.35 16.6 -13.65 16.4 -12.85C16.2 -12.05 16.1 -10.8 16.05 -9L11.75 -9C11.75 -9.55 11.7 -10 11.7 -10.3C11.7 -12.05 11.95 -13.55 12.45 -14.85C12.8 -15.8 13.4 -16.8 14.2 -17.8C14.8 -18.5 15.85 -19.5 17.45 -20.9C19 -22.25 20 -23.35 20.5 -24.15C20.95 -24.95 21.2 -25.85 21.2 -26.85C21.2 -28.55 20.55 -30.1 19.15 -31.4C17.8 -32.7 16.15 -33.4 14.15 -33.4C12.25 -33.4 10.65 -32.8 9.35 -31.6" />
<path 
style="fill:#000000;fill-opacity:1" d="M10.95 -5.1L16.05 -5.1L16.05 0L10.95 0L10.95 -5.1" />
</g>
<g id="ShapeID_1523" transform="matrix(0.705882, 0, 0, 0.705882, 106, 154)" >
 <clipPath  id="PathID2461_ClipPathURL" clip-rule="nonzero">
<path d="M9.15 -22.95C7.4 -19.6 6.5 -15.95 6.5 -12.05C6.5 -8 7.35 -4.5 9.15 -1.55C10.9 1.35 13.45 3.55 16.8 4.95C20.1 6.35 23.8 7.05 27.9 7.05C32.2 7.05 35.85 6.35 38.8 4.85C41.75 3.45 43.95 1.65 45.45 -0.45L49.95 -0.45C49.1 1.3 47.65 3.1 45.55 4.9C43.55 6.7 41.1 8.1 38.2 9.15C35.4 10.2 31.95 10.75 27.95 10.75C24.3 10.75 20.9 10.3 17.75 9.35C14.65 8.45 12 7 9.8 5.1C7.65 3.2 6 1 4.85 -1.5C3.5 -4.6 2.8 -8 2.8 -11.65C2.8 -15.7 3.6 -19.55 5.25 -23.25C7.25 -27.75 10.15 -31.2 13.9 -33.6C17.6 -36 22.15 -37.2 27.5 -37.2C31.6 -37.2 35.25 -36.35 38.55 -34.65C41.85 -32.95 44.45 -30.45 46.35 -27.1C47.95 -24.2 48.8 -21.1 48.8 -17.7C48.8 -12.9 47.1 -8.6 43.7 -4.8C40.7 -1.5 37.4 0.2 33.8 0.2C32.65 0.2 31.7 0.05 31 -0.3C30.3 -0.65 29.8 -1.15 29.45 -1.85C29.25 -2.25 29.1 -2.95 29 -4C27.9 -2.8 26.7 -1.8 25.35 -1C24.05 -0.3 22.7 0.1 21.35 0.1C19.85 0.1 18.4 -0.3 17 -1.15C15.65 -2 14.55 -3.35 13.65 -5.15C12.8 -6.95 12.35 -8.9 12.35 -11.1C12.35 -13.7 13 -16.35 14.35 -19.05C15.7 -21.7 17.4 -23.7 19.4 -25.05C21.4 -26.35 23.35 -27.05 25.25 -27.05C26.65 -27.05 28.05 -26.7 29.35 -25.9C30.65 -25.15 31.8 -24 32.75 -22.45L33.65 -26.35L38.1 -26.35L34.5 -9.5C34 -7.15 33.75 -5.85 33.75 -5.6C33.75 -5.15 33.9 -4.75 34.25 -4.4C34.55 -4.1 34.95 -3.95 35.45 -3.95C36.35 -3.95 37.5 -4.45 38.95 -5.45C40.8 -6.75 42.3 -8.55 43.4 -10.8C44.5 -13.05 45.1 -15.35 45.1 -17.75C45.1 -20.55 44.4 -23.15 42.95 -25.55C41.55 -27.95 39.4 -29.9 36.55 -31.35C33.75 -32.8 30.65 -33.55 27.25 -33.55C23.4 -33.55 19.85 -32.65 16.6 -30.8C13.4 -29 10.95 -26.35 9.15 -22.95M30.45 -11.1C31.05 -12.8 31.35 -14.5 31.35 -16.2C31.35 -18.45 30.8 -20.2 29.65 -21.45C28.55 -22.7 27.15 -23.35 25.55 -23.35C24.5 -23.35 23.5 -23.1 22.55 -22.5C21.65 -22 20.7 -21.1 19.8 -19.9C18.95 -18.7 18.25 -17.25 17.7 -15.5C17.2 -13.8 16.95 -12.25 16.95 -10.8C16.95 -8.55 17.45 -6.8 18.55 -5.5C19.6 -4.25 20.85 -3.6 22.25 -3.6C23.15 -3.6 24.15 -3.85 25.15 -4.4C26.15 -4.95 27.15 -5.8 28.1 -6.9C29.05 -8 29.85 -9.4 30.45 -11.1"/>
</clipPath>
<path 
style="clip-path:url(#PathID2461_ClipPathURL);fill:#000000;fill-opacity:1" d="M9.15 -22.95C7.4 -19.6 6.5 -15.95 6.5 -12.05C6.5 -8 7.35 -4.5 9.15 -1.55C10.9 1.35 13.45 3.55 16.8 4.95C20.1 6.35 23.8 7.05 27.9 7.05C32.2 7.05 35.85 6.35 38.8 4.85C41.75 3.45 43.95 1.65 45.45 -0.45L49.95 -0.45C49.1 1.3 47.65 3.1 45.55 4.9C43.55 6.7 41.1 8.1 38.2 9.15C35.4 10.2 31.95 10.75 27.95 10.75C24.3 10.75 20.9 10.3 17.75 9.35C14.65 8.45 12 7 9.8 5.1C7.65 3.2 6 1 4.85 -1.5C3.5 -4.6 2.8 -8 2.8 -11.65C2.8 -15.7 3.6 -19.55 5.25 -23.25C7.25 -27.75 10.15 -31.2 13.9 -33.6C17.6 -36 22.15 -37.2 27.5 -37.2C31.6 -37.2 35.25 -36.35 38.55 -34.65C41.85 -32.95 44.45 -30.45 46.35 -27.1C47.95 -24.2 48.8 -21.1 48.8 -17.7C48.8 -12.9 47.1 -8.6 43.7 -4.8C40.7 -1.5 37.4 0.2 33.8 0.2C32.65 0.2 31.7 0.05 31 -0.3C30.3 -0.65 29.8 -1.15 29.45 -1.85C29.25 -2.25 29.1 -2.95 29 -4C27.9 -2.8 26.7 -1.8 25.35 -1C24.05 -0.3 22.7 0.1 21.35 0.1C19.85 0.1 18.4 -0.3 17 -1.15C15.65 -2 14.55 -3.35 13.65 -5.15C12.8 -6.95 12.35 -8.9 12.35 -11.1C12.35 -13.7 13 -16.35 14.35 -19.05C15.7 -21.7 17.4 -23.7 19.4 -25.05C21.4 -26.35 23.35 -27.05 25.25 -27.05C26.65 -27.05 28.05 -26.7 29.35 -25.9C30.65 -25.15 31.8 -24 32.75 -22.45L33.65 -26.35L38.1 -26.35L34.5 -9.5C34 -7.15 33.75 -5.85 33.75 -5.6C33.75 -5.15 33.9 -4.75 34.25 -4.4C34.55 -4.1 34.95 -3.95 35.45 -3.95C36.35 -3.95 37.5 -4.45 38.95 -5.45C40.8 -6.75 42.3 -8.55 43.4 -10.8C44.5 -13.05 45.1 -15.35 45.1 -17.75C45.1 -20.55 44.4 -23.15 42.95 -25.55C41.55 -27.95 39.4 -29.9 36.55 -31.35C33.75 -32.8 30.65 -33.55 27.25 -33.55C23.4 -33.55 19.85 -32.65 16.6 -30.8C13.4 -29 10.95 -26.35 9.15 -22.95" />
</g>
<g id="ShapeID_1524" transform="matrix(0.705882, 0, 0, 0.705882, 154, 154)" >
 <clipPath  id="PathID2463_ClipPathURL" clip-rule="nonzero">
<path d="M34.1 0L28.6 0L24.35 -11.05L9 -11.05L5.05 0L-0.1 0L13.85 -36.5L19.15 -36.5L34.1 0M19 -25.1C17.9 -28.15 17 -30.7 16.4 -32.7C15.9 -30.35 15.25 -28 14.4 -25.7L10.4 -15L22.85 -15L19 -25.1"/>
</clipPath>
<path 
style="clip-path:url(#PathID2463_ClipPathURL);fill:#000000;fill-opacity:1" d="M34.1 0L28.6 0L24.35 -11.05L9 -11.05L5.05 0L-0.1 0L13.85 -36.5L19.15 -36.5L34.1 0" />
</g>
<g id="ShapeID_1525" transform="matrix(0.705882, 0, 0, 0.705882, 202, 154)" >
 <clipPath  id="PathID2465_ClipPathURL" clip-rule="nonzero">
<path d="M28.25 -22.7C27.45 -21.35 26.15 -20.25 24.45 -19.4C26.65 -18.75 28.3 -17.65 29.5 -16.05C30.7 -14.55 31.3 -12.7 31.3 -10.55C31.3 -8.85 30.95 -7.3 30.2 -5.8C29.5 -4.35 28.6 -3.2 27.5 -2.4C26.45 -1.6 25.1 -1 23.5 -0.6C21.9 -0.2 19.95 0 17.65 0L3.75 0L3.75 -36.5L17.4 -36.5C20.2 -36.5 22.4 -36.15 24.1 -35.35C25.8 -34.65 27.1 -33.5 28.1 -31.95C29.05 -30.45 29.55 -28.85 29.55 -27.15C29.55 -25.6 29.15 -24.1 28.25 -22.7M23.85 -23.35C24.45 -24.2 24.8 -25.25 24.8 -26.55C24.8 -27.75 24.5 -28.85 23.9 -29.75C23.35 -30.65 22.5 -31.3 21.4 -31.65C20.35 -32 18.5 -32.2 15.85 -32.2L8.6 -32.2L8.6 -21.15L16.45 -21.15C18.55 -21.15 20.1 -21.25 21.05 -21.55C22.25 -21.9 23.2 -22.5 23.85 -23.35M25.55 -7.45C26.05 -8.35 26.3 -9.35 26.3 -10.55C26.3 -11.9 25.95 -13.1 25.25 -14.1C24.55 -15.1 23.6 -15.8 22.35 -16.2C21.15 -16.6 19.35 -16.85 17 -16.85L8.6 -16.85L8.6 -4.3L17.65 -4.3C19.2 -4.3 20.3 -4.35 20.95 -4.45C22.05 -4.65 22.95 -4.95 23.7 -5.45C24.45 -5.9 25.05 -6.55 25.55 -7.45"/>
</clipPath>
<path 
style="clip-path:url(#PathID2465_ClipPathURL);fill:#000000;fill-opacity:1" d="M28.25 -22.7C27.45 -21.35 26.15 -20.25 24.45 -19.4C26.65 -18.75 28.3 -17.65 29.5 -16.05C30.7 -14.55 31.3 -12.7 31.3 -10.55C31.3 -8.85 30.95 -7.3 30.2 -5.8C29.5 -4.35 28.6 -3.2 27.5 -2.4C26.45 -1.6 25.1 -1 23.5 -0.6C21.9 -0.2 19.95 0 17.65 0L3.75 0L3.75 -36.5L17.4 -36.5C20.2 -36.5 22.4 -36.15 24.1 -35.35C25.8 -34.65 27.1 -33.5 28.1 -31.95C29.05 -30.45 29.55 -28.85 29.55 -27.15C29.55 -25.6 29.15 -24.1 28.25 -22.7" />
</g>
<g id="ShapeID_1526" transform="matrix(0.705882, 0, 0, 0.705882, 250, 154)" >
<path 
style="fill:#000000;fill-opacity:1" d="M29 -34.35C31.5 -32.5 33.25 -29.9 34.25 -26.5L29.5 -25.35C28.65 -28 27.4 -29.95 25.75 -31.15C24.15 -32.35 22.15 -33 19.7 -33C16.9 -33 14.55 -32.35 12.65 -30.95C10.75 -29.65 9.45 -27.85 8.65 -25.55C7.95 -23.3 7.55 -20.95 7.55 -18.55C7.55 -15.45 8 -12.75 8.9 -10.4C9.8 -8.1 11.2 -6.4 13.1 -5.25C15 -4.15 17.05 -3.55 19.3 -3.55C22 -3.55 24.25 -4.3 26.15 -5.85C28.05 -7.4 29.3 -9.7 30 -12.8L34.85 -11.6C33.85 -7.65 32 -4.6 29.35 -2.5C26.75 -0.45 23.5 0.6 19.7 0.6C15.8 0.6 12.6 -0.2 10.1 -1.8C7.65 -3.4 5.75 -5.7 4.45 -8.75C3.2 -11.75 2.55 -15 2.55 -18.5C2.55 -22.3 3.25 -25.65 4.7 -28.45C6.15 -31.25 8.2 -33.4 10.9 -34.9C13.6 -36.4 16.55 -37.15 19.8 -37.15C23.4 -37.15 26.5 -36.25 29 -34.35" />
</g>
<g id="ShapeID_1527" transform="matrix(0.705882, 0, 0, 0.705882, 298, 154)" >
 <clipPath  id="PathID2469_ClipPathURL" clip-rule="nonzero">
<path d="M32.7 -27.1C33.65 -24.6 34.15 -21.7 34.15 -18.4C34.15 -15.65 33.85 -13.2 33.15 -11.05C32.55 -8.95 31.7 -7.15 30.65 -5.75C29.65 -4.35 28.55 -3.25 27.35 -2.4C26.15 -1.6 24.7 -1 22.95 -0.6C21.25 -0.2 19.3 0 17.1 0L3.95 0L3.95 -36.5L16.5 -36.5C19.3 -36.5 21.5 -36.35 23 -35.95C25.1 -35.5 26.85 -34.65 28.35 -33.35C30.25 -31.75 31.7 -29.65 32.7 -27.1M28.15 -11.45C28.8 -13.35 29.15 -15.7 29.15 -18.5C29.15 -22.3 28.55 -25.25 27.25 -27.3C26 -29.35 24.5 -30.75 22.7 -31.45C21.4 -31.95 19.35 -32.2 16.45 -32.2L8.8 -32.2L8.8 -4.3L16.55 -4.3C18.95 -4.3 20.8 -4.5 22.2 -4.95C23.55 -5.35 24.65 -6 25.5 -6.85C26.6 -7.95 27.5 -9.5 28.15 -11.45"/>
</clipPath>
<path 
style="clip-path:url(#PathID2469_ClipPathURL);fill:#000000;fill-opacity:1" d="M32.7 -27.1C33.65 -24.6 34.15 -21.7 34.15 -18.4C34.15 -15.65 33.85 -13.2 33.15 -11.05C32.55 -8.95 31.7 -7.15 30.65 -5.75C29.65 -4.35 28.55 -3.25 27.35 -2.4C26.15 -1.6 24.7 -1 22.95 -0.6C21.25 -0.2 19.3 0 17.1 0L3.95 0L3.95 -36.5L16.5 -36.5C19.3 -36.5 21.5 -36.35 23 -35.95C25.1 -35.5 26.85 -34.65 28.35 -33.35C30.25 -31.75 31.7 -29.65 32.7 -27.1" />
</g>
<g id="ShapeID_1528" transform="matrix(0.705882, 0, 0, 0.705882, 346, 154)" >
<path 
style="fill:#000000;fill-opacity:1" d="M8.9 -21.05L29.05 -21.05L29.05 -16.75L8.9 -16.75L8.9 -4.3L31.25 -4.3L31.25 0L4.05 0L4.05 -36.5L30.4 -36.5L30.4 -32.2L8.9 -32.2L8.9 -21.05" />
</g>
<g id="ShapeID_1529" transform="matrix(0.705882, 0, 0, 0.705882, 394, 154)" >
<path 
style="fill:#000000;fill-opacity:1" d="M9.05 -32.2L9.05 -20.9L26.15 -20.9L26.15 -16.6L9.05 -16.6L9.05 0L4.2 0L4.2 -36.5L28.8 -36.5L28.8 -32.2L9.05 -32.2" />
</g>
<g id="ShapeID_1530" transform="matrix(0.705882, 0, 0, 0.705882, 442, 154)" >
<path 
style="fill:#000000;fill-opacity:1" d="M35.9 -26.25L31.5 -25.05C31 -26.9 30.3 -28.35 29.45 -29.45C28.65 -30.5 27.5 -31.35 26 -32C24.5 -32.65 22.85 -33 20.95 -33C18.75 -33 16.85 -32.65 15.25 -31.95C13.65 -31.3 12.35 -30.4 11.35 -29.3C10.4 -28.2 9.65 -27 9.05 -25.7C8.15 -23.45 7.7 -21 7.7 -18.35C7.7 -15.1 8.25 -12.35 9.35 -10.15C10.45 -7.95 12.1 -6.35 14.25 -5.25C16.35 -4.25 18.65 -3.7 21.05 -3.7C23.1 -3.7 25.15 -4.1 27.15 -4.9C29.15 -5.7 30.65 -6.55 31.7 -7.45L31.7 -14.3L21 -14.3L21 -18.6L36.45 -18.6L36.45 -5.05C34.05 -3.2 31.6 -1.8 29.05 -0.8C26.55 0.1 24 0.6 21.3 0.6C17.75 0.6 14.5 -0.15 11.55 -1.7C8.65 -3.2 6.4 -5.45 4.9 -8.35C3.45 -11.25 2.7 -14.5 2.7 -18.1C2.7 -21.6 3.4 -24.9 4.9 -28C6.4 -31.1 8.5 -33.4 11.3 -34.9C14.1 -36.4 17.3 -37.15 20.95 -37.15C23.55 -37.15 25.95 -36.75 28.1 -35.85C30.2 -35 31.9 -33.8 33.1 -32.25C34.3 -30.75 35.25 -28.75 35.9 -26.25" />
</g>
<g id="ShapeID_1531" transform="matrix(0.705882, 0, 0, 0.705882, 10, 202)" >
<path 
style="fill:#000000;fill-opacity:1" d="M27.9 -36.5L32.75 -36.5L32.75 0L27.9 0L27.9 -17.2L8.95 -17.2L8.95 0L4.1 0L4.1 -36.5L8.95 -36.5L8.95 -21.5L27.9 -21.5L27.9 -36.5" />
</g>
<g id="ShapeID_1532" transform="matrix(0.705882, 0, 0, 0.705882, 58, 202)" >
<path 
style="fill:#000000;fill-opacity:1" d="M4.75 -36.5L9.6 -36.5L9.6 0L4.75 0L4.75 -36.5" />
</g>
<g id="ShapeID_1533" transform="matrix(0.705882, 0, 0, 0.705882, 106, 202)" >
<path 
style="fill:#000000;fill-opacity:1" d="M16.7 -11.35L16.7 -36.5L21.55 -36.5L21.55 -11.6C21.55 -8.6 21.2 -6.2 20.4 -4.5C19.7 -2.85 18.5 -1.6 16.9 -0.7C15.3 0.15 13.45 0.6 11.25 0.6C8.05 0.6 5.6 -0.3 3.9 -2.15C2.2 -3.95 1.35 -6.7 1.45 -10.35L5.8 -10.95C5.9 -8.15 6.4 -6.25 7.35 -5.2C8.25 -4.2 9.55 -3.7 11.2 -3.7C12.4 -3.7 13.45 -3.95 14.35 -4.5C15.25 -5.05 15.85 -5.8 16.2 -6.75C16.5 -7.7 16.7 -9.25 16.7 -11.35" />
</g>
<g id="ShapeID_1534" transform="matrix(0.705882, 0, 0, 0.705882, 154, 202)" >
<path 
style="fill:#000000;fill-opacity:1" d="M33.3 -36.5L17.95 -21.65L33.95 0L27.55 0L14.55 -18.35L8.6 -12.65L8.6 0L3.75 0L3.75 -36.5L8.6 -36.5L8.6 -18.4L26.7 -36.5L33.3 -36.5" />
</g>
<g id="ShapeID_1535" transform="matrix(0.705882, 0, 0, 0.705882, 202, 202)" >
<path 
style="fill:#000000;fill-opacity:1" d="M8.6 -36.5L8.6 -4.3L26.55 -4.3L26.55 0L3.75 0L3.75 -36.5L8.6 -36.5" />
</g>
<g id="ShapeID_1536" transform="matrix(0.705882, 0, 0, 0.705882, 250, 202)" >
<path 
style="fill:#000000;fill-opacity:1" d="M23.35 -11.05L32.15 -36.5L38.65 -36.5L38.65 0L34 0L34 -30.55L23.3 0L18.95 0L8.45 -31.05L8.45 0L3.8 0L3.8 -36.5L11 -36.5L19.65 -10.65C20.45 -8.25 21 -6.4 21.4 -5.2C21.8 -6.5 22.45 -8.45 23.35 -11.05" />
</g>
<g id="ShapeID_1537" transform="matrix(0.705882, 0, 0, 0.705882, 298, 202)" >
<path 
style="fill:#000000;fill-opacity:1" d="M28 -36.5L32.65 -36.5L32.65 0L27.65 0L8.55 -28.6L8.55 0L3.9 0L3.9 -36.5L8.85 -36.5L28 -7.85L28 -36.5" />
</g>
<g id="ShapeID_1538" transform="matrix(0.705882, 0, 0, 0.705882, 346, 202)" >
 <clipPath  id="PathID2481_ClipPathURL" clip-rule="nonzero">
<path d="M37.35 -18.2C37.35 -14.5 36.6 -11.2 35.1 -8.25C33.6 -5.35 31.5 -3.15 28.75 -1.65C26.05 -0.15 23.1 0.6 19.9 0.6C16.45 0.6 13.35 -0.2 10.65 -1.85C7.95 -3.5 5.9 -5.75 4.5 -8.65C3.15 -11.5 2.45 -14.55 2.45 -17.75C2.45 -23.8 4.05 -28.55 7.3 -32C10.55 -35.4 14.75 -37.15 19.9 -37.15C23.25 -37.15 26.3 -36.35 29 -34.7C31.7 -33.1 33.75 -30.85 35.2 -27.95C36.6 -25.1 37.35 -21.85 37.35 -18.2M32.35 -18.25C32.35 -21.2 31.85 -23.8 30.8 -26C29.8 -28.2 28.35 -29.9 26.4 -31.15C24.5 -32.35 22.35 -33 19.95 -33C16.55 -33 13.6 -31.85 11.1 -29.45C8.7 -27.15 7.45 -23.2 7.45 -17.7C7.45 -13.3 8.6 -9.85 10.95 -7.3C13.3 -4.8 16.25 -3.55 19.85 -3.55C23.45 -3.55 26.45 -4.8 28.8 -7.35C31.15 -9.9 32.35 -13.55 32.35 -18.25"/>
</clipPath>
<path 
style="clip-path:url(#PathID2481_ClipPathURL);fill:#000000;fill-opacity:1" d="M37.35 -18.2C37.35 -14.5 36.6 -11.2 35.1 -8.25C33.6 -5.35 31.5 -3.15 28.75 -1.65C26.05 -0.15 23.1 0.6 19.9 0.6C16.45 0.6 13.35 -0.2 10.65 -1.85C7.95 -3.5 5.9 -5.75 4.5 -8.65C3.15 -11.5 2.45 -14.55 2.45 -17.75C2.45 -23.8 4.05 -28.55 7.3 -32C10.55 -35.4 14.75 -37.15 19.9 -37.15C23.25 -37.15 26.3 -36.35 29 -34.7C31.7 -33.1 33.75 -30.85 35.2 -27.95C36.6 -25.1 37.35 -21.85 37.35 -18.2" />
</g>
<g id="ShapeID_1539" transform="matrix(0.705882, 0, 0, 0.705882, 394, 202)" >
 <clipPath  id="PathID2483_ClipPathURL" clip-rule="nonzero">
<path d="M27.75 -34.4C28.95 -33.6 29.9 -32.4 30.65 -30.9C31.4 -29.4 31.8 -27.75 31.8 -25.9C31.8 -22.8 30.8 -20.2 28.8 -18.05C26.85 -15.95 23.3 -14.85 18.1 -14.85L8.8 -14.85L8.8 0L3.95 0L3.95 -36.5L17.7 -36.5C20.1 -36.5 21.95 -36.4 23.25 -36.15C25.05 -35.85 26.55 -35.3 27.75 -34.4M26.8 -25.75C26.8 -27.25 26.4 -28.6 25.6 -29.7C24.85 -30.8 23.85 -31.5 22.6 -31.85C21.8 -32.05 20.3 -32.2 18.1 -32.2L8.8 -32.2L8.8 -19.15L18.2 -19.15C21.3 -19.15 23.5 -19.7 24.8 -20.85C26.1 -22 26.8 -23.65 26.8 -25.75"/>
</clipPath>
<path 
style="clip-path:url(#PathID2483_ClipPathURL);fill:#000000;fill-opacity:1" d="M27.75 -34.4C28.95 -33.6 29.9 -32.4 30.65 -30.9C31.4 -29.4 31.8 -27.75 31.8 -25.9C31.8 -22.8 30.8 -20.2 28.8 -18.05C26.85 -15.95 23.3 -14.85 18.1 -14.85L8.8 -14.85L8.8 0L3.95 0L3.95 -36.5L17.7 -36.5C20.1 -36.5 21.95 -36.4 23.25 -36.15C25.05 -35.85 26.55 -35.3 27.75 -34.4" />
</g>
<g id="ShapeID_1540" transform="matrix(0.705882, 0, 0, 0.705882, 442, 202)" >
 <clipPath  id="PathID2485_ClipPathURL" clip-rule="nonzero">
<path d="M2.2 -18.25C2.2 -21.85 2.9 -25.1 4.35 -28.05C5.8 -31 7.9 -33.25 10.6 -34.8C13.3 -36.35 16.3 -37.15 19.65 -37.15C23 -37.15 26.05 -36.35 28.75 -34.75C31.45 -33.15 33.5 -30.9 34.95 -28C36.35 -25.15 37.1 -21.9 37.1 -18.25C37.1 -15.25 36.65 -12.55 35.7 -10.15C34.8 -7.8 33.45 -5.7 31.55 -3.9C33.8 -2.4 35.9 -1.25 37.8 -0.5L36.35 2.85C33.75 1.95 31.1 0.45 28.5 -1.6C25.8 -0.15 22.85 0.6 19.55 0.6C16.25 0.6 13.25 -0.15 10.55 -1.75C7.9 -3.35 5.85 -5.55 4.35 -8.45C2.95 -11.35 2.2 -14.6 2.2 -18.25M19.7 -33C16.1 -33 13.15 -31.8 10.75 -29.3C8.4 -26.85 7.2 -23.15 7.2 -18.25C7.2 -13.55 8.35 -9.9 10.7 -7.35C13 -4.85 16 -3.55 19.7 -3.55C21.4 -3.55 23 -3.85 24.55 -4.5C23.05 -5.45 21.45 -6.15 19.75 -6.6L20.95 -10.1C23.7 -9.35 26 -8.2 27.85 -6.6C30.65 -9.2 32.1 -13.1 32.1 -18.3C32.1 -21.2 31.6 -23.8 30.55 -26C29.55 -28.2 28.1 -29.9 26.15 -31.15C24.25 -32.35 22.1 -33 19.7 -33"/>
</clipPath>
<path 
style="clip-path:url(#PathID2485_ClipPathURL);fill:#000000;fill-opacity:1" d="M2.2 -18.25C2.2 -21.85 2.9 -25.1 4.35 -28.05C5.8 -31 7.9 -33.25 10.6 -34.8C13.3 -36.35 16.3 -37.15 19.65 -37.15C23 -37.15 26.05 -36.35 28.75 -34.75C31.45 -33.15 33.5 -30.9 34.95 -28C36.35 -25.15 37.1 -21.9 37.1 -18.25C37.1 -15.25 36.65 -12.55 35.7 -10.15C34.8 -7.8 33.45 -5.7 31.55 -3.9C33.8 -2.4 35.9 -1.25 37.8 -0.5L36.35 2.85C33.75 1.95 31.1 0.45 28.5 -1.6C25.8 -0.15 22.85 0.6 19.55 0.6C16.25 0.6 13.25 -0.15 10.55 -1.75C7.9 -3.35 5.85 -5.55 4.35 -8.45C2.95 -11.35 2.2 -14.6 2.2 -18.25" />
</g>
<g id="ShapeID_1541" transform="matrix(0.705882, 0, 0, 0.705882, 10, 250)" >
 <clipPath  id="PathID2487_ClipPathURL" clip-rule="nonzero">
<path d="M25.8 -14.75C27.2 -13.45 28.5 -11.85 29.8 -9.9L36.15 0L30.1 0L25.25 -7.55C23.85 -9.75 22.7 -11.4 21.75 -12.6C20.85 -13.75 20.05 -14.55 19.3 -15.05C18.6 -15.5 17.9 -15.8 17.1 -16C16.6 -16.1 15.7 -16.2 14.45 -16.2L8.85 -16.2L8.85 0L4 0L4 -36.5L20.2 -36.5C23.4 -36.5 25.9 -36.2 27.6 -35.5C29.3 -34.85 30.65 -33.7 31.65 -32C32.65 -30.4 33.2 -28.55 33.2 -26.5C33.2 -23.95 32.35 -21.75 30.65 -19.95C29 -18.2 26.4 -17.1 22.9 -16.6C24.15 -16 25.1 -15.35 25.8 -14.75M27.2 -23.25C27.85 -24.25 28.2 -25.3 28.2 -26.5C28.2 -28.2 27.6 -29.65 26.3 -30.75C25.1 -31.85 23.1 -32.45 20.4 -32.45L8.85 -32.45L8.85 -20.4L19.2 -20.4C21.4 -20.4 23.1 -20.6 24.35 -21.05C25.6 -21.5 26.55 -22.25 27.2 -23.25"/>
</clipPath>
<path 
style="clip-path:url(#PathID2487_ClipPathURL);fill:#000000;fill-opacity:1" d="M25.8 -14.75C27.2 -13.45 28.5 -11.85 29.8 -9.9L36.15 0L30.1 0L25.25 -7.55C23.85 -9.75 22.7 -11.4 21.75 -12.6C20.85 -13.75 20.05 -14.55 19.3 -15.05C18.6 -15.5 17.9 -15.8 17.1 -16C16.6 -16.1 15.7 -16.2 14.45 -16.2L8.85 -16.2L8.85 0L4 0L4 -36.5L20.2 -36.5C23.4 -36.5 25.9 -36.2 27.6 -35.5C29.3 -34.85 30.65 -33.7 31.65 -32C32.65 -30.4 33.2 -28.55 33.2 -26.5C33.2 -23.95 32.35 -21.75 30.65 -19.95C29 -18.2 26.4 -17.1 22.9 -16.6C24.15 -16 25.1 -15.35 25.8 -14.75" />
</g>
<g id="ShapeID_1542" transform="matrix(0.705882, 0, 0, 0.705882, 58, 250)" >
<path 
style="fill:#000000;fill-opacity:1" d="M23.65 -35.8C25.7 -34.95 27.3 -33.65 28.4 -31.95C29.5 -30.3 30.15 -28.4 30.25 -26.25L25.6 -25.9C25.35 -28.15 24.5 -29.85 23.05 -31.05C21.65 -32.25 19.5 -32.85 16.7 -32.85C13.8 -32.85 11.7 -32.3 10.35 -31.2C9.05 -30.15 8.35 -28.85 8.35 -27.35C8.35 -26.05 8.8 -25 9.75 -24.1C10.65 -23.3 13.1 -22.4 17 -21.5C20.9 -20.65 23.6 -19.9 25.1 -19.2C27.2 -18.2 28.8 -16.95 29.8 -15.45C30.8 -13.95 31.35 -12.25 31.35 -10.3C31.35 -8.4 30.8 -6.55 29.65 -4.8C28.55 -3.1 26.95 -1.8 24.85 -0.8C22.8 0.1 20.45 0.6 17.85 0.6C14.55 0.6 11.8 0.15 9.55 -0.8C7.35 -1.75 5.6 -3.2 4.3 -5.15C3.05 -7.05 2.4 -9.25 2.35 -11.75L6.9 -12.15C7.1 -10.35 7.55 -8.8 8.35 -7.6C9.15 -6.45 10.35 -5.5 12.05 -4.75C13.7 -4.05 15.55 -3.7 17.65 -3.7C19.45 -3.7 21.1 -3.95 22.5 -4.5C23.9 -5.05 24.95 -5.8 25.65 -6.75C26.35 -7.7 26.7 -8.75 26.7 -9.9C26.7 -11 26.35 -12 25.65 -12.85C25 -13.7 23.9 -14.45 22.35 -15.05C21.4 -15.4 19.25 -16 15.85 -16.8C12.55 -17.6 10.2 -18.35 8.85 -19.1C7.15 -20 5.85 -21.1 4.95 -22.5C4.15 -23.85 3.7 -25.35 3.7 -27.05C3.7 -28.85 4.2 -30.6 5.25 -32.2C6.25 -33.8 7.8 -35.05 9.8 -35.9C11.8 -36.7 14.05 -37.15 16.5 -37.15C19.2 -37.15 21.55 -36.7 23.65 -35.8" />
</g>
<g id="ShapeID_1543" transform="matrix(0.705882, 0, 0, 0.705882, 106, 250)" >
<path 
style="fill:#000000;fill-opacity:1" d="M1.15 -36.5L30.1 -36.5L30.1 -32.2L18.05 -32.2L18.05 0L13.2 0L13.2 -32.2L1.15 -32.2L1.15 -36.5" />
</g>
<g id="ShapeID_1544" transform="matrix(0.705882, 0, 0, 0.705882, 154, 250)" >
<path 
style="fill:#000000;fill-opacity:1" d="M5.35 -6.25C4.45 -8.45 4 -11.5 4 -15.4L4 -36.5L8.85 -36.5L8.85 -15.4C8.85 -12.25 9.1 -9.9 9.7 -8.4C10.3 -6.9 11.3 -5.75 12.75 -4.95C14.15 -4.15 15.9 -3.75 18 -3.75C21.55 -3.75 24.1 -4.55 25.6 -6.15C27.1 -7.75 27.9 -10.8 27.9 -15.4L27.9 -36.5L32.75 -36.5L32.75 -15.4C32.75 -11.75 32.35 -8.85 31.5 -6.65C30.7 -4.55 29.15 -2.8 26.95 -1.4C24.8 -0.1 21.95 0.6 18.45 0.6C15.05 0.6 12.2 0.05 10 -1.15C7.85 -2.3 6.3 -4 5.35 -6.25" />
</g>
<g id="ShapeID_1545" transform="matrix(0.705882, 0, 0, 0.705882, 202, 250)" >
<path 
style="fill:#000000;fill-opacity:1" d="M14.95 -9.95C15.7 -7.85 16.35 -5.9 16.85 -4C17.4 -6 18.05 -7.95 18.8 -9.95L28.7 -36.5L33.6 -36.5L19.35 0L14.35 0L0.2 -36.5L5.45 -36.5L14.95 -9.95" />
</g>
<g id="ShapeID_1546" transform="matrix(0.705882, 0, 0, 0.705882, 250, 250)" >
<path 
style="fill:#000000;fill-opacity:1" d="M32.3 -18C33.55 -13.4 34.5 -9.1 35.15 -5.1C35.65 -7.4 36.25 -10 36.95 -13L42.7 -36.5L47.6 -36.5L37.6 0L32.85 0L25.2 -27.8C24.55 -30.1 24.15 -31.55 24.05 -32.05C23.65 -30.4 23.3 -29 23 -27.8L15.25 0L10.15 0L0.6 -36.5L5.6 -36.5L11.05 -12.55C11.65 -10.05 12.15 -7.6 12.65 -5.1C13.6 -8.95 14.15 -11.2 14.35 -11.8L21.25 -36.5L27.1 -36.5L32.3 -18" />
</g>
<g id="ShapeID_1547" transform="matrix(0.705882, 0, 0, 0.705882, 298, 250)" >
<path 
style="fill:#000000;fill-opacity:1" d="M27.4 -36.5L32.7 -36.5L20.05 -19.15L33.7 0L27.75 0L18.5 -13C18 -13.7 17.5 -14.45 17 -15.2C16.2 -14 15.65 -13.15 15.25 -12.65L6 0L0.2 0L14.3 -18.95L1.9 -36.5L7.65 -36.5L14.3 -27.15C15.7 -25.25 16.65 -23.75 17.2 -22.7C18 -23.95 19 -25.3 20.1 -26.75L27.4 -36.5" />
</g>
<g id="ShapeID_1548" transform="matrix(0.705882, 0, 0, 0.705882, 346, 250)" >
<path 
style="fill:#000000;fill-opacity:1" d="M13.15 -25.45C14.45 -23.45 15.7 -21.4 16.9 -19.3C18 -21.2 19.3 -23.35 20.9 -25.75L27.95 -36.5L33.6 -36.5L19.05 -15.45L19.05 0L14.2 0L14.2 -15.45L0.15 -36.5L5.95 -36.5L13.15 -25.45" />
</g>
<g id="ShapeID_1549" transform="matrix(0.705882, 0, 0, 0.705882, 394, 250)" >
<path 
style="fill:#000000;fill-opacity:1" d="M3.1 -32.2L3.1 -36.5L29.25 -36.5L29.25 -32.2L8.7 -6.9L6.55 -4.3L29.85 -4.3L29.85 0L1 0L1 -4.45L19.7 -27.85C21 -29.45 22.25 -30.9 23.45 -32.2L3.1 -32.2" />
</g>
<g id="ShapeID_1550" transform="matrix(0.705882, 0, 0, 0.705882, 442, 250)" >
<path 
style="fill:#000000;fill-opacity:1" d="M13.35 -32.8L7.95 -32.8L7.95 6.45L13.35 6.45L13.35 10.15L3.45 10.15L3.45 -36.5L13.35 -36.5L13.35 -32.8" />
</g>
<g id="ShapeID_1551" transform="matrix(0.705882, 0, 0, 0.705882, 10, 298)" >
<path 
style="fill:#000000;fill-opacity:1" d="M0 -37.15L3.6 -37.15L14.2 0.6L10.6 0.6L0 -37.15" />
</g>
<g id="ShapeID_1552" transform="matrix(0.705882, 0, 0, 0.705882, 58, 298)" >
<path 
style="fill:#000000;fill-opacity:1" d="M6.35 6.45L6.35 -32.8L0.95 -32.8L0.95 -36.5L10.85 -36.5L10.85 10.15L0.95 10.15L0.95 6.45L6.35 6.45" />
</g>
<g id="ShapeID_1553" transform="matrix(0.705882, 0, 0, 0.705882, 106, 298)" >
<path 
style="fill:#000000;fill-opacity:1" d="M10.15 -37.15L13.75 -37.15L22.6 -17.2L18.1 -17.2L11.95 -32.05L5.95 -17.2L1.35 -17.2L10.15 -37.15" />
</g>
<g id="ShapeID_1554" transform="matrix(0.705882, 0, 0, 0.705882, 154, 298)" >
<path 
style="fill:#000000;fill-opacity:1" d="M-0.75 6.9L28.9 6.9L28.9 10.15L-0.75 10.15L-0.75 6.9" />
</g>
<g id="ShapeID_1555" transform="matrix(0.705882, 0, 0, 0.705882, 202, 298)" >
<path 
style="fill:#000000;fill-opacity:1" d="M7.9 -29.75L2.15 -36.7L8.15 -36.7L11.5 -29.75L7.9 -29.75" />
</g>
<g id="ShapeID_1556" transform="matrix(0.705882, 0, 0, 0.705882, 250, 298)" >
 <clipPath  id="PathID2503_ClipPathURL" clip-rule="nonzero">
<path d="M13.9 -23.35C11.8 -23.35 10.25 -23 9.2 -22.2C8.2 -21.5 7.5 -20.2 7 -18.3L2.6 -18.9C3 -20.75 3.65 -22.25 4.55 -23.4C5.45 -24.55 6.8 -25.45 8.55 -26.1C10.25 -26.7 12.25 -27.05 14.55 -27.05C16.8 -27.05 18.65 -26.8 20.05 -26.25C21.45 -25.75 22.5 -25.05 23.2 -24.2C23.85 -23.4 24.3 -22.4 24.6 -21.15C24.75 -20.45 24.85 -19.05 24.85 -17.05L24.85 -11.05C24.85 -6.9 24.9 -4.25 25.1 -3.15C25.25 -2.05 25.6 -1 26.2 0L21.5 0C21.1 -0.9 20.8 -2 20.7 -3.3C19.05 -1.9 17.45 -0.85 15.85 -0.25C14.35 0.3 12.7 0.6 10.9 0.6C8 0.6 5.8 -0.1 4.2 -1.5C2.65 -2.9 1.85 -4.75 1.85 -6.95C1.85 -8.25 2.1 -9.4 2.7 -10.5C3.3 -11.55 4.05 -12.4 5.05 -13.05C6 -13.7 7.1 -14.2 8.3 -14.55C9.15 -14.75 10.5 -15 12.3 -15.25C15.9 -15.65 18.6 -16.2 20.3 -16.8C20.3 -17.4 20.35 -17.75 20.35 -17.95C20.35 -19.75 19.95 -21.05 19.05 -21.8C17.9 -22.8 16.2 -23.35 13.9 -23.35M6.65 -7.1C6.65 -5.9 7.1 -4.9 8 -4.1C8.9 -3.3 10.2 -2.9 12 -2.9C13.7 -2.9 15.25 -3.25 16.6 -4C17.95 -4.75 18.95 -5.8 19.6 -7.1C20.05 -8.1 20.3 -9.6 20.3 -11.6L20.35 -13.3C18.7 -12.65 16.25 -12.1 12.95 -11.6C11.15 -11.35 9.85 -11.05 9.05 -10.7C8.3 -10.4 7.7 -9.9 7.25 -9.2C6.85 -8.6 6.65 -7.9 6.65 -7.1"/>
</clipPath>
<path 
style="clip-path:url(#PathID2503_ClipPathURL);fill:#000000;fill-opacity:1" d="M13.9 -23.35C11.8 -23.35 10.25 -23 9.2 -22.2C8.2 -21.5 7.5 -20.2 7 -18.3L2.6 -18.9C3 -20.75 3.65 -22.25 4.55 -23.4C5.45 -24.55 6.8 -25.45 8.55 -26.1C10.25 -26.7 12.25 -27.05 14.55 -27.05C16.8 -27.05 18.65 -26.8 20.05 -26.25C21.45 -25.75 22.5 -25.05 23.2 -24.2C23.85 -23.4 24.3 -22.4 24.6 -21.15C24.75 -20.45 24.85 -19.05 24.85 -17.05L24.85 -11.05C24.85 -6.9 24.9 -4.25 25.1 -3.15C25.25 -2.05 25.6 -1 26.2 0L21.5 0C21.1 -0.9 20.8 -2 20.7 -3.3C19.05 -1.9 17.45 -0.85 15.85 -0.25C14.35 0.3 12.7 0.6 10.9 0.6C8 0.6 5.8 -0.1 4.2 -1.5C2.65 -2.9 1.85 -4.75 1.85 -6.95C1.85 -8.25 2.1 -9.4 2.7 -10.5C3.3 -11.55 4.05 -12.4 5.05 -13.05C6 -13.7 7.1 -14.2 8.3 -14.55C9.15 -14.75 10.5 -15 12.3 -15.25C15.9 -15.65 18.6 -16.2 20.3 -16.8C20.3 -17.4 20.35 -17.75 20.35 -17.95C20.35 -19.75 19.95 -21.05 19.05 -21.8C17.9 -22.8 16.2 -23.35 13.9 -23.35" />
</g>
<g id="ShapeID_1557" transform="matrix(0.705882, 0, 0, 0.705882, 298, 298)" >
 <clipPath  id="PathID2505_ClipPathURL" clip-rule="nonzero">
<path d="M19.65 -26.05C21.1 -25.4 22.3 -24.45 23.25 -23.25C24.2 -22.1 24.95 -20.65 25.5 -18.95C26 -17.3 26.3 -15.5 26.3 -13.6C26.3 -9.1 25.2 -5.6 22.9 -3.1C20.7 -0.65 18 0.6 14.85 0.6C11.75 0.6 9.35 -0.7 7.55 -3.3L7.55 0L3.35 0L3.35 -36.5L7.85 -36.5L7.85 -23.45C9.7 -25.85 12.1 -27.05 15.05 -27.05C16.65 -27.05 18.2 -26.75 19.65 -26.05M19.55 -5.65C20.95 -7.35 21.7 -9.85 21.7 -13.25C21.7 -16.65 21.05 -19.2 19.65 -20.85C18.3 -22.5 16.65 -23.35 14.65 -23.35C12.75 -23.35 11.05 -22.5 9.6 -20.8C8.2 -19.1 7.5 -16.65 7.5 -13.4C7.5 -10.25 7.9 -7.95 8.75 -6.55C10.15 -4.25 12.1 -3.1 14.5 -3.1C16.4 -3.1 18.1 -3.95 19.55 -5.65"/>
</clipPath>
<path 
style="clip-path:url(#PathID2505_ClipPathURL);fill:#000000;fill-opacity:1" d="M19.65 -26.05C21.1 -25.4 22.3 -24.45 23.25 -23.25C24.2 -22.1 24.95 -20.65 25.5 -18.95C26 -17.3 26.3 -15.5 26.3 -13.6C26.3 -9.1 25.2 -5.6 22.9 -3.1C20.7 -0.65 18 0.6 14.85 0.6C11.75 0.6 9.35 -0.7 7.55 -3.3L7.55 0L3.35 0L3.35 -36.5L7.85 -36.5L7.85 -23.45C9.7 -25.85 12.1 -27.05 15.05 -27.05C16.65 -27.05 18.2 -26.75 19.65 -26.05" />
</g>
<g id="ShapeID_1558" transform="matrix(0.705882, 0, 0, 0.705882, 346, 298)" >
<path 
style="fill:#000000;fill-opacity:1" d="M21.1 -24.85C22.9 -23.4 24.1 -21.35 24.65 -18.65L20.3 -18C19.9 -19.75 19.15 -21.1 18.05 -22C17.05 -22.9 15.75 -23.35 14.25 -23.35C12 -23.35 10.15 -22.55 8.75 -20.9C7.35 -19.3 6.65 -16.75 6.65 -13.25C6.65 -9.7 7.3 -7.1 8.65 -5.5C10 -3.9 11.8 -3.1 14 -3.1C15.7 -3.1 17.15 -3.6 18.35 -4.7C19.55 -5.75 20.3 -7.4 20.65 -9.7L25.05 -9.1C24.55 -6.05 23.3 -3.65 21.3 -1.95C19.35 -0.25 16.95 0.6 14.05 0.6C10.45 0.6 7.5 -0.55 5.3 -2.9C3.15 -5.25 2.05 -8.65 2.05 -13.1C2.05 -15.95 2.5 -18.45 3.45 -20.6C4.35 -22.7 5.8 -24.3 7.75 -25.4C9.65 -26.5 11.75 -27.05 14.05 -27.05C16.95 -27.05 19.3 -26.35 21.1 -24.85" />
</g>
<g id="ShapeID_1559" transform="matrix(0.705882, 0, 0, 0.705882, 394, 298)" >
 <clipPath  id="PathID2508_ClipPathURL" clip-rule="nonzero">
<path d="M1.7 -13.2C1.7 -15.8 2.1 -18.2 3 -20.35C3.85 -22.5 5.15 -24.15 6.95 -25.3C8.7 -26.45 10.65 -27.05 12.85 -27.05C14.45 -27.05 15.85 -26.7 17.1 -26C18.3 -25.35 19.35 -24.5 20.15 -23.4L20.15 -36.5L24.65 -36.5L24.65 0L20.5 0L20.5 -3.35C18.8 -0.75 16.35 0.6 13.05 0.6C10.95 0.6 9.05 0.05 7.25 -1.1C5.5 -2.25 4.15 -3.85 3.15 -5.95C2.2 -8.05 1.7 -10.45 1.7 -13.2M18.5 -5.5C19.9 -7.1 20.6 -9.5 20.6 -12.8C20.6 -16.4 19.9 -19.1 18.5 -20.8C17.1 -22.5 15.4 -23.35 13.3 -23.35C11.3 -23.35 9.65 -22.55 8.3 -20.9C7 -19.3 6.3 -16.7 6.3 -13.2C6.3 -9.8 7 -7.3 8.45 -5.6C9.85 -3.95 11.55 -3.1 13.5 -3.1C15.45 -3.1 17.1 -3.9 18.5 -5.5"/>
</clipPath>
<path 
style="clip-path:url(#PathID2508_ClipPathURL);fill:#000000;fill-opacity:1" d="M1.7 -13.2C1.7 -15.8 2.1 -18.2 3 -20.35C3.85 -22.5 5.15 -24.15 6.95 -25.3C8.7 -26.45 10.65 -27.05 12.85 -27.05C14.45 -27.05 15.85 -26.7 17.1 -26C18.3 -25.35 19.35 -24.5 20.15 -23.4L20.15 -36.5L24.65 -36.5L24.65 0L20.5 0L20.5 -3.35C18.8 -0.75 16.35 0.6 13.05 0.6C10.95 0.6 9.05 0.05 7.25 -1.1C5.5 -2.25 4.15 -3.85 3.15 -5.95C2.2 -8.05 1.7 -10.45 1.7 -13.2" />
</g>
<g id="ShapeID_1560" transform="matrix(0.705882, 0, 0, 0.705882, 442, 298)" >
 <clipPath  id="PathID2510_ClipPathURL" clip-rule="nonzero">
<path d="M14.2 -27.05C17.7 -27.05 20.6 -25.85 22.85 -23.4C25.1 -21 26.25 -17.65 26.25 -13.25C26.25 -13 26.25 -12.6 26.2 -12.1L6.45 -12.1C6.55 -9.2 7.35 -6.95 8.85 -5.4C10.35 -3.9 12.2 -3.1 14.45 -3.1C16.05 -3.1 17.45 -3.5 18.65 -4.4C19.8 -5.25 20.75 -6.65 21.45 -8.55L26.1 -7.95C25.4 -5.25 24 -3.1 22 -1.6C20.05 -0.15 17.55 0.6 14.45 0.6C10.6 0.6 7.55 -0.55 5.25 -2.95C3 -5.3 1.85 -8.65 1.85 -13C1.85 -17.4 2.95 -20.85 5.25 -23.35C7.55 -25.8 10.5 -27.05 14.2 -27.05M19.8 -20.75C18.4 -22.45 16.5 -23.35 14.2 -23.35C12.15 -23.35 10.4 -22.65 9 -21.25C7.6 -19.9 6.85 -18.1 6.7 -15.8L21.5 -15.8C21.3 -18 20.75 -19.65 19.8 -20.75"/>
</clipPath>
<path 
style="clip-path:url(#PathID2510_ClipPathURL);fill:#000000;fill-opacity:1" d="M14.2 -27.05C17.7 -27.05 20.6 -25.85 22.85 -23.4C25.1 -21 26.25 -17.65 26.25 -13.25C26.25 -13 26.25 -12.6 26.2 -12.1L6.45 -12.1C6.55 -9.2 7.35 -6.95 8.85 -5.4C10.35 -3.9 12.2 -3.1 14.45 -3.1C16.05 -3.1 17.45 -3.5 18.65 -4.4C19.8 -5.25 20.75 -6.65 21.45 -8.55L26.1 -7.95C25.4 -5.25 24 -3.1 22 -1.6C20.05 -0.15 17.55 0.6 14.45 0.6C10.6 0.6 7.55 -0.55 5.25 -2.95C3 -5.3 1.85 -8.65 1.85 -13C1.85 -17.4 2.95 -20.85 5.25 -23.35C7.55 -25.8 10.5 -27.05 14.2 -27.05" />
</g>
<g id="ShapeID_1561" transform="matrix(0.705882, 0, 0, 0.705882, 10, 346)" >
<path 
style="fill:#000000;fill-opacity:1" d="M11.7 -37.1C12.95 -37.1 14.35 -36.95 15.9 -36.65L15.25 -32.75C14.35 -32.9 13.45 -33 12.6 -33C11.25 -33 10.3 -32.7 9.7 -32.1C9.15 -31.55 8.85 -30.45 8.85 -28.85L8.85 -26.45L14 -26.45L14 -22.95L8.9 -22.95L8.9 0L4.4 0L4.4 -22.95L0.45 -22.95L0.45 -26.45L4.4 -26.45L4.4 -29.25C4.4 -31 4.55 -32.3 4.9 -33.2C5.3 -34.3 6.05 -35.25 7.15 -36C8.25 -36.7 9.75 -37.1 11.7 -37.1" />
</g>
<g id="ShapeID_1562" transform="matrix(0.705882, 0, 0, 0.705882, 58, 346)" >
 <clipPath  id="PathID2513_ClipPathURL" clip-rule="nonzero">
<path d="M1.6 -13.35C1.6 -15.85 2.05 -18.2 2.95 -20.35C3.85 -22.45 5.2 -24.1 6.95 -25.3C8.65 -26.45 10.7 -27.05 13.05 -27.05C16.15 -27.05 18.75 -25.8 20.75 -23.2L20.75 -26.45L24.9 -26.45L24.9 -3.55C24.9 0.55 24.5 3.5 23.65 5.2C22.85 6.9 21.5 8.25 19.65 9.25C17.85 10.25 15.65 10.75 12.95 10.75C9.85 10.75 7.3 10.05 5.3 8.6C3.4 7.2 2.4 5.1 2.5 2.2L6.85 2.8C7.05 4.15 7.55 5.15 8.4 5.8C9.5 6.6 11 7.05 12.95 7.05C15 7.05 16.6 6.65 17.75 5.8C18.85 5 19.65 3.85 20.05 2.35C20.25 1.45 20.4 -0.5 20.35 -3.45C18.45 -1.15 16 0 13.05 0C9.45 0 6.6 -1.3 4.6 -3.9C2.6 -6.5 1.6 -9.65 1.6 -13.35M18.6 -6.05C20 -7.65 20.7 -10.15 20.7 -13.55C20.7 -16.75 20 -19.2 18.55 -20.85C17.15 -22.5 15.4 -23.35 13.4 -23.35C11.4 -23.35 9.7 -22.55 8.3 -20.9C6.9 -19.3 6.2 -16.85 6.2 -13.65C6.2 -10.2 6.85 -7.65 8.25 -6.05C9.65 -4.5 11.35 -3.7 13.45 -3.7C15.5 -3.7 17.2 -4.45 18.6 -6.05"/>
</clipPath>
<path 
style="clip-path:url(#PathID2513_ClipPathURL);fill:#000000;fill-opacity:1" d="M1.6 -13.35C1.6 -15.85 2.05 -18.2 2.95 -20.35C3.85 -22.45 5.2 -24.1 6.95 -25.3C8.65 -26.45 10.7 -27.05 13.05 -27.05C16.15 -27.05 18.75 -25.8 20.75 -23.2L20.75 -26.45L24.9 -26.45L24.9 -3.55C24.9 0.55 24.5 3.5 23.65 5.2C22.85 6.9 21.5 8.25 19.65 9.25C17.85 10.25 15.65 10.75 12.95 10.75C9.85 10.75 7.3 10.05 5.3 8.6C3.4 7.2 2.4 5.1 2.5 2.2L6.85 2.8C7.05 4.15 7.55 5.15 8.4 5.8C9.5 6.6 11 7.05 12.95 7.05C15 7.05 16.6 6.65 17.75 5.8C18.85 5 19.65 3.85 20.05 2.35C20.25 1.45 20.4 -0.5 20.35 -3.45C18.45 -1.15 16 0 13.05 0C9.45 0 6.6 -1.3 4.6 -3.9C2.6 -6.5 1.6 -9.65 1.6 -13.35" />
</g>
<g id="ShapeID_1563" transform="matrix(0.705882, 0, 0, 0.705882, 106, 346)" >
<path 
style="fill:#000000;fill-opacity:1" d="M24.85 0L20.35 0L20.35 -16.75C20.35 -18.95 19.9 -20.6 18.9 -21.65C17.95 -22.65 16.6 -23.2 14.8 -23.2C13.5 -23.2 12.25 -22.85 11.05 -22.15C9.9 -21.45 9.05 -20.5 8.55 -19.3C8.1 -18.15 7.85 -16.55 7.85 -14.45L7.85 0L3.35 0L3.35 -36.5L7.85 -36.5L7.85 -23.4C9.9 -25.8 12.5 -27.05 15.7 -27.05C17.65 -27.05 19.35 -26.65 20.8 -25.85C22.2 -25.1 23.25 -24.05 23.9 -22.65C24.5 -21.3 24.85 -19.35 24.85 -16.75L24.85 0" />
</g>
<g id="ShapeID_1564" transform="matrix(0.705882, 0, 0, 0.705882, 154, 346)" >
<path 
style="fill:#000000;fill-opacity:1" d="M3.4 -36.5L7.9 -36.5L7.9 -31.4L3.4 -31.4L3.4 -36.5" />
<path 
style="fill:#000000;fill-opacity:1" d="M3.4 -26.45L7.9 -26.45L7.9 0L3.4 0L3.4 -26.45" />
</g>
<g id="ShapeID_1565" transform="matrix(0.705882, 0, 0, 0.705882, 202, 346)" >
<path 
style="fill:#000000;fill-opacity:1" d="M3.3 -36.5L7.8 -36.5L7.8 -31.3L3.3 -31.3L3.3 -36.5" />
<path 
style="fill:#000000;fill-opacity:1" d="M3.3 1.35L3.3 -26.45L7.8 -26.45L7.8 1.5C7.8 4.7 7.4 7 6.55 8.3C5.45 9.9 3.65 10.75 1.15 10.75C-0.05 10.75 -1.2 10.6 -2.35 10.3L-1.55 6.45C-0.65 6.65 0.05 6.8 0.6 6.8C1.5 6.8 2.15 6.5 2.6 5.9C3.05 5.3 3.3 3.8 3.3 1.35" />
</g>
<g id="ShapeID_1566" transform="matrix(0.705882, 0, 0, 0.705882, 250, 346)" >
<path 
style="fill:#000000;fill-opacity:1" d="M24.3 -26.45L14.15 -16.6L25.3 0L19.75 0L10.95 -13.5L7.85 -10.5L7.85 0L3.35 0L3.35 -36.5L7.85 -36.5L7.85 -15.7L18.45 -26.45L24.3 -26.45" />
</g>
<g id="ShapeID_1567" transform="matrix(0.705882, 0, 0, 0.705882, 298, 346)" >
<path 
style="fill:#000000;fill-opacity:1" d="M3.25 -36.5L7.75 -36.5L7.75 0L3.25 0L3.25 -36.5" />
</g>
<g id="ShapeID_1568" transform="matrix(0.705882, 0, 0, 0.705882, 346, 346)" >
<path 
style="fill:#000000;fill-opacity:1" d="M34.75 -16.65C34.75 -18.4 34.6 -19.7 34.3 -20.5C34 -21.3 33.5 -21.9 32.7 -22.4C31.95 -22.9 31.05 -23.15 30 -23.15C28.2 -23.15 26.65 -22.55 25.4 -21.25C24.2 -20.05 23.55 -18.05 23.55 -15.35L23.55 0L19.05 0L19.05 -17.15C19.05 -19.15 18.7 -20.65 17.95 -21.65C17.25 -22.65 16.05 -23.15 14.35 -23.15C13.15 -23.15 12 -22.85 10.9 -22.15C9.85 -21.5 9.05 -20.5 8.55 -19.2C8.1 -17.95 7.85 -16.1 7.85 -13.7L7.85 0L3.35 0L3.35 -26.45L7.4 -26.45L7.4 -22.7C8.2 -24 9.3 -25.05 10.7 -25.85C12.05 -26.65 13.6 -27.05 15.4 -27.05C17.3 -27.05 18.9 -26.65 20.15 -25.8C21.4 -25 22.3 -23.9 22.85 -22.4C24.95 -25.5 27.65 -27.05 31.05 -27.05C33.65 -27.05 35.7 -26.35 37.1 -24.85C38.5 -23.4 39.25 -21.15 39.25 -18.15L39.25 0L34.75 0L34.75 -16.65" />
</g>
<g id="ShapeID_1569" transform="matrix(0.705882, 0, 0, 0.705882, 394, 346)" >
<path 
style="fill:#000000;fill-opacity:1" d="M24.85 -16.25L24.85 0L20.35 0L20.35 -16.05C20.35 -17.85 20.2 -19.25 19.8 -20.15C19.5 -21.05 18.85 -21.75 17.95 -22.3C17.05 -22.85 16.05 -23.15 14.85 -23.15C12.95 -23.15 11.3 -22.55 9.9 -21.3C8.55 -20.1 7.85 -17.8 7.85 -14.4L7.85 0L3.35 0L3.35 -26.45L7.4 -26.45L7.4 -22.65C9.3 -25.55 12.1 -27.05 15.8 -27.05C17.4 -27.05 18.85 -26.75 20.2 -26.15C21.5 -25.6 22.5 -24.85 23.2 -23.9C23.85 -23 24.3 -21.9 24.6 -20.6C24.75 -19.8 24.85 -18.35 24.85 -16.25" />
</g>
<g id="ShapeID_1570" transform="matrix(0.705882, 0, 0, 0.705882, 442, 346)" >
 <clipPath  id="PathID2524_ClipPathURL" clip-rule="nonzero">
<path d="M26.45 -13.55C26.45 -10.15 25.95 -7.5 24.9 -5.5C23.9 -3.6 22.4 -2.1 20.4 -1C18.5 0.05 16.35 0.6 14.05 0.6C10.35 0.6 7.4 -0.55 5.1 -2.95C2.85 -5.3 1.7 -8.7 1.7 -13.2C1.7 -18.1 3.05 -21.7 5.75 -24.1C8 -26.05 10.75 -27.05 14.05 -27.05C17.65 -27.05 20.65 -25.85 22.95 -23.45C25.25 -21.1 26.45 -17.8 26.45 -13.55M19.6 -5.6C21.1 -7.3 21.85 -9.85 21.85 -13.35C21.85 -16.6 21.1 -19.1 19.6 -20.8C18.1 -22.5 16.25 -23.35 14.05 -23.35C11.85 -23.35 10 -22.5 8.5 -20.8C7.05 -19.15 6.3 -16.6 6.3 -13.2C6.3 -9.85 7 -7.3 8.5 -5.6C9.95 -3.95 11.8 -3.1 14.05 -3.1C16.25 -3.1 18.1 -3.9 19.6 -5.6"/>
</clipPath>
<path 
style="clip-path:url(#PathID2524_ClipPathURL);fill:#000000;fill-opacity:1" d="M26.45 -13.55C26.45 -10.15 25.95 -7.5 24.9 -5.5C23.9 -3.6 22.4 -2.1 20.4 -1C18.5 0.05 16.35 0.6 14.05 0.6C10.35 0.6 7.4 -0.55 5.1 -2.95C2.85 -5.3 1.7 -8.7 1.7 -13.2C1.7 -18.1 3.05 -21.7 5.75 -24.1C8 -26.05 10.75 -27.05 14.05 -27.05C17.65 -27.05 20.65 -25.85 22.95 -23.45C25.25 -21.1 26.45 -17.8 26.45 -13.55" />
</g>
<g id="ShapeID_1571" transform="matrix(0.705882, 0, 0, 0.705882, 10, 394)" >
 <clipPath  id="PathID2526_ClipPathURL" clip-rule="nonzero">
<path d="M24.95 -20.35C25.85 -18.25 26.3 -15.95 26.3 -13.4C26.3 -10.7 25.8 -8.3 24.8 -6.1C23.85 -3.95 22.45 -2.3 20.55 -1.1C18.75 0 16.8 0.6 14.75 0.6C13.25 0.6 11.9 0.3 10.7 -0.35C9.55 -0.95 8.6 -1.75 7.85 -2.75L7.85 10.15L3.35 10.15L3.35 -26.45L7.45 -26.45L7.45 -23C8.35 -24.3 9.45 -25.3 10.65 -26C11.85 -26.7 13.35 -27.05 15.1 -27.05C17.3 -27.05 19.3 -26.5 21.05 -25.3C22.75 -24.15 24.05 -22.5 24.95 -20.35M19.55 -5.6C20.95 -7.3 21.7 -9.9 21.7 -13.45C21.7 -16.8 21 -19.3 19.6 -21C18.2 -22.7 16.55 -23.55 14.65 -23.55C12.75 -23.55 11.1 -22.65 9.6 -20.85C8.15 -19.05 7.4 -16.45 7.4 -13.05C7.4 -9.65 8.05 -7.15 9.45 -5.5C10.8 -3.9 12.45 -3.1 14.45 -3.1C16.4 -3.1 18.1 -3.9 19.55 -5.6"/>
</clipPath>
<path 
style="clip-path:url(#PathID2526_ClipPathURL);fill:#000000;fill-opacity:1" d="M24.95 -20.35C25.85 -18.25 26.3 -15.95 26.3 -13.4C26.3 -10.7 25.8 -8.3 24.8 -6.1C23.85 -3.95 22.45 -2.3 20.55 -1.1C18.75 0 16.8 0.6 14.75 0.6C13.25 0.6 11.9 0.3 10.7 -0.35C9.55 -0.95 8.6 -1.75 7.85 -2.75L7.85 10.15L3.35 10.15L3.35 -26.45L7.45 -26.45L7.45 -23C8.35 -24.3 9.45 -25.3 10.65 -26C11.85 -26.7 13.35 -27.05 15.1 -27.05C17.3 -27.05 19.3 -26.5 21.05 -25.3C22.75 -24.15 24.05 -22.5 24.95 -20.35" />
</g>
<g id="ShapeID_1572" transform="matrix(0.705882, 0, 0, 0.705882, 58, 394)" >
 <clipPath  id="PathID2528_ClipPathURL" clip-rule="nonzero">
<path d="M1.75 -13.45C1.75 -16.1 2.2 -18.5 3.1 -20.6C4 -22.7 5.35 -24.3 7.1 -25.4C8.85 -26.5 10.8 -27.05 12.9 -27.05C16.15 -27.05 18.7 -25.7 20.6 -22.9L20.6 -26.45L24.65 -26.45L24.65 10.15L20.15 10.15L20.15 -2.8C19.45 -1.85 18.5 -1.05 17.2 -0.35C16 0.25 14.65 0.6 13.25 0.6C10.15 0.6 7.45 -0.65 5.15 -3.15C2.9 -5.65 1.75 -9.05 1.75 -13.45M18.5 -5.5C19.9 -7.1 20.6 -9.6 20.6 -12.9C20.6 -16.4 19.9 -19 18.4 -20.8C17 -22.6 15.3 -23.5 13.3 -23.5C11.4 -23.5 9.75 -22.7 8.35 -21C7.05 -19.35 6.35 -16.8 6.35 -13.3C6.35 -9.9 7.05 -7.35 8.45 -5.65C9.85 -3.95 11.6 -3.1 13.6 -3.1C15.5 -3.1 17.1 -3.9 18.5 -5.5"/>
</clipPath>
<path 
style="clip-path:url(#PathID2528_ClipPathURL);fill:#000000;fill-opacity:1" d="M1.75 -13.45C1.75 -16.1 2.2 -18.5 3.1 -20.6C4 -22.7 5.35 -24.3 7.1 -25.4C8.85 -26.5 10.8 -27.05 12.9 -27.05C16.15 -27.05 18.7 -25.7 20.6 -22.9L20.6 -26.45L24.65 -26.45L24.65 10.15L20.15 10.15L20.15 -2.8C19.45 -1.85 18.5 -1.05 17.2 -0.35C16 0.25 14.65 0.6 13.25 0.6C10.15 0.6 7.45 -0.65 5.15 -3.15C2.9 -5.65 1.75 -9.05 1.75 -13.45" />
</g>
<g id="ShapeID_1573" transform="matrix(0.705882, 0, 0, 0.705882, 106, 394)" >
<path 
style="fill:#000000;fill-opacity:1" d="M17.7 -25.6L16.1 -21.4C15.05 -22.05 13.95 -22.4 12.85 -22.4C11.85 -22.4 10.95 -22.1 10.15 -21.5C9.4 -20.9 8.85 -20.1 8.5 -19.05C8.05 -17.45 7.8 -15.7 7.8 -13.8L7.8 0L3.3 0L3.3 -26.45L7.35 -26.45L7.35 -22.4C8.35 -24.3 9.25 -25.55 10.15 -26.15C11.05 -26.75 12 -27.05 13.05 -27.05C14.55 -27.05 16.1 -26.6 17.7 -25.6" />
</g>
<g id="ShapeID_1574" transform="matrix(0.705882, 0, 0, 0.705882, 154, 394)" >
<path 
style="fill:#000000;fill-opacity:1" d="M20.95 -23.7C21.7 -22.7 22.25 -21.35 22.55 -19.65L18.15 -19.05C17.95 -20.35 17.4 -21.4 16.4 -22.2C15.45 -22.95 14.1 -23.35 12.35 -23.35C10.3 -23.35 8.85 -23 7.95 -22.3C7.1 -21.65 6.65 -20.85 6.65 -19.9C6.65 -19.35 6.8 -18.85 7.15 -18.35C7.5 -17.9 8.1 -17.5 8.9 -17.15C9.3 -17 10.65 -16.6 12.85 -16C16 -15.2 18.2 -14.5 19.5 -13.95C20.75 -13.45 21.75 -12.65 22.45 -11.6C23.15 -10.6 23.55 -9.3 23.55 -7.75C23.55 -6.25 23.1 -4.85 22.2 -3.5C21.35 -2.2 20.1 -1.2 18.4 -0.45C16.8 0.25 14.95 0.6 12.85 0.6C9.45 0.6 6.8 -0.1 4.95 -1.5C3.15 -2.9 2.05 -5.05 1.55 -7.9L6 -8.6C6.2 -6.8 6.9 -5.45 8.05 -4.5C9.15 -3.6 10.75 -3.1 12.85 -3.1C14.9 -3.1 16.45 -3.5 17.45 -4.35C18.45 -5.15 18.95 -6.15 18.95 -7.25C18.95 -8.25 18.5 -9.05 17.6 -9.65C17 -10.05 15.45 -10.55 13 -11.2C9.7 -12 7.45 -12.7 6.15 -13.3C4.9 -13.9 3.95 -14.75 3.25 -15.85C2.65 -16.9 2.3 -18.1 2.3 -19.4C2.3 -20.55 2.55 -21.65 3.1 -22.65C3.6 -23.65 4.35 -24.5 5.3 -25.2C6 -25.7 6.95 -26.1 8.15 -26.5C9.35 -26.85 10.65 -27.05 12.05 -27.05C14.1 -27.05 15.9 -26.75 17.5 -26.15C19.05 -25.55 20.2 -24.75 20.95 -23.7" />
</g>
<g id="ShapeID_1575" transform="matrix(0.705882, 0, 0, 0.705882, 202, 394)" >
<path 
style="fill:#000000;fill-opacity:1" d="M4.15 -26.45L4.15 -32.95L8.65 -35.65L8.65 -26.45L13.15 -26.45L13.15 -22.95L8.65 -22.95L8.65 -7.5C8.65 -6.2 8.7 -5.4 8.85 -5C9 -4.65 9.25 -4.35 9.6 -4.15C9.95 -3.95 10.45 -3.85 11.15 -3.85C11.65 -3.85 12.3 -3.9 13.15 -4L13.75 -0.05C12.5 0.2 11.35 0.35 10.35 0.35C8.75 0.35 7.45 0.1 6.55 -0.4C5.65 -0.9 5.05 -1.55 4.65 -2.4C4.35 -3.25 4.15 -5 4.15 -7.7L4.15 -22.95L0.85 -22.95L0.85 -26.45L4.15 -26.45" />
</g>
<g id="ShapeID_1576" transform="matrix(0.705882, 0, 0, 0.705882, 250, 394)" >
<path 
style="fill:#000000;fill-opacity:1" d="M7.75 -11.75C7.75 -9.45 7.8 -7.85 8 -7C8.25 -5.85 8.85 -4.95 9.75 -4.25C10.65 -3.6 11.8 -3.25 13.15 -3.25C14.5 -3.25 15.75 -3.55 16.95 -4.25C18.1 -4.95 18.95 -5.85 19.45 -7.05C19.95 -8.25 20.2 -9.95 20.2 -12.25L20.2 -26.45L24.7 -26.45L24.7 0L20.65 0L20.65 -3.85C18.6 -0.9 15.8 0.6 12.25 0.6C10.7 0.6 9.25 0.35 7.85 -0.25C6.55 -0.85 5.55 -1.6 4.85 -2.5C4.25 -3.4 3.8 -4.55 3.5 -5.85C3.35 -6.7 3.25 -8.1 3.25 -10.05L3.25 -26.45L7.75 -26.45L7.75 -11.75" />
</g>
<g id="ShapeID_1577" transform="matrix(0.705882, 0, 0, 0.705882, 298, 394)" >
<path 
style="fill:#000000;fill-opacity:1" d="M11.05 -10.6C11.65 -8.9 12.2 -7.1 12.75 -5.25C13.15 -6.65 13.7 -8.3 14.4 -10.3L20.3 -26.45L24.95 -26.45L14.9 0L10.7 0L0.6 -26.45L5.3 -26.45L11.05 -10.6" />
</g>
<g id="ShapeID_1578" transform="matrix(0.705882, 0, 0, 0.705882, 346, 394)" >
<path 
style="fill:#000000;fill-opacity:1" d="M20.65 -26.45L24.65 -11.05L25.95 -6.05L27.45 -11.15L32.05 -26.45L36.4 -26.45L28.1 0L23.45 0L19.25 -15.8L18.2 -20.3L12.85 0L8.15 0L0.1 -26.45L4.75 -26.45L9 -11.15L10.5 -5.5C10.55 -5.75 11 -7.55 11.9 -10.95L16.05 -26.45L20.65 -26.45" />
</g>
<g id="ShapeID_1579" transform="matrix(0.705882, 0, 0, 0.705882, 394, 394)" >
<path 
style="fill:#000000;fill-opacity:1" d="M12.55 -17.3C13.25 -18.35 13.95 -19.3 14.55 -20.2L19 -26.45L24.4 -26.45L15.45 -13.7L25.05 0L19.55 0L14.05 -8.1L12.85 -10.05L5.75 0L0.3 0L9.95 -13.65L1 -26.45L6.5 -26.45L10.7 -20.2C11.45 -19.05 12.05 -18.1 12.55 -17.3" />
</g>
<g id="ShapeID_1580" transform="matrix(0.705882, 0, 0, 0.705882, 442, 394)" >
<path 
style="fill:#000000;fill-opacity:1" d="M5.6 -26.45L11.1 -11.2C11.8 -9.3 12.45 -7.25 13.05 -5.1C13.55 -7.05 14.15 -9 14.9 -11L20.55 -26.45L25 -26.45L15 0.5C13.9 3.4 13.05 5.4 12.45 6.5C11.65 7.95 10.75 9 9.7 9.7C8.7 10.4 7.45 10.75 6 10.75C5.2 10.75 4.25 10.6 3.15 10.25L2.65 6.1C3.6 6.3 4.45 6.45 5.2 6.45C6.2 6.45 7 6.3 7.6 5.95C8.2 5.65 8.65 5.2 9.05 4.6C9.35 4.15 9.8 3.05 10.45 1.25C10.5 1 10.65 0.65 10.85 0.15L0.8 -26.45L5.6 -26.45" />
</g>
<g id="ShapeID_1581" transform="matrix(0.705882, 0, 0, 0.705882, 10, 442)" >
<path 
style="fill:#000000;fill-opacity:1" d="M1.95 -26.45L23.55 -26.45L23.55 -23.45L9.25 -6.7L6.45 -3.6C8.45 -3.75 10.35 -3.85 12.15 -3.85L24.35 -3.85L24.35 0L0.95 0L0.95 -3.6L17.75 -22.95C15.85 -22.85 14.2 -22.8 12.7 -22.8L1.95 -22.8L1.95 -26.45" />
</g>
<g id="ShapeID_1582" transform="matrix(0.705882, 0, 0, 0.705882, 58, 442)" >
<path 
style="fill:#000000;fill-opacity:1" d="M8.9 -15.7C8.2 -14.75 7.05 -13.9 5.45 -13.15C7.3 -12.4 8.65 -11.25 9.5 -9.65C10.3 -8.1 10.75 -5.55 10.75 -1.95C10.75 1.25 10.75 3.2 10.85 3.85C10.95 4.95 11.25 5.75 11.8 6.2C12.35 6.6 13.4 6.85 15 6.85L15.8 6.85L15.8 10.75L14.4 10.75C12.8 10.75 11.6 10.65 10.85 10.4C9.8 10 8.9 9.4 8.2 8.5C7.5 7.7 7.05 6.6 6.85 5.25C6.65 3.95 6.55 1.85 6.5 -1.15C6.5 -4.15 6.35 -6.2 6.05 -7.35C5.8 -8.5 5.25 -9.4 4.45 -10.1C3.65 -10.75 2.65 -11.1 1.4 -11.15L1.4 -15.2C2.65 -15.2 3.7 -15.55 4.5 -16.2C5.3 -16.85 5.85 -17.75 6.15 -18.9C6.4 -20.05 6.55 -22 6.55 -24.8C6.55 -27.55 6.6 -29.35 6.7 -30.25C6.8 -31.65 7.1 -32.75 7.5 -33.6C7.9 -34.45 8.4 -35.15 9 -35.65C9.6 -36.15 10.35 -36.55 11.3 -36.85C11.9 -37 12.95 -37.1 14.4 -37.1L15.8 -37.1L15.8 -33.2L15 -33.2C13.3 -33.2 12.15 -32.9 11.55 -32.25C11.05 -31.65 10.75 -30.25 10.75 -28.05C10.75 -23.75 10.65 -21 10.45 -19.8C10.15 -18.05 9.65 -16.7 8.9 -15.7" />
</g>
<g id="ShapeID_1583" transform="matrix(0.705882, 0, 0, 0.705882, 106, 442)" >
<path 
style="fill:#000000;fill-opacity:1" d="M4.7 -37.15L8.6 -37.15L8.6 10.7L4.7 10.7L4.7 -37.15" />
</g>
<g id="ShapeID_1584" transform="matrix(0.705882, 0, 0, 0.705882, 154, 442)" >
<path 
style="fill:#000000;fill-opacity:1" d="M6.45 -6.15C6.65 -7.95 7.2 -9.45 8 -10.55C8.8 -11.65 9.9 -12.5 11.4 -13.15C9.5 -14.05 8.1 -15.25 7.3 -16.75C6.55 -18.25 6.15 -20.8 6.15 -24.4C6.15 -27.6 6.15 -29.55 6.05 -30.2C5.95 -31.3 5.6 -32.05 5.05 -32.5C4.55 -32.95 3.5 -33.2 1.95 -33.2L1.2 -33.2L1.2 -37.1L2.55 -37.1C4.15 -37.1 5.3 -37 6.05 -36.7C7.1 -36.35 7.95 -35.75 8.65 -34.85C9.35 -34 9.8 -32.9 10 -31.55C10.2 -30.25 10.35 -28.1 10.4 -25.1C10.4 -22.15 10.55 -20.1 10.85 -18.9C11.1 -17.8 11.65 -16.9 12.45 -16.2C13.25 -15.6 14.3 -15.25 15.6 -15.2L15.6 -11.15C14.3 -11.15 13.25 -10.8 12.45 -10.1C11.65 -9.45 11.15 -8.55 10.85 -7.4C10.65 -6.3 10.5 -4.3 10.45 -1.5C10.45 1.25 10.4 3.05 10.3 3.95C10.15 5.35 9.85 6.45 9.45 7.3C9.05 8.15 8.55 8.85 7.95 9.35C7.35 9.85 6.6 10.2 5.65 10.5C5.05 10.65 4 10.75 2.55 10.75L1.2 10.75L1.2 6.85L1.95 6.85C3.65 6.85 4.8 6.55 5.4 5.9C5.95 5.3 6.25 3.95 6.25 1.75C6.25 -2.4 6.3 -5.05 6.45 -6.15" />
</g>
<g id="ShapeID_1585" transform="matrix(0.705882, 0, 0, 0.705882, 202, 442)" >
 <clipPath  id="PathID2542_ClipPathURL" clip-rule="nonzero">
<path d="M46.3 -16.7L29.2 -16.7L29.2 -4.3L48.25 -4.3L48.25 0L24.35 0L24.35 -10.5L10.3 -10.5L5.25 0L0 0L17.55 -36.5L47.6 -36.5L47.6 -32.2L29.2 -32.2L29.2 -21L46.3 -21L46.3 -16.7M24.35 -14.8L24.35 -32.2L20.75 -32.2L12.35 -14.8L24.35 -14.8"/>
</clipPath>
<path 
style="clip-path:url(#PathID2542_ClipPathURL);fill:#000000;fill-opacity:1" d="M46.3 -16.7L29.2 -16.7L29.2 -4.3L48.25 -4.3L48.25 0L24.35 0L24.35 -10.5L10.3 -10.5L5.25 0L0 0L17.55 -36.5L47.6 -36.5L47.6 -32.2L29.2 -32.2L29.2 -21L46.3 -21L46.3 -16.7" />
</g>
<g id="ShapeID_1586" transform="matrix(0.705882, 0, 0, 0.705882, 250, 442)" >
 <clipPath  id="PathID2544_ClipPathURL" clip-rule="nonzero">
<path d="M13.65 -0.35C12.25 -0.85 10.6 -1.8 8.7 -3.2L4.5 1.5L2.05 -0.6L6.4 -5.5C4.8 -8 3.7 -10.1 3.15 -11.85C2.65 -13.6 2.35 -15.7 2.35 -18.15C2.35 -21.9 3.05 -25.25 4.55 -28.2C6.05 -31.1 8.15 -33.35 10.85 -34.85C13.55 -36.35 16.55 -37.15 19.85 -37.15C22.05 -37.15 24 -36.85 25.7 -36.25C27.35 -35.65 29.15 -34.65 31.05 -33.15L35.25 -37.8L37.7 -35.75L33.35 -30.85C34.75 -28.75 35.7 -26.85 36.2 -25.25C36.85 -23.15 37.2 -20.85 37.2 -18.25C37.2 -14.55 36.45 -11.2 34.9 -8.25C33.4 -5.35 31.3 -3.1 28.55 -1.6C25.85 -0.15 23 0.6 19.9 0.6C17.6 0.6 15.55 0.3 13.65 -0.35M19.85 -33C16.25 -33 13.25 -31.8 10.85 -29.3C8.55 -26.85 7.35 -23.15 7.35 -18.25C7.35 -16.35 7.5 -14.65 7.85 -13.15C8.1 -12.05 8.65 -10.65 9.55 -9L28.05 -29.8C26.5 -31 25.15 -31.85 23.95 -32.3C22.8 -32.75 21.45 -33 19.85 -33M15.15 -4.35C16.55 -3.85 18.05 -3.55 19.75 -3.55C23.35 -3.55 26.3 -4.8 28.65 -7.35C31 -9.9 32.2 -13.5 32.2 -18.1C32.2 -21.5 31.5 -24.55 30.1 -27.2L11.65 -6.55C12.9 -5.5 14.05 -4.75 15.15 -4.35"/>
</clipPath>
<path 
style="clip-path:url(#PathID2544_ClipPathURL);fill:#000000;fill-opacity:1" d="M13.65 -0.35C12.25 -0.85 10.6 -1.8 8.7 -3.2L4.5 1.5L2.05 -0.6L6.4 -5.5C4.8 -8 3.7 -10.1 3.15 -11.85C2.65 -13.6 2.35 -15.7 2.35 -18.15C2.35 -21.9 3.05 -25.25 4.55 -28.2C6.05 -31.1 8.15 -33.35 10.85 -34.85C13.55 -36.35 16.55 -37.15 19.85 -37.15C22.05 -37.15 24 -36.85 25.7 -36.25C27.35 -35.65 29.15 -34.65 31.05 -33.15L35.25 -37.8L37.7 -35.75L33.35 -30.85C34.75 -28.75 35.7 -26.85 36.2 -25.25C36.85 -23.15 37.2 -20.85 37.2 -18.25C37.2 -14.55 36.45 -11.2 34.9 -8.25C33.4 -5.35 31.3 -3.1 28.55 -1.6C25.85 -0.15 23 0.6 19.9 0.6C17.6 0.6 15.55 0.3 13.65 -0.35" />
</g>
<g id="ShapeID_1587" transform="matrix(0.705882, 0, 0, 0.705882, 298, 442)" >
 <clipPath  id="PathID2547_ClipPathURL" clip-rule="nonzero">
<path d="M7.9 -21.3C7.45 -20.7 7.05 -19.65 6.75 -18.25L2.4 -18.8C2.8 -20.7 3.45 -22.25 4.35 -23.4C5.25 -24.5 6.5 -25.4 8.15 -26.05C9.75 -26.7 11.65 -27.05 13.85 -27.05C16.6 -27.05 18.85 -26.65 20.55 -25.8C21.5 -25.3 22.3 -24.55 23 -23.45C24.05 -24.6 25.25 -25.5 26.6 -26.1C27.95 -26.7 29.6 -27.05 31.5 -27.05C34.2 -27.05 36.4 -26.4 38.2 -25.05C39.95 -23.75 41.25 -22.05 42.05 -19.9C42.85 -17.8 43.3 -15.7 43.3 -13.6C43.3 -13.3 43.3 -12.8 43.25 -12.1L24.15 -12.1C24.15 -9.7 24.45 -7.95 25 -6.85C25.55 -5.8 26.45 -4.9 27.65 -4.15C28.85 -3.45 30.2 -3.1 31.7 -3.1C33.4 -3.1 34.8 -3.55 36 -4.55C37.2 -5.5 38 -6.85 38.5 -8.65L43.2 -8.1C42.4 -5.3 40.95 -3.15 38.95 -1.65C36.95 -0.15 34.5 0.6 31.5 0.6C29.4 0.6 27.55 0.25 25.95 -0.55C24.4 -1.35 23 -2.6 21.7 -4.3C20 -2.6 18.25 -1.35 16.45 -0.55C14.7 0.2 12.8 0.6 10.7 0.6C7.9 0.6 5.65 -0.1 4.05 -1.6C2.5 -3.05 1.7 -4.85 1.7 -6.95C1.7 -8.35 2.1 -9.7 2.9 -11C3.7 -12.25 4.85 -13.2 6.35 -13.85C7.8 -14.5 10.15 -15.05 13.35 -15.45C15.85 -15.75 17.95 -16.2 19.65 -16.7C19.65 -17.1 19.65 -17.4 19.65 -17.7C19.65 -19.75 19.25 -21.2 18.35 -22.05C17.5 -22.9 15.95 -23.35 13.75 -23.35C12.35 -23.35 11.1 -23.2 10.1 -22.8C9.1 -22.5 8.4 -22 7.9 -21.3M36.45 -21.5C35.2 -22.7 33.55 -23.35 31.5 -23.35C29.4 -23.35 27.7 -22.7 26.35 -21.35C25.05 -20.05 24.3 -18.2 24.15 -15.8L38.7 -15.8C38.5 -18.4 37.75 -20.3 36.45 -21.5M6.45 -7.1C6.45 -5.95 6.85 -4.95 7.75 -4.15C8.6 -3.35 9.9 -2.95 11.6 -2.95C13.5 -2.95 15.15 -3.4 16.55 -4.35C17.95 -5.25 18.9 -6.45 19.35 -7.9C19.6 -8.75 19.75 -10.55 19.75 -13.3C18.45 -12.75 15.75 -12.15 11.7 -11.45C9.9 -11.2 8.65 -10.8 7.9 -10.2C6.95 -9.4 6.45 -8.4 6.45 -7.1"/>
</clipPath>
<path 
style="clip-path:url(#PathID2547_ClipPathURL);fill:#000000;fill-opacity:1" d="M7.9 -21.3C7.45 -20.7 7.05 -19.65 6.75 -18.25L2.4 -18.8C2.8 -20.7 3.45 -22.25 4.35 -23.4C5.25 -24.5 6.5 -25.4 8.15 -26.05C9.75 -26.7 11.65 -27.05 13.85 -27.05C16.6 -27.05 18.85 -26.65 20.55 -25.8C21.5 -25.3 22.3 -24.55 23 -23.45C24.05 -24.6 25.25 -25.5 26.6 -26.1C27.95 -26.7 29.6 -27.05 31.5 -27.05C34.2 -27.05 36.4 -26.4 38.2 -25.05C39.95 -23.75 41.25 -22.05 42.05 -19.9C42.85 -17.8 43.3 -15.7 43.3 -13.6C43.3 -13.3 43.3 -12.8 43.25 -12.1L24.15 -12.1C24.15 -9.7 24.45 -7.95 25 -6.85C25.55 -5.8 26.45 -4.9 27.65 -4.15C28.85 -3.45 30.2 -3.1 31.7 -3.1C33.4 -3.1 34.8 -3.55 36 -4.55C37.2 -5.5 38 -6.85 38.5 -8.65L43.2 -8.1C42.4 -5.3 40.95 -3.15 38.95 -1.65C36.95 -0.15 34.5 0.6 31.5 0.6C29.4 0.6 27.55 0.25 25.95 -0.55C24.4 -1.35 23 -2.6 21.7 -4.3C20 -2.6 18.25 -1.35 16.45 -0.55C14.7 0.2 12.8 0.6 10.7 0.6C7.9 0.6 5.65 -0.1 4.05 -1.6C2.5 -3.05 1.7 -4.85 1.7 -6.95C1.7 -8.35 2.1 -9.7 2.9 -11C3.7 -12.25 4.85 -13.2 6.35 -13.85C7.8 -14.5 10.15 -15.05 13.35 -15.45C15.85 -15.75 17.95 -16.2 19.65 -16.7C19.65 -17.1 19.65 -17.4 19.65 -17.7C19.65 -19.75 19.25 -21.2 18.35 -22.05C17.5 -22.9 15.95 -23.35 13.75 -23.35C12.35 -23.35 11.1 -23.2 10.1 -22.8C9.1 -22.5 8.4 -22 7.9 -21.3" />
</g>
<g id="ShapeID_1588" transform="matrix(0.705882, 0, 0, 0.705882, 346, 442)" >
 <clipPath  id="PathID2550_ClipPathURL" clip-rule="nonzero">
<path d="M8.5 -1.4L5.9 1.95L3.55 0.2L6.25 -3.3C5.3 -4.4 4.6 -5.55 4.15 -6.7C3.55 -8.5 3.2 -10.55 3.2 -12.85C3.2 -17.85 4.4 -21.45 6.85 -23.7C9.25 -25.9 12.1 -27.05 15.4 -27.05C16.75 -27.05 18 -26.9 19.15 -26.5C20.3 -26.15 21.55 -25.6 22.85 -24.85L25.3 -28L27.65 -26.3L25 -22.85C26.05 -21.45 26.75 -20.15 27.15 -18.95C27.65 -17.3 27.95 -15.35 27.95 -13.15C27.95 -8.2 26.55 -4.55 23.7 -2.2C21.45 -0.35 18.7 0.6 15.5 0.6C12.9 0.6 10.55 -0.05 8.5 -1.4M15.55 -23.35C13.35 -23.35 11.5 -22.5 10 -20.8C8.55 -19.1 7.8 -16.6 7.8 -13.2C7.8 -10.7 8.2 -8.65 9.05 -6.95L20.3 -21.55C18.8 -22.75 17.25 -23.35 15.55 -23.35M15.35 -3.1C17.65 -3.1 19.6 -3.9 21.1 -5.6C22.6 -7.3 23.35 -9.8 23.35 -13.2C23.35 -14.45 23.25 -15.55 23.05 -16.55C22.95 -17.2 22.65 -18.05 22.15 -19.15L11 -4.65C12.3 -3.65 13.75 -3.1 15.35 -3.1"/>
</clipPath>
<path 
style="clip-path:url(#PathID2550_ClipPathURL);fill:#000000;fill-opacity:1" d="M8.5 -1.4L5.9 1.95L3.55 0.2L6.25 -3.3C5.3 -4.4 4.6 -5.55 4.15 -6.7C3.55 -8.5 3.2 -10.55 3.2 -12.85C3.2 -17.85 4.4 -21.45 6.85 -23.7C9.25 -25.9 12.1 -27.05 15.4 -27.05C16.75 -27.05 18 -26.9 19.15 -26.5C20.3 -26.15 21.55 -25.6 22.85 -24.85L25.3 -28L27.65 -26.3L25 -22.85C26.05 -21.45 26.75 -20.15 27.15 -18.95C27.65 -17.3 27.95 -15.35 27.95 -13.15C27.95 -8.2 26.55 -4.55 23.7 -2.2C21.45 -0.35 18.7 0.6 15.5 0.6C12.9 0.6 10.55 -0.05 8.5 -1.4" />
</g>
<g id="ShapeID_1589" transform="matrix(0.705882, 0, 0, 0.705882, 394, 442)" >
 <clipPath  id="PathID2553_ClipPathURL" clip-rule="nonzero">
<path d="M6.35 -31.85L31.85 -31.85L31.85 0L6.35 0L6.35 -31.85M31.05 -0.75L31.05 -31.05L7.15 -31.05L7.15 -0.75L31.05 -0.75"/>
</clipPath>
<path 
style="clip-path:url(#PathID2553_ClipPathURL);fill:#000000;fill-opacity:1" d="M6.35 -31.85L31.85 -31.85L31.85 0L6.35 0L6.35 -31.85" />
</g>
</svg>
