<?xml version="1.0" encoding="utf-8"?>
<svg version="1.1" id="Layer_1"
xmlns="http://www.w3.org/2000/svg"
xmlns:xlink="http://www.w3.org/1999/xlink"
width="260px" height="308px"
xml:space="preserve">
<g id="ShapeID_1473" transform="matrix(0.705882, 0, 0, 0.705882, 10, 11.8)" >
<path 
style="fill:#000000;fill-opacity:1" d="M38.85 -36.5L38.85 0L32.05 0L32 -28.7L24.75 0L17.65 0L10.45 -28.7L10.45 0L3.65 0L3.65 -36.5L14.7 -36.5L21.25 -11.6L27.75 -36.5L38.85 -36.5" />
</g>
<g id="ShapeID_1474" transform="matrix(0.705882, 0, 0, 0.705882, 58, 11.8)" >
<path 
style="fill:#000000;fill-opacity:1" d="M26.7 -34.1C29 -32.1 30.25 -29.4 30.4 -26L23.05 -25.75C22.75 -27.6 22.05 -28.95 21 -29.8C20 -30.6 18.45 -31.05 16.35 -31.05C14.25 -31.05 12.55 -30.6 11.35 -29.7C10.6 -29.15 10.2 -28.4 10.2 -27.45C10.2 -26.6 10.55 -25.85 11.25 -25.2C12.15 -24.45 14.4 -23.65 18 -22.75C21.6 -21.95 24.25 -21.05 25.95 -20.1C27.65 -19.2 28.95 -18 29.95 -16.4C30.95 -14.85 31.45 -12.9 31.45 -10.6C31.45 -8.5 30.9 -6.55 29.7 -4.7C28.55 -2.9 26.9 -1.5 24.75 -0.6C22.65 0.25 20 0.7 16.8 0.7C12.2 0.7 8.7 -0.35 6.2 -2.5C3.75 -4.6 2.3 -7.75 1.8 -11.85L8.95 -12.55C9.35 -10.15 10.2 -8.35 11.55 -7.2C12.85 -6.1 14.65 -5.55 16.9 -5.55C19.25 -5.55 21.05 -6.05 22.25 -7.05C23.45 -8.05 24.1 -9.2 24.1 -10.55C24.1 -11.4 23.85 -12.15 23.3 -12.75C22.8 -13.35 21.95 -13.85 20.65 -14.35C19.85 -14.65 17.9 -15.15 14.8 -15.95C10.85 -16.9 8.1 -18.1 6.5 -19.55C4.3 -21.55 3.15 -24 3.15 -26.9C3.15 -28.75 3.65 -30.5 4.7 -32.15C5.75 -33.75 7.25 -35 9.25 -35.85C11.2 -36.7 13.6 -37.15 16.4 -37.15C20.95 -37.15 24.4 -36.15 26.7 -34.1" />
</g>
<g id="ShapeID_1475" transform="matrix(0.705882, 0, 0, 0.705882, 106, 11.8)" >
 <clipPath  id="PathID2385_ClipPathURL" clip-rule="nonzero">
<path d="M18.8 -2.9C17.6 -1.75 16.35 -0.85 14.95 -0.25C13.6 0.3 12.15 0.6 10.6 0.6C7.9 0.6 5.75 -0.1 4.15 -1.6C2.6 -3.05 1.8 -4.9 1.8 -7.2C1.8 -8.7 2.15 -10 2.85 -11.2C3.55 -12.35 4.55 -13.25 5.85 -13.85C7.15 -14.45 9 -15 11.4 -15.5C14.7 -16.1 16.95 -16.7 18.25 -17.25L18.25 -17.95C18.25 -19.25 17.9 -20.2 17.2 -20.8C16.55 -21.4 15.3 -21.7 13.4 -21.7C12.2 -21.7 11.2 -21.45 10.5 -20.95C9.8 -20.45 9.25 -19.6 8.8 -18.35L2.5 -19.5C3.2 -22.05 4.4 -23.95 6.15 -25.2C7.9 -26.4 10.5 -27.05 13.95 -27.05C17.05 -27.05 19.4 -26.7 20.95 -25.9C22.45 -25.2 23.55 -24.25 24.2 -23.1C24.8 -22 25.15 -19.9 25.15 -16.85L25.05 -8.65C25.05 -6.35 25.15 -4.65 25.35 -3.5C25.55 -2.4 26 -1.25 26.65 0L19.75 0C19.55 -0.45 19.35 -1.15 19.05 -2.05C18.95 -2.45 18.9 -2.75 18.8 -2.9M8.8 -7.95C8.8 -6.95 9.15 -6.1 9.85 -5.4C10.55 -4.7 11.5 -4.35 12.65 -4.35C13.9 -4.35 15.1 -4.75 16.3 -5.55C17.1 -6.15 17.65 -6.95 17.95 -7.9C18.15 -8.45 18.25 -9.6 18.25 -11.3L18.25 -12.7C17.35 -12.4 15.95 -12.05 13.95 -11.6C12.05 -11.2 10.75 -10.8 10.15 -10.4C9.25 -9.75 8.8 -8.95 8.8 -7.95"/>
</clipPath>
<path 
style="clip-path:url(#PathID2385_ClipPathURL);fill:#000000;fill-opacity:1" d="M18.8 -2.9C17.6 -1.75 16.35 -0.85 14.95 -0.25C13.6 0.3 12.15 0.6 10.6 0.6C7.9 0.6 5.75 -0.1 4.15 -1.6C2.6 -3.05 1.8 -4.9 1.8 -7.2C1.8 -8.7 2.15 -10 2.85 -11.2C3.55 -12.35 4.55 -13.25 5.85 -13.85C7.15 -14.45 9 -15 11.4 -15.5C14.7 -16.1 16.95 -16.7 18.25 -17.25L18.25 -17.95C18.25 -19.25 17.9 -20.2 17.2 -20.8C16.55 -21.4 15.3 -21.7 13.4 -21.7C12.2 -21.7 11.2 -21.45 10.5 -20.95C9.8 -20.45 9.25 -19.6 8.8 -18.35L2.5 -19.5C3.2 -22.05 4.4 -23.95 6.15 -25.2C7.9 -26.4 10.5 -27.05 13.95 -27.05C17.05 -27.05 19.4 -26.7 20.95 -25.9C22.45 -25.2 23.55 -24.25 24.2 -23.1C24.8 -22 25.15 -19.9 25.15 -16.85L25.05 -8.65C25.05 -6.35 25.15 -4.65 25.35 -3.5C25.55 -2.4 26 -1.25 26.65 0L19.75 0C19.55 -0.45 19.35 -1.15 19.05 -2.05C18.95 -2.45 18.9 -2.75 18.8 -2.9" />
</g>
<g id="ShapeID_1476" transform="matrix(0.705882, 0, 0, 0.705882, 154, 11.8)" >
 <clipPath  id="PathID2387_ClipPathURL" clip-rule="nonzero">
<path d="M26 -23.55C28.1 -21.25 29.2 -17.85 29.2 -13.45C29.2 -8.95 28.15 -5.5 25.95 -3.05C23.8 -0.65 21.2 0.6 18.1 0.6C16.6 0.6 15.1 0.25 13.6 -0.5C12.15 -1.25 10.9 -2.35 9.85 -3.85L9.85 0L3.35 0L3.35 -36.5L10.35 -36.5L10.35 -23.35C12.45 -25.8 15 -27.05 18 -27.05C21.2 -27.05 23.9 -25.9 26 -23.55M20.4 -6.9C21.5 -8.2 22.05 -10.3 22.05 -13.15C22.05 -16.15 21.5 -18.3 20.35 -19.65C19.25 -21 17.85 -21.7 16.15 -21.7C14.45 -21.7 13.05 -21.05 11.9 -19.7C10.8 -18.4 10.25 -16.45 10.25 -13.8C10.25 -11.1 10.65 -9.05 11.55 -7.7C12.75 -5.9 14.35 -4.95 16.4 -4.95C17.95 -4.95 19.3 -5.6 20.4 -6.9"/>
</clipPath>
<path 
style="clip-path:url(#PathID2387_ClipPathURL);fill:#000000;fill-opacity:1" d="M26 -23.55C28.1 -21.25 29.2 -17.85 29.2 -13.45C29.2 -8.95 28.15 -5.5 25.95 -3.05C23.8 -0.65 21.2 0.6 18.1 0.6C16.6 0.6 15.1 0.25 13.6 -0.5C12.15 -1.25 10.9 -2.35 9.85 -3.85L9.85 0L3.35 0L3.35 -36.5L10.35 -36.5L10.35 -23.35C12.45 -25.8 15 -27.05 18 -27.05C21.2 -27.05 23.9 -25.9 26 -23.55" />
</g>
<g id="ShapeID_1477" transform="matrix(0.705882, 0, 0, 0.705882, 202, 11.8)" >
<path 
style="fill:#000000;fill-opacity:1" d="M18.35 -6.2C19.2 -6.95 19.8 -8.25 20.2 -10.15L27.05 -9C26.35 -5.85 24.95 -3.45 22.9 -1.8C20.9 -0.2 18.2 0.6 14.75 0.6C10.9 0.6 7.8 -0.6 5.5 -3.05C3.25 -5.45 2.1 -8.85 2.1 -13.2C2.1 -17.55 3.25 -20.95 5.55 -23.4C7.85 -25.8 10.95 -27.05 14.9 -27.05C18.1 -27.05 20.7 -26.35 22.6 -24.95C24.5 -23.6 25.85 -21.5 26.7 -18.7L19.8 -17.45C19.6 -18.75 19.05 -19.8 18.2 -20.5C17.4 -21.2 16.3 -21.55 15 -21.55C13.25 -21.55 11.85 -20.95 10.8 -19.7C9.8 -18.5 9.25 -16.5 9.25 -13.65C9.25 -10.55 9.75 -8.3 10.8 -7C11.85 -5.75 13.3 -5.1 15.1 -5.1C16.4 -5.1 17.5 -5.45 18.35 -6.2" />
</g>
<g id="ShapeID_1478" transform="matrix(0.705882, 0, 0, 0.705882, 10, 58)" >
 <clipPath  id="PathID2390_ClipPathURL" clip-rule="nonzero">
<path d="M5.3 -3.05C3.2 -5.45 2.1 -8.9 2.1 -13.3C2.1 -17.8 3.15 -21.2 5.25 -23.55C7.35 -25.85 10 -27.05 13.2 -27.05C16.15 -27.05 18.7 -25.85 20.9 -23.35L20.9 -36.5L27.9 -36.5L27.9 0L21.4 0L21.4 -3.85C20.3 -2.35 19.05 -1.25 17.55 -0.5C16.1 0.2 14.6 0.6 13.1 0.6C10.1 0.6 7.5 -0.6 5.3 -3.05M19.25 -7C20.35 -8.35 20.95 -10.4 20.95 -13.1C20.95 -16.1 20.4 -18.3 19.3 -19.65C18.2 -21 16.8 -21.7 15.1 -21.7C13.45 -21.7 12.05 -21.05 10.9 -19.7C9.8 -18.4 9.25 -16.4 9.25 -13.8C9.25 -11 9.6 -8.95 10.4 -7.65C11.5 -5.85 13.1 -4.95 15.15 -4.95C16.75 -4.95 18.1 -5.6 19.25 -7"/>
</clipPath>
<path 
style="clip-path:url(#PathID2390_ClipPathURL);fill:#000000;fill-opacity:1" d="M5.3 -3.05C3.2 -5.45 2.1 -8.9 2.1 -13.3C2.1 -17.8 3.15 -21.2 5.25 -23.55C7.35 -25.85 10 -27.05 13.2 -27.05C16.15 -27.05 18.7 -25.85 20.9 -23.35L20.9 -36.5L27.9 -36.5L27.9 0L21.4 0L21.4 -3.85C20.3 -2.35 19.05 -1.25 17.55 -0.5C16.1 0.2 14.6 0.6 13.1 0.6C10.1 0.6 7.5 -0.6 5.3 -3.05" />
</g>
<g id="ShapeID_1479" transform="matrix(0.705882, 0, 0, 0.705882, 58, 58)" >
 <clipPath  id="PathID2392_ClipPathURL" clip-rule="nonzero">
<path d="M5 -23.3C7.3 -25.8 10.2 -27.05 13.7 -27.05C17.6 -27.05 20.7 -25.75 23 -23.1C25.25 -20.5 26.4 -16.55 26.3 -11.2L8.75 -11.2C8.75 -9.1 9.3 -7.5 10.4 -6.35C11.5 -5.25 12.85 -4.65 14.5 -4.65C15.6 -4.65 16.5 -4.95 17.25 -5.55C18 -6.15 18.6 -7.1 19 -8.45L25.95 -7.3C25.05 -4.7 23.65 -2.75 21.65 -1.4C19.75 -0.1 17.3 0.6 14.4 0.6C9.8 0.6 6.4 -0.9 4.2 -3.9C2.5 -6.3 1.6 -9.3 1.6 -13C1.6 -17.4 2.7 -20.8 5 -23.3M17.75 -20.1C16.75 -21.15 15.55 -21.7 14.1 -21.7C12.6 -21.7 11.3 -21.15 10.3 -20C9.3 -18.9 8.8 -17.4 8.85 -15.5L19.35 -15.5C19.3 -17.5 18.75 -19 17.75 -20.1"/>
</clipPath>
<path 
style="clip-path:url(#PathID2392_ClipPathURL);fill:#000000;fill-opacity:1" d="M5 -23.3C7.3 -25.8 10.2 -27.05 13.7 -27.05C17.6 -27.05 20.7 -25.75 23 -23.1C25.25 -20.5 26.4 -16.55 26.3 -11.2L8.75 -11.2C8.75 -9.1 9.3 -7.5 10.4 -6.35C11.5 -5.25 12.85 -4.65 14.5 -4.65C15.6 -4.65 16.5 -4.95 17.25 -5.55C18 -6.15 18.6 -7.1 19 -8.45L25.95 -7.3C25.05 -4.7 23.65 -2.75 21.65 -1.4C19.75 -0.1 17.3 0.6 14.4 0.6C9.8 0.6 6.4 -0.9 4.2 -3.9C2.5 -6.3 1.6 -9.3 1.6 -13C1.6 -17.4 2.7 -20.8 5 -23.3" />
</g>
<g id="ShapeID_1480" transform="matrix(0.705882, 0, 0, 0.705882, 106, 58)" >
<path 
style="fill:#000000;fill-opacity:1" d="M17.65 -31.4C16.55 -31.65 15.45 -31.8 14.35 -31.8C13.35 -31.8 12.6 -31.55 12.15 -31.05C11.75 -30.6 11.5 -29.7 11.5 -28.3L11.5 -26.45L16.75 -26.45L16.75 -20.95L11.5 -20.95L11.5 0L4.5 0L4.5 -20.95L0.6 -20.95L0.6 -26.45L4.5 -26.45L4.5 -28.4C4.5 -30.6 4.7 -32.3 5.2 -33.4C5.65 -34.5 6.5 -35.4 7.8 -36.1C9.1 -36.8 10.7 -37.15 12.65 -37.15C14.65 -37.15 16.6 -36.85 18.55 -36.25L17.65 -31.4" />
</g>
<g id="ShapeID_1481" transform="matrix(0.705882, 0, 0, 0.705882, 154, 58)" >
<path 
style="fill:#000000;fill-opacity:1" d="M20.65 -13.95C20.65 -16.7 20.55 -18.45 20.25 -19.2C20 -19.95 19.5 -20.55 18.8 -21C18.15 -21.45 17.3 -21.7 16.3 -21.7C15.15 -21.7 14.1 -21.45 13.2 -20.85C12.3 -20.3 11.65 -19.45 11.2 -18.25C10.8 -17.15 10.6 -15.45 10.6 -13.25L10.6 0L3.6 0L3.6 -36.5L10.6 -36.5L10.6 -23.05C12.8 -25.7 15.5 -27.05 18.65 -27.05C20.25 -27.05 21.7 -26.75 23 -26.15C24.3 -25.55 25.25 -24.8 25.9 -23.85C26.55 -22.95 27 -21.9 27.25 -20.75C27.5 -19.65 27.65 -17.9 27.65 -15.5L27.65 0L20.65 0L20.65 -13.95" />
</g>
<g id="ShapeID_1482" transform="matrix(0.705882, 0, 0, 0.705882, 202, 58)" >
<path 
style="fill:#000000;fill-opacity:1" d="M3.6 -36.5L10.6 -36.5L10.6 -30L3.6 -30L3.6 -36.5" />
<path 
style="fill:#000000;fill-opacity:1" d="M3.6 -26.45L10.6 -26.45L10.6 0L3.6 0L3.6 -26.45" />
</g>
<g id="ShapeID_1483" transform="matrix(0.705882, 0, 0, 0.705882, 10, 106)" >
<path 
style="fill:#000000;fill-opacity:1" d="M3.6 -36.5L10.6 -36.5L10.6 0L3.6 0L3.6 -36.5" />
</g>
<g id="ShapeID_1484" transform="matrix(0.705882, 0, 0, 0.705882, 58, 106)" >
<path 
style="fill:#000000;fill-opacity:1" d="M34.3 -20.2C33.7 -21.2 32.7 -21.7 31.3 -21.7C30.35 -21.7 29.45 -21.4 28.55 -20.8C27.7 -20.2 27.1 -19.35 26.7 -18.15C26.35 -17 26.15 -15.2 26.15 -12.7L26.15 0L19.15 0L19.15 -14.5C19.15 -17.05 19.05 -18.7 18.75 -19.45C18.55 -20.2 18.15 -20.75 17.6 -21.15C17.1 -21.5 16.35 -21.7 15.45 -21.7C14.4 -21.7 13.45 -21.4 12.55 -20.8C11.7 -20.25 11.1 -19.4 10.7 -18.3C10.35 -17.2 10.15 -15.4 10.15 -12.85L10.15 0L3.15 0L3.15 -26.45L9.6 -26.45L9.6 -22.8C11.9 -25.6 14.65 -27.05 17.85 -27.05C19.5 -27.05 20.95 -26.7 22.2 -26C23.45 -25.3 24.5 -24.25 25.3 -22.8C26.45 -24.2 27.7 -25.3 29.05 -26C30.4 -26.7 31.85 -27.05 33.35 -27.05C35.3 -27.05 36.95 -26.65 38.3 -25.85C39.6 -25.05 40.6 -23.9 41.3 -22.35C41.8 -21.25 42.05 -19.4 42.05 -16.9L42.05 0L35.05 0L35.05 -15.1C35.05 -17.7 34.8 -19.4 34.3 -20.2" />
</g>
<g id="ShapeID_1485" transform="matrix(0.705882, 0, 0, 0.705882, 106, 106)" >
<path 
style="fill:#000000;fill-opacity:1" d="M10.6 -11.95L10.6 0L3.6 0L3.6 -26.45L10.1 -26.45L10.1 -22.55C12.4 -25.55 15.25 -27.05 18.75 -27.05C20.25 -27.05 21.65 -26.8 22.95 -26.2C24.25 -25.65 25.2 -24.95 25.85 -24.05C26.5 -23.2 26.95 -22.2 27.25 -21.1C27.5 -20.05 27.65 -18.5 27.65 -16.4L27.65 0L20.65 0L20.65 -13.5C20.65 -16.3 20.5 -18.15 20.2 -19C19.9 -19.85 19.45 -20.5 18.75 -21C18.1 -21.45 17.3 -21.7 16.3 -21.7C15.1 -21.7 14.05 -21.4 13.05 -20.7C12.15 -20.05 11.5 -19.15 11.1 -18.05C10.8 -16.95 10.6 -14.95 10.6 -11.95" />
</g>
<g id="ShapeID_1486" transform="matrix(0.705882, 0, 0, 0.705882, 154, 106)" >
 <clipPath  id="PathID2401_ClipPathURL" clip-rule="nonzero">
<path d="M25.45 -23.15C28 -20.55 29.3 -17.3 29.3 -13.3C29.3 -9.3 28 -5.95 25.4 -3.3C22.85 -0.7 19.6 0.6 15.7 0.6C13.3 0.6 10.95 0.1 8.75 -1C6.55 -2.1 4.9 -3.7 3.75 -5.8C2.65 -7.9 2.05 -10.5 2.05 -13.55C2.05 -15.85 2.6 -18.1 3.75 -20.3C4.85 -22.5 6.5 -24.15 8.6 -25.3C10.7 -26.45 13.05 -27.05 15.65 -27.05C19.6 -27.05 22.85 -25.75 25.45 -23.15M20.2 -7.15C21.45 -8.55 22.1 -10.55 22.1 -13.25C22.1 -15.85 21.5 -17.85 20.2 -19.25C19 -20.65 17.45 -21.35 15.65 -21.35C13.85 -21.35 12.3 -20.65 11.05 -19.25C9.85 -17.85 9.2 -15.85 9.2 -13.2C9.2 -10.6 9.8 -8.55 11.05 -7.15C12.25 -5.8 13.8 -5.1 15.65 -5.1C17.45 -5.1 18.95 -5.75 20.2 -7.15"/>
</clipPath>
<path 
style="clip-path:url(#PathID2401_ClipPathURL);fill:#000000;fill-opacity:1" d="M25.45 -23.15C28 -20.55 29.3 -17.3 29.3 -13.3C29.3 -9.3 28 -5.95 25.4 -3.3C22.85 -0.7 19.6 0.6 15.7 0.6C13.3 0.6 10.95 0.1 8.75 -1C6.55 -2.1 4.9 -3.7 3.75 -5.8C2.65 -7.9 2.05 -10.5 2.05 -13.55C2.05 -15.85 2.6 -18.1 3.75 -20.3C4.85 -22.5 6.5 -24.15 8.6 -25.3C10.7 -26.45 13.05 -27.05 15.65 -27.05C19.6 -27.05 22.85 -25.75 25.45 -23.15" />
</g>
<g id="ShapeID_1487" transform="matrix(0.705882, 0, 0, 0.705882, 202, 106)" >
 <clipPath  id="PathID2403_ClipPathURL" clip-rule="nonzero">
<path d="M26.05 -23.4C28.2 -21 29.3 -17.65 29.3 -13.35C29.3 -8.95 28.25 -5.5 26.05 -3.05C23.9 -0.65 21.25 0.6 18.15 0.6C16.7 0.6 15.35 0.35 14.15 -0.25C13 -0.8 11.75 -1.8 10.45 -3.25L10.45 10.05L3.45 10.05L3.45 -26.45L9.95 -26.45L9.95 -22.55C10.75 -23.85 11.9 -24.95 13.35 -25.8C14.8 -26.6 16.4 -27.05 18.2 -27.05C21.3 -27.05 23.9 -25.85 26.05 -23.4M20.5 -6.9C21.6 -8.2 22.15 -10.3 22.15 -13.3C22.15 -16.05 21.6 -18.1 20.45 -19.45C19.35 -20.8 18 -21.5 16.3 -21.5C14.6 -21.5 13.2 -20.85 12.05 -19.5C10.95 -18.2 10.35 -16.25 10.35 -13.65C10.35 -10.7 10.9 -8.5 12.1 -7.05C13.3 -5.65 14.75 -4.95 16.45 -4.95C18.05 -4.95 19.4 -5.6 20.5 -6.9"/>
</clipPath>
<path 
style="clip-path:url(#PathID2403_ClipPathURL);fill:#000000;fill-opacity:1" d="M26.05 -23.4C28.2 -21 29.3 -17.65 29.3 -13.35C29.3 -8.95 28.25 -5.5 26.05 -3.05C23.9 -0.65 21.25 0.6 18.15 0.6C16.7 0.6 15.35 0.35 14.15 -0.25C13 -0.8 11.75 -1.8 10.45 -3.25L10.45 10.05L3.45 10.05L3.45 -26.45L9.95 -26.45L9.95 -22.55C10.75 -23.85 11.9 -24.95 13.35 -25.8C14.8 -26.6 16.4 -27.05 18.2 -27.05C21.3 -27.05 23.9 -25.85 26.05 -23.4" />
</g>
<g id="ShapeID_1488" transform="matrix(0.705882, 0, 0, 0.705882, 10, 154)" >
<path 
style="fill:#000000;fill-opacity:1" d="M21.35 -25.25C23.1 -24.05 24.3 -22.3 25 -20L18.4 -18.8C18.1 -19.8 17.55 -20.6 16.75 -21.15C16 -21.7 14.9 -22 13.4 -22C11.55 -22 10.2 -21.75 9.4 -21.2C8.9 -20.85 8.65 -20.4 8.65 -19.8C8.65 -19.3 8.85 -18.9 9.3 -18.5C9.9 -18.05 12.1 -17.4 15.85 -16.55C19.55 -15.75 22.2 -14.7 23.7 -13.45C25.15 -12.2 25.9 -10.45 25.9 -8.25C25.9 -5.85 24.9 -3.75 22.85 -2C20.85 -0.3 17.85 0.6 13.85 0.6C10.25 0.6 7.4 -0.1 5.3 -1.55C3.2 -3 1.85 -5 1.2 -7.5L8.2 -8.55C8.5 -7.2 9.1 -6.15 10 -5.45C10.9 -4.8 12.2 -4.45 13.85 -4.45C15.65 -4.45 17.05 -4.75 17.95 -5.4C18.55 -5.85 18.9 -6.5 18.9 -7.3C18.9 -7.8 18.75 -8.25 18.4 -8.6C18.05 -8.9 17.25 -9.25 16.05 -9.55C10.4 -10.75 6.8 -11.9 5.25 -12.95C3.2 -14.35 2.15 -16.35 2.15 -18.9C2.15 -21.2 3.05 -23.1 4.85 -24.7C6.65 -26.25 9.45 -27.05 13.25 -27.05C16.85 -27.05 19.55 -26.45 21.35 -25.25" />
</g>
<g id="ShapeID_1489" transform="matrix(0.705882, 0, 0, 0.705882, 58, 154)" >
<path 
style="fill:#000000;fill-opacity:1" d="M10.75 0.6C9.5 0.6 8.35 0.4 7.35 0C6.35 -0.4 5.6 -0.95 5.1 -1.65C4.65 -2.3 4.35 -3.2 4.15 -4.4C4.05 -5.2 3.95 -6.8 3.95 -9.3L3.95 -20.85L0.75 -20.85L0.75 -26.45L3.95 -26.45L3.95 -31.7L10.95 -35.8L10.95 -26.45L15.75 -26.45L15.75 -20.85L10.95 -20.85L10.95 -10.2C10.95 -8.05 10.95 -6.8 11.05 -6.4C11.15 -6.05 11.35 -5.75 11.7 -5.5C12 -5.3 12.4 -5.2 12.9 -5.2C13.5 -5.2 14.45 -5.4 15.7 -5.85L16.3 -0.4C14.7 0.25 12.85 0.6 10.75 0.6" />
</g>
<g id="ShapeID_1490" transform="matrix(0.705882, 0, 0, 0.705882, 106, 154)" >
<path 
style="fill:#000000;fill-opacity:1" d="M10.5 -14.3C10.5 -10.6 10.6 -8.3 10.85 -7.45C11.1 -6.65 11.55 -5.95 12.25 -5.45C12.95 -5 13.8 -4.75 14.85 -4.75C16.05 -4.75 17.1 -5.05 18.05 -5.7C19 -6.35 19.65 -7.15 20 -8.15C20.35 -9.1 20.55 -11.5 20.55 -15.3L20.55 -26.45L27.55 -26.45L27.55 0L21.05 0L21.05 -3.95C20.1 -2.55 18.85 -1.4 17.25 -0.6C15.7 0.2 14.05 0.6 12.25 0.6C10.5 0.6 8.9 0.25 7.45 -0.55C6.05 -1.3 5.05 -2.4 4.4 -3.8C3.8 -5.2 3.5 -7.2 3.5 -9.7L3.5 -26.45L10.5 -26.45L10.5 -14.3" />
</g>
<g id="ShapeID_1491" transform="matrix(0.705882, 0, 0, 0.705882, 154, 154)" >
<path 
style="fill:#000000;fill-opacity:1" d="M12.75 9.15C12.05 9.65 11.2 10.05 10.1 10.35C9.1 10.6 7.9 10.75 6.55 10.75C5.2 10.75 3.9 10.65 2.6 10.35L2 4.85C3.05 5.05 4.05 5.15 4.95 5.15C6.55 5.15 7.75 4.7 8.55 3.75C9.3 2.85 9.9 1.6 10.35 0.1L0.3 -26.45L7.75 -26.45L14.05 -7.65L20.25 -26.45L27.5 -26.45L18.15 -1L16.45 3.65C15.85 5.15 15.3 6.35 14.7 7.15C14.15 7.95 13.5 8.65 12.75 9.15" />
</g>
</svg>
