<?xml version="1.0" encoding="utf-8"?>
<svg version="1.1" id="Layer_1"
xmlns="http://www.w3.org/2000/svg"
xmlns:xlink="http://www.w3.org/1999/xlink"
width="550px" height="400px"
xml:space="preserve">
<g id="ShapeID_2209" transform="matrix(0.764706, 0, 0, 0.764706, 0, 35)" >
 <clipPath  id="PathID3737_ClipPathURL" clip-rule="nonzero">
<path d="M26 -23.55C28.1 -21.25 29.2 -17.85 29.2 -13.45C29.2 -8.95 28.15 -5.5 25.95 -3.05C23.8 -0.65 21.2 0.6 18.1 0.6C16.6 0.6 15.1 0.25 13.6 -0.5C12.15 -1.25 10.9 -2.35 9.85 -3.85L9.85 0L3.35 0L3.35 -36.5L10.35 -36.5L10.35 -23.35C12.45 -25.8 15 -27.05 18 -27.05C21.2 -27.05 23.9 -25.9 26 -23.55M20.4 -6.9C21.5 -8.2 22.05 -10.3 22.05 -13.15C22.05 -16.15 21.5 -18.3 20.35 -19.65C19.25 -21 17.85 -21.7 16.15 -21.7C14.45 -21.7 13.05 -21.05 11.9 -19.7C10.8 -18.4 10.25 -16.45 10.25 -13.8C10.25 -11.1 10.65 -9.05 11.55 -7.7C12.75 -5.9 14.35 -4.95 16.4 -4.95C17.95 -4.95 19.3 -5.6 20.4 -6.9"/>
</clipPath>
<path 
style="clip-path:url(#PathID3737_ClipPathURL);fill:#FFFFFF;fill-opacity:1" d="M26 -23.55C28.1 -21.25 29.2 -17.85 29.2 -13.45C29.2 -8.95 28.15 -5.5 25.95 -3.05C23.8 -0.65 21.2 0.6 18.1 0.6C16.6 0.6 15.1 0.25 13.6 -0.5C12.15 -1.25 10.9 -2.35 9.85 -3.85L9.85 0L3.35 0L3.35 -36.5L10.35 -36.5L10.35 -23.35C12.45 -25.8 15 -27.05 18 -27.05C21.2 -27.05 23.9 -25.9 26 -23.55" />
</g>
<g id="ShapeID_2210" transform="matrix(0.764706, 0, 0, 0.764706, 23.8, 35)" >
<path 
style="fill:#FFFFFF;fill-opacity:1" d="M10.5 -14.3C10.5 -10.6 10.6 -8.3 10.85 -7.45C11.1 -6.65 11.55 -5.95 12.25 -5.45C12.95 -5 13.8 -4.75 14.85 -4.75C16.05 -4.75 17.1 -5.05 18.05 -5.7C19 -6.35 19.65 -7.15 20 -8.15C20.35 -9.1 20.55 -11.5 20.55 -15.3L20.55 -26.45L27.55 -26.45L27.55 0L21.05 0L21.05 -3.95C20.1 -2.55 18.85 -1.4 17.25 -0.6C15.7 0.2 14.05 0.6 12.25 0.6C10.5 0.6 8.9 0.25 7.45 -0.55C6.05 -1.3 5.05 -2.4 4.4 -3.8C3.8 -5.2 3.5 -7.2 3.5 -9.7L3.5 -26.45L10.5 -26.45L10.5 -14.3" />
</g>
<g id="ShapeID_2211" transform="matrix(0.764706, 0, 0, 0.764706, 47.6, 35)" >
<path 
style="fill:#FFFFFF;fill-opacity:1" d="M34.3 -20.2C33.7 -21.2 32.7 -21.7 31.3 -21.7C30.35 -21.7 29.45 -21.4 28.55 -20.8C27.7 -20.2 27.1 -19.35 26.7 -18.15C26.35 -17 26.15 -15.2 26.15 -12.7L26.15 0L19.15 0L19.15 -14.5C19.15 -17.05 19.05 -18.7 18.75 -19.45C18.55 -20.2 18.15 -20.75 17.6 -21.15C17.1 -21.5 16.35 -21.7 15.45 -21.7C14.4 -21.7 13.45 -21.4 12.55 -20.8C11.7 -20.25 11.1 -19.4 10.7 -18.3C10.35 -17.2 10.15 -15.4 10.15 -12.85L10.15 0L3.15 0L3.15 -26.45L9.6 -26.45L9.6 -22.8C11.9 -25.6 14.65 -27.05 17.85 -27.05C19.5 -27.05 20.95 -26.7 22.2 -26C23.45 -25.3 24.5 -24.25 25.3 -22.8C26.45 -24.2 27.7 -25.3 29.05 -26C30.4 -26.7 31.85 -27.05 33.35 -27.05C35.3 -27.05 36.95 -26.65 38.3 -25.85C39.6 -25.05 40.6 -23.9 41.3 -22.35C41.8 -21.25 42.05 -19.4 42.05 -16.9L42.05 0L35.05 0L35.05 -15.1C35.05 -17.7 34.8 -19.4 34.3 -20.2" />
</g>
</svg>
