<?xml version="1.0" encoding="utf-8"?>
<svg version="1.1" id="Layer_1"
xmlns="http://www.w3.org/2000/svg"
xmlns:xlink="http://www.w3.org/1999/xlink"
width="550px" height="400px"
xml:space="preserve">
<g id="ShapeID_2170" transform="matrix(1, 0, 0, 1, 0, 0)" >
 <clipPath  id="PathID3679_ClipPathURL" clip-rule="nonzero">
<path d="M27.1 47.35L26.85 46.8L26.85 46.7L26.85 46.6C26.85 46.35 26.9 46.15 27.1 45.95C27.3 45.8 27.55 45.7 27.85 45.7C28.15 45.7 28.35 45.75 28.55 45.95L28.85 46.7L28.55 47.35C28.4 47.55 28.15 47.7 27.85 47.7C27.6 47.7 27.35 47.6 27.1 47.35M26.85 46.8L27.1 47.3L27.8 47.6L28.45 47.3L28.75 46.7L28.45 46L27.8 45.75C27.55 45.75 27.3 45.85 27.1 46L26.85 46.6L26.85 46.7L26.85 46.8M27.8 45.75L28.45 46L28.75 46.7L28.45 47.3L27.8 47.6L27.1 47.3L26.85 46.8L27.1 47.35C27.35 47.6 27.6 47.7 27.85 47.7C28.15 47.7 28.4 47.55 28.55 47.35L28.85 46.7L28.55 45.95C28.35 45.75 28.15 45.7 27.85 45.7C27.55 45.7 27.3 45.8 27.1 45.95C26.9 46.15 26.85 46.35 26.85 46.6L27.1 46C27.3 45.85 27.55 45.75 27.8 45.75"/>
</clipPath>
<path 
style="clip-path:url(#PathID3679_ClipPathURL);fill:#000000;fill-opacity:1" d="M27.1 47.35L26.85 46.8L26.85 46.7L26.85 46.6C26.85 46.35 26.9 46.15 27.1 45.95C27.3 45.8 27.55 45.7 27.85 45.7C28.15 45.7 28.35 45.75 28.55 45.95L28.85 46.7L28.55 47.35C28.4 47.55 28.15 47.7 27.85 47.7C27.6 47.7 27.35 47.6 27.1 47.35" />
<path 
style="fill:#000000;fill-opacity:1" d="M26.85 46.8L27.1 47.3L27.8 47.6L28.45 47.3L28.75 46.7L28.45 46L27.8 45.75C27.55 45.75 27.3 45.85 27.1 46L26.85 46.6L26.85 46.7L26.85 46.8" />
<path 
style="fill:#000000;fill-opacity:1" d="M27.8 45.75L28.45 46L28.75 46.7L28.45 47.3L27.8 47.6L27.1 47.3L26.85 46.8L27.1 47.35C27.35 47.6 27.6 47.7 27.85 47.7C28.15 47.7 28.4 47.55 28.55 47.35L28.85 46.7L28.55 45.95C28.35 45.75 28.15 45.7 27.85 45.7C27.55 45.7 27.3 45.8 27.1 45.95C26.9 46.15 26.85 46.35 26.85 46.6L27.1 46C27.3 45.85 27.55 45.75 27.8 45.75" />
<path 
style="fill:#000000;fill-opacity:1" d="M29.9 47.35L29.65 46.7C29.65 46.4 29.7 46.15 29.9 45.95L30.65 45.7C30.95 45.7 31.15 45.75 31.35 45.95L31.65 46.7L31.35 47.35C31.2 47.55 30.95 47.7 30.65 47.7L29.9 47.35" />
 <clipPath  id="PathID3683_ClipPathURL" clip-rule="nonzero">
<path d="M55.9 47.35L55.65 46.8L55.65 46.7L55.65 46.6C55.65 46.35 55.7 46.15 55.9 45.95C56.1 45.8 56.35 45.7 56.65 45.7L57.35 45.95L57.65 46.7L57.35 47.35C57.2 47.55 56.95 47.7 56.65 47.7C56.4 47.7 56.15 47.6 55.9 47.35M55.65 46.8L55.9 47.3L56.6 47.6C56.9 47.6 57.1 47.5 57.25 47.3L57.55 46.7L57.25 46C57.05 45.8 56.85 45.75 56.6 45.75L55.9 46L55.65 46.6L55.65 46.7L55.65 46.8M57.25 46L57.55 46.7L57.25 47.3C57.1 47.5 56.9 47.6 56.6 47.6L55.9 47.3L55.65 46.8L55.9 47.35C56.15 47.6 56.4 47.7 56.65 47.7C56.95 47.7 57.2 47.55 57.35 47.35L57.65 46.7L57.35 45.95L56.65 45.7C56.35 45.7 56.1 45.8 55.9 45.95C55.7 46.15 55.65 46.35 55.65 46.6L55.9 46L56.6 45.75C56.85 45.75 57.05 45.8 57.25 46"/>
</clipPath>
<path 
style="clip-path:url(#PathID3683_ClipPathURL);fill:#000000;fill-opacity:1" d="M55.9 47.35L55.65 46.8L55.65 46.7L55.65 46.6C55.65 46.35 55.7 46.15 55.9 45.95C56.1 45.8 56.35 45.7 56.65 45.7L57.35 45.95L57.65 46.7L57.35 47.35C57.2 47.55 56.95 47.7 56.65 47.7C56.4 47.7 56.15 47.6 55.9 47.35" />
<path 
style="fill:#000000;fill-opacity:1" d="M55.65 46.8L55.9 47.3L56.6 47.6C56.9 47.6 57.1 47.5 57.25 47.3L57.55 46.7L57.25 46C57.05 45.8 56.85 45.75 56.6 45.75L55.9 46L55.65 46.6L55.65 46.7L55.65 46.8" />
<path 
style="fill:#000000;fill-opacity:1" d="M57.25 46L57.55 46.7L57.25 47.3C57.1 47.5 56.9 47.6 56.6 47.6L55.9 47.3L55.65 46.8L55.9 47.35C56.15 47.6 56.4 47.7 56.65 47.7C56.95 47.7 57.2 47.55 57.35 47.35L57.65 46.7L57.35 45.95L56.65 45.7C56.35 45.7 56.1 45.8 55.9 45.95C55.7 46.15 55.65 46.35 55.65 46.6L55.9 46L56.6 45.75C56.85 45.75 57.05 45.8 57.25 46" />
<path 
style="fill:#000000;fill-opacity:1" d="M59.45 47.7C59.2 47.7 58.95 47.6 58.7 47.35L58.45 46.7C58.45 46.4 58.5 46.15 58.7 45.95L59.45 45.7L60.15 45.95L60.45 46.7L60.15 47.35C60 47.55 59.75 47.7 59.45 47.7" />
</g>
</svg>
