<?xml version="1.0" encoding="utf-8"?>
<svg version="1.1" id="Layer_1"
xmlns="http://www.w3.org/2000/svg"
xmlns:xlink="http://www.w3.org/1999/xlink"
width="550px" height="400px"
xml:space="preserve">
<g id="ShapeID_2445" transform="matrix(1, 0, 0, 1, 0, 0)" >
<path 
style="fill:#000000;fill-opacity:1" d="M604 433.1L604 389.1L820 389.1L820 433.1L604 433.1" />
<path 
style="fill:#000000;fill-opacity:1" d="M-296.95 626.05L-296.95 582.05L-80.95 582.05L-80.95 626.05L-296.95 626.05" />
<path 
style="fill:#000000;fill-opacity:1" d="M642 542L642 498L858 498L858 542L642 542" />
<path 
style="fill:#000000;fill-opacity:1" d="M340 515.05L340 539.05L194 539.05L194 515.05L340 515.05" />
<path 
style="fill:#000000;fill-opacity:1" d="M441 515.05L441 539.05L343 539.05L343 515.05L441 515.05" />
<path 
style="fill:#000000;fill-opacity:1" d="M91 539.05L91 515.05L189 515.05L189 539.05L91 539.05" />
<path 
style="fill:#000000;fill-opacity:1" d="M-259.95 217.95L-259.95 193.95L-9.95 193.95L-9.95 217.95L-259.95 217.95" />
</g>
</svg>
