<?xml version="1.0" encoding="utf-8"?>
<svg version="1.1" id="Layer_1"
xmlns="http://www.w3.org/2000/svg"
xmlns:xlink="http://www.w3.org/1999/xlink"
width="550px" height="400px"
xml:space="preserve">
<g id="ShapeID_2546" transform="matrix(0.470588, 0, 0, 0.470588, 0, 20)" >
<path 
style="fill:#000000;fill-opacity:1" d="M10.2 -25.45C8.5 -24.45 6.95 -23.65 5.55 -23.15L5.55 -27.45C8.05 -28.65 10.2 -30.05 12.1 -31.75C13.95 -33.4 15.3 -35.05 16.1 -36.65L19 -36.65L19 0L14.5 0L14.5 -28.55C13.4 -27.55 12 -26.5 10.2 -25.45" />
</g>
<g id="ShapeID_2547" transform="matrix(0.470588, 0, 0, 0.470588, 8.8, 20)" >
<path 
style="fill:#000000;fill-opacity:1" d="M8.9 -31C7.6 -29.7 6.95 -27.95 6.95 -25.65L2.35 -26.1C2.65 -29.5 3.8 -32.15 5.9 -33.95C7.95 -35.75 10.7 -36.65 14.2 -36.65C17.7 -36.65 20.45 -35.7 22.5 -33.7C24.55 -31.8 25.6 -29.4 25.6 -26.5C25.6 -25.05 25.3 -23.6 24.7 -22.15C24.1 -20.75 23.1 -19.3 21.7 -17.7C20.3 -16.2 18 -14.05 14.8 -11.3C12.1 -9.05 10.4 -7.5 9.6 -6.7C8.85 -5.9 8.2 -5.1 7.7 -4.3L25.65 -4.3L25.65 0L1.5 0C1.5 -1.05 1.6 -2.1 2 -3.1C2.6 -4.7 3.6 -6.35 4.95 -7.95C6.3 -9.55 8.25 -11.35 10.85 -13.45C14.75 -16.7 17.45 -19.3 18.85 -21.2C20.25 -23.1 21 -24.9 21 -26.6C21 -28.35 20.35 -29.85 19.05 -31.1C17.8 -32.3 16.15 -32.95 14.1 -32.95C11.95 -32.95 10.2 -32.3 8.9 -31" />
</g>
<g id="ShapeID_2548" transform="matrix(0.470588, 0, 0, 0.470588, 17.6, 20)" >
 <clipPath  id="PathID4202_ClipPathURL" clip-rule="nonzero">
<path d="M22.8 -32C23.75 -30.55 24.5 -28.75 25.05 -26.6C25.6 -24.5 25.9 -21.6 25.9 -18C25.9 -13.7 25.45 -10.25 24.55 -7.6C23.7 -5 22.4 -2.95 20.6 -1.5C18.9 -0.1 16.7 0.6 14 0.6C10.5 0.6 7.7 -0.65 5.7 -3.15C3.3 -6.15 2.1 -11.1 2.1 -18C2.1 -22.3 2.5 -25.75 3.4 -28.4C4.3 -31 5.6 -33.05 7.35 -34.5C9.1 -35.9 11.3 -36.65 14 -36.65C15.9 -36.65 17.6 -36.25 19.1 -35.45C20.6 -34.65 21.8 -33.5 22.8 -32M19.15 -6.05C20.55 -8 21.3 -12 21.3 -18C21.3 -24 20.6 -27.95 19.2 -29.95C17.8 -31.95 16.05 -32.95 13.95 -32.95C11.9 -32.95 10.25 -32.1 9 -30.3C7.5 -28.1 6.7 -24 6.7 -18C6.7 -12 7.4 -8.05 8.8 -6.05C10.2 -4.1 11.9 -3.1 14 -3.1C16 -3.1 17.75 -4.05 19.15 -6.05"/>
</clipPath>
<path 
style="clip-path:url(#PathID4202_ClipPathURL);fill:#000000;fill-opacity:1" d="M22.8 -32C23.75 -30.55 24.5 -28.75 25.05 -26.6C25.6 -24.5 25.9 -21.6 25.9 -18C25.9 -13.7 25.45 -10.25 24.55 -7.6C23.7 -5 22.4 -2.95 20.6 -1.5C18.9 -0.1 16.7 0.6 14 0.6C10.5 0.6 7.7 -0.65 5.7 -3.15C3.3 -6.15 2.1 -11.1 2.1 -18C2.1 -22.3 2.5 -25.75 3.4 -28.4C4.3 -31 5.6 -33.05 7.35 -34.5C9.1 -35.9 11.3 -36.65 14 -36.65C15.9 -36.65 17.6 -36.25 19.1 -35.45C20.6 -34.65 21.8 -33.5 22.8 -32" />
</g>
<g id="ShapeID_2549" transform="matrix(0.470588, 0, 0, 0.470588, 26.4, 20)" >
 <clipPath  id="PathID4204_ClipPathURL" clip-rule="nonzero">
<path d="M22.8 -32C23.75 -30.55 24.5 -28.75 25.05 -26.6C25.6 -24.5 25.9 -21.6 25.9 -18C25.9 -13.7 25.45 -10.25 24.55 -7.6C23.7 -5 22.4 -2.95 20.6 -1.5C18.9 -0.1 16.7 0.6 14 0.6C10.5 0.6 7.7 -0.65 5.7 -3.15C3.3 -6.15 2.1 -11.1 2.1 -18C2.1 -22.3 2.5 -25.75 3.4 -28.4C4.3 -31 5.6 -33.05 7.35 -34.5C9.1 -35.9 11.3 -36.65 14 -36.65C15.9 -36.65 17.6 -36.25 19.1 -35.45C20.6 -34.65 21.8 -33.5 22.8 -32M19.15 -6.05C20.55 -8 21.3 -12 21.3 -18C21.3 -24 20.6 -27.95 19.2 -29.95C17.8 -31.95 16.05 -32.95 13.95 -32.95C11.9 -32.95 10.25 -32.1 9 -30.3C7.5 -28.1 6.7 -24 6.7 -18C6.7 -12 7.4 -8.05 8.8 -6.05C10.2 -4.1 11.9 -3.1 14 -3.1C16 -3.1 17.75 -4.05 19.15 -6.05"/>
</clipPath>
<path 
style="clip-path:url(#PathID4204_ClipPathURL);fill:#000000;fill-opacity:1" d="M22.8 -32C23.75 -30.55 24.5 -28.75 25.05 -26.6C25.6 -24.5 25.9 -21.6 25.9 -18C25.9 -13.7 25.45 -10.25 24.55 -7.6C23.7 -5 22.4 -2.95 20.6 -1.5C18.9 -0.1 16.7 0.6 14 0.6C10.5 0.6 7.7 -0.65 5.7 -3.15C3.3 -6.15 2.1 -11.1 2.1 -18C2.1 -22.3 2.5 -25.75 3.4 -28.4C4.3 -31 5.6 -33.05 7.35 -34.5C9.1 -35.9 11.3 -36.65 14 -36.65C15.9 -36.65 17.6 -36.25 19.1 -35.45C20.6 -34.65 21.8 -33.5 22.8 -32" />
</g>
<g id="ShapeID_2550" transform="matrix(0.470588, 0, 0, 0.470588, 44, 20)" >
 <clipPath  id="PathID4206_ClipPathURL" clip-rule="nonzero">
<path d="M27.75 -34.4C28.95 -33.6 29.9 -32.4 30.65 -30.9C31.4 -29.4 31.8 -27.75 31.8 -25.9C31.8 -22.8 30.8 -20.2 28.8 -18.05C26.85 -15.95 23.3 -14.85 18.1 -14.85L8.8 -14.85L8.8 0L3.95 0L3.95 -36.5L17.7 -36.5C20.1 -36.5 21.95 -36.4 23.25 -36.15C25.05 -35.85 26.55 -35.3 27.75 -34.4M26.8 -25.75C26.8 -27.25 26.4 -28.6 25.6 -29.7C24.85 -30.8 23.85 -31.5 22.6 -31.85C21.8 -32.05 20.3 -32.2 18.1 -32.2L8.8 -32.2L8.8 -19.15L18.2 -19.15C21.3 -19.15 23.5 -19.7 24.8 -20.85C26.1 -22 26.8 -23.65 26.8 -25.75"/>
</clipPath>
<path 
style="clip-path:url(#PathID4206_ClipPathURL);fill:#000000;fill-opacity:1" d="M27.75 -34.4C28.95 -33.6 29.9 -32.4 30.65 -30.9C31.4 -29.4 31.8 -27.75 31.8 -25.9C31.8 -22.8 30.8 -20.2 28.8 -18.05C26.85 -15.95 23.3 -14.85 18.1 -14.85L8.8 -14.85L8.8 0L3.95 0L3.95 -36.5L17.7 -36.5C20.1 -36.5 21.95 -36.4 23.25 -36.15C25.05 -35.85 26.55 -35.3 27.75 -34.4" />
</g>
<g id="ShapeID_2551" transform="matrix(0.470588, 0, 0, 0.470588, 52.8, 20)" >
 <clipPath  id="PathID4208_ClipPathURL" clip-rule="nonzero">
<path d="M37.35 -18.2C37.35 -14.5 36.6 -11.2 35.1 -8.25C33.6 -5.35 31.5 -3.15 28.75 -1.65C26.05 -0.15 23.1 0.6 19.9 0.6C16.45 0.6 13.35 -0.2 10.65 -1.85C7.95 -3.5 5.9 -5.75 4.5 -8.65C3.15 -11.5 2.45 -14.55 2.45 -17.75C2.45 -23.8 4.05 -28.55 7.3 -32C10.55 -35.4 14.75 -37.15 19.9 -37.15C23.25 -37.15 26.3 -36.35 29 -34.7C31.7 -33.1 33.75 -30.85 35.2 -27.95C36.6 -25.1 37.35 -21.85 37.35 -18.2M32.35 -18.25C32.35 -21.2 31.85 -23.8 30.8 -26C29.8 -28.2 28.35 -29.9 26.4 -31.15C24.5 -32.35 22.35 -33 19.95 -33C16.55 -33 13.6 -31.85 11.1 -29.45C8.7 -27.15 7.45 -23.2 7.45 -17.7C7.45 -13.3 8.6 -9.85 10.95 -7.3C13.3 -4.8 16.25 -3.55 19.85 -3.55C23.45 -3.55 26.45 -4.8 28.8 -7.35C31.15 -9.9 32.35 -13.55 32.35 -18.25"/>
</clipPath>
<path 
style="clip-path:url(#PathID4208_ClipPathURL);fill:#000000;fill-opacity:1" d="M37.35 -18.2C37.35 -14.5 36.6 -11.2 35.1 -8.25C33.6 -5.35 31.5 -3.15 28.75 -1.65C26.05 -0.15 23.1 0.6 19.9 0.6C16.45 0.6 13.35 -0.2 10.65 -1.85C7.95 -3.5 5.9 -5.75 4.5 -8.65C3.15 -11.5 2.45 -14.55 2.45 -17.75C2.45 -23.8 4.05 -28.55 7.3 -32C10.55 -35.4 14.75 -37.15 19.9 -37.15C23.25 -37.15 26.3 -36.35 29 -34.7C31.7 -33.1 33.75 -30.85 35.2 -27.95C36.6 -25.1 37.35 -21.85 37.35 -18.2" />
</g>
<g id="ShapeID_2552" transform="matrix(0.470588, 0, 0, 0.470588, 61.6, 20)" >
<path 
style="fill:#000000;fill-opacity:1" d="M4.75 -36.5L9.6 -36.5L9.6 0L4.75 0L4.75 -36.5" />
</g>
<g id="ShapeID_2553" transform="matrix(0.470588, 0, 0, 0.470588, 70.4, 20)" >
<path 
style="fill:#000000;fill-opacity:1" d="M28 -36.5L32.65 -36.5L32.65 0L27.65 0L8.55 -28.6L8.55 0L3.9 0L3.9 -36.5L8.85 -36.5L28 -7.85L28 -36.5" />
</g>
<g id="ShapeID_2554" transform="matrix(0.470588, 0, 0, 0.470588, 79.2, 20)" >
<path 
style="fill:#000000;fill-opacity:1" d="M1.15 -36.5L30.1 -36.5L30.1 -32.2L18.05 -32.2L18.05 0L13.2 0L13.2 -32.2L1.15 -32.2L1.15 -36.5" />
</g>
<g id="ShapeID_2555" transform="matrix(0.470588, 0, 0, 0.470588, 88, 20)" >
<path 
style="fill:#000000;fill-opacity:1" d="M23.65 -35.8C25.7 -34.95 27.3 -33.65 28.4 -31.95C29.5 -30.3 30.15 -28.4 30.25 -26.25L25.6 -25.9C25.35 -28.15 24.5 -29.85 23.05 -31.05C21.65 -32.25 19.5 -32.85 16.7 -32.85C13.8 -32.85 11.7 -32.3 10.35 -31.2C9.05 -30.15 8.35 -28.85 8.35 -27.35C8.35 -26.05 8.8 -25 9.75 -24.1C10.65 -23.3 13.1 -22.4 17 -21.5C20.9 -20.65 23.6 -19.9 25.1 -19.2C27.2 -18.2 28.8 -16.95 29.8 -15.45C30.8 -13.95 31.35 -12.25 31.35 -10.3C31.35 -8.4 30.8 -6.55 29.65 -4.8C28.55 -3.1 26.95 -1.8 24.85 -0.8C22.8 0.1 20.45 0.6 17.85 0.6C14.55 0.6 11.8 0.15 9.55 -0.8C7.35 -1.75 5.6 -3.2 4.3 -5.15C3.05 -7.05 2.4 -9.25 2.35 -11.75L6.9 -12.15C7.1 -10.35 7.55 -8.8 8.35 -7.6C9.15 -6.45 10.35 -5.5 12.05 -4.75C13.7 -4.05 15.55 -3.7 17.65 -3.7C19.45 -3.7 21.1 -3.95 22.5 -4.5C23.9 -5.05 24.95 -5.8 25.65 -6.75C26.35 -7.7 26.7 -8.75 26.7 -9.9C26.7 -11 26.35 -12 25.65 -12.85C25 -13.7 23.9 -14.45 22.35 -15.05C21.4 -15.4 19.25 -16 15.85 -16.8C12.55 -17.6 10.2 -18.35 8.85 -19.1C7.15 -20 5.85 -21.1 4.95 -22.5C4.15 -23.85 3.7 -25.35 3.7 -27.05C3.7 -28.85 4.2 -30.6 5.25 -32.2C6.25 -33.8 7.8 -35.05 9.8 -35.9C11.8 -36.7 14.05 -37.15 16.5 -37.15C19.2 -37.15 21.55 -36.7 23.65 -35.8" />
</g>
</svg>
