<?xml version="1.0" encoding="utf-8"?>
<svg version="1.1" id="Layer_1"
xmlns="http://www.w3.org/2000/svg"
xmlns:xlink="http://www.w3.org/1999/xlink"
width="550px" height="400px"
xml:space="preserve">
<g id="ShapeID_2567" transform="matrix(0.254902, 0, 0, 0.254902, 0, 12)" >
<path 
style="fill:#FFFFFF;fill-opacity:1" d="M1.15 -36.5L30.1 -36.5L30.1 -32.2L18.05 -32.2L18.05 0L13.2 0L13.2 -32.2L1.15 -32.2L1.15 -36.5" />
</g>
<g id="ShapeID_2568" transform="matrix(0.254902, 0, 0, 0.254902, 6, 12)" >
 <clipPath  id="PathID4235_ClipPathURL" clip-rule="nonzero">
<path d="M34.1 0L28.6 0L24.35 -11.05L9 -11.05L5.05 0L-0.1 0L13.85 -36.5L19.15 -36.5L34.1 0M19 -25.1C17.9 -28.15 17 -30.7 16.4 -32.7C15.9 -30.35 15.25 -28 14.4 -25.7L10.4 -15L22.85 -15L19 -25.1"/>
</clipPath>
<path 
style="clip-path:url(#PathID4235_ClipPathURL);fill:#FFFFFF;fill-opacity:1" d="M34.1 0L28.6 0L24.35 -11.05L9 -11.05L5.05 0L-0.1 0L13.85 -36.5L19.15 -36.5L34.1 0" />
</g>
<g id="ShapeID_2569" transform="matrix(0.254902, 0, 0, 0.254902, 13.8, 12)" >
<path 
style="fill:#FFFFFF;fill-opacity:1" d="M33.3 -36.5L17.95 -21.65L33.95 0L27.55 0L14.55 -18.35L8.6 -12.65L8.6 0L3.75 0L3.75 -36.5L8.6 -36.5L8.6 -18.4L26.7 -36.5L33.3 -36.5" />
</g>
<g id="ShapeID_2570" transform="matrix(0.254902, 0, 0, 0.254902, 21.55, 12)" >
 <clipPath  id="PathID4238_ClipPathURL" clip-rule="nonzero">
<path d="M34.1 0L28.6 0L24.35 -11.05L9 -11.05L5.05 0L-0.1 0L13.85 -36.5L19.15 -36.5L34.1 0M19 -25.1C17.9 -28.15 17 -30.7 16.4 -32.7C15.9 -30.35 15.25 -28 14.4 -25.7L10.4 -15L22.85 -15L19 -25.1"/>
</clipPath>
<path 
style="clip-path:url(#PathID4238_ClipPathURL);fill:#FFFFFF;fill-opacity:1" d="M34.1 0L28.6 0L24.35 -11.05L9 -11.05L5.05 0L-0.1 0L13.85 -36.5L19.15 -36.5L34.1 0" />
</g>
<g id="ShapeID_2571" transform="matrix(0.254902, 0, 0, 0.254902, 29.35, 12)" >
<path 
style="fill:#FFFFFF;fill-opacity:1" d="M4.75 -36.5L9.6 -36.5L9.6 0L4.75 0L4.75 -36.5" />
</g>
<g id="ShapeID_2572" transform="matrix(0.254902, 0, 0, 0.254902, 33.2, 12)" >
<path 
style="fill:#FFFFFF;fill-opacity:1" d="M23.65 -35.8C25.7 -34.95 27.3 -33.65 28.4 -31.95C29.5 -30.3 30.15 -28.4 30.25 -26.25L25.6 -25.9C25.35 -28.15 24.5 -29.85 23.05 -31.05C21.65 -32.25 19.5 -32.85 16.7 -32.85C13.8 -32.85 11.7 -32.3 10.35 -31.2C9.05 -30.15 8.35 -28.85 8.35 -27.35C8.35 -26.05 8.8 -25 9.75 -24.1C10.65 -23.3 13.1 -22.4 17 -21.5C20.9 -20.65 23.6 -19.9 25.1 -19.2C27.2 -18.2 28.8 -16.95 29.8 -15.45C30.8 -13.95 31.35 -12.25 31.35 -10.3C31.35 -8.4 30.8 -6.55 29.65 -4.8C28.55 -3.1 26.95 -1.8 24.85 -0.8C22.8 0.1 20.45 0.6 17.85 0.6C14.55 0.6 11.8 0.15 9.55 -0.8C7.35 -1.75 5.6 -3.2 4.3 -5.15C3.05 -7.05 2.4 -9.25 2.35 -11.75L6.9 -12.15C7.1 -10.35 7.55 -8.8 8.35 -7.6C9.15 -6.45 10.35 -5.5 12.05 -4.75C13.7 -4.05 15.55 -3.7 17.65 -3.7C19.45 -3.7 21.1 -3.95 22.5 -4.5C23.9 -5.05 24.95 -5.8 25.65 -6.75C26.35 -7.7 26.7 -8.75 26.7 -9.9C26.7 -11 26.35 -12 25.65 -12.85C25 -13.7 23.9 -14.45 22.35 -15.05C21.4 -15.4 19.25 -16 15.85 -16.8C12.55 -17.6 10.2 -18.35 8.85 -19.1C7.15 -20 5.85 -21.1 4.95 -22.5C4.15 -23.85 3.7 -25.35 3.7 -27.05C3.7 -28.85 4.2 -30.6 5.25 -32.2C6.25 -33.8 7.8 -35.05 9.8 -35.9C11.8 -36.7 14.05 -37.15 16.5 -37.15C19.2 -37.15 21.55 -36.7 23.65 -35.8" />
</g>
<g id="ShapeID_2573" transform="matrix(0.254902, 0, 0, 0.254902, 39.8, 12)" >
<path 
style="fill:#FFFFFF;fill-opacity:1" d="M4.75 -36.5L9.6 -36.5L9.6 0L4.75 0L4.75 -36.5" />
</g>
<g id="ShapeID_2574" transform="matrix(0.254902, 0, 0, 0.254902, 43.65, 12)" >
<path 
style="fill:#FFFFFF;fill-opacity:1" d="M28 -36.5L32.65 -36.5L32.65 0L27.65 0L8.55 -28.6L8.55 0L3.9 0L3.9 -36.5L8.85 -36.5L28 -7.85L28 -36.5" />
</g>
<g id="ShapeID_2575" transform="matrix(0.254902, 0, 0, 0.254902, 57.85, 12)" >
 <clipPath  id="PathID4244_ClipPathURL" clip-rule="nonzero">
<path d="M34.1 0L28.6 0L24.35 -11.05L9 -11.05L5.05 0L-0.1 0L13.85 -36.5L19.15 -36.5L34.1 0M19 -25.1C17.9 -28.15 17 -30.7 16.4 -32.7C15.9 -30.35 15.25 -28 14.4 -25.7L10.4 -15L22.85 -15L19 -25.1"/>
</clipPath>
<path 
style="clip-path:url(#PathID4244_ClipPathURL);fill:#FFFFFF;fill-opacity:1" d="M34.1 0L28.6 0L24.35 -11.05L9 -11.05L5.05 0L-0.1 0L13.85 -36.5L19.15 -36.5L34.1 0" />
</g>
<g id="ShapeID_2576" transform="matrix(0.254902, 0, 0, 0.254902, 65.65, 12)" >
<path 
style="fill:#FFFFFF;fill-opacity:1" d="M8.6 -36.5L8.6 -4.3L26.55 -4.3L26.55 0L3.75 0L3.75 -36.5L8.6 -36.5" />
</g>
<g id="ShapeID_2577" transform="matrix(0.254902, 0, 0, 0.254902, 72, 12)" >
 <clipPath  id="PathID4247_ClipPathURL" clip-rule="nonzero">
<path d="M37.35 -18.2C37.35 -14.5 36.6 -11.2 35.1 -8.25C33.6 -5.35 31.5 -3.15 28.75 -1.65C26.05 -0.15 23.1 0.6 19.9 0.6C16.45 0.6 13.35 -0.2 10.65 -1.85C7.95 -3.5 5.9 -5.75 4.5 -8.65C3.15 -11.5 2.45 -14.55 2.45 -17.75C2.45 -23.8 4.05 -28.55 7.3 -32C10.55 -35.4 14.75 -37.15 19.9 -37.15C23.25 -37.15 26.3 -36.35 29 -34.7C31.7 -33.1 33.75 -30.85 35.2 -27.95C36.6 -25.1 37.35 -21.85 37.35 -18.2M32.35 -18.25C32.35 -21.2 31.85 -23.8 30.8 -26C29.8 -28.2 28.35 -29.9 26.4 -31.15C24.5 -32.35 22.35 -33 19.95 -33C16.55 -33 13.6 -31.85 11.1 -29.45C8.7 -27.15 7.45 -23.2 7.45 -17.7C7.45 -13.3 8.6 -9.85 10.95 -7.3C13.3 -4.8 16.25 -3.55 19.85 -3.55C23.45 -3.55 26.45 -4.8 28.8 -7.35C31.15 -9.9 32.35 -13.55 32.35 -18.25"/>
</clipPath>
<path 
style="clip-path:url(#PathID4247_ClipPathURL);fill:#FFFFFF;fill-opacity:1" d="M37.35 -18.2C37.35 -14.5 36.6 -11.2 35.1 -8.25C33.6 -5.35 31.5 -3.15 28.75 -1.65C26.05 -0.15 23.1 0.6 19.9 0.6C16.45 0.6 13.35 -0.2 10.65 -1.85C7.95 -3.5 5.9 -5.75 4.5 -8.65C3.15 -11.5 2.45 -14.55 2.45 -17.75C2.45 -23.8 4.05 -28.55 7.3 -32C10.55 -35.4 14.75 -37.15 19.9 -37.15C23.25 -37.15 26.3 -36.35 29 -34.7C31.7 -33.1 33.75 -30.85 35.2 -27.95C36.6 -25.1 37.35 -21.85 37.35 -18.2" />
</g>
<g id="ShapeID_2578" transform="matrix(0.254902, 0, 0, 0.254902, 79.85, 12)" >
<path 
style="fill:#FFFFFF;fill-opacity:1" d="M4.75 -36.5L9.6 -36.5L9.6 0L4.75 0L4.75 -36.5" />
</g>
<g id="ShapeID_2579" transform="matrix(0.254902, 0, 0, 0.254902, 83.7, 12)" >
<path 
style="fill:#FFFFFF;fill-opacity:1" d="M1.15 -36.5L30.1 -36.5L30.1 -32.2L18.05 -32.2L18.05 0L13.2 0L13.2 -32.2L1.15 -32.2L1.15 -36.5" />
</g>
<g id="ShapeID_2580" transform="matrix(0.254902, 0, 0, 0.254902, 90.35, 12)" >
<path 
style="fill:#FFFFFF;fill-opacity:1" d="M5.35 -6.25C4.45 -8.45 4 -11.5 4 -15.4L4 -36.5L8.85 -36.5L8.85 -15.4C8.85 -12.25 9.1 -9.9 9.7 -8.4C10.3 -6.9 11.3 -5.75 12.75 -4.95C14.15 -4.15 15.9 -3.75 18 -3.75C21.55 -3.75 24.1 -4.55 25.6 -6.15C27.1 -7.75 27.9 -10.8 27.9 -15.4L27.9 -36.5L32.75 -36.5L32.75 -15.4C32.75 -11.75 32.35 -8.85 31.5 -6.65C30.7 -4.55 29.15 -2.8 26.95 -1.4C24.8 -0.1 21.95 0.6 18.45 0.6C15.05 0.6 12.2 0.05 10 -1.15C7.85 -2.3 6.3 -4 5.35 -6.25" />
</g>
<g id="ShapeID_2581" transform="matrix(0.254902, 0, 0, 0.254902, 98.2, 12)" >
<path 
style="fill:#FFFFFF;fill-opacity:1" d="M23.65 -35.8C25.7 -34.95 27.3 -33.65 28.4 -31.95C29.5 -30.3 30.15 -28.4 30.25 -26.25L25.6 -25.9C25.35 -28.15 24.5 -29.85 23.05 -31.05C21.65 -32.25 19.5 -32.85 16.7 -32.85C13.8 -32.85 11.7 -32.3 10.35 -31.2C9.05 -30.15 8.35 -28.85 8.35 -27.35C8.35 -26.05 8.8 -25 9.75 -24.1C10.65 -23.3 13.1 -22.4 17 -21.5C20.9 -20.65 23.6 -19.9 25.1 -19.2C27.2 -18.2 28.8 -16.95 29.8 -15.45C30.8 -13.95 31.35 -12.25 31.35 -10.3C31.35 -8.4 30.8 -6.55 29.65 -4.8C28.55 -3.1 26.95 -1.8 24.85 -0.8C22.8 0.1 20.45 0.6 17.85 0.6C14.55 0.6 11.8 0.15 9.55 -0.8C7.35 -1.75 5.6 -3.2 4.3 -5.15C3.05 -7.05 2.4 -9.25 2.35 -11.75L6.9 -12.15C7.1 -10.35 7.55 -8.8 8.35 -7.6C9.15 -6.45 10.35 -5.5 12.05 -4.75C13.7 -4.05 15.55 -3.7 17.65 -3.7C19.45 -3.7 21.1 -3.95 22.5 -4.5C23.9 -5.05 24.95 -5.8 25.65 -6.75C26.35 -7.7 26.7 -8.75 26.7 -9.9C26.7 -11 26.35 -12 25.65 -12.85C25 -13.7 23.9 -14.45 22.35 -15.05C21.4 -15.4 19.25 -16 15.85 -16.8C12.55 -17.6 10.2 -18.35 8.85 -19.1C7.15 -20 5.85 -21.1 4.95 -22.5C4.15 -23.85 3.7 -25.35 3.7 -27.05C3.7 -28.85 4.2 -30.6 5.25 -32.2C6.25 -33.8 7.8 -35.05 9.8 -35.9C11.8 -36.7 14.05 -37.15 16.5 -37.15C19.2 -37.15 21.55 -36.7 23.65 -35.8" />
</g>
<g id="ShapeID_2582" transform="matrix(0.254902, 0, 0, 0.254902, 104.8, 12)" >
<path 
style="fill:#FFFFFF;fill-opacity:1" d="M23.65 -35.8C25.7 -34.95 27.3 -33.65 28.4 -31.95C29.5 -30.3 30.15 -28.4 30.25 -26.25L25.6 -25.9C25.35 -28.15 24.5 -29.85 23.05 -31.05C21.65 -32.25 19.5 -32.85 16.7 -32.85C13.8 -32.85 11.7 -32.3 10.35 -31.2C9.05 -30.15 8.35 -28.85 8.35 -27.35C8.35 -26.05 8.8 -25 9.75 -24.1C10.65 -23.3 13.1 -22.4 17 -21.5C20.9 -20.65 23.6 -19.9 25.1 -19.2C27.2 -18.2 28.8 -16.95 29.8 -15.45C30.8 -13.95 31.35 -12.25 31.35 -10.3C31.35 -8.4 30.8 -6.55 29.65 -4.8C28.55 -3.1 26.95 -1.8 24.85 -0.8C22.8 0.1 20.45 0.6 17.85 0.6C14.55 0.6 11.8 0.15 9.55 -0.8C7.35 -1.75 5.6 -3.2 4.3 -5.15C3.05 -7.05 2.4 -9.25 2.35 -11.75L6.9 -12.15C7.1 -10.35 7.55 -8.8 8.35 -7.6C9.15 -6.45 10.35 -5.5 12.05 -4.75C13.7 -4.05 15.55 -3.7 17.65 -3.7C19.45 -3.7 21.1 -3.95 22.5 -4.5C23.9 -5.05 24.95 -5.8 25.65 -6.75C26.35 -7.7 26.7 -8.75 26.7 -9.9C26.7 -11 26.35 -12 25.65 -12.85C25 -13.7 23.9 -14.45 22.35 -15.05C21.4 -15.4 19.25 -16 15.85 -16.8C12.55 -17.6 10.2 -18.35 8.85 -19.1C7.15 -20 5.85 -21.1 4.95 -22.5C4.15 -23.85 3.7 -25.35 3.7 -27.05C3.7 -28.85 4.2 -30.6 5.25 -32.2C6.25 -33.8 7.8 -35.05 9.8 -35.9C11.8 -36.7 14.05 -37.15 16.5 -37.15C19.2 -37.15 21.55 -36.7 23.65 -35.8" />
</g>
<g id="ShapeID_2583" transform="matrix(0.254902, 0, 0, 0.254902, 111.4, 12)" >
<path 
style="fill:#FFFFFF;fill-opacity:1" d="M4.75 -36.5L9.6 -36.5L9.6 0L4.75 0L4.75 -36.5" />
</g>
<g id="ShapeID_2584" transform="matrix(0.254902, 0, 0, 0.254902, 115.25, 12)" >
<path 
style="fill:#FFFFFF;fill-opacity:1" d="M14.95 -9.95C15.7 -7.85 16.35 -5.9 16.85 -4C17.4 -6 18.05 -7.95 18.8 -9.95L28.7 -36.5L33.6 -36.5L19.35 0L14.35 0L0.2 -36.5L5.45 -36.5L14.95 -9.95" />
</g>
<g id="ShapeID_2585" transform="matrix(0.254902, 0, 0, 0.254902, 122.65, 12)" >
<path 
style="fill:#FFFFFF;fill-opacity:1" d="M5.35 -6.25C4.45 -8.45 4 -11.5 4 -15.4L4 -36.5L8.85 -36.5L8.85 -15.4C8.85 -12.25 9.1 -9.9 9.7 -8.4C10.3 -6.9 11.3 -5.75 12.75 -4.95C14.15 -4.15 15.9 -3.75 18 -3.75C21.55 -3.75 24.1 -4.55 25.6 -6.15C27.1 -7.75 27.9 -10.8 27.9 -15.4L27.9 -36.5L32.75 -36.5L32.75 -15.4C32.75 -11.75 32.35 -8.85 31.5 -6.65C30.7 -4.55 29.15 -2.8 26.95 -1.4C24.8 -0.1 21.95 0.6 18.45 0.6C15.05 0.6 12.2 0.05 10 -1.15C7.85 -2.3 6.3 -4 5.35 -6.25" />
</g>
<g id="ShapeID_2586" transform="matrix(0.254902, 0, 0, 0.254902, 130.5, 12)" >
<path 
style="fill:#FFFFFF;fill-opacity:1" d="M8.6 -36.5L8.6 -4.3L26.55 -4.3L26.55 0L3.75 0L3.75 -36.5L8.6 -36.5" />
</g>
<g id="ShapeID_2587" transform="matrix(0.254902, 0, 0, 0.254902, 136.85, 12)" >
<path 
style="fill:#FFFFFF;fill-opacity:1" d="M8.6 -36.5L8.6 -4.3L26.55 -4.3L26.55 0L3.75 0L3.75 -36.5L8.6 -36.5" />
</g>
<g id="ShapeID_2588" transform="matrix(0.254902, 0, 0, 0.254902, 143.2, 12)" >
<path 
style="fill:#FFFFFF;fill-opacity:1" d="M8.9 -21.05L29.05 -21.05L29.05 -16.75L8.9 -16.75L8.9 -4.3L31.25 -4.3L31.25 0L4.05 0L4.05 -36.5L30.4 -36.5L30.4 -32.2L8.9 -32.2L8.9 -21.05" />
</g>
</svg>
