<?xml version="1.0" encoding="utf-8"?>
<svg version="1.1" id="Layer_1"
xmlns="http://www.w3.org/2000/svg"
xmlns:xlink="http://www.w3.org/1999/xlink"
width="550px" height="400px"
xml:space="preserve">
<g id="ShapeID_2507" transform="matrix(0.392157, 0, 0, 0.392157, 16.25, 18)" >
 <clipPath  id="PathID4146_ClipPathURL" clip-rule="nonzero">
<path d="M32.7 -27.1C33.65 -24.6 34.15 -21.7 34.15 -18.4C34.15 -15.65 33.85 -13.2 33.15 -11.05C32.55 -8.95 31.7 -7.15 30.65 -5.75C29.65 -4.35 28.55 -3.25 27.35 -2.4C26.15 -1.6 24.7 -1 22.95 -0.6C21.25 -0.2 19.3 0 17.1 0L3.95 0L3.95 -36.5L16.5 -36.5C19.3 -36.5 21.5 -36.35 23 -35.95C25.1 -35.5 26.85 -34.65 28.35 -33.35C30.25 -31.75 31.7 -29.65 32.7 -27.1M28.15 -11.45C28.8 -13.35 29.15 -15.7 29.15 -18.5C29.15 -22.3 28.55 -25.25 27.25 -27.3C26 -29.35 24.5 -30.75 22.7 -31.45C21.4 -31.95 19.35 -32.2 16.45 -32.2L8.8 -32.2L8.8 -4.3L16.55 -4.3C18.95 -4.3 20.8 -4.5 22.2 -4.95C23.55 -5.35 24.65 -6 25.5 -6.85C26.6 -7.95 27.5 -9.5 28.15 -11.45"/>
</clipPath>
<path 
style="clip-path:url(#PathID4146_ClipPathURL);fill:#000000;fill-opacity:1" d="M32.7 -27.1C33.65 -24.6 34.15 -21.7 34.15 -18.4C34.15 -15.65 33.85 -13.2 33.15 -11.05C32.55 -8.95 31.7 -7.15 30.65 -5.75C29.65 -4.35 28.55 -3.25 27.35 -2.4C26.15 -1.6 24.7 -1 22.95 -0.6C21.25 -0.2 19.3 0 17.1 0L3.95 0L3.95 -36.5L16.5 -36.5C19.3 -36.5 21.5 -36.35 23 -35.95C25.1 -35.5 26.85 -34.65 28.35 -33.35C30.25 -31.75 31.7 -29.65 32.7 -27.1" />
</g>
<g id="ShapeID_2508" transform="matrix(0.392157, 0, 0, 0.392157, 30.7, 18)" >
<path 
style="fill:#000000;fill-opacity:1" d="M4.75 -36.5L9.6 -36.5L9.6 0L4.75 0L4.75 -36.5" />
</g>
<g id="ShapeID_2509" transform="matrix(0.392157, 0, 0, 0.392157, 36.2, 18)" >
<path 
style="fill:#000000;fill-opacity:1" d="M28 -36.5L32.65 -36.5L32.65 0L27.65 0L8.55 -28.6L8.55 0L3.9 0L3.9 -36.5L8.85 -36.5L28 -7.85L28 -36.5" />
</g>
<g id="ShapeID_2510" transform="matrix(0.392157, 0, 0, 0.392157, 56.15, 18)" >
 <clipPath  id="PathID4150_ClipPathURL" clip-rule="nonzero">
<path d="M25.8 -14.75C27.2 -13.45 28.5 -11.85 29.8 -9.9L36.15 0L30.1 0L25.25 -7.55C23.85 -9.75 22.7 -11.4 21.75 -12.6C20.85 -13.75 20.05 -14.55 19.3 -15.05C18.6 -15.5 17.9 -15.8 17.1 -16C16.6 -16.1 15.7 -16.2 14.45 -16.2L8.85 -16.2L8.85 0L4 0L4 -36.5L20.2 -36.5C23.4 -36.5 25.9 -36.2 27.6 -35.5C29.3 -34.85 30.65 -33.7 31.65 -32C32.65 -30.4 33.2 -28.55 33.2 -26.5C33.2 -23.95 32.35 -21.75 30.65 -19.95C29 -18.2 26.4 -17.1 22.9 -16.6C24.15 -16 25.1 -15.35 25.8 -14.75M27.2 -23.25C27.85 -24.25 28.2 -25.3 28.2 -26.5C28.2 -28.2 27.6 -29.65 26.3 -30.75C25.1 -31.85 23.1 -32.45 20.4 -32.45L8.85 -32.45L8.85 -20.4L19.2 -20.4C21.4 -20.4 23.1 -20.6 24.35 -21.05C25.6 -21.5 26.55 -22.25 27.2 -23.25"/>
</clipPath>
<path 
style="clip-path:url(#PathID4150_ClipPathURL);fill:#000000;fill-opacity:1" d="M25.8 -14.75C27.2 -13.45 28.5 -11.85 29.8 -9.9L36.15 0L30.1 0L25.25 -7.55C23.85 -9.75 22.7 -11.4 21.75 -12.6C20.85 -13.75 20.05 -14.55 19.3 -15.05C18.6 -15.5 17.9 -15.8 17.1 -16C16.6 -16.1 15.7 -16.2 14.45 -16.2L8.85 -16.2L8.85 0L4 0L4 -36.5L20.2 -36.5C23.4 -36.5 25.9 -36.2 27.6 -35.5C29.3 -34.85 30.65 -33.7 31.65 -32C32.65 -30.4 33.2 -28.55 33.2 -26.5C33.2 -23.95 32.35 -21.75 30.65 -19.95C29 -18.2 26.4 -17.1 22.9 -16.6C24.15 -16 25.1 -15.35 25.8 -14.75" />
</g>
<g id="ShapeID_2511" transform="matrix(0.392157, 0, 0, 0.392157, 70.6, 18)" >
 <clipPath  id="PathID4152_ClipPathURL" clip-rule="nonzero">
<path d="M34.1 0L28.6 0L24.35 -11.05L9 -11.05L5.05 0L-0.1 0L13.85 -36.5L19.15 -36.5L34.1 0M19 -25.1C17.9 -28.15 17 -30.7 16.4 -32.7C15.9 -30.35 15.25 -28 14.4 -25.7L10.4 -15L22.85 -15L19 -25.1"/>
</clipPath>
<path 
style="clip-path:url(#PathID4152_ClipPathURL);fill:#000000;fill-opacity:1" d="M34.1 0L28.6 0L24.35 -11.05L9 -11.05L5.05 0L-0.1 0L13.85 -36.5L19.15 -36.5L34.1 0" />
</g>
<g id="ShapeID_2512" transform="matrix(0.392157, 0, 0, 0.392157, 83.9, 18)" >
<path 
style="fill:#000000;fill-opacity:1" d="M33.3 -36.5L17.95 -21.65L33.95 0L27.55 0L14.55 -18.35L8.6 -12.65L8.6 0L3.75 0L3.75 -36.5L8.6 -36.5L8.6 -18.4L26.7 -36.5L33.3 -36.5" />
</g>
<g id="ShapeID_2513" transform="matrix(0.392157, 0, 0, 0.392157, 97.2, 18)" >
<path 
style="fill:#000000;fill-opacity:1" d="M4.75 -36.5L9.6 -36.5L9.6 0L4.75 0L4.75 -36.5" />
</g>
<g id="ShapeID_2514" transform="matrix(0.392157, 0, 0, 0.392157, 102.7, 18)" >
<path 
style="fill:#000000;fill-opacity:1" d="M28 -36.5L32.65 -36.5L32.65 0L27.65 0L8.55 -28.6L8.55 0L3.9 0L3.9 -36.5L8.85 -36.5L28 -7.85L28 -36.5" />
</g>
<g id="ShapeID_2515" transform="matrix(0.392157, 0, 0, 0.392157, 117.15, 18)" >
<path 
style="fill:#000000;fill-opacity:1" d="M35.9 -26.25L31.5 -25.05C31 -26.9 30.3 -28.35 29.45 -29.45C28.65 -30.5 27.5 -31.35 26 -32C24.5 -32.65 22.85 -33 20.95 -33C18.75 -33 16.85 -32.65 15.25 -31.95C13.65 -31.3 12.35 -30.4 11.35 -29.3C10.4 -28.2 9.65 -27 9.05 -25.7C8.15 -23.45 7.7 -21 7.7 -18.35C7.7 -15.1 8.25 -12.35 9.35 -10.15C10.45 -7.95 12.1 -6.35 14.25 -5.25C16.35 -4.25 18.65 -3.7 21.05 -3.7C23.1 -3.7 25.15 -4.1 27.15 -4.9C29.15 -5.7 30.65 -6.55 31.7 -7.45L31.7 -14.3L21 -14.3L21 -18.6L36.45 -18.6L36.45 -5.05C34.05 -3.2 31.6 -1.8 29.05 -0.8C26.55 0.1 24 0.6 21.3 0.6C17.75 0.6 14.5 -0.15 11.55 -1.7C8.65 -3.2 6.4 -5.45 4.9 -8.35C3.45 -11.25 2.7 -14.5 2.7 -18.1C2.7 -21.6 3.4 -24.9 4.9 -28C6.4 -31.1 8.5 -33.4 11.3 -34.9C14.1 -36.4 17.3 -37.15 20.95 -37.15C23.55 -37.15 25.95 -36.75 28.1 -35.85C30.2 -35 31.9 -33.8 33.1 -32.25C34.3 -30.75 35.25 -28.75 35.9 -26.25" />
</g>
<g id="ShapeID_2516" transform="matrix(0.392157, 0, 0, 0.392157, 138.15, 18)" >
 <clipPath  id="PathID4158_ClipPathURL" clip-rule="nonzero">
<path d="M34.1 0L28.6 0L24.35 -11.05L9 -11.05L5.05 0L-0.1 0L13.85 -36.5L19.15 -36.5L34.1 0M19 -25.1C17.9 -28.15 17 -30.7 16.4 -32.7C15.9 -30.35 15.25 -28 14.4 -25.7L10.4 -15L22.85 -15L19 -25.1"/>
</clipPath>
<path 
style="clip-path:url(#PathID4158_ClipPathURL);fill:#000000;fill-opacity:1" d="M34.1 0L28.6 0L24.35 -11.05L9 -11.05L5.05 0L-0.1 0L13.85 -36.5L19.15 -36.5L34.1 0" />
<path 
style="fill:#000000;fill-opacity:1" d="M9.6 -43.85L14.3 -43.85L14.3 -38.75L9.6 -38.75L9.6 -43.85" />
<path 
style="fill:#000000;fill-opacity:1" d="M18.9 -43.85L23.6 -43.85L23.6 -38.75L18.9 -38.75L18.9 -43.85" />
</g>
<g id="ShapeID_2517" transform="matrix(0.392157, 0, 0, 0.392157, 151.45, 18)" >
 <clipPath  id="PathID4162_ClipPathURL" clip-rule="nonzero">
<path d="M25.8 -14.75C27.2 -13.45 28.5 -11.85 29.8 -9.9L36.15 0L30.1 0L25.25 -7.55C23.85 -9.75 22.7 -11.4 21.75 -12.6C20.85 -13.75 20.05 -14.55 19.3 -15.05C18.6 -15.5 17.9 -15.8 17.1 -16C16.6 -16.1 15.7 -16.2 14.45 -16.2L8.85 -16.2L8.85 0L4 0L4 -36.5L20.2 -36.5C23.4 -36.5 25.9 -36.2 27.6 -35.5C29.3 -34.85 30.65 -33.7 31.65 -32C32.65 -30.4 33.2 -28.55 33.2 -26.5C33.2 -23.95 32.35 -21.75 30.65 -19.95C29 -18.2 26.4 -17.1 22.9 -16.6C24.15 -16 25.1 -15.35 25.8 -14.75M27.2 -23.25C27.85 -24.25 28.2 -25.3 28.2 -26.5C28.2 -28.2 27.6 -29.65 26.3 -30.75C25.1 -31.85 23.1 -32.45 20.4 -32.45L8.85 -32.45L8.85 -20.4L19.2 -20.4C21.4 -20.4 23.1 -20.6 24.35 -21.05C25.6 -21.5 26.55 -22.25 27.2 -23.25"/>
</clipPath>
<path 
style="clip-path:url(#PathID4162_ClipPathURL);fill:#000000;fill-opacity:1" d="M25.8 -14.75C27.2 -13.45 28.5 -11.85 29.8 -9.9L36.15 0L30.1 0L25.25 -7.55C23.85 -9.75 22.7 -11.4 21.75 -12.6C20.85 -13.75 20.05 -14.55 19.3 -15.05C18.6 -15.5 17.9 -15.8 17.1 -16C16.6 -16.1 15.7 -16.2 14.45 -16.2L8.85 -16.2L8.85 0L4 0L4 -36.5L20.2 -36.5C23.4 -36.5 25.9 -36.2 27.6 -35.5C29.3 -34.85 30.65 -33.7 31.65 -32C32.65 -30.4 33.2 -28.55 33.2 -26.5C33.2 -23.95 32.35 -21.75 30.65 -19.95C29 -18.2 26.4 -17.1 22.9 -16.6C24.15 -16 25.1 -15.35 25.8 -14.75" />
</g>
<g id="ShapeID_2518" transform="matrix(0.392157, 0, 0, 0.392157, 171.4, 18)" >
<path 
style="fill:#000000;fill-opacity:1" d="M28 -36.5L32.65 -36.5L32.65 0L27.65 0L8.55 -28.6L8.55 0L3.9 0L3.9 -36.5L8.85 -36.5L28 -7.85L28 -36.5" />
</g>
<g id="ShapeID_2519" transform="matrix(0.392157, 0, 0, 0.392157, 185.85, 18)" >
<path 
style="fill:#000000;fill-opacity:1" d="M5.35 -6.25C4.45 -8.45 4 -11.5 4 -15.4L4 -36.5L8.85 -36.5L8.85 -15.4C8.85 -12.25 9.1 -9.9 9.7 -8.4C10.3 -6.9 11.3 -5.75 12.75 -4.95C14.15 -4.15 15.9 -3.75 18 -3.75C21.55 -3.75 24.1 -4.55 25.6 -6.15C27.1 -7.75 27.9 -10.8 27.9 -15.4L27.9 -36.5L32.75 -36.5L32.75 -15.4C32.75 -11.75 32.35 -8.85 31.5 -6.65C30.7 -4.55 29.15 -2.8 26.95 -1.4C24.8 -0.1 21.95 0.6 18.45 0.6C15.05 0.6 12.2 0.05 10 -1.15C7.85 -2.3 6.3 -4 5.35 -6.25" />
</g>
<g id="ShapeID_2520" transform="matrix(0.392157, 0, 0, 0.392157, 200.3, 18)" >
<path 
style="fill:#000000;fill-opacity:1" d="M23.35 -11.05L32.15 -36.5L38.65 -36.5L38.65 0L34 0L34 -30.55L23.3 0L18.95 0L8.45 -31.05L8.45 0L3.8 0L3.8 -36.5L11 -36.5L19.65 -10.65C20.45 -8.25 21 -6.4 21.4 -5.2C21.8 -6.5 22.45 -8.45 23.35 -11.05" />
</g>
<g id="ShapeID_2521" transform="matrix(0.392157, 0, 0, 0.392157, 216.95, 18)" >
<path 
style="fill:#000000;fill-opacity:1" d="M23.35 -11.05L32.15 -36.5L38.65 -36.5L38.65 0L34 0L34 -30.55L23.3 0L18.95 0L8.45 -31.05L8.45 0L3.8 0L3.8 -36.5L11 -36.5L19.65 -10.65C20.45 -8.25 21 -6.4 21.4 -5.2C21.8 -6.5 22.45 -8.45 23.35 -11.05" />
</g>
<g id="ShapeID_2522" transform="matrix(0.392157, 0, 0, 0.392157, 233.6, 18)" >
<path 
style="fill:#000000;fill-opacity:1" d="M8.9 -21.05L29.05 -21.05L29.05 -16.75L8.9 -16.75L8.9 -4.3L31.25 -4.3L31.25 0L4.05 0L4.05 -36.5L30.4 -36.5L30.4 -32.2L8.9 -32.2L8.9 -21.05" />
</g>
<g id="ShapeID_2523" transform="matrix(0.392157, 0, 0, 0.392157, 246.9, 18)" >
 <clipPath  id="PathID4169_ClipPathURL" clip-rule="nonzero">
<path d="M25.8 -14.75C27.2 -13.45 28.5 -11.85 29.8 -9.9L36.15 0L30.1 0L25.25 -7.55C23.85 -9.75 22.7 -11.4 21.75 -12.6C20.85 -13.75 20.05 -14.55 19.3 -15.05C18.6 -15.5 17.9 -15.8 17.1 -16C16.6 -16.1 15.7 -16.2 14.45 -16.2L8.85 -16.2L8.85 0L4 0L4 -36.5L20.2 -36.5C23.4 -36.5 25.9 -36.2 27.6 -35.5C29.3 -34.85 30.65 -33.7 31.65 -32C32.65 -30.4 33.2 -28.55 33.2 -26.5C33.2 -23.95 32.35 -21.75 30.65 -19.95C29 -18.2 26.4 -17.1 22.9 -16.6C24.15 -16 25.1 -15.35 25.8 -14.75M27.2 -23.25C27.85 -24.25 28.2 -25.3 28.2 -26.5C28.2 -28.2 27.6 -29.65 26.3 -30.75C25.1 -31.85 23.1 -32.45 20.4 -32.45L8.85 -32.45L8.85 -20.4L19.2 -20.4C21.4 -20.4 23.1 -20.6 24.35 -21.05C25.6 -21.5 26.55 -22.25 27.2 -23.25"/>
</clipPath>
<path 
style="clip-path:url(#PathID4169_ClipPathURL);fill:#000000;fill-opacity:1" d="M25.8 -14.75C27.2 -13.45 28.5 -11.85 29.8 -9.9L36.15 0L30.1 0L25.25 -7.55C23.85 -9.75 22.7 -11.4 21.75 -12.6C20.85 -13.75 20.05 -14.55 19.3 -15.05C18.6 -15.5 17.9 -15.8 17.1 -16C16.6 -16.1 15.7 -16.2 14.45 -16.2L8.85 -16.2L8.85 0L4 0L4 -36.5L20.2 -36.5C23.4 -36.5 25.9 -36.2 27.6 -35.5C29.3 -34.85 30.65 -33.7 31.65 -32C32.65 -30.4 33.2 -28.55 33.2 -26.5C33.2 -23.95 32.35 -21.75 30.65 -19.95C29 -18.2 26.4 -17.1 22.9 -16.6C24.15 -16 25.1 -15.35 25.8 -14.75" />
</g>
<g id="ShapeID_2524" transform="matrix(0.392157, 0, 0, 0.392157, 266.85, 18)" >
<path 
style="fill:#000000;fill-opacity:1" d="M26.95 -30.35L26.95 -25.85L7.85 -18L26.95 -10.1L26.95 -5.6L2.85 -15.95L2.85 -20.15L26.95 -30.35" />
</g>
<g id="ShapeID_2525" transform="matrix(0.392157, 0, 0, 0.392157, 278.5, 18)" >
<path 
style="fill:#000000;fill-opacity:1" d="M27.4 -36.5L32.7 -36.5L20.05 -19.15L33.7 0L27.75 0L18.5 -13C18 -13.7 17.5 -14.45 17 -15.2C16.2 -14 15.65 -13.15 15.25 -12.65L6 0L0.2 0L14.3 -18.95L1.9 -36.5L7.65 -36.5L14.3 -27.15C15.7 -25.25 16.65 -23.75 17.2 -22.7C18 -23.95 19 -25.3 20.1 -26.75L27.4 -36.5" />
</g>
<g id="ShapeID_2526" transform="matrix(0.392157, 0, 0, 0.392157, 291.8, 18)" >
<path 
style="fill:#000000;fill-opacity:1" d="M27.4 -36.5L32.7 -36.5L20.05 -19.15L33.7 0L27.75 0L18.5 -13C18 -13.7 17.5 -14.45 17 -15.2C16.2 -14 15.65 -13.15 15.25 -12.65L6 0L0.2 0L14.3 -18.95L1.9 -36.5L7.65 -36.5L14.3 -27.15C15.7 -25.25 16.65 -23.75 17.2 -22.7C18 -23.95 19 -25.3 20.1 -26.75L27.4 -36.5" />
</g>
<g id="ShapeID_2527" transform="matrix(0.392157, 0, 0, 0.392157, 305.1, 18)" >
<path 
style="fill:#000000;fill-opacity:1" d="M2.85 -10.1L21.9 -18L2.85 -25.85L2.85 -30.35L26.95 -20.15L26.95 -15.95L2.85 -5.6L2.85 -10.1" />
</g>
<g id="ShapeID_2528" transform="matrix(0.392157, 0, 0, 0.392157, 322.25, 18)" >
 <clipPath  id="PathID4175_ClipPathURL" clip-rule="nonzero">
<path d="M27.75 -34.4C28.95 -33.6 29.9 -32.4 30.65 -30.9C31.4 -29.4 31.8 -27.75 31.8 -25.9C31.8 -22.8 30.8 -20.2 28.8 -18.05C26.85 -15.95 23.3 -14.85 18.1 -14.85L8.8 -14.85L8.8 0L3.95 0L3.95 -36.5L17.7 -36.5C20.1 -36.5 21.95 -36.4 23.25 -36.15C25.05 -35.85 26.55 -35.3 27.75 -34.4M26.8 -25.75C26.8 -27.25 26.4 -28.6 25.6 -29.7C24.85 -30.8 23.85 -31.5 22.6 -31.85C21.8 -32.05 20.3 -32.2 18.1 -32.2L8.8 -32.2L8.8 -19.15L18.2 -19.15C21.3 -19.15 23.5 -19.7 24.8 -20.85C26.1 -22 26.8 -23.65 26.8 -25.75"/>
</clipPath>
<path 
style="clip-path:url(#PathID4175_ClipPathURL);fill:#000000;fill-opacity:1" d="M27.75 -34.4C28.95 -33.6 29.9 -32.4 30.65 -30.9C31.4 -29.4 31.8 -27.75 31.8 -25.9C31.8 -22.8 30.8 -20.2 28.8 -18.05C26.85 -15.95 23.3 -14.85 18.1 -14.85L8.8 -14.85L8.8 0L3.95 0L3.95 -36.5L17.7 -36.5C20.1 -36.5 21.95 -36.4 23.25 -36.15C25.05 -35.85 26.55 -35.3 27.75 -34.4" />
</g>
<g id="ShapeID_2529" transform="matrix(0.392157, 0, 0, 0.392157, 335.55, 18)" >
 <clipPath  id="PathID4177_ClipPathURL" clip-rule="nonzero">
<path d="M34.1 0L28.6 0L24.35 -11.05L9 -11.05L5.05 0L-0.1 0L13.85 -36.5L19.15 -36.5L34.1 0M19 -25.1C17.9 -28.15 17 -30.7 16.4 -32.7C15.9 -30.35 15.25 -28 14.4 -25.7L10.4 -15L22.85 -15L19 -25.1"/>
</clipPath>
<path 
style="clip-path:url(#PathID4177_ClipPathURL);fill:#000000;fill-opacity:1" d="M34.1 0L28.6 0L24.35 -11.05L9 -11.05L5.05 0L-0.1 0L13.85 -36.5L19.15 -36.5L34.1 0" />
 <clipPath  id="PathID4179_ClipPathURL" clip-rule="nonzero">
<path d="M19.55 -42.35C20.45 -41.5 20.9 -40.45 20.9 -39.15C20.9 -37.9 20.45 -36.8 19.55 -35.9C18.7 -35.05 17.65 -34.6 16.45 -34.6C15.2 -34.6 14.15 -35 13.25 -35.9C12.4 -36.8 11.95 -37.9 11.95 -39.25C11.95 -40.45 12.35 -41.45 13.25 -42.35C14.15 -43.25 15.2 -43.7 16.4 -43.7C17.6 -43.7 18.65 -43.25 19.55 -42.35M18.3 -37.25C18.8 -37.75 19.1 -38.4 19.1 -39.2C19.1 -39.9 18.85 -40.55 18.3 -41.1C17.8 -41.6 17.2 -41.9 16.45 -41.9C15.75 -41.9 15.15 -41.65 14.6 -41.1C14.1 -40.6 13.85 -39.95 13.85 -39.2C13.85 -38.45 14.1 -37.8 14.6 -37.25C15.1 -36.75 15.75 -36.5 16.45 -36.5C17.15 -36.5 17.75 -36.75 18.3 -37.25"/>
</clipPath>
<path 
style="clip-path:url(#PathID4179_ClipPathURL);fill:#000000;fill-opacity:1" d="M19.55 -42.35C20.45 -41.5 20.9 -40.45 20.9 -39.15C20.9 -37.9 20.45 -36.8 19.55 -35.9C18.7 -35.05 17.65 -34.6 16.45 -34.6C15.2 -34.6 14.15 -35 13.25 -35.9C12.4 -36.8 11.95 -37.9 11.95 -39.25C11.95 -40.45 12.35 -41.45 13.25 -42.35C14.15 -43.25 15.2 -43.7 16.4 -43.7C17.6 -43.7 18.65 -43.25 19.55 -42.35" />
</g>
<g id="ShapeID_2530" transform="matrix(0.392157, 0, 0, 0.392157, 16.25, 40.2)" >
<path 
style="fill:#000000;fill-opacity:1" d="M27.9 -36.5L32.75 -36.5L32.75 0L27.9 0L27.9 -17.2L8.95 -17.2L8.95 0L4.1 0L4.1 -36.5L8.95 -36.5L8.95 -21.5L27.9 -21.5L27.9 -36.5" />
</g>
<g id="ShapeID_2531" transform="matrix(0.392157, 0, 0, 0.392157, 30.7, 40.2)" >
<path 
style="fill:#000000;fill-opacity:1" d="M4.75 -36.5L9.6 -36.5L9.6 0L4.75 0L4.75 -36.5" />
</g>
<g id="ShapeID_2532" transform="matrix(0.392157, 0, 0, 0.392157, 36.2, 40.2)" >
<path 
style="fill:#000000;fill-opacity:1" d="M35.9 -26.25L31.5 -25.05C31 -26.9 30.3 -28.35 29.45 -29.45C28.65 -30.5 27.5 -31.35 26 -32C24.5 -32.65 22.85 -33 20.95 -33C18.75 -33 16.85 -32.65 15.25 -31.95C13.65 -31.3 12.35 -30.4 11.35 -29.3C10.4 -28.2 9.65 -27 9.05 -25.7C8.15 -23.45 7.7 -21 7.7 -18.35C7.7 -15.1 8.25 -12.35 9.35 -10.15C10.45 -7.95 12.1 -6.35 14.25 -5.25C16.35 -4.25 18.65 -3.7 21.05 -3.7C23.1 -3.7 25.15 -4.1 27.15 -4.9C29.15 -5.7 30.65 -6.55 31.7 -7.45L31.7 -14.3L21 -14.3L21 -18.6L36.45 -18.6L36.45 -5.05C34.05 -3.2 31.6 -1.8 29.05 -0.8C26.55 0.1 24 0.6 21.3 0.6C17.75 0.6 14.5 -0.15 11.55 -1.7C8.65 -3.2 6.4 -5.45 4.9 -8.35C3.45 -11.25 2.7 -14.5 2.7 -18.1C2.7 -21.6 3.4 -24.9 4.9 -28C6.4 -31.1 8.5 -33.4 11.3 -34.9C14.1 -36.4 17.3 -37.15 20.95 -37.15C23.55 -37.15 25.95 -36.75 28.1 -35.85C30.2 -35 31.9 -33.8 33.1 -32.25C34.3 -30.75 35.25 -28.75 35.9 -26.25" />
</g>
<g id="ShapeID_2533" transform="matrix(0.392157, 0, 0, 0.392157, 51.7, 40.2)" >
<path 
style="fill:#000000;fill-opacity:1" d="M27.9 -36.5L32.75 -36.5L32.75 0L27.9 0L27.9 -17.2L8.95 -17.2L8.95 0L4.1 0L4.1 -36.5L8.95 -36.5L8.95 -21.5L27.9 -21.5L27.9 -36.5" />
</g>
<g id="ShapeID_2534" transform="matrix(0.392157, 0, 0, 0.392157, 66.15, 40.2)" >
<path 
style="fill:#000000;fill-opacity:1" d="M23.65 -35.8C25.7 -34.95 27.3 -33.65 28.4 -31.95C29.5 -30.3 30.15 -28.4 30.25 -26.25L25.6 -25.9C25.35 -28.15 24.5 -29.85 23.05 -31.05C21.65 -32.25 19.5 -32.85 16.7 -32.85C13.8 -32.85 11.7 -32.3 10.35 -31.2C9.05 -30.15 8.35 -28.85 8.35 -27.35C8.35 -26.05 8.8 -25 9.75 -24.1C10.65 -23.3 13.1 -22.4 17 -21.5C20.9 -20.65 23.6 -19.9 25.1 -19.2C27.2 -18.2 28.8 -16.95 29.8 -15.45C30.8 -13.95 31.35 -12.25 31.35 -10.3C31.35 -8.4 30.8 -6.55 29.65 -4.8C28.55 -3.1 26.95 -1.8 24.85 -0.8C22.8 0.1 20.45 0.6 17.85 0.6C14.55 0.6 11.8 0.15 9.55 -0.8C7.35 -1.75 5.6 -3.2 4.3 -5.15C3.05 -7.05 2.4 -9.25 2.35 -11.75L6.9 -12.15C7.1 -10.35 7.55 -8.8 8.35 -7.6C9.15 -6.45 10.35 -5.5 12.05 -4.75C13.7 -4.05 15.55 -3.7 17.65 -3.7C19.45 -3.7 21.1 -3.95 22.5 -4.5C23.9 -5.05 24.95 -5.8 25.65 -6.75C26.35 -7.7 26.7 -8.75 26.7 -9.9C26.7 -11 26.35 -12 25.65 -12.85C25 -13.7 23.9 -14.45 22.35 -15.05C21.4 -15.4 19.25 -16 15.85 -16.8C12.55 -17.6 10.2 -18.35 8.85 -19.1C7.15 -20 5.85 -21.1 4.95 -22.5C4.15 -23.85 3.7 -25.35 3.7 -27.05C3.7 -28.85 4.2 -30.6 5.25 -32.2C6.25 -33.8 7.8 -35.05 9.8 -35.9C11.8 -36.7 14.05 -37.15 16.5 -37.15C19.2 -37.15 21.55 -36.7 23.65 -35.8" />
</g>
<g id="ShapeID_2535" transform="matrix(0.392157, 0, 0, 0.392157, 79.45, 40.2)" >
<path 
style="fill:#000000;fill-opacity:1" d="M29 -34.35C31.5 -32.5 33.25 -29.9 34.25 -26.5L29.5 -25.35C28.65 -28 27.4 -29.95 25.75 -31.15C24.15 -32.35 22.15 -33 19.7 -33C16.9 -33 14.55 -32.35 12.65 -30.95C10.75 -29.65 9.45 -27.85 8.65 -25.55C7.95 -23.3 7.55 -20.95 7.55 -18.55C7.55 -15.45 8 -12.75 8.9 -10.4C9.8 -8.1 11.2 -6.4 13.1 -5.25C15 -4.15 17.05 -3.55 19.3 -3.55C22 -3.55 24.25 -4.3 26.15 -5.85C28.05 -7.4 29.3 -9.7 30 -12.8L34.85 -11.6C33.85 -7.65 32 -4.6 29.35 -2.5C26.75 -0.45 23.5 0.6 19.7 0.6C15.8 0.6 12.6 -0.2 10.1 -1.8C7.65 -3.4 5.75 -5.7 4.45 -8.75C3.2 -11.75 2.55 -15 2.55 -18.5C2.55 -22.3 3.25 -25.65 4.7 -28.45C6.15 -31.25 8.2 -33.4 10.9 -34.9C13.6 -36.4 16.55 -37.15 19.8 -37.15C23.4 -37.15 26.5 -36.25 29 -34.35" />
</g>
<g id="ShapeID_2536" transform="matrix(0.392157, 0, 0, 0.392157, 93.9, 40.2)" >
 <clipPath  id="PathID4187_ClipPathURL" clip-rule="nonzero">
<path d="M37.35 -18.2C37.35 -14.5 36.6 -11.2 35.1 -8.25C33.6 -5.35 31.5 -3.15 28.75 -1.65C26.05 -0.15 23.1 0.6 19.9 0.6C16.45 0.6 13.35 -0.2 10.65 -1.85C7.95 -3.5 5.9 -5.75 4.5 -8.65C3.15 -11.5 2.45 -14.55 2.45 -17.75C2.45 -23.8 4.05 -28.55 7.3 -32C10.55 -35.4 14.75 -37.15 19.9 -37.15C23.25 -37.15 26.3 -36.35 29 -34.7C31.7 -33.1 33.75 -30.85 35.2 -27.95C36.6 -25.1 37.35 -21.85 37.35 -18.2M32.35 -18.25C32.35 -21.2 31.85 -23.8 30.8 -26C29.8 -28.2 28.35 -29.9 26.4 -31.15C24.5 -32.35 22.35 -33 19.95 -33C16.55 -33 13.6 -31.85 11.1 -29.45C8.7 -27.15 7.45 -23.2 7.45 -17.7C7.45 -13.3 8.6 -9.85 10.95 -7.3C13.3 -4.8 16.25 -3.55 19.85 -3.55C23.45 -3.55 26.45 -4.8 28.8 -7.35C31.15 -9.9 32.35 -13.55 32.35 -18.25"/>
</clipPath>
<path 
style="clip-path:url(#PathID4187_ClipPathURL);fill:#000000;fill-opacity:1" d="M37.35 -18.2C37.35 -14.5 36.6 -11.2 35.1 -8.25C33.6 -5.35 31.5 -3.15 28.75 -1.65C26.05 -0.15 23.1 0.6 19.9 0.6C16.45 0.6 13.35 -0.2 10.65 -1.85C7.95 -3.5 5.9 -5.75 4.5 -8.65C3.15 -11.5 2.45 -14.55 2.45 -17.75C2.45 -23.8 4.05 -28.55 7.3 -32C10.55 -35.4 14.75 -37.15 19.9 -37.15C23.25 -37.15 26.3 -36.35 29 -34.7C31.7 -33.1 33.75 -30.85 35.2 -27.95C36.6 -25.1 37.35 -21.85 37.35 -18.2" />
</g>
<g id="ShapeID_2537" transform="matrix(0.392157, 0, 0, 0.392157, 109.4, 40.2)" >
 <clipPath  id="PathID4189_ClipPathURL" clip-rule="nonzero">
<path d="M25.8 -14.75C27.2 -13.45 28.5 -11.85 29.8 -9.9L36.15 0L30.1 0L25.25 -7.55C23.85 -9.75 22.7 -11.4 21.75 -12.6C20.85 -13.75 20.05 -14.55 19.3 -15.05C18.6 -15.5 17.9 -15.8 17.1 -16C16.6 -16.1 15.7 -16.2 14.45 -16.2L8.85 -16.2L8.85 0L4 0L4 -36.5L20.2 -36.5C23.4 -36.5 25.9 -36.2 27.6 -35.5C29.3 -34.85 30.65 -33.7 31.65 -32C32.65 -30.4 33.2 -28.55 33.2 -26.5C33.2 -23.95 32.35 -21.75 30.65 -19.95C29 -18.2 26.4 -17.1 22.9 -16.6C24.15 -16 25.1 -15.35 25.8 -14.75M27.2 -23.25C27.85 -24.25 28.2 -25.3 28.2 -26.5C28.2 -28.2 27.6 -29.65 26.3 -30.75C25.1 -31.85 23.1 -32.45 20.4 -32.45L8.85 -32.45L8.85 -20.4L19.2 -20.4C21.4 -20.4 23.1 -20.6 24.35 -21.05C25.6 -21.5 26.55 -22.25 27.2 -23.25"/>
</clipPath>
<path 
style="clip-path:url(#PathID4189_ClipPathURL);fill:#000000;fill-opacity:1" d="M25.8 -14.75C27.2 -13.45 28.5 -11.85 29.8 -9.9L36.15 0L30.1 0L25.25 -7.55C23.85 -9.75 22.7 -11.4 21.75 -12.6C20.85 -13.75 20.05 -14.55 19.3 -15.05C18.6 -15.5 17.9 -15.8 17.1 -16C16.6 -16.1 15.7 -16.2 14.45 -16.2L8.85 -16.2L8.85 0L4 0L4 -36.5L20.2 -36.5C23.4 -36.5 25.9 -36.2 27.6 -35.5C29.3 -34.85 30.65 -33.7 31.65 -32C32.65 -30.4 33.2 -28.55 33.2 -26.5C33.2 -23.95 32.35 -21.75 30.65 -19.95C29 -18.2 26.4 -17.1 22.9 -16.6C24.15 -16 25.1 -15.35 25.8 -14.75" />
</g>
<g id="ShapeID_2538" transform="matrix(0.392157, 0, 0, 0.392157, 123.85, 40.2)" >
<path 
style="fill:#000000;fill-opacity:1" d="M8.9 -21.05L29.05 -21.05L29.05 -16.75L8.9 -16.75L8.9 -4.3L31.25 -4.3L31.25 0L4.05 0L4.05 -36.5L30.4 -36.5L30.4 -32.2L8.9 -32.2L8.9 -21.05" />
</g>
<g id="ShapeID_2539" transform="matrix(0.392157, 0, 0, 0.392157, 142.65, 40.2)" >
<path 
style="fill:#000000;fill-opacity:1" d="M8.6 -36.5L8.6 -4.3L26.55 -4.3L26.55 0L3.75 0L3.75 -36.5L8.6 -36.5" />
</g>
<g id="ShapeID_2540" transform="matrix(0.392157, 0, 0, 0.392157, 153.75, 40.2)" >
<path 
style="fill:#000000;fill-opacity:1" d="M4.75 -36.5L9.6 -36.5L9.6 0L4.75 0L4.75 -36.5" />
</g>
<g id="ShapeID_2541" transform="matrix(0.392157, 0, 0, 0.392157, 159.25, 40.2)" >
<path 
style="fill:#000000;fill-opacity:1" d="M23.65 -35.8C25.7 -34.95 27.3 -33.65 28.4 -31.95C29.5 -30.3 30.15 -28.4 30.25 -26.25L25.6 -25.9C25.35 -28.15 24.5 -29.85 23.05 -31.05C21.65 -32.25 19.5 -32.85 16.7 -32.85C13.8 -32.85 11.7 -32.3 10.35 -31.2C9.05 -30.15 8.35 -28.85 8.35 -27.35C8.35 -26.05 8.8 -25 9.75 -24.1C10.65 -23.3 13.1 -22.4 17 -21.5C20.9 -20.65 23.6 -19.9 25.1 -19.2C27.2 -18.2 28.8 -16.95 29.8 -15.45C30.8 -13.95 31.35 -12.25 31.35 -10.3C31.35 -8.4 30.8 -6.55 29.65 -4.8C28.55 -3.1 26.95 -1.8 24.85 -0.8C22.8 0.1 20.45 0.6 17.85 0.6C14.55 0.6 11.8 0.15 9.55 -0.8C7.35 -1.75 5.6 -3.2 4.3 -5.15C3.05 -7.05 2.4 -9.25 2.35 -11.75L6.9 -12.15C7.1 -10.35 7.55 -8.8 8.35 -7.6C9.15 -6.45 10.35 -5.5 12.05 -4.75C13.7 -4.05 15.55 -3.7 17.65 -3.7C19.45 -3.7 21.1 -3.95 22.5 -4.5C23.9 -5.05 24.95 -5.8 25.65 -6.75C26.35 -7.7 26.7 -8.75 26.7 -9.9C26.7 -11 26.35 -12 25.65 -12.85C25 -13.7 23.9 -14.45 22.35 -15.05C21.4 -15.4 19.25 -16 15.85 -16.8C12.55 -17.6 10.2 -18.35 8.85 -19.1C7.15 -20 5.85 -21.1 4.95 -22.5C4.15 -23.85 3.7 -25.35 3.7 -27.05C3.7 -28.85 4.2 -30.6 5.25 -32.2C6.25 -33.8 7.8 -35.05 9.8 -35.9C11.8 -36.7 14.05 -37.15 16.5 -37.15C19.2 -37.15 21.55 -36.7 23.65 -35.8" />
</g>
<g id="ShapeID_2542" transform="matrix(0.392157, 0, 0, 0.392157, 172.55, 40.2)" >
<path 
style="fill:#000000;fill-opacity:1" d="M1.15 -36.5L30.1 -36.5L30.1 -32.2L18.05 -32.2L18.05 0L13.2 0L13.2 -32.2L1.15 -32.2L1.15 -36.5" />
</g>
<g id="ShapeID_2543" transform="matrix(0.392157, 0, 0, 0.392157, 183.25, 40.2)" >
 <clipPath  id="PathID4196_ClipPathURL" clip-rule="nonzero">
<path d="M34.1 0L28.6 0L24.35 -11.05L9 -11.05L5.05 0L-0.1 0L13.85 -36.5L19.15 -36.5L34.1 0M19 -25.1C17.9 -28.15 17 -30.7 16.4 -32.7C15.9 -30.35 15.25 -28 14.4 -25.7L10.4 -15L22.85 -15L19 -25.1"/>
</clipPath>
<path 
style="clip-path:url(#PathID4196_ClipPathURL);fill:#000000;fill-opacity:1" d="M34.1 0L28.6 0L24.35 -11.05L9 -11.05L5.05 0L-0.1 0L13.85 -36.5L19.15 -36.5L34.1 0" />
</g>
<g id="ShapeID_2544" transform="matrix(0.392157, 0, 0, 0.392157, 196.55, 40.2)" >
<path 
style="fill:#000000;fill-opacity:1" d="M28 -36.5L32.65 -36.5L32.65 0L27.65 0L8.55 -28.6L8.55 0L3.9 0L3.9 -36.5L8.85 -36.5L28 -7.85L28 -36.5" />
</g>
<g id="ShapeID_2545" transform="matrix(0.392157, 0, 0, 0.392157, 211, 40.2)" >
<path 
style="fill:#000000;fill-opacity:1" d="M4.65 -5.1L9.75 -5.1L9.75 0L4.65 0L4.65 -5.1" />
</g>
</svg>
