<?xml version="1.0" encoding="utf-8"?>
<svg version="1.1" id="Layer_1"
xmlns="http://www.w3.org/2000/svg"
xmlns:xlink="http://www.w3.org/1999/xlink"
width="550px" height="400px"
xml:space="preserve">
<g id="ShapeID_2459" transform="matrix(0.392157, 0, 0, 0.392157, 19.15, 18)" >
<path 
style="fill:#000000;fill-opacity:1" d="M14.95 -9.95C15.7 -7.85 16.35 -5.9 16.85 -4C17.4 -6 18.05 -7.95 18.8 -9.95L28.7 -36.5L33.6 -36.5L19.35 0L14.35 0L0.2 -36.5L5.45 -36.5L14.95 -9.95" />
</g>
<g id="ShapeID_2460" transform="matrix(0.392157, 0, 0, 0.392157, 30.95, 18)" >
 <clipPath  id="PathID4073_ClipPathURL" clip-rule="nonzero">
<path d="M34.1 0L28.6 0L24.35 -11.05L9 -11.05L5.05 0L-0.1 0L13.85 -36.5L19.15 -36.5L34.1 0M19 -25.1C17.9 -28.15 17 -30.7 16.4 -32.7C15.9 -30.35 15.25 -28 14.4 -25.7L10.4 -15L22.85 -15L19 -25.1"/>
</clipPath>
<path 
style="clip-path:url(#PathID4073_ClipPathURL);fill:#000000;fill-opacity:1" d="M34.1 0L28.6 0L24.35 -11.05L9 -11.05L5.05 0L-0.1 0L13.85 -36.5L19.15 -36.5L34.1 0" />
</g>
<g id="ShapeID_2461" transform="matrix(0.392157, 0, 0, 0.392157, 44.25, 18)" >
<path 
style="fill:#000000;fill-opacity:1" d="M28 -36.5L32.65 -36.5L32.65 0L27.65 0L8.55 -28.6L8.55 0L3.9 0L3.9 -36.5L8.85 -36.5L28 -7.85L28 -36.5" />
</g>
<g id="ShapeID_2462" transform="matrix(0.392157, 0, 0, 0.392157, 58.7, 18)" >
<path 
style="fill:#000000;fill-opacity:1" d="M28 -36.5L32.65 -36.5L32.65 0L27.65 0L8.55 -28.6L8.55 0L3.9 0L3.9 -36.5L8.85 -36.5L28 -7.85L28 -36.5" />
</g>
<g id="ShapeID_2463" transform="matrix(0.392157, 0, 0, 0.392157, 78.3, 18)" >
<path 
style="fill:#000000;fill-opacity:1" d="M1.15 -36.5L30.1 -36.5L30.1 -32.2L18.05 -32.2L18.05 0L13.2 0L13.2 -32.2L1.15 -32.2L1.15 -36.5" />
</g>
<g id="ShapeID_2464" transform="matrix(0.392157, 0, 0, 0.392157, 90.5, 18)" >
 <clipPath  id="PathID4078_ClipPathURL" clip-rule="nonzero">
<path d="M34.1 0L28.6 0L24.35 -11.05L9 -11.05L5.05 0L-0.1 0L13.85 -36.5L19.15 -36.5L34.1 0M19 -25.1C17.9 -28.15 17 -30.7 16.4 -32.7C15.9 -30.35 15.25 -28 14.4 -25.7L10.4 -15L22.85 -15L19 -25.1"/>
</clipPath>
<path 
style="clip-path:url(#PathID4078_ClipPathURL);fill:#000000;fill-opacity:1" d="M34.1 0L28.6 0L24.35 -11.05L9 -11.05L5.05 0L-0.1 0L13.85 -36.5L19.15 -36.5L34.1 0" />
<path 
style="fill:#000000;fill-opacity:1" d="M9.6 -43.85L14.3 -43.85L14.3 -38.75L9.6 -38.75L9.6 -43.85" />
<path 
style="fill:#000000;fill-opacity:1" d="M18.9 -43.85L23.6 -43.85L23.6 -38.75L18.9 -38.75L18.9 -43.85" />
</g>
<g id="ShapeID_2465" transform="matrix(0.392157, 0, 0, 0.392157, 103.8, 18)" >
<path 
style="fill:#000000;fill-opacity:1" d="M14.95 -9.95C15.7 -7.85 16.35 -5.9 16.85 -4C17.4 -6 18.05 -7.95 18.8 -9.95L28.7 -36.5L33.6 -36.5L19.35 0L14.35 0L0.2 -36.5L5.45 -36.5L14.95 -9.95" />
</g>
<g id="ShapeID_2466" transform="matrix(0.392157, 0, 0, 0.392157, 117.1, 18)" >
<path 
style="fill:#000000;fill-opacity:1" d="M8.6 -36.5L8.6 -4.3L26.55 -4.3L26.55 0L3.75 0L3.75 -36.5L8.6 -36.5" />
</g>
<g id="ShapeID_2467" transform="matrix(0.392157, 0, 0, 0.392157, 128.2, 18)" >
<path 
style="fill:#000000;fill-opacity:1" d="M4.75 -36.5L9.6 -36.5L9.6 0L4.75 0L4.75 -36.5" />
</g>
<g id="ShapeID_2468" transform="matrix(0.392157, 0, 0, 0.392157, 133.7, 18)" >
<path 
style="fill:#000000;fill-opacity:1" d="M28 -36.5L32.65 -36.5L32.65 0L27.65 0L8.55 -28.6L8.55 0L3.9 0L3.9 -36.5L8.85 -36.5L28 -7.85L28 -36.5" />
</g>
<g id="ShapeID_2469" transform="matrix(0.392157, 0, 0, 0.392157, 148.15, 18)" >
<path 
style="fill:#000000;fill-opacity:1" d="M35.9 -26.25L31.5 -25.05C31 -26.9 30.3 -28.35 29.45 -29.45C28.65 -30.5 27.5 -31.35 26 -32C24.5 -32.65 22.85 -33 20.95 -33C18.75 -33 16.85 -32.65 15.25 -31.95C13.65 -31.3 12.35 -30.4 11.35 -29.3C10.4 -28.2 9.65 -27 9.05 -25.7C8.15 -23.45 7.7 -21 7.7 -18.35C7.7 -15.1 8.25 -12.35 9.35 -10.15C10.45 -7.95 12.1 -6.35 14.25 -5.25C16.35 -4.25 18.65 -3.7 21.05 -3.7C23.1 -3.7 25.15 -4.1 27.15 -4.9C29.15 -5.7 30.65 -6.55 31.7 -7.45L31.7 -14.3L21 -14.3L21 -18.6L36.45 -18.6L36.45 -5.05C34.05 -3.2 31.6 -1.8 29.05 -0.8C26.55 0.1 24 0.6 21.3 0.6C17.75 0.6 14.5 -0.15 11.55 -1.7C8.65 -3.2 6.4 -5.45 4.9 -8.35C3.45 -11.25 2.7 -14.5 2.7 -18.1C2.7 -21.6 3.4 -24.9 4.9 -28C6.4 -31.1 8.5 -33.4 11.3 -34.9C14.1 -36.4 17.3 -37.15 20.95 -37.15C23.55 -37.15 25.95 -36.75 28.1 -35.85C30.2 -35 31.9 -33.8 33.1 -32.25C34.3 -30.75 35.25 -28.75 35.9 -26.25" />
</g>
<g id="ShapeID_2470" transform="matrix(0.392157, 0, 0, 0.392157, 163.65, 18)" >
<path 
style="fill:#000000;fill-opacity:1" d="M8.9 -21.05L29.05 -21.05L29.05 -16.75L8.9 -16.75L8.9 -4.3L31.25 -4.3L31.25 0L4.05 0L4.05 -36.5L30.4 -36.5L30.4 -32.2L8.9 -32.2L8.9 -21.05" />
</g>
<g id="ShapeID_2471" transform="matrix(0.392157, 0, 0, 0.392157, 176.95, 18)" >
<path 
style="fill:#000000;fill-opacity:1" d="M28 -36.5L32.65 -36.5L32.65 0L27.65 0L8.55 -28.6L8.55 0L3.9 0L3.9 -36.5L8.85 -36.5L28 -7.85L28 -36.5" />
</g>
<g id="ShapeID_2472" transform="matrix(0.392157, 0, 0, 0.392157, 196.9, 18)" >
<path 
style="fill:#000000;fill-opacity:1" d="M23.35 -11.05L32.15 -36.5L38.65 -36.5L38.65 0L34 0L34 -30.55L23.3 0L18.95 0L8.45 -31.05L8.45 0L3.8 0L3.8 -36.5L11 -36.5L19.65 -10.65C20.45 -8.25 21 -6.4 21.4 -5.2C21.8 -6.5 22.45 -8.45 23.35 -11.05" />
</g>
<g id="ShapeID_2473" transform="matrix(0.392157, 0, 0, 0.392157, 213.55, 18)" >
 <clipPath  id="PathID4090_ClipPathURL" clip-rule="nonzero">
<path d="M37.35 -18.2C37.35 -14.5 36.6 -11.2 35.1 -8.25C33.6 -5.35 31.5 -3.15 28.75 -1.65C26.05 -0.15 23.1 0.6 19.9 0.6C16.45 0.6 13.35 -0.2 10.65 -1.85C7.95 -3.5 5.9 -5.75 4.5 -8.65C3.15 -11.5 2.45 -14.55 2.45 -17.75C2.45 -23.8 4.05 -28.55 7.3 -32C10.55 -35.4 14.75 -37.15 19.9 -37.15C23.25 -37.15 26.3 -36.35 29 -34.7C31.7 -33.1 33.75 -30.85 35.2 -27.95C36.6 -25.1 37.35 -21.85 37.35 -18.2M32.35 -18.25C32.35 -21.2 31.85 -23.8 30.8 -26C29.8 -28.2 28.35 -29.9 26.4 -31.15C24.5 -32.35 22.35 -33 19.95 -33C16.55 -33 13.6 -31.85 11.1 -29.45C8.7 -27.15 7.45 -23.2 7.45 -17.7C7.45 -13.3 8.6 -9.85 10.95 -7.3C13.3 -4.8 16.25 -3.55 19.85 -3.55C23.45 -3.55 26.45 -4.8 28.8 -7.35C31.15 -9.9 32.35 -13.55 32.35 -18.25"/>
</clipPath>
<path 
style="clip-path:url(#PathID4090_ClipPathURL);fill:#000000;fill-opacity:1" d="M37.35 -18.2C37.35 -14.5 36.6 -11.2 35.1 -8.25C33.6 -5.35 31.5 -3.15 28.75 -1.65C26.05 -0.15 23.1 0.6 19.9 0.6C16.45 0.6 13.35 -0.2 10.65 -1.85C7.95 -3.5 5.9 -5.75 4.5 -8.65C3.15 -11.5 2.45 -14.55 2.45 -17.75C2.45 -23.8 4.05 -28.55 7.3 -32C10.55 -35.4 14.75 -37.15 19.9 -37.15C23.25 -37.15 26.3 -36.35 29 -34.7C31.7 -33.1 33.75 -30.85 35.2 -27.95C36.6 -25.1 37.35 -21.85 37.35 -18.2" />
</g>
<g id="ShapeID_2474" transform="matrix(0.392157, 0, 0, 0.392157, 229.05, 18)" >
<path 
style="fill:#000000;fill-opacity:1" d="M1.15 -36.5L30.1 -36.5L30.1 -32.2L18.05 -32.2L18.05 0L13.2 0L13.2 -32.2L1.15 -32.2L1.15 -36.5" />
</g>
<g id="ShapeID_2475" transform="matrix(0.392157, 0, 0, 0.392157, 5.85, 40.2)" >
 <clipPath  id="PathID4093_ClipPathURL" clip-rule="nonzero">
<path d="M1.7 -13.2C1.7 -15.8 2.1 -18.2 3 -20.35C3.85 -22.5 5.15 -24.15 6.95 -25.3C8.7 -26.45 10.65 -27.05 12.85 -27.05C14.45 -27.05 15.85 -26.7 17.1 -26C18.3 -25.35 19.35 -24.5 20.15 -23.4L20.15 -36.5L24.65 -36.5L24.65 0L20.5 0L20.5 -3.35C18.8 -0.75 16.35 0.6 13.05 0.6C10.95 0.6 9.05 0.05 7.25 -1.1C5.5 -2.25 4.15 -3.85 3.15 -5.95C2.2 -8.05 1.7 -10.45 1.7 -13.2M18.5 -5.5C19.9 -7.1 20.6 -9.5 20.6 -12.8C20.6 -16.4 19.9 -19.1 18.5 -20.8C17.1 -22.5 15.4 -23.35 13.3 -23.35C11.3 -23.35 9.65 -22.55 8.3 -20.9C7 -19.3 6.3 -16.7 6.3 -13.2C6.3 -9.8 7 -7.3 8.45 -5.6C9.85 -3.95 11.55 -3.1 13.5 -3.1C15.45 -3.1 17.1 -3.9 18.5 -5.5"/>
</clipPath>
<path 
style="clip-path:url(#PathID4093_ClipPathURL);fill:#000000;fill-opacity:1" d="M1.7 -13.2C1.7 -15.8 2.1 -18.2 3 -20.35C3.85 -22.5 5.15 -24.15 6.95 -25.3C8.7 -26.45 10.65 -27.05 12.85 -27.05C14.45 -27.05 15.85 -26.7 17.1 -26C18.3 -25.35 19.35 -24.5 20.15 -23.4L20.15 -36.5L24.65 -36.5L24.65 0L20.5 0L20.5 -3.35C18.8 -0.75 16.35 0.6 13.05 0.6C10.95 0.6 9.05 0.05 7.25 -1.1C5.5 -2.25 4.15 -3.85 3.15 -5.95C2.2 -8.05 1.7 -10.45 1.7 -13.2" />
</g>
<g id="ShapeID_2476" transform="matrix(0.392157, 0, 0, 0.392157, 16.95, 40.2)" >
 <clipPath  id="PathID4095_ClipPathURL" clip-rule="nonzero">
<path d="M13.9 -23.35C11.8 -23.35 10.25 -23 9.2 -22.2C8.2 -21.5 7.5 -20.2 7 -18.3L2.6 -18.9C3 -20.75 3.65 -22.25 4.55 -23.4C5.45 -24.55 6.8 -25.45 8.55 -26.1C10.25 -26.7 12.25 -27.05 14.55 -27.05C16.8 -27.05 18.65 -26.8 20.05 -26.25C21.45 -25.75 22.5 -25.05 23.2 -24.2C23.85 -23.4 24.3 -22.4 24.6 -21.15C24.75 -20.45 24.85 -19.05 24.85 -17.05L24.85 -11.05C24.85 -6.9 24.9 -4.25 25.1 -3.15C25.25 -2.05 25.6 -1 26.2 0L21.5 0C21.1 -0.9 20.8 -2 20.7 -3.3C19.05 -1.9 17.45 -0.85 15.85 -0.25C14.35 0.3 12.7 0.6 10.9 0.6C8 0.6 5.8 -0.1 4.2 -1.5C2.65 -2.9 1.85 -4.75 1.85 -6.95C1.85 -8.25 2.1 -9.4 2.7 -10.5C3.3 -11.55 4.05 -12.4 5.05 -13.05C6 -13.7 7.1 -14.2 8.3 -14.55C9.15 -14.75 10.5 -15 12.3 -15.25C15.9 -15.65 18.6 -16.2 20.3 -16.8C20.3 -17.4 20.35 -17.75 20.35 -17.95C20.35 -19.75 19.95 -21.05 19.05 -21.8C17.9 -22.8 16.2 -23.35 13.9 -23.35M6.65 -7.1C6.65 -5.9 7.1 -4.9 8 -4.1C8.9 -3.3 10.2 -2.9 12 -2.9C13.7 -2.9 15.25 -3.25 16.6 -4C17.95 -4.75 18.95 -5.8 19.6 -7.1C20.05 -8.1 20.3 -9.6 20.3 -11.6L20.35 -13.3C18.7 -12.65 16.25 -12.1 12.95 -11.6C11.15 -11.35 9.85 -11.05 9.05 -10.7C8.3 -10.4 7.7 -9.9 7.25 -9.2C6.85 -8.6 6.65 -7.9 6.65 -7.1"/>
</clipPath>
<path 
style="clip-path:url(#PathID4095_ClipPathURL);fill:#000000;fill-opacity:1" d="M13.9 -23.35C11.8 -23.35 10.25 -23 9.2 -22.2C8.2 -21.5 7.5 -20.2 7 -18.3L2.6 -18.9C3 -20.75 3.65 -22.25 4.55 -23.4C5.45 -24.55 6.8 -25.45 8.55 -26.1C10.25 -26.7 12.25 -27.05 14.55 -27.05C16.8 -27.05 18.65 -26.8 20.05 -26.25C21.45 -25.75 22.5 -25.05 23.2 -24.2C23.85 -23.4 24.3 -22.4 24.6 -21.15C24.75 -20.45 24.85 -19.05 24.85 -17.05L24.85 -11.05C24.85 -6.9 24.9 -4.25 25.1 -3.15C25.25 -2.05 25.6 -1 26.2 0L21.5 0C21.1 -0.9 20.8 -2 20.7 -3.3C19.05 -1.9 17.45 -0.85 15.85 -0.25C14.35 0.3 12.7 0.6 10.9 0.6C8 0.6 5.8 -0.1 4.2 -1.5C2.65 -2.9 1.85 -4.75 1.85 -6.95C1.85 -8.25 2.1 -9.4 2.7 -10.5C3.3 -11.55 4.05 -12.4 5.05 -13.05C6 -13.7 7.1 -14.2 8.3 -14.55C9.15 -14.75 10.5 -15 12.3 -15.25C15.9 -15.65 18.6 -16.2 20.3 -16.8C20.3 -17.4 20.35 -17.75 20.35 -17.95C20.35 -19.75 19.95 -21.05 19.05 -21.8C17.9 -22.8 16.2 -23.35 13.9 -23.35" />
</g>
<g id="ShapeID_2477" transform="matrix(0.392157, 0, 0, 0.392157, 28.05, 40.2)" >
<path 
style="fill:#000000;fill-opacity:1" d="M20.95 -23.7C21.7 -22.7 22.25 -21.35 22.55 -19.65L18.15 -19.05C17.95 -20.35 17.4 -21.4 16.4 -22.2C15.45 -22.95 14.1 -23.35 12.35 -23.35C10.3 -23.35 8.85 -23 7.95 -22.3C7.1 -21.65 6.65 -20.85 6.65 -19.9C6.65 -19.35 6.8 -18.85 7.15 -18.35C7.5 -17.9 8.1 -17.5 8.9 -17.15C9.3 -17 10.65 -16.6 12.85 -16C16 -15.2 18.2 -14.5 19.5 -13.95C20.75 -13.45 21.75 -12.65 22.45 -11.6C23.15 -10.6 23.55 -9.3 23.55 -7.75C23.55 -6.25 23.1 -4.85 22.2 -3.5C21.35 -2.2 20.1 -1.2 18.4 -0.45C16.8 0.25 14.95 0.6 12.85 0.6C9.45 0.6 6.8 -0.1 4.95 -1.5C3.15 -2.9 2.05 -5.05 1.55 -7.9L6 -8.6C6.2 -6.8 6.9 -5.45 8.05 -4.5C9.15 -3.6 10.75 -3.1 12.85 -3.1C14.9 -3.1 16.45 -3.5 17.45 -4.35C18.45 -5.15 18.95 -6.15 18.95 -7.25C18.95 -8.25 18.5 -9.05 17.6 -9.65C17 -10.05 15.45 -10.55 13 -11.2C9.7 -12 7.45 -12.7 6.15 -13.3C4.9 -13.9 3.95 -14.75 3.25 -15.85C2.65 -16.9 2.3 -18.1 2.3 -19.4C2.3 -20.55 2.55 -21.65 3.1 -22.65C3.6 -23.65 4.35 -24.5 5.3 -25.2C6 -25.7 6.95 -26.1 8.15 -26.5C9.35 -26.85 10.65 -27.05 12.05 -27.05C14.1 -27.05 15.9 -26.75 17.5 -26.15C19.05 -25.55 20.2 -24.75 20.95 -23.7" />
</g>
<g id="ShapeID_2478" transform="matrix(0.392157, 0, 0, 0.392157, 38.05, 40.2)" >
 <clipPath  id="PathID4098_ClipPathURL" clip-rule="nonzero">
<path d="M1.7 -13.2C1.7 -15.8 2.1 -18.2 3 -20.35C3.85 -22.5 5.15 -24.15 6.95 -25.3C8.7 -26.45 10.65 -27.05 12.85 -27.05C14.45 -27.05 15.85 -26.7 17.1 -26C18.3 -25.35 19.35 -24.5 20.15 -23.4L20.15 -36.5L24.65 -36.5L24.65 0L20.5 0L20.5 -3.35C18.8 -0.75 16.35 0.6 13.05 0.6C10.95 0.6 9.05 0.05 7.25 -1.1C5.5 -2.25 4.15 -3.85 3.15 -5.95C2.2 -8.05 1.7 -10.45 1.7 -13.2M18.5 -5.5C19.9 -7.1 20.6 -9.5 20.6 -12.8C20.6 -16.4 19.9 -19.1 18.5 -20.8C17.1 -22.5 15.4 -23.35 13.3 -23.35C11.3 -23.35 9.65 -22.55 8.3 -20.9C7 -19.3 6.3 -16.7 6.3 -13.2C6.3 -9.8 7 -7.3 8.45 -5.6C9.85 -3.95 11.55 -3.1 13.5 -3.1C15.45 -3.1 17.1 -3.9 18.5 -5.5"/>
</clipPath>
<path 
style="clip-path:url(#PathID4098_ClipPathURL);fill:#000000;fill-opacity:1" d="M1.7 -13.2C1.7 -15.8 2.1 -18.2 3 -20.35C3.85 -22.5 5.15 -24.15 6.95 -25.3C8.7 -26.45 10.65 -27.05 12.85 -27.05C14.45 -27.05 15.85 -26.7 17.1 -26C18.3 -25.35 19.35 -24.5 20.15 -23.4L20.15 -36.5L24.65 -36.5L24.65 0L20.5 0L20.5 -3.35C18.8 -0.75 16.35 0.6 13.05 0.6C10.95 0.6 9.05 0.05 7.25 -1.1C5.5 -2.25 4.15 -3.85 3.15 -5.95C2.2 -8.05 1.7 -10.45 1.7 -13.2" />
</g>
<g id="ShapeID_2479" transform="matrix(0.392157, 0, 0, 0.392157, 49.15, 40.2)" >
 <clipPath  id="PathID4100_ClipPathURL" clip-rule="nonzero">
<path d="M13.9 -23.35C11.8 -23.35 10.25 -23 9.2 -22.2C8.2 -21.5 7.5 -20.2 7 -18.3L2.6 -18.9C3 -20.75 3.65 -22.25 4.55 -23.4C5.45 -24.55 6.8 -25.45 8.55 -26.1C10.25 -26.7 12.25 -27.05 14.55 -27.05C16.8 -27.05 18.65 -26.8 20.05 -26.25C21.45 -25.75 22.5 -25.05 23.2 -24.2C23.85 -23.4 24.3 -22.4 24.6 -21.15C24.75 -20.45 24.85 -19.05 24.85 -17.05L24.85 -11.05C24.85 -6.9 24.9 -4.25 25.1 -3.15C25.25 -2.05 25.6 -1 26.2 0L21.5 0C21.1 -0.9 20.8 -2 20.7 -3.3C19.05 -1.9 17.45 -0.85 15.85 -0.25C14.35 0.3 12.7 0.6 10.9 0.6C8 0.6 5.8 -0.1 4.2 -1.5C2.65 -2.9 1.85 -4.75 1.85 -6.95C1.85 -8.25 2.1 -9.4 2.7 -10.5C3.3 -11.55 4.05 -12.4 5.05 -13.05C6 -13.7 7.1 -14.2 8.3 -14.55C9.15 -14.75 10.5 -15 12.3 -15.25C15.9 -15.65 18.6 -16.2 20.3 -16.8C20.3 -17.4 20.35 -17.75 20.35 -17.95C20.35 -19.75 19.95 -21.05 19.05 -21.8C17.9 -22.8 16.2 -23.35 13.9 -23.35M6.65 -7.1C6.65 -5.9 7.1 -4.9 8 -4.1C8.9 -3.3 10.2 -2.9 12 -2.9C13.7 -2.9 15.25 -3.25 16.6 -4C17.95 -4.75 18.95 -5.8 19.6 -7.1C20.05 -8.1 20.3 -9.6 20.3 -11.6L20.35 -13.3C18.7 -12.65 16.25 -12.1 12.95 -11.6C11.15 -11.35 9.85 -11.05 9.05 -10.7C8.3 -10.4 7.7 -9.9 7.25 -9.2C6.85 -8.6 6.65 -7.9 6.65 -7.1"/>
</clipPath>
<path 
style="clip-path:url(#PathID4100_ClipPathURL);fill:#000000;fill-opacity:1" d="M13.9 -23.35C11.8 -23.35 10.25 -23 9.2 -22.2C8.2 -21.5 7.5 -20.2 7 -18.3L2.6 -18.9C3 -20.75 3.65 -22.25 4.55 -23.4C5.45 -24.55 6.8 -25.45 8.55 -26.1C10.25 -26.7 12.25 -27.05 14.55 -27.05C16.8 -27.05 18.65 -26.8 20.05 -26.25C21.45 -25.75 22.5 -25.05 23.2 -24.2C23.85 -23.4 24.3 -22.4 24.6 -21.15C24.75 -20.45 24.85 -19.05 24.85 -17.05L24.85 -11.05C24.85 -6.9 24.9 -4.25 25.1 -3.15C25.25 -2.05 25.6 -1 26.2 0L21.5 0C21.1 -0.9 20.8 -2 20.7 -3.3C19.05 -1.9 17.45 -0.85 15.85 -0.25C14.35 0.3 12.7 0.6 10.9 0.6C8 0.6 5.8 -0.1 4.2 -1.5C2.65 -2.9 1.85 -4.75 1.85 -6.95C1.85 -8.25 2.1 -9.4 2.7 -10.5C3.3 -11.55 4.05 -12.4 5.05 -13.05C6 -13.7 7.1 -14.2 8.3 -14.55C9.15 -14.75 10.5 -15 12.3 -15.25C15.9 -15.65 18.6 -16.2 20.3 -16.8C20.3 -17.4 20.35 -17.75 20.35 -17.95C20.35 -19.75 19.95 -21.05 19.05 -21.8C17.9 -22.8 16.2 -23.35 13.9 -23.35" />
</g>
<g id="ShapeID_2480" transform="matrix(0.392157, 0, 0, 0.392157, 60.25, 40.2)" >
<path 
style="fill:#000000;fill-opacity:1" d="M20.95 -23.7C21.7 -22.7 22.25 -21.35 22.55 -19.65L18.15 -19.05C17.95 -20.35 17.4 -21.4 16.4 -22.2C15.45 -22.95 14.1 -23.35 12.35 -23.35C10.3 -23.35 8.85 -23 7.95 -22.3C7.1 -21.65 6.65 -20.85 6.65 -19.9C6.65 -19.35 6.8 -18.85 7.15 -18.35C7.5 -17.9 8.1 -17.5 8.9 -17.15C9.3 -17 10.65 -16.6 12.85 -16C16 -15.2 18.2 -14.5 19.5 -13.95C20.75 -13.45 21.75 -12.65 22.45 -11.6C23.15 -10.6 23.55 -9.3 23.55 -7.75C23.55 -6.25 23.1 -4.85 22.2 -3.5C21.35 -2.2 20.1 -1.2 18.4 -0.45C16.8 0.25 14.95 0.6 12.85 0.6C9.45 0.6 6.8 -0.1 4.95 -1.5C3.15 -2.9 2.05 -5.05 1.55 -7.9L6 -8.6C6.2 -6.8 6.9 -5.45 8.05 -4.5C9.15 -3.6 10.75 -3.1 12.85 -3.1C14.9 -3.1 16.45 -3.5 17.45 -4.35C18.45 -5.15 18.95 -6.15 18.95 -7.25C18.95 -8.25 18.5 -9.05 17.6 -9.65C17 -10.05 15.45 -10.55 13 -11.2C9.7 -12 7.45 -12.7 6.15 -13.3C4.9 -13.9 3.95 -14.75 3.25 -15.85C2.65 -16.9 2.3 -18.1 2.3 -19.4C2.3 -20.55 2.55 -21.65 3.1 -22.65C3.6 -23.65 4.35 -24.5 5.3 -25.2C6 -25.7 6.95 -26.1 8.15 -26.5C9.35 -26.85 10.65 -27.05 12.05 -27.05C14.1 -27.05 15.9 -26.75 17.5 -26.15C19.05 -25.55 20.2 -24.75 20.95 -23.7" />
</g>
<g id="ShapeID_2481" transform="matrix(0.392157, 0, 0, 0.392157, 70.25, 40.2)" >
 <clipPath  id="PathID4103_ClipPathURL" clip-rule="nonzero">
<path d="M1.7 -13.2C1.7 -15.8 2.1 -18.2 3 -20.35C3.85 -22.5 5.15 -24.15 6.95 -25.3C8.7 -26.45 10.65 -27.05 12.85 -27.05C14.45 -27.05 15.85 -26.7 17.1 -26C18.3 -25.35 19.35 -24.5 20.15 -23.4L20.15 -36.5L24.65 -36.5L24.65 0L20.5 0L20.5 -3.35C18.8 -0.75 16.35 0.6 13.05 0.6C10.95 0.6 9.05 0.05 7.25 -1.1C5.5 -2.25 4.15 -3.85 3.15 -5.95C2.2 -8.05 1.7 -10.45 1.7 -13.2M18.5 -5.5C19.9 -7.1 20.6 -9.5 20.6 -12.8C20.6 -16.4 19.9 -19.1 18.5 -20.8C17.1 -22.5 15.4 -23.35 13.3 -23.35C11.3 -23.35 9.65 -22.55 8.3 -20.9C7 -19.3 6.3 -16.7 6.3 -13.2C6.3 -9.8 7 -7.3 8.45 -5.6C9.85 -3.95 11.55 -3.1 13.5 -3.1C15.45 -3.1 17.1 -3.9 18.5 -5.5"/>
</clipPath>
<path 
style="clip-path:url(#PathID4103_ClipPathURL);fill:#000000;fill-opacity:1" d="M1.7 -13.2C1.7 -15.8 2.1 -18.2 3 -20.35C3.85 -22.5 5.15 -24.15 6.95 -25.3C8.7 -26.45 10.65 -27.05 12.85 -27.05C14.45 -27.05 15.85 -26.7 17.1 -26C18.3 -25.35 19.35 -24.5 20.15 -23.4L20.15 -36.5L24.65 -36.5L24.65 0L20.5 0L20.5 -3.35C18.8 -0.75 16.35 0.6 13.05 0.6C10.95 0.6 9.05 0.05 7.25 -1.1C5.5 -2.25 4.15 -3.85 3.15 -5.95C2.2 -8.05 1.7 -10.45 1.7 -13.2" />
</g>
<g id="ShapeID_2482" transform="matrix(0.392157, 0, 0, 0.392157, 81.35, 40.2)" >
 <clipPath  id="PathID4105_ClipPathURL" clip-rule="nonzero">
<path d="M13.9 -23.35C11.8 -23.35 10.25 -23 9.2 -22.2C8.2 -21.5 7.5 -20.2 7 -18.3L2.6 -18.9C3 -20.75 3.65 -22.25 4.55 -23.4C5.45 -24.55 6.8 -25.45 8.55 -26.1C10.25 -26.7 12.25 -27.05 14.55 -27.05C16.8 -27.05 18.65 -26.8 20.05 -26.25C21.45 -25.75 22.5 -25.05 23.2 -24.2C23.85 -23.4 24.3 -22.4 24.6 -21.15C24.75 -20.45 24.85 -19.05 24.85 -17.05L24.85 -11.05C24.85 -6.9 24.9 -4.25 25.1 -3.15C25.25 -2.05 25.6 -1 26.2 0L21.5 0C21.1 -0.9 20.8 -2 20.7 -3.3C19.05 -1.9 17.45 -0.85 15.85 -0.25C14.35 0.3 12.7 0.6 10.9 0.6C8 0.6 5.8 -0.1 4.2 -1.5C2.65 -2.9 1.85 -4.75 1.85 -6.95C1.85 -8.25 2.1 -9.4 2.7 -10.5C3.3 -11.55 4.05 -12.4 5.05 -13.05C6 -13.7 7.1 -14.2 8.3 -14.55C9.15 -14.75 10.5 -15 12.3 -15.25C15.9 -15.65 18.6 -16.2 20.3 -16.8C20.3 -17.4 20.35 -17.75 20.35 -17.95C20.35 -19.75 19.95 -21.05 19.05 -21.8C17.9 -22.8 16.2 -23.35 13.9 -23.35M6.65 -7.1C6.65 -5.9 7.1 -4.9 8 -4.1C8.9 -3.3 10.2 -2.9 12 -2.9C13.7 -2.9 15.25 -3.25 16.6 -4C17.95 -4.75 18.95 -5.8 19.6 -7.1C20.05 -8.1 20.3 -9.6 20.3 -11.6L20.35 -13.3C18.7 -12.65 16.25 -12.1 12.95 -11.6C11.15 -11.35 9.85 -11.05 9.05 -10.7C8.3 -10.4 7.7 -9.9 7.25 -9.2C6.85 -8.6 6.65 -7.9 6.65 -7.1"/>
</clipPath>
<path 
style="clip-path:url(#PathID4105_ClipPathURL);fill:#000000;fill-opacity:1" d="M13.9 -23.35C11.8 -23.35 10.25 -23 9.2 -22.2C8.2 -21.5 7.5 -20.2 7 -18.3L2.6 -18.9C3 -20.75 3.65 -22.25 4.55 -23.4C5.45 -24.55 6.8 -25.45 8.55 -26.1C10.25 -26.7 12.25 -27.05 14.55 -27.05C16.8 -27.05 18.65 -26.8 20.05 -26.25C21.45 -25.75 22.5 -25.05 23.2 -24.2C23.85 -23.4 24.3 -22.4 24.6 -21.15C24.75 -20.45 24.85 -19.05 24.85 -17.05L24.85 -11.05C24.85 -6.9 24.9 -4.25 25.1 -3.15C25.25 -2.05 25.6 -1 26.2 0L21.5 0C21.1 -0.9 20.8 -2 20.7 -3.3C19.05 -1.9 17.45 -0.85 15.85 -0.25C14.35 0.3 12.7 0.6 10.9 0.6C8 0.6 5.8 -0.1 4.2 -1.5C2.65 -2.9 1.85 -4.75 1.85 -6.95C1.85 -8.25 2.1 -9.4 2.7 -10.5C3.3 -11.55 4.05 -12.4 5.05 -13.05C6 -13.7 7.1 -14.2 8.3 -14.55C9.15 -14.75 10.5 -15 12.3 -15.25C15.9 -15.65 18.6 -16.2 20.3 -16.8C20.3 -17.4 20.35 -17.75 20.35 -17.95C20.35 -19.75 19.95 -21.05 19.05 -21.8C17.9 -22.8 16.2 -23.35 13.9 -23.35" />
</g>
<g id="ShapeID_2483" transform="matrix(0.392157, 0, 0, 0.392157, 92.45, 40.2)" >
<path 
style="fill:#000000;fill-opacity:1" d="M20.95 -23.7C21.7 -22.7 22.25 -21.35 22.55 -19.65L18.15 -19.05C17.95 -20.35 17.4 -21.4 16.4 -22.2C15.45 -22.95 14.1 -23.35 12.35 -23.35C10.3 -23.35 8.85 -23 7.95 -22.3C7.1 -21.65 6.65 -20.85 6.65 -19.9C6.65 -19.35 6.8 -18.85 7.15 -18.35C7.5 -17.9 8.1 -17.5 8.9 -17.15C9.3 -17 10.65 -16.6 12.85 -16C16 -15.2 18.2 -14.5 19.5 -13.95C20.75 -13.45 21.75 -12.65 22.45 -11.6C23.15 -10.6 23.55 -9.3 23.55 -7.75C23.55 -6.25 23.1 -4.85 22.2 -3.5C21.35 -2.2 20.1 -1.2 18.4 -0.45C16.8 0.25 14.95 0.6 12.85 0.6C9.45 0.6 6.8 -0.1 4.95 -1.5C3.15 -2.9 2.05 -5.05 1.55 -7.9L6 -8.6C6.2 -6.8 6.9 -5.45 8.05 -4.5C9.15 -3.6 10.75 -3.1 12.85 -3.1C14.9 -3.1 16.45 -3.5 17.45 -4.35C18.45 -5.15 18.95 -6.15 18.95 -7.25C18.95 -8.25 18.5 -9.05 17.6 -9.65C17 -10.05 15.45 -10.55 13 -11.2C9.7 -12 7.45 -12.7 6.15 -13.3C4.9 -13.9 3.95 -14.75 3.25 -15.85C2.65 -16.9 2.3 -18.1 2.3 -19.4C2.3 -20.55 2.55 -21.65 3.1 -22.65C3.6 -23.65 4.35 -24.5 5.3 -25.2C6 -25.7 6.95 -26.1 8.15 -26.5C9.35 -26.85 10.65 -27.05 12.05 -27.05C14.1 -27.05 15.9 -26.75 17.5 -26.15C19.05 -25.55 20.2 -24.75 20.95 -23.7" />
</g>
<g id="ShapeID_2484" transform="matrix(0.392157, 0, 0, 0.392157, 102.45, 40.2)" >
 <clipPath  id="PathID4108_ClipPathURL" clip-rule="nonzero">
<path d="M1.7 -13.2C1.7 -15.8 2.1 -18.2 3 -20.35C3.85 -22.5 5.15 -24.15 6.95 -25.3C8.7 -26.45 10.65 -27.05 12.85 -27.05C14.45 -27.05 15.85 -26.7 17.1 -26C18.3 -25.35 19.35 -24.5 20.15 -23.4L20.15 -36.5L24.65 -36.5L24.65 0L20.5 0L20.5 -3.35C18.8 -0.75 16.35 0.6 13.05 0.6C10.95 0.6 9.05 0.05 7.25 -1.1C5.5 -2.25 4.15 -3.85 3.15 -5.95C2.2 -8.05 1.7 -10.45 1.7 -13.2M18.5 -5.5C19.9 -7.1 20.6 -9.5 20.6 -12.8C20.6 -16.4 19.9 -19.1 18.5 -20.8C17.1 -22.5 15.4 -23.35 13.3 -23.35C11.3 -23.35 9.65 -22.55 8.3 -20.9C7 -19.3 6.3 -16.7 6.3 -13.2C6.3 -9.8 7 -7.3 8.45 -5.6C9.85 -3.95 11.55 -3.1 13.5 -3.1C15.45 -3.1 17.1 -3.9 18.5 -5.5"/>
</clipPath>
<path 
style="clip-path:url(#PathID4108_ClipPathURL);fill:#000000;fill-opacity:1" d="M1.7 -13.2C1.7 -15.8 2.1 -18.2 3 -20.35C3.85 -22.5 5.15 -24.15 6.95 -25.3C8.7 -26.45 10.65 -27.05 12.85 -27.05C14.45 -27.05 15.85 -26.7 17.1 -26C18.3 -25.35 19.35 -24.5 20.15 -23.4L20.15 -36.5L24.65 -36.5L24.65 0L20.5 0L20.5 -3.35C18.8 -0.75 16.35 0.6 13.05 0.6C10.95 0.6 9.05 0.05 7.25 -1.1C5.5 -2.25 4.15 -3.85 3.15 -5.95C2.2 -8.05 1.7 -10.45 1.7 -13.2" />
</g>
<g id="ShapeID_2485" transform="matrix(0.392157, 0, 0, 0.392157, 113.55, 40.2)" >
 <clipPath  id="PathID4110_ClipPathURL" clip-rule="nonzero">
<path d="M13.9 -23.35C11.8 -23.35 10.25 -23 9.2 -22.2C8.2 -21.5 7.5 -20.2 7 -18.3L2.6 -18.9C3 -20.75 3.65 -22.25 4.55 -23.4C5.45 -24.55 6.8 -25.45 8.55 -26.1C10.25 -26.7 12.25 -27.05 14.55 -27.05C16.8 -27.05 18.65 -26.8 20.05 -26.25C21.45 -25.75 22.5 -25.05 23.2 -24.2C23.85 -23.4 24.3 -22.4 24.6 -21.15C24.75 -20.45 24.85 -19.05 24.85 -17.05L24.85 -11.05C24.85 -6.9 24.9 -4.25 25.1 -3.15C25.25 -2.05 25.6 -1 26.2 0L21.5 0C21.1 -0.9 20.8 -2 20.7 -3.3C19.05 -1.9 17.45 -0.85 15.85 -0.25C14.35 0.3 12.7 0.6 10.9 0.6C8 0.6 5.8 -0.1 4.2 -1.5C2.65 -2.9 1.85 -4.75 1.85 -6.95C1.85 -8.25 2.1 -9.4 2.7 -10.5C3.3 -11.55 4.05 -12.4 5.05 -13.05C6 -13.7 7.1 -14.2 8.3 -14.55C9.15 -14.75 10.5 -15 12.3 -15.25C15.9 -15.65 18.6 -16.2 20.3 -16.8C20.3 -17.4 20.35 -17.75 20.35 -17.95C20.35 -19.75 19.95 -21.05 19.05 -21.8C17.9 -22.8 16.2 -23.35 13.9 -23.35M6.65 -7.1C6.65 -5.9 7.1 -4.9 8 -4.1C8.9 -3.3 10.2 -2.9 12 -2.9C13.7 -2.9 15.25 -3.25 16.6 -4C17.95 -4.75 18.95 -5.8 19.6 -7.1C20.05 -8.1 20.3 -9.6 20.3 -11.6L20.35 -13.3C18.7 -12.65 16.25 -12.1 12.95 -11.6C11.15 -11.35 9.85 -11.05 9.05 -10.7C8.3 -10.4 7.7 -9.9 7.25 -9.2C6.85 -8.6 6.65 -7.9 6.65 -7.1"/>
</clipPath>
<path 
style="clip-path:url(#PathID4110_ClipPathURL);fill:#000000;fill-opacity:1" d="M13.9 -23.35C11.8 -23.35 10.25 -23 9.2 -22.2C8.2 -21.5 7.5 -20.2 7 -18.3L2.6 -18.9C3 -20.75 3.65 -22.25 4.55 -23.4C5.45 -24.55 6.8 -25.45 8.55 -26.1C10.25 -26.7 12.25 -27.05 14.55 -27.05C16.8 -27.05 18.65 -26.8 20.05 -26.25C21.45 -25.75 22.5 -25.05 23.2 -24.2C23.85 -23.4 24.3 -22.4 24.6 -21.15C24.75 -20.45 24.85 -19.05 24.85 -17.05L24.85 -11.05C24.85 -6.9 24.9 -4.25 25.1 -3.15C25.25 -2.05 25.6 -1 26.2 0L21.5 0C21.1 -0.9 20.8 -2 20.7 -3.3C19.05 -1.9 17.45 -0.85 15.85 -0.25C14.35 0.3 12.7 0.6 10.9 0.6C8 0.6 5.8 -0.1 4.2 -1.5C2.65 -2.9 1.85 -4.75 1.85 -6.95C1.85 -8.25 2.1 -9.4 2.7 -10.5C3.3 -11.55 4.05 -12.4 5.05 -13.05C6 -13.7 7.1 -14.2 8.3 -14.55C9.15 -14.75 10.5 -15 12.3 -15.25C15.9 -15.65 18.6 -16.2 20.3 -16.8C20.3 -17.4 20.35 -17.75 20.35 -17.95C20.35 -19.75 19.95 -21.05 19.05 -21.8C17.9 -22.8 16.2 -23.35 13.9 -23.35" />
</g>
<g id="ShapeID_2486" transform="matrix(0.392157, 0, 0, 0.392157, 124.65, 40.2)" >
<path 
style="fill:#000000;fill-opacity:1" d="M20.95 -23.7C21.7 -22.7 22.25 -21.35 22.55 -19.65L18.15 -19.05C17.95 -20.35 17.4 -21.4 16.4 -22.2C15.45 -22.95 14.1 -23.35 12.35 -23.35C10.3 -23.35 8.85 -23 7.95 -22.3C7.1 -21.65 6.65 -20.85 6.65 -19.9C6.65 -19.35 6.8 -18.85 7.15 -18.35C7.5 -17.9 8.1 -17.5 8.9 -17.15C9.3 -17 10.65 -16.6 12.85 -16C16 -15.2 18.2 -14.5 19.5 -13.95C20.75 -13.45 21.75 -12.65 22.45 -11.6C23.15 -10.6 23.55 -9.3 23.55 -7.75C23.55 -6.25 23.1 -4.85 22.2 -3.5C21.35 -2.2 20.1 -1.2 18.4 -0.45C16.8 0.25 14.95 0.6 12.85 0.6C9.45 0.6 6.8 -0.1 4.95 -1.5C3.15 -2.9 2.05 -5.05 1.55 -7.9L6 -8.6C6.2 -6.8 6.9 -5.45 8.05 -4.5C9.15 -3.6 10.75 -3.1 12.85 -3.1C14.9 -3.1 16.45 -3.5 17.45 -4.35C18.45 -5.15 18.95 -6.15 18.95 -7.25C18.95 -8.25 18.5 -9.05 17.6 -9.65C17 -10.05 15.45 -10.55 13 -11.2C9.7 -12 7.45 -12.7 6.15 -13.3C4.9 -13.9 3.95 -14.75 3.25 -15.85C2.65 -16.9 2.3 -18.1 2.3 -19.4C2.3 -20.55 2.55 -21.65 3.1 -22.65C3.6 -23.65 4.35 -24.5 5.3 -25.2C6 -25.7 6.95 -26.1 8.15 -26.5C9.35 -26.85 10.65 -27.05 12.05 -27.05C14.1 -27.05 15.9 -26.75 17.5 -26.15C19.05 -25.55 20.2 -24.75 20.95 -23.7" />
</g>
<g id="ShapeID_2487" transform="matrix(0.392157, 0, 0, 0.392157, 134.65, 40.2)" >
 <clipPath  id="PathID4113_ClipPathURL" clip-rule="nonzero">
<path d="M1.7 -13.2C1.7 -15.8 2.1 -18.2 3 -20.35C3.85 -22.5 5.15 -24.15 6.95 -25.3C8.7 -26.45 10.65 -27.05 12.85 -27.05C14.45 -27.05 15.85 -26.7 17.1 -26C18.3 -25.35 19.35 -24.5 20.15 -23.4L20.15 -36.5L24.65 -36.5L24.65 0L20.5 0L20.5 -3.35C18.8 -0.75 16.35 0.6 13.05 0.6C10.95 0.6 9.05 0.05 7.25 -1.1C5.5 -2.25 4.15 -3.85 3.15 -5.95C2.2 -8.05 1.7 -10.45 1.7 -13.2M18.5 -5.5C19.9 -7.1 20.6 -9.5 20.6 -12.8C20.6 -16.4 19.9 -19.1 18.5 -20.8C17.1 -22.5 15.4 -23.35 13.3 -23.35C11.3 -23.35 9.65 -22.55 8.3 -20.9C7 -19.3 6.3 -16.7 6.3 -13.2C6.3 -9.8 7 -7.3 8.45 -5.6C9.85 -3.95 11.55 -3.1 13.5 -3.1C15.45 -3.1 17.1 -3.9 18.5 -5.5"/>
</clipPath>
<path 
style="clip-path:url(#PathID4113_ClipPathURL);fill:#000000;fill-opacity:1" d="M1.7 -13.2C1.7 -15.8 2.1 -18.2 3 -20.35C3.85 -22.5 5.15 -24.15 6.95 -25.3C8.7 -26.45 10.65 -27.05 12.85 -27.05C14.45 -27.05 15.85 -26.7 17.1 -26C18.3 -25.35 19.35 -24.5 20.15 -23.4L20.15 -36.5L24.65 -36.5L24.65 0L20.5 0L20.5 -3.35C18.8 -0.75 16.35 0.6 13.05 0.6C10.95 0.6 9.05 0.05 7.25 -1.1C5.5 -2.25 4.15 -3.85 3.15 -5.95C2.2 -8.05 1.7 -10.45 1.7 -13.2" />
</g>
<g id="ShapeID_2488" transform="matrix(0.392157, 0, 0, 0.392157, 145.75, 40.2)" >
 <clipPath  id="PathID4115_ClipPathURL" clip-rule="nonzero">
<path d="M13.9 -23.35C11.8 -23.35 10.25 -23 9.2 -22.2C8.2 -21.5 7.5 -20.2 7 -18.3L2.6 -18.9C3 -20.75 3.65 -22.25 4.55 -23.4C5.45 -24.55 6.8 -25.45 8.55 -26.1C10.25 -26.7 12.25 -27.05 14.55 -27.05C16.8 -27.05 18.65 -26.8 20.05 -26.25C21.45 -25.75 22.5 -25.05 23.2 -24.2C23.85 -23.4 24.3 -22.4 24.6 -21.15C24.75 -20.45 24.85 -19.05 24.85 -17.05L24.85 -11.05C24.85 -6.9 24.9 -4.25 25.1 -3.15C25.25 -2.05 25.6 -1 26.2 0L21.5 0C21.1 -0.9 20.8 -2 20.7 -3.3C19.05 -1.9 17.45 -0.85 15.85 -0.25C14.35 0.3 12.7 0.6 10.9 0.6C8 0.6 5.8 -0.1 4.2 -1.5C2.65 -2.9 1.85 -4.75 1.85 -6.95C1.85 -8.25 2.1 -9.4 2.7 -10.5C3.3 -11.55 4.05 -12.4 5.05 -13.05C6 -13.7 7.1 -14.2 8.3 -14.55C9.15 -14.75 10.5 -15 12.3 -15.25C15.9 -15.65 18.6 -16.2 20.3 -16.8C20.3 -17.4 20.35 -17.75 20.35 -17.95C20.35 -19.75 19.95 -21.05 19.05 -21.8C17.9 -22.8 16.2 -23.35 13.9 -23.35M6.65 -7.1C6.65 -5.9 7.1 -4.9 8 -4.1C8.9 -3.3 10.2 -2.9 12 -2.9C13.7 -2.9 15.25 -3.25 16.6 -4C17.95 -4.75 18.95 -5.8 19.6 -7.1C20.05 -8.1 20.3 -9.6 20.3 -11.6L20.35 -13.3C18.7 -12.65 16.25 -12.1 12.95 -11.6C11.15 -11.35 9.85 -11.05 9.05 -10.7C8.3 -10.4 7.7 -9.9 7.25 -9.2C6.85 -8.6 6.65 -7.9 6.65 -7.1"/>
</clipPath>
<path 
style="clip-path:url(#PathID4115_ClipPathURL);fill:#000000;fill-opacity:1" d="M13.9 -23.35C11.8 -23.35 10.25 -23 9.2 -22.2C8.2 -21.5 7.5 -20.2 7 -18.3L2.6 -18.9C3 -20.75 3.65 -22.25 4.55 -23.4C5.45 -24.55 6.8 -25.45 8.55 -26.1C10.25 -26.7 12.25 -27.05 14.55 -27.05C16.8 -27.05 18.65 -26.8 20.05 -26.25C21.45 -25.75 22.5 -25.05 23.2 -24.2C23.85 -23.4 24.3 -22.4 24.6 -21.15C24.75 -20.45 24.85 -19.05 24.85 -17.05L24.85 -11.05C24.85 -6.9 24.9 -4.25 25.1 -3.15C25.25 -2.05 25.6 -1 26.2 0L21.5 0C21.1 -0.9 20.8 -2 20.7 -3.3C19.05 -1.9 17.45 -0.85 15.85 -0.25C14.35 0.3 12.7 0.6 10.9 0.6C8 0.6 5.8 -0.1 4.2 -1.5C2.65 -2.9 1.85 -4.75 1.85 -6.95C1.85 -8.25 2.1 -9.4 2.7 -10.5C3.3 -11.55 4.05 -12.4 5.05 -13.05C6 -13.7 7.1 -14.2 8.3 -14.55C9.15 -14.75 10.5 -15 12.3 -15.25C15.9 -15.65 18.6 -16.2 20.3 -16.8C20.3 -17.4 20.35 -17.75 20.35 -17.95C20.35 -19.75 19.95 -21.05 19.05 -21.8C17.9 -22.8 16.2 -23.35 13.9 -23.35" />
</g>
<g id="ShapeID_2489" transform="matrix(0.392157, 0, 0, 0.392157, 156.85, 40.2)" >
<path 
style="fill:#000000;fill-opacity:1" d="M20.95 -23.7C21.7 -22.7 22.25 -21.35 22.55 -19.65L18.15 -19.05C17.95 -20.35 17.4 -21.4 16.4 -22.2C15.45 -22.95 14.1 -23.35 12.35 -23.35C10.3 -23.35 8.85 -23 7.95 -22.3C7.1 -21.65 6.65 -20.85 6.65 -19.9C6.65 -19.35 6.8 -18.85 7.15 -18.35C7.5 -17.9 8.1 -17.5 8.9 -17.15C9.3 -17 10.65 -16.6 12.85 -16C16 -15.2 18.2 -14.5 19.5 -13.95C20.75 -13.45 21.75 -12.65 22.45 -11.6C23.15 -10.6 23.55 -9.3 23.55 -7.75C23.55 -6.25 23.1 -4.85 22.2 -3.5C21.35 -2.2 20.1 -1.2 18.4 -0.45C16.8 0.25 14.95 0.6 12.85 0.6C9.45 0.6 6.8 -0.1 4.95 -1.5C3.15 -2.9 2.05 -5.05 1.55 -7.9L6 -8.6C6.2 -6.8 6.9 -5.45 8.05 -4.5C9.15 -3.6 10.75 -3.1 12.85 -3.1C14.9 -3.1 16.45 -3.5 17.45 -4.35C18.45 -5.15 18.95 -6.15 18.95 -7.25C18.95 -8.25 18.5 -9.05 17.6 -9.65C17 -10.05 15.45 -10.55 13 -11.2C9.7 -12 7.45 -12.7 6.15 -13.3C4.9 -13.9 3.95 -14.75 3.25 -15.85C2.65 -16.9 2.3 -18.1 2.3 -19.4C2.3 -20.55 2.55 -21.65 3.1 -22.65C3.6 -23.65 4.35 -24.5 5.3 -25.2C6 -25.7 6.95 -26.1 8.15 -26.5C9.35 -26.85 10.65 -27.05 12.05 -27.05C14.1 -27.05 15.9 -26.75 17.5 -26.15C19.05 -25.55 20.2 -24.75 20.95 -23.7" />
</g>
<g id="ShapeID_2490" transform="matrix(0.392157, 0, 0, 0.392157, 166.85, 40.2)" >
 <clipPath  id="PathID4118_ClipPathURL" clip-rule="nonzero">
<path d="M1.7 -13.2C1.7 -15.8 2.1 -18.2 3 -20.35C3.85 -22.5 5.15 -24.15 6.95 -25.3C8.7 -26.45 10.65 -27.05 12.85 -27.05C14.45 -27.05 15.85 -26.7 17.1 -26C18.3 -25.35 19.35 -24.5 20.15 -23.4L20.15 -36.5L24.65 -36.5L24.65 0L20.5 0L20.5 -3.35C18.8 -0.75 16.35 0.6 13.05 0.6C10.95 0.6 9.05 0.05 7.25 -1.1C5.5 -2.25 4.15 -3.85 3.15 -5.95C2.2 -8.05 1.7 -10.45 1.7 -13.2M18.5 -5.5C19.9 -7.1 20.6 -9.5 20.6 -12.8C20.6 -16.4 19.9 -19.1 18.5 -20.8C17.1 -22.5 15.4 -23.35 13.3 -23.35C11.3 -23.35 9.65 -22.55 8.3 -20.9C7 -19.3 6.3 -16.7 6.3 -13.2C6.3 -9.8 7 -7.3 8.45 -5.6C9.85 -3.95 11.55 -3.1 13.5 -3.1C15.45 -3.1 17.1 -3.9 18.5 -5.5"/>
</clipPath>
<path 
style="clip-path:url(#PathID4118_ClipPathURL);fill:#000000;fill-opacity:1" d="M1.7 -13.2C1.7 -15.8 2.1 -18.2 3 -20.35C3.85 -22.5 5.15 -24.15 6.95 -25.3C8.7 -26.45 10.65 -27.05 12.85 -27.05C14.45 -27.05 15.85 -26.7 17.1 -26C18.3 -25.35 19.35 -24.5 20.15 -23.4L20.15 -36.5L24.65 -36.5L24.65 0L20.5 0L20.5 -3.35C18.8 -0.75 16.35 0.6 13.05 0.6C10.95 0.6 9.05 0.05 7.25 -1.1C5.5 -2.25 4.15 -3.85 3.15 -5.95C2.2 -8.05 1.7 -10.45 1.7 -13.2" />
</g>
<g id="ShapeID_2491" transform="matrix(0.392157, 0, 0, 0.392157, 177.95, 40.2)" >
 <clipPath  id="PathID4120_ClipPathURL" clip-rule="nonzero">
<path d="M13.9 -23.35C11.8 -23.35 10.25 -23 9.2 -22.2C8.2 -21.5 7.5 -20.2 7 -18.3L2.6 -18.9C3 -20.75 3.65 -22.25 4.55 -23.4C5.45 -24.55 6.8 -25.45 8.55 -26.1C10.25 -26.7 12.25 -27.05 14.55 -27.05C16.8 -27.05 18.65 -26.8 20.05 -26.25C21.45 -25.75 22.5 -25.05 23.2 -24.2C23.85 -23.4 24.3 -22.4 24.6 -21.15C24.75 -20.45 24.85 -19.05 24.85 -17.05L24.85 -11.05C24.85 -6.9 24.9 -4.25 25.1 -3.15C25.25 -2.05 25.6 -1 26.2 0L21.5 0C21.1 -0.9 20.8 -2 20.7 -3.3C19.05 -1.9 17.45 -0.85 15.85 -0.25C14.35 0.3 12.7 0.6 10.9 0.6C8 0.6 5.8 -0.1 4.2 -1.5C2.65 -2.9 1.85 -4.75 1.85 -6.95C1.85 -8.25 2.1 -9.4 2.7 -10.5C3.3 -11.55 4.05 -12.4 5.05 -13.05C6 -13.7 7.1 -14.2 8.3 -14.55C9.15 -14.75 10.5 -15 12.3 -15.25C15.9 -15.65 18.6 -16.2 20.3 -16.8C20.3 -17.4 20.35 -17.75 20.35 -17.95C20.35 -19.75 19.95 -21.05 19.05 -21.8C17.9 -22.8 16.2 -23.35 13.9 -23.35M6.65 -7.1C6.65 -5.9 7.1 -4.9 8 -4.1C8.9 -3.3 10.2 -2.9 12 -2.9C13.7 -2.9 15.25 -3.25 16.6 -4C17.95 -4.75 18.95 -5.8 19.6 -7.1C20.05 -8.1 20.3 -9.6 20.3 -11.6L20.35 -13.3C18.7 -12.65 16.25 -12.1 12.95 -11.6C11.15 -11.35 9.85 -11.05 9.05 -10.7C8.3 -10.4 7.7 -9.9 7.25 -9.2C6.85 -8.6 6.65 -7.9 6.65 -7.1"/>
</clipPath>
<path 
style="clip-path:url(#PathID4120_ClipPathURL);fill:#000000;fill-opacity:1" d="M13.9 -23.35C11.8 -23.35 10.25 -23 9.2 -22.2C8.2 -21.5 7.5 -20.2 7 -18.3L2.6 -18.9C3 -20.75 3.65 -22.25 4.55 -23.4C5.45 -24.55 6.8 -25.45 8.55 -26.1C10.25 -26.7 12.25 -27.05 14.55 -27.05C16.8 -27.05 18.65 -26.8 20.05 -26.25C21.45 -25.75 22.5 -25.05 23.2 -24.2C23.85 -23.4 24.3 -22.4 24.6 -21.15C24.75 -20.45 24.85 -19.05 24.85 -17.05L24.85 -11.05C24.85 -6.9 24.9 -4.25 25.1 -3.15C25.25 -2.05 25.6 -1 26.2 0L21.5 0C21.1 -0.9 20.8 -2 20.7 -3.3C19.05 -1.9 17.45 -0.85 15.85 -0.25C14.35 0.3 12.7 0.6 10.9 0.6C8 0.6 5.8 -0.1 4.2 -1.5C2.65 -2.9 1.85 -4.75 1.85 -6.95C1.85 -8.25 2.1 -9.4 2.7 -10.5C3.3 -11.55 4.05 -12.4 5.05 -13.05C6 -13.7 7.1 -14.2 8.3 -14.55C9.15 -14.75 10.5 -15 12.3 -15.25C15.9 -15.65 18.6 -16.2 20.3 -16.8C20.3 -17.4 20.35 -17.75 20.35 -17.95C20.35 -19.75 19.95 -21.05 19.05 -21.8C17.9 -22.8 16.2 -23.35 13.9 -23.35" />
</g>
<g id="ShapeID_2492" transform="matrix(0.392157, 0, 0, 0.392157, 189.05, 40.2)" >
<path 
style="fill:#000000;fill-opacity:1" d="M20.95 -23.7C21.7 -22.7 22.25 -21.35 22.55 -19.65L18.15 -19.05C17.95 -20.35 17.4 -21.4 16.4 -22.2C15.45 -22.95 14.1 -23.35 12.35 -23.35C10.3 -23.35 8.85 -23 7.95 -22.3C7.1 -21.65 6.65 -20.85 6.65 -19.9C6.65 -19.35 6.8 -18.85 7.15 -18.35C7.5 -17.9 8.1 -17.5 8.9 -17.15C9.3 -17 10.65 -16.6 12.85 -16C16 -15.2 18.2 -14.5 19.5 -13.95C20.75 -13.45 21.75 -12.65 22.45 -11.6C23.15 -10.6 23.55 -9.3 23.55 -7.75C23.55 -6.25 23.1 -4.85 22.2 -3.5C21.35 -2.2 20.1 -1.2 18.4 -0.45C16.8 0.25 14.95 0.6 12.85 0.6C9.45 0.6 6.8 -0.1 4.95 -1.5C3.15 -2.9 2.05 -5.05 1.55 -7.9L6 -8.6C6.2 -6.8 6.9 -5.45 8.05 -4.5C9.15 -3.6 10.75 -3.1 12.85 -3.1C14.9 -3.1 16.45 -3.5 17.45 -4.35C18.45 -5.15 18.95 -6.15 18.95 -7.25C18.95 -8.25 18.5 -9.05 17.6 -9.65C17 -10.05 15.45 -10.55 13 -11.2C9.7 -12 7.45 -12.7 6.15 -13.3C4.9 -13.9 3.95 -14.75 3.25 -15.85C2.65 -16.9 2.3 -18.1 2.3 -19.4C2.3 -20.55 2.55 -21.65 3.1 -22.65C3.6 -23.65 4.35 -24.5 5.3 -25.2C6 -25.7 6.95 -26.1 8.15 -26.5C9.35 -26.85 10.65 -27.05 12.05 -27.05C14.1 -27.05 15.9 -26.75 17.5 -26.15C19.05 -25.55 20.2 -24.75 20.95 -23.7" />
</g>
<g id="ShapeID_2493" transform="matrix(0.392157, 0, 0, 0.392157, 199.05, 40.2)" >
 <clipPath  id="PathID4123_ClipPathURL" clip-rule="nonzero">
<path d="M1.7 -13.2C1.7 -15.8 2.1 -18.2 3 -20.35C3.85 -22.5 5.15 -24.15 6.95 -25.3C8.7 -26.45 10.65 -27.05 12.85 -27.05C14.45 -27.05 15.85 -26.7 17.1 -26C18.3 -25.35 19.35 -24.5 20.15 -23.4L20.15 -36.5L24.65 -36.5L24.65 0L20.5 0L20.5 -3.35C18.8 -0.75 16.35 0.6 13.05 0.6C10.95 0.6 9.05 0.05 7.25 -1.1C5.5 -2.25 4.15 -3.85 3.15 -5.95C2.2 -8.05 1.7 -10.45 1.7 -13.2M18.5 -5.5C19.9 -7.1 20.6 -9.5 20.6 -12.8C20.6 -16.4 19.9 -19.1 18.5 -20.8C17.1 -22.5 15.4 -23.35 13.3 -23.35C11.3 -23.35 9.65 -22.55 8.3 -20.9C7 -19.3 6.3 -16.7 6.3 -13.2C6.3 -9.8 7 -7.3 8.45 -5.6C9.85 -3.95 11.55 -3.1 13.5 -3.1C15.45 -3.1 17.1 -3.9 18.5 -5.5"/>
</clipPath>
<path 
style="clip-path:url(#PathID4123_ClipPathURL);fill:#000000;fill-opacity:1" d="M1.7 -13.2C1.7 -15.8 2.1 -18.2 3 -20.35C3.85 -22.5 5.15 -24.15 6.95 -25.3C8.7 -26.45 10.65 -27.05 12.85 -27.05C14.45 -27.05 15.85 -26.7 17.1 -26C18.3 -25.35 19.35 -24.5 20.15 -23.4L20.15 -36.5L24.65 -36.5L24.65 0L20.5 0L20.5 -3.35C18.8 -0.75 16.35 0.6 13.05 0.6C10.95 0.6 9.05 0.05 7.25 -1.1C5.5 -2.25 4.15 -3.85 3.15 -5.95C2.2 -8.05 1.7 -10.45 1.7 -13.2" />
</g>
<g id="ShapeID_2494" transform="matrix(0.392157, 0, 0, 0.392157, 210.15, 40.2)" >
 <clipPath  id="PathID4125_ClipPathURL" clip-rule="nonzero">
<path d="M13.9 -23.35C11.8 -23.35 10.25 -23 9.2 -22.2C8.2 -21.5 7.5 -20.2 7 -18.3L2.6 -18.9C3 -20.75 3.65 -22.25 4.55 -23.4C5.45 -24.55 6.8 -25.45 8.55 -26.1C10.25 -26.7 12.25 -27.05 14.55 -27.05C16.8 -27.05 18.65 -26.8 20.05 -26.25C21.45 -25.75 22.5 -25.05 23.2 -24.2C23.85 -23.4 24.3 -22.4 24.6 -21.15C24.75 -20.45 24.85 -19.05 24.85 -17.05L24.85 -11.05C24.85 -6.9 24.9 -4.25 25.1 -3.15C25.25 -2.05 25.6 -1 26.2 0L21.5 0C21.1 -0.9 20.8 -2 20.7 -3.3C19.05 -1.9 17.45 -0.85 15.85 -0.25C14.35 0.3 12.7 0.6 10.9 0.6C8 0.6 5.8 -0.1 4.2 -1.5C2.65 -2.9 1.85 -4.75 1.85 -6.95C1.85 -8.25 2.1 -9.4 2.7 -10.5C3.3 -11.55 4.05 -12.4 5.05 -13.05C6 -13.7 7.1 -14.2 8.3 -14.55C9.15 -14.75 10.5 -15 12.3 -15.25C15.9 -15.65 18.6 -16.2 20.3 -16.8C20.3 -17.4 20.35 -17.75 20.35 -17.95C20.35 -19.75 19.95 -21.05 19.05 -21.8C17.9 -22.8 16.2 -23.35 13.9 -23.35M6.65 -7.1C6.65 -5.9 7.1 -4.9 8 -4.1C8.9 -3.3 10.2 -2.9 12 -2.9C13.7 -2.9 15.25 -3.25 16.6 -4C17.95 -4.75 18.95 -5.8 19.6 -7.1C20.05 -8.1 20.3 -9.6 20.3 -11.6L20.35 -13.3C18.7 -12.65 16.25 -12.1 12.95 -11.6C11.15 -11.35 9.85 -11.05 9.05 -10.7C8.3 -10.4 7.7 -9.9 7.25 -9.2C6.85 -8.6 6.65 -7.9 6.65 -7.1"/>
</clipPath>
<path 
style="clip-path:url(#PathID4125_ClipPathURL);fill:#000000;fill-opacity:1" d="M13.9 -23.35C11.8 -23.35 10.25 -23 9.2 -22.2C8.2 -21.5 7.5 -20.2 7 -18.3L2.6 -18.9C3 -20.75 3.65 -22.25 4.55 -23.4C5.45 -24.55 6.8 -25.45 8.55 -26.1C10.25 -26.7 12.25 -27.05 14.55 -27.05C16.8 -27.05 18.65 -26.8 20.05 -26.25C21.45 -25.75 22.5 -25.05 23.2 -24.2C23.85 -23.4 24.3 -22.4 24.6 -21.15C24.75 -20.45 24.85 -19.05 24.85 -17.05L24.85 -11.05C24.85 -6.9 24.9 -4.25 25.1 -3.15C25.25 -2.05 25.6 -1 26.2 0L21.5 0C21.1 -0.9 20.8 -2 20.7 -3.3C19.05 -1.9 17.45 -0.85 15.85 -0.25C14.35 0.3 12.7 0.6 10.9 0.6C8 0.6 5.8 -0.1 4.2 -1.5C2.65 -2.9 1.85 -4.75 1.85 -6.95C1.85 -8.25 2.1 -9.4 2.7 -10.5C3.3 -11.55 4.05 -12.4 5.05 -13.05C6 -13.7 7.1 -14.2 8.3 -14.55C9.15 -14.75 10.5 -15 12.3 -15.25C15.9 -15.65 18.6 -16.2 20.3 -16.8C20.3 -17.4 20.35 -17.75 20.35 -17.95C20.35 -19.75 19.95 -21.05 19.05 -21.8C17.9 -22.8 16.2 -23.35 13.9 -23.35" />
</g>
<g id="ShapeID_2495" transform="matrix(0.392157, 0, 0, 0.392157, 221.25, 40.2)" >
<path 
style="fill:#000000;fill-opacity:1" d="M20.95 -23.7C21.7 -22.7 22.25 -21.35 22.55 -19.65L18.15 -19.05C17.95 -20.35 17.4 -21.4 16.4 -22.2C15.45 -22.95 14.1 -23.35 12.35 -23.35C10.3 -23.35 8.85 -23 7.95 -22.3C7.1 -21.65 6.65 -20.85 6.65 -19.9C6.65 -19.35 6.8 -18.85 7.15 -18.35C7.5 -17.9 8.1 -17.5 8.9 -17.15C9.3 -17 10.65 -16.6 12.85 -16C16 -15.2 18.2 -14.5 19.5 -13.95C20.75 -13.45 21.75 -12.65 22.45 -11.6C23.15 -10.6 23.55 -9.3 23.55 -7.75C23.55 -6.25 23.1 -4.85 22.2 -3.5C21.35 -2.2 20.1 -1.2 18.4 -0.45C16.8 0.25 14.95 0.6 12.85 0.6C9.45 0.6 6.8 -0.1 4.95 -1.5C3.15 -2.9 2.05 -5.05 1.55 -7.9L6 -8.6C6.2 -6.8 6.9 -5.45 8.05 -4.5C9.15 -3.6 10.75 -3.1 12.85 -3.1C14.9 -3.1 16.45 -3.5 17.45 -4.35C18.45 -5.15 18.95 -6.15 18.95 -7.25C18.95 -8.25 18.5 -9.05 17.6 -9.65C17 -10.05 15.45 -10.55 13 -11.2C9.7 -12 7.45 -12.7 6.15 -13.3C4.9 -13.9 3.95 -14.75 3.25 -15.85C2.65 -16.9 2.3 -18.1 2.3 -19.4C2.3 -20.55 2.55 -21.65 3.1 -22.65C3.6 -23.65 4.35 -24.5 5.3 -25.2C6 -25.7 6.95 -26.1 8.15 -26.5C9.35 -26.85 10.65 -27.05 12.05 -27.05C14.1 -27.05 15.9 -26.75 17.5 -26.15C19.05 -25.55 20.2 -24.75 20.95 -23.7" />
</g>
<g id="ShapeID_2496" transform="matrix(0.392157, 0, 0, 0.392157, 231.25, 40.2)" >
 <clipPath  id="PathID4128_ClipPathURL" clip-rule="nonzero">
<path d="M1.7 -13.2C1.7 -15.8 2.1 -18.2 3 -20.35C3.85 -22.5 5.15 -24.15 6.95 -25.3C8.7 -26.45 10.65 -27.05 12.85 -27.05C14.45 -27.05 15.85 -26.7 17.1 -26C18.3 -25.35 19.35 -24.5 20.15 -23.4L20.15 -36.5L24.65 -36.5L24.65 0L20.5 0L20.5 -3.35C18.8 -0.75 16.35 0.6 13.05 0.6C10.95 0.6 9.05 0.05 7.25 -1.1C5.5 -2.25 4.15 -3.85 3.15 -5.95C2.2 -8.05 1.7 -10.45 1.7 -13.2M18.5 -5.5C19.9 -7.1 20.6 -9.5 20.6 -12.8C20.6 -16.4 19.9 -19.1 18.5 -20.8C17.1 -22.5 15.4 -23.35 13.3 -23.35C11.3 -23.35 9.65 -22.55 8.3 -20.9C7 -19.3 6.3 -16.7 6.3 -13.2C6.3 -9.8 7 -7.3 8.45 -5.6C9.85 -3.95 11.55 -3.1 13.5 -3.1C15.45 -3.1 17.1 -3.9 18.5 -5.5"/>
</clipPath>
<path 
style="clip-path:url(#PathID4128_ClipPathURL);fill:#000000;fill-opacity:1" d="M1.7 -13.2C1.7 -15.8 2.1 -18.2 3 -20.35C3.85 -22.5 5.15 -24.15 6.95 -25.3C8.7 -26.45 10.65 -27.05 12.85 -27.05C14.45 -27.05 15.85 -26.7 17.1 -26C18.3 -25.35 19.35 -24.5 20.15 -23.4L20.15 -36.5L24.65 -36.5L24.65 0L20.5 0L20.5 -3.35C18.8 -0.75 16.35 0.6 13.05 0.6C10.95 0.6 9.05 0.05 7.25 -1.1C5.5 -2.25 4.15 -3.85 3.15 -5.95C2.2 -8.05 1.7 -10.45 1.7 -13.2" />
</g>
<g id="ShapeID_2497" transform="matrix(0.392157, 0, 0, 0.392157, 242.35, 40.2)" >
 <clipPath  id="PathID4130_ClipPathURL" clip-rule="nonzero">
<path d="M13.9 -23.35C11.8 -23.35 10.25 -23 9.2 -22.2C8.2 -21.5 7.5 -20.2 7 -18.3L2.6 -18.9C3 -20.75 3.65 -22.25 4.55 -23.4C5.45 -24.55 6.8 -25.45 8.55 -26.1C10.25 -26.7 12.25 -27.05 14.55 -27.05C16.8 -27.05 18.65 -26.8 20.05 -26.25C21.45 -25.75 22.5 -25.05 23.2 -24.2C23.85 -23.4 24.3 -22.4 24.6 -21.15C24.75 -20.45 24.85 -19.05 24.85 -17.05L24.85 -11.05C24.85 -6.9 24.9 -4.25 25.1 -3.15C25.25 -2.05 25.6 -1 26.2 0L21.5 0C21.1 -0.9 20.8 -2 20.7 -3.3C19.05 -1.9 17.45 -0.85 15.85 -0.25C14.35 0.3 12.7 0.6 10.9 0.6C8 0.6 5.8 -0.1 4.2 -1.5C2.65 -2.9 1.85 -4.75 1.85 -6.95C1.85 -8.25 2.1 -9.4 2.7 -10.5C3.3 -11.55 4.05 -12.4 5.05 -13.05C6 -13.7 7.1 -14.2 8.3 -14.55C9.15 -14.75 10.5 -15 12.3 -15.25C15.9 -15.65 18.6 -16.2 20.3 -16.8C20.3 -17.4 20.35 -17.75 20.35 -17.95C20.35 -19.75 19.95 -21.05 19.05 -21.8C17.9 -22.8 16.2 -23.35 13.9 -23.35M6.65 -7.1C6.65 -5.9 7.1 -4.9 8 -4.1C8.9 -3.3 10.2 -2.9 12 -2.9C13.7 -2.9 15.25 -3.25 16.6 -4C17.95 -4.75 18.95 -5.8 19.6 -7.1C20.05 -8.1 20.3 -9.6 20.3 -11.6L20.35 -13.3C18.7 -12.65 16.25 -12.1 12.95 -11.6C11.15 -11.35 9.85 -11.05 9.05 -10.7C8.3 -10.4 7.7 -9.9 7.25 -9.2C6.85 -8.6 6.65 -7.9 6.65 -7.1"/>
</clipPath>
<path 
style="clip-path:url(#PathID4130_ClipPathURL);fill:#000000;fill-opacity:1" d="M13.9 -23.35C11.8 -23.35 10.25 -23 9.2 -22.2C8.2 -21.5 7.5 -20.2 7 -18.3L2.6 -18.9C3 -20.75 3.65 -22.25 4.55 -23.4C5.45 -24.55 6.8 -25.45 8.55 -26.1C10.25 -26.7 12.25 -27.05 14.55 -27.05C16.8 -27.05 18.65 -26.8 20.05 -26.25C21.45 -25.75 22.5 -25.05 23.2 -24.2C23.85 -23.4 24.3 -22.4 24.6 -21.15C24.75 -20.45 24.85 -19.05 24.85 -17.05L24.85 -11.05C24.85 -6.9 24.9 -4.25 25.1 -3.15C25.25 -2.05 25.6 -1 26.2 0L21.5 0C21.1 -0.9 20.8 -2 20.7 -3.3C19.05 -1.9 17.45 -0.85 15.85 -0.25C14.35 0.3 12.7 0.6 10.9 0.6C8 0.6 5.8 -0.1 4.2 -1.5C2.65 -2.9 1.85 -4.75 1.85 -6.95C1.85 -8.25 2.1 -9.4 2.7 -10.5C3.3 -11.55 4.05 -12.4 5.05 -13.05C6 -13.7 7.1 -14.2 8.3 -14.55C9.15 -14.75 10.5 -15 12.3 -15.25C15.9 -15.65 18.6 -16.2 20.3 -16.8C20.3 -17.4 20.35 -17.75 20.35 -17.95C20.35 -19.75 19.95 -21.05 19.05 -21.8C17.9 -22.8 16.2 -23.35 13.9 -23.35" />
</g>
<g id="ShapeID_2498" transform="matrix(0.392157, 0, 0, 0.392157, 253.45, 40.2)" >
<path 
style="fill:#000000;fill-opacity:1" d="M20.95 -23.7C21.7 -22.7 22.25 -21.35 22.55 -19.65L18.15 -19.05C17.95 -20.35 17.4 -21.4 16.4 -22.2C15.45 -22.95 14.1 -23.35 12.35 -23.35C10.3 -23.35 8.85 -23 7.95 -22.3C7.1 -21.65 6.65 -20.85 6.65 -19.9C6.65 -19.35 6.8 -18.85 7.15 -18.35C7.5 -17.9 8.1 -17.5 8.9 -17.15C9.3 -17 10.65 -16.6 12.85 -16C16 -15.2 18.2 -14.5 19.5 -13.95C20.75 -13.45 21.75 -12.65 22.45 -11.6C23.15 -10.6 23.55 -9.3 23.55 -7.75C23.55 -6.25 23.1 -4.85 22.2 -3.5C21.35 -2.2 20.1 -1.2 18.4 -0.45C16.8 0.25 14.95 0.6 12.85 0.6C9.45 0.6 6.8 -0.1 4.95 -1.5C3.15 -2.9 2.05 -5.05 1.55 -7.9L6 -8.6C6.2 -6.8 6.9 -5.45 8.05 -4.5C9.15 -3.6 10.75 -3.1 12.85 -3.1C14.9 -3.1 16.45 -3.5 17.45 -4.35C18.45 -5.15 18.95 -6.15 18.95 -7.25C18.95 -8.25 18.5 -9.05 17.6 -9.65C17 -10.05 15.45 -10.55 13 -11.2C9.7 -12 7.45 -12.7 6.15 -13.3C4.9 -13.9 3.95 -14.75 3.25 -15.85C2.65 -16.9 2.3 -18.1 2.3 -19.4C2.3 -20.55 2.55 -21.65 3.1 -22.65C3.6 -23.65 4.35 -24.5 5.3 -25.2C6 -25.7 6.95 -26.1 8.15 -26.5C9.35 -26.85 10.65 -27.05 12.05 -27.05C14.1 -27.05 15.9 -26.75 17.5 -26.15C19.05 -25.55 20.2 -24.75 20.95 -23.7" />
</g>
<g id="ShapeID_2499" transform="matrix(0.392157, 0, 0, 0.392157, 263.45, 40.2)" >
 <clipPath  id="PathID4133_ClipPathURL" clip-rule="nonzero">
<path d="M1.7 -13.2C1.7 -15.8 2.1 -18.2 3 -20.35C3.85 -22.5 5.15 -24.15 6.95 -25.3C8.7 -26.45 10.65 -27.05 12.85 -27.05C14.45 -27.05 15.85 -26.7 17.1 -26C18.3 -25.35 19.35 -24.5 20.15 -23.4L20.15 -36.5L24.65 -36.5L24.65 0L20.5 0L20.5 -3.35C18.8 -0.75 16.35 0.6 13.05 0.6C10.95 0.6 9.05 0.05 7.25 -1.1C5.5 -2.25 4.15 -3.85 3.15 -5.95C2.2 -8.05 1.7 -10.45 1.7 -13.2M18.5 -5.5C19.9 -7.1 20.6 -9.5 20.6 -12.8C20.6 -16.4 19.9 -19.1 18.5 -20.8C17.1 -22.5 15.4 -23.35 13.3 -23.35C11.3 -23.35 9.65 -22.55 8.3 -20.9C7 -19.3 6.3 -16.7 6.3 -13.2C6.3 -9.8 7 -7.3 8.45 -5.6C9.85 -3.95 11.55 -3.1 13.5 -3.1C15.45 -3.1 17.1 -3.9 18.5 -5.5"/>
</clipPath>
<path 
style="clip-path:url(#PathID4133_ClipPathURL);fill:#000000;fill-opacity:1" d="M1.7 -13.2C1.7 -15.8 2.1 -18.2 3 -20.35C3.85 -22.5 5.15 -24.15 6.95 -25.3C8.7 -26.45 10.65 -27.05 12.85 -27.05C14.45 -27.05 15.85 -26.7 17.1 -26C18.3 -25.35 19.35 -24.5 20.15 -23.4L20.15 -36.5L24.65 -36.5L24.65 0L20.5 0L20.5 -3.35C18.8 -0.75 16.35 0.6 13.05 0.6C10.95 0.6 9.05 0.05 7.25 -1.1C5.5 -2.25 4.15 -3.85 3.15 -5.95C2.2 -8.05 1.7 -10.45 1.7 -13.2" />
</g>
<g id="ShapeID_2500" transform="matrix(0.392157, 0, 0, 0.392157, 274.55, 40.2)" >
 <clipPath  id="PathID4135_ClipPathURL" clip-rule="nonzero">
<path d="M13.9 -23.35C11.8 -23.35 10.25 -23 9.2 -22.2C8.2 -21.5 7.5 -20.2 7 -18.3L2.6 -18.9C3 -20.75 3.65 -22.25 4.55 -23.4C5.45 -24.55 6.8 -25.45 8.55 -26.1C10.25 -26.7 12.25 -27.05 14.55 -27.05C16.8 -27.05 18.65 -26.8 20.05 -26.25C21.45 -25.75 22.5 -25.05 23.2 -24.2C23.85 -23.4 24.3 -22.4 24.6 -21.15C24.75 -20.45 24.85 -19.05 24.85 -17.05L24.85 -11.05C24.85 -6.9 24.9 -4.25 25.1 -3.15C25.25 -2.05 25.6 -1 26.2 0L21.5 0C21.1 -0.9 20.8 -2 20.7 -3.3C19.05 -1.9 17.45 -0.85 15.85 -0.25C14.35 0.3 12.7 0.6 10.9 0.6C8 0.6 5.8 -0.1 4.2 -1.5C2.65 -2.9 1.85 -4.75 1.85 -6.95C1.85 -8.25 2.1 -9.4 2.7 -10.5C3.3 -11.55 4.05 -12.4 5.05 -13.05C6 -13.7 7.1 -14.2 8.3 -14.55C9.15 -14.75 10.5 -15 12.3 -15.25C15.9 -15.65 18.6 -16.2 20.3 -16.8C20.3 -17.4 20.35 -17.75 20.35 -17.95C20.35 -19.75 19.95 -21.05 19.05 -21.8C17.9 -22.8 16.2 -23.35 13.9 -23.35M6.65 -7.1C6.65 -5.9 7.1 -4.9 8 -4.1C8.9 -3.3 10.2 -2.9 12 -2.9C13.7 -2.9 15.25 -3.25 16.6 -4C17.95 -4.75 18.95 -5.8 19.6 -7.1C20.05 -8.1 20.3 -9.6 20.3 -11.6L20.35 -13.3C18.7 -12.65 16.25 -12.1 12.95 -11.6C11.15 -11.35 9.85 -11.05 9.05 -10.7C8.3 -10.4 7.7 -9.9 7.25 -9.2C6.85 -8.6 6.65 -7.9 6.65 -7.1"/>
</clipPath>
<path 
style="clip-path:url(#PathID4135_ClipPathURL);fill:#000000;fill-opacity:1" d="M13.9 -23.35C11.8 -23.35 10.25 -23 9.2 -22.2C8.2 -21.5 7.5 -20.2 7 -18.3L2.6 -18.9C3 -20.75 3.65 -22.25 4.55 -23.4C5.45 -24.55 6.8 -25.45 8.55 -26.1C10.25 -26.7 12.25 -27.05 14.55 -27.05C16.8 -27.05 18.65 -26.8 20.05 -26.25C21.45 -25.75 22.5 -25.05 23.2 -24.2C23.85 -23.4 24.3 -22.4 24.6 -21.15C24.75 -20.45 24.85 -19.05 24.85 -17.05L24.85 -11.05C24.85 -6.9 24.9 -4.25 25.1 -3.15C25.25 -2.05 25.6 -1 26.2 0L21.5 0C21.1 -0.9 20.8 -2 20.7 -3.3C19.05 -1.9 17.45 -0.85 15.85 -0.25C14.35 0.3 12.7 0.6 10.9 0.6C8 0.6 5.8 -0.1 4.2 -1.5C2.65 -2.9 1.85 -4.75 1.85 -6.95C1.85 -8.25 2.1 -9.4 2.7 -10.5C3.3 -11.55 4.05 -12.4 5.05 -13.05C6 -13.7 7.1 -14.2 8.3 -14.55C9.15 -14.75 10.5 -15 12.3 -15.25C15.9 -15.65 18.6 -16.2 20.3 -16.8C20.3 -17.4 20.35 -17.75 20.35 -17.95C20.35 -19.75 19.95 -21.05 19.05 -21.8C17.9 -22.8 16.2 -23.35 13.9 -23.35" />
</g>
<g id="ShapeID_2501" transform="matrix(0.392157, 0, 0, 0.392157, 285.65, 40.2)" >
<path 
style="fill:#000000;fill-opacity:1" d="M20.95 -23.7C21.7 -22.7 22.25 -21.35 22.55 -19.65L18.15 -19.05C17.95 -20.35 17.4 -21.4 16.4 -22.2C15.45 -22.95 14.1 -23.35 12.35 -23.35C10.3 -23.35 8.85 -23 7.95 -22.3C7.1 -21.65 6.65 -20.85 6.65 -19.9C6.65 -19.35 6.8 -18.85 7.15 -18.35C7.5 -17.9 8.1 -17.5 8.9 -17.15C9.3 -17 10.65 -16.6 12.85 -16C16 -15.2 18.2 -14.5 19.5 -13.95C20.75 -13.45 21.75 -12.65 22.45 -11.6C23.15 -10.6 23.55 -9.3 23.55 -7.75C23.55 -6.25 23.1 -4.85 22.2 -3.5C21.35 -2.2 20.1 -1.2 18.4 -0.45C16.8 0.25 14.95 0.6 12.85 0.6C9.45 0.6 6.8 -0.1 4.95 -1.5C3.15 -2.9 2.05 -5.05 1.55 -7.9L6 -8.6C6.2 -6.8 6.9 -5.45 8.05 -4.5C9.15 -3.6 10.75 -3.1 12.85 -3.1C14.9 -3.1 16.45 -3.5 17.45 -4.35C18.45 -5.15 18.95 -6.15 18.95 -7.25C18.95 -8.25 18.5 -9.05 17.6 -9.65C17 -10.05 15.45 -10.55 13 -11.2C9.7 -12 7.45 -12.7 6.15 -13.3C4.9 -13.9 3.95 -14.75 3.25 -15.85C2.65 -16.9 2.3 -18.1 2.3 -19.4C2.3 -20.55 2.55 -21.65 3.1 -22.65C3.6 -23.65 4.35 -24.5 5.3 -25.2C6 -25.7 6.95 -26.1 8.15 -26.5C9.35 -26.85 10.65 -27.05 12.05 -27.05C14.1 -27.05 15.9 -26.75 17.5 -26.15C19.05 -25.55 20.2 -24.75 20.95 -23.7" />
</g>
<g id="ShapeID_2502" transform="matrix(0.392157, 0, 0, 0.392157, 295.65, 40.2)" >
 <clipPath  id="PathID4138_ClipPathURL" clip-rule="nonzero">
<path d="M1.7 -13.2C1.7 -15.8 2.1 -18.2 3 -20.35C3.85 -22.5 5.15 -24.15 6.95 -25.3C8.7 -26.45 10.65 -27.05 12.85 -27.05C14.45 -27.05 15.85 -26.7 17.1 -26C18.3 -25.35 19.35 -24.5 20.15 -23.4L20.15 -36.5L24.65 -36.5L24.65 0L20.5 0L20.5 -3.35C18.8 -0.75 16.35 0.6 13.05 0.6C10.95 0.6 9.05 0.05 7.25 -1.1C5.5 -2.25 4.15 -3.85 3.15 -5.95C2.2 -8.05 1.7 -10.45 1.7 -13.2M18.5 -5.5C19.9 -7.1 20.6 -9.5 20.6 -12.8C20.6 -16.4 19.9 -19.1 18.5 -20.8C17.1 -22.5 15.4 -23.35 13.3 -23.35C11.3 -23.35 9.65 -22.55 8.3 -20.9C7 -19.3 6.3 -16.7 6.3 -13.2C6.3 -9.8 7 -7.3 8.45 -5.6C9.85 -3.95 11.55 -3.1 13.5 -3.1C15.45 -3.1 17.1 -3.9 18.5 -5.5"/>
</clipPath>
<path 
style="clip-path:url(#PathID4138_ClipPathURL);fill:#000000;fill-opacity:1" d="M1.7 -13.2C1.7 -15.8 2.1 -18.2 3 -20.35C3.85 -22.5 5.15 -24.15 6.95 -25.3C8.7 -26.45 10.65 -27.05 12.85 -27.05C14.45 -27.05 15.85 -26.7 17.1 -26C18.3 -25.35 19.35 -24.5 20.15 -23.4L20.15 -36.5L24.65 -36.5L24.65 0L20.5 0L20.5 -3.35C18.8 -0.75 16.35 0.6 13.05 0.6C10.95 0.6 9.05 0.05 7.25 -1.1C5.5 -2.25 4.15 -3.85 3.15 -5.95C2.2 -8.05 1.7 -10.45 1.7 -13.2" />
</g>
<g id="ShapeID_2503" transform="matrix(0.392157, 0, 0, 0.392157, 306.75, 40.2)" >
 <clipPath  id="PathID4140_ClipPathURL" clip-rule="nonzero">
<path d="M13.9 -23.35C11.8 -23.35 10.25 -23 9.2 -22.2C8.2 -21.5 7.5 -20.2 7 -18.3L2.6 -18.9C3 -20.75 3.65 -22.25 4.55 -23.4C5.45 -24.55 6.8 -25.45 8.55 -26.1C10.25 -26.7 12.25 -27.05 14.55 -27.05C16.8 -27.05 18.65 -26.8 20.05 -26.25C21.45 -25.75 22.5 -25.05 23.2 -24.2C23.85 -23.4 24.3 -22.4 24.6 -21.15C24.75 -20.45 24.85 -19.05 24.85 -17.05L24.85 -11.05C24.85 -6.9 24.9 -4.25 25.1 -3.15C25.25 -2.05 25.6 -1 26.2 0L21.5 0C21.1 -0.9 20.8 -2 20.7 -3.3C19.05 -1.9 17.45 -0.85 15.85 -0.25C14.35 0.3 12.7 0.6 10.9 0.6C8 0.6 5.8 -0.1 4.2 -1.5C2.65 -2.9 1.85 -4.75 1.85 -6.95C1.85 -8.25 2.1 -9.4 2.7 -10.5C3.3 -11.55 4.05 -12.4 5.05 -13.05C6 -13.7 7.1 -14.2 8.3 -14.55C9.15 -14.75 10.5 -15 12.3 -15.25C15.9 -15.65 18.6 -16.2 20.3 -16.8C20.3 -17.4 20.35 -17.75 20.35 -17.95C20.35 -19.75 19.95 -21.05 19.05 -21.8C17.9 -22.8 16.2 -23.35 13.9 -23.35M6.65 -7.1C6.65 -5.9 7.1 -4.9 8 -4.1C8.9 -3.3 10.2 -2.9 12 -2.9C13.7 -2.9 15.25 -3.25 16.6 -4C17.95 -4.75 18.95 -5.8 19.6 -7.1C20.05 -8.1 20.3 -9.6 20.3 -11.6L20.35 -13.3C18.7 -12.65 16.25 -12.1 12.95 -11.6C11.15 -11.35 9.85 -11.05 9.05 -10.7C8.3 -10.4 7.7 -9.9 7.25 -9.2C6.85 -8.6 6.65 -7.9 6.65 -7.1"/>
</clipPath>
<path 
style="clip-path:url(#PathID4140_ClipPathURL);fill:#000000;fill-opacity:1" d="M13.9 -23.35C11.8 -23.35 10.25 -23 9.2 -22.2C8.2 -21.5 7.5 -20.2 7 -18.3L2.6 -18.9C3 -20.75 3.65 -22.25 4.55 -23.4C5.45 -24.55 6.8 -25.45 8.55 -26.1C10.25 -26.7 12.25 -27.05 14.55 -27.05C16.8 -27.05 18.65 -26.8 20.05 -26.25C21.45 -25.75 22.5 -25.05 23.2 -24.2C23.85 -23.4 24.3 -22.4 24.6 -21.15C24.75 -20.45 24.85 -19.05 24.85 -17.05L24.85 -11.05C24.85 -6.9 24.9 -4.25 25.1 -3.15C25.25 -2.05 25.6 -1 26.2 0L21.5 0C21.1 -0.9 20.8 -2 20.7 -3.3C19.05 -1.9 17.45 -0.85 15.85 -0.25C14.35 0.3 12.7 0.6 10.9 0.6C8 0.6 5.8 -0.1 4.2 -1.5C2.65 -2.9 1.85 -4.75 1.85 -6.95C1.85 -8.25 2.1 -9.4 2.7 -10.5C3.3 -11.55 4.05 -12.4 5.05 -13.05C6 -13.7 7.1 -14.2 8.3 -14.55C9.15 -14.75 10.5 -15 12.3 -15.25C15.9 -15.65 18.6 -16.2 20.3 -16.8C20.3 -17.4 20.35 -17.75 20.35 -17.95C20.35 -19.75 19.95 -21.05 19.05 -21.8C17.9 -22.8 16.2 -23.35 13.9 -23.35" />
</g>
<g id="ShapeID_2504" transform="matrix(0.392157, 0, 0, 0.392157, 317.85, 40.2)" >
<path 
style="fill:#000000;fill-opacity:1" d="M20.95 -23.7C21.7 -22.7 22.25 -21.35 22.55 -19.65L18.15 -19.05C17.95 -20.35 17.4 -21.4 16.4 -22.2C15.45 -22.95 14.1 -23.35 12.35 -23.35C10.3 -23.35 8.85 -23 7.95 -22.3C7.1 -21.65 6.65 -20.85 6.65 -19.9C6.65 -19.35 6.8 -18.85 7.15 -18.35C7.5 -17.9 8.1 -17.5 8.9 -17.15C9.3 -17 10.65 -16.6 12.85 -16C16 -15.2 18.2 -14.5 19.5 -13.95C20.75 -13.45 21.75 -12.65 22.45 -11.6C23.15 -10.6 23.55 -9.3 23.55 -7.75C23.55 -6.25 23.1 -4.85 22.2 -3.5C21.35 -2.2 20.1 -1.2 18.4 -0.45C16.8 0.25 14.95 0.6 12.85 0.6C9.45 0.6 6.8 -0.1 4.95 -1.5C3.15 -2.9 2.05 -5.05 1.55 -7.9L6 -8.6C6.2 -6.8 6.9 -5.45 8.05 -4.5C9.15 -3.6 10.75 -3.1 12.85 -3.1C14.9 -3.1 16.45 -3.5 17.45 -4.35C18.45 -5.15 18.95 -6.15 18.95 -7.25C18.95 -8.25 18.5 -9.05 17.6 -9.65C17 -10.05 15.45 -10.55 13 -11.2C9.7 -12 7.45 -12.7 6.15 -13.3C4.9 -13.9 3.95 -14.75 3.25 -15.85C2.65 -16.9 2.3 -18.1 2.3 -19.4C2.3 -20.55 2.55 -21.65 3.1 -22.65C3.6 -23.65 4.35 -24.5 5.3 -25.2C6 -25.7 6.95 -26.1 8.15 -26.5C9.35 -26.85 10.65 -27.05 12.05 -27.05C14.1 -27.05 15.9 -26.75 17.5 -26.15C19.05 -25.55 20.2 -24.75 20.95 -23.7" />
</g>
<g id="ShapeID_2505" transform="matrix(0.392157, 0, 0, 0.392157, 6.95, 62.4)" >
<path 
style="fill:#000000;fill-opacity:1" d="M20.95 -23.7C21.7 -22.7 22.25 -21.35 22.55 -19.65L18.15 -19.05C17.95 -20.35 17.4 -21.4 16.4 -22.2C15.45 -22.95 14.1 -23.35 12.35 -23.35C10.3 -23.35 8.85 -23 7.95 -22.3C7.1 -21.65 6.65 -20.85 6.65 -19.9C6.65 -19.35 6.8 -18.85 7.15 -18.35C7.5 -17.9 8.1 -17.5 8.9 -17.15C9.3 -17 10.65 -16.6 12.85 -16C16 -15.2 18.2 -14.5 19.5 -13.95C20.75 -13.45 21.75 -12.65 22.45 -11.6C23.15 -10.6 23.55 -9.3 23.55 -7.75C23.55 -6.25 23.1 -4.85 22.2 -3.5C21.35 -2.2 20.1 -1.2 18.4 -0.45C16.8 0.25 14.95 0.6 12.85 0.6C9.45 0.6 6.8 -0.1 4.95 -1.5C3.15 -2.9 2.05 -5.05 1.55 -7.9L6 -8.6C6.2 -6.8 6.9 -5.45 8.05 -4.5C9.15 -3.6 10.75 -3.1 12.85 -3.1C14.9 -3.1 16.45 -3.5 17.45 -4.35C18.45 -5.15 18.95 -6.15 18.95 -7.25C18.95 -8.25 18.5 -9.05 17.6 -9.65C17 -10.05 15.45 -10.55 13 -11.2C9.7 -12 7.45 -12.7 6.15 -13.3C4.9 -13.9 3.95 -14.75 3.25 -15.85C2.65 -16.9 2.3 -18.1 2.3 -19.4C2.3 -20.55 2.55 -21.65 3.1 -22.65C3.6 -23.65 4.35 -24.5 5.3 -25.2C6 -25.7 6.95 -26.1 8.15 -26.5C9.35 -26.85 10.65 -27.05 12.05 -27.05C14.1 -27.05 15.9 -26.75 17.5 -26.15C19.05 -25.55 20.2 -24.75 20.95 -23.7" />
</g>
<g id="ShapeID_2506" transform="matrix(0.392157, 0, 0, 0.392157, 16.95, 62.4)" >
 <clipPath  id="PathID4144_ClipPathURL" clip-rule="nonzero">
<path d="M1.7 -13.2C1.7 -15.8 2.1 -18.2 3 -20.35C3.85 -22.5 5.15 -24.15 6.95 -25.3C8.7 -26.45 10.65 -27.05 12.85 -27.05C14.45 -27.05 15.85 -26.7 17.1 -26C18.3 -25.35 19.35 -24.5 20.15 -23.4L20.15 -36.5L24.65 -36.5L24.65 0L20.5 0L20.5 -3.35C18.8 -0.75 16.35 0.6 13.05 0.6C10.95 0.6 9.05 0.05 7.25 -1.1C5.5 -2.25 4.15 -3.85 3.15 -5.95C2.2 -8.05 1.7 -10.45 1.7 -13.2M18.5 -5.5C19.9 -7.1 20.6 -9.5 20.6 -12.8C20.6 -16.4 19.9 -19.1 18.5 -20.8C17.1 -22.5 15.4 -23.35 13.3 -23.35C11.3 -23.35 9.65 -22.55 8.3 -20.9C7 -19.3 6.3 -16.7 6.3 -13.2C6.3 -9.8 7 -7.3 8.45 -5.6C9.85 -3.95 11.55 -3.1 13.5 -3.1C15.45 -3.1 17.1 -3.9 18.5 -5.5"/>
</clipPath>
<path 
style="clip-path:url(#PathID4144_ClipPathURL);fill:#000000;fill-opacity:1" d="M1.7 -13.2C1.7 -15.8 2.1 -18.2 3 -20.35C3.85 -22.5 5.15 -24.15 6.95 -25.3C8.7 -26.45 10.65 -27.05 12.85 -27.05C14.45 -27.05 15.85 -26.7 17.1 -26C18.3 -25.35 19.35 -24.5 20.15 -23.4L20.15 -36.5L24.65 -36.5L24.65 0L20.5 0L20.5 -3.35C18.8 -0.75 16.35 0.6 13.05 0.6C10.95 0.6 9.05 0.05 7.25 -1.1C5.5 -2.25 4.15 -3.85 3.15 -5.95C2.2 -8.05 1.7 -10.45 1.7 -13.2" />
</g>
</svg>
