<?xml version="1.0" encoding="utf-8"?>
<svg version="1.1" id="Layer_1"
xmlns="http://www.w3.org/2000/svg"
xmlns:xlink="http://www.w3.org/1999/xlink"
width="550px" height="400px"
xml:space="preserve">
<g id="ShapeID_2557" transform="matrix(0.470588, 0, 0, 0.470588, 8.65, 21.6)" >
 <clipPath  id="PathID4215_ClipPathURL" clip-rule="nonzero">
<path d="M22.85 -20.4C24.95 -18.2 26.05 -15.35 26.05 -11.85C26.05 -9.55 25.55 -7.45 24.55 -5.45C23.55 -3.5 22.2 -2 20.45 -0.95C18.75 0.05 16.75 0.6 14.55 0.6C10.85 0.6 7.8 -0.75 5.4 -3.5C3.1 -6.2 1.9 -10.75 1.9 -17.05C1.9 -24.1 3.2 -29.25 5.8 -32.45C8.1 -35.25 11.15 -36.65 15.05 -36.65C17.9 -36.65 20.25 -35.85 22.1 -34.2C23.95 -32.6 25.05 -30.4 25.45 -27.55L21 -27.2C20.6 -28.9 20 -30.2 19.25 -31C18.05 -32.3 16.55 -32.95 14.75 -32.95C13.35 -32.95 12.05 -32.55 10.95 -31.75C9.55 -30.75 8.45 -29.25 7.6 -27.25C6.8 -25.3 6.4 -22.5 6.35 -18.8C7.4 -20.45 8.7 -21.7 10.3 -22.5C11.85 -23.3 13.5 -23.7 15.2 -23.7C18.2 -23.7 20.75 -22.6 22.85 -20.4M19.4 -5.35C20.75 -6.85 21.45 -8.95 21.45 -11.6C21.45 -14.1 20.8 -16.05 19.4 -17.55C18.1 -19 16.4 -19.75 14.3 -19.75C12.3 -19.75 10.55 -19.05 9.15 -17.55C7.75 -16.1 7.05 -14.2 7.05 -11.85C7.05 -10.3 7.35 -8.8 8 -7.4C8.65 -6 9.55 -4.95 10.75 -4.2C11.9 -3.5 13.15 -3.1 14.5 -3.1C16.4 -3.1 18 -3.85 19.4 -5.35"/>
</clipPath>
<path 
style="clip-path:url(#PathID4215_ClipPathURL);fill:#000000;fill-opacity:1" d="M22.85 -20.4C24.95 -18.2 26.05 -15.35 26.05 -11.85C26.05 -9.55 25.55 -7.45 24.55 -5.45C23.55 -3.5 22.2 -2 20.45 -0.95C18.75 0.05 16.75 0.6 14.55 0.6C10.85 0.6 7.8 -0.75 5.4 -3.5C3.1 -6.2 1.9 -10.75 1.9 -17.05C1.9 -24.1 3.2 -29.25 5.8 -32.45C8.1 -35.25 11.15 -36.65 15.05 -36.65C17.9 -36.65 20.25 -35.85 22.1 -34.2C23.95 -32.6 25.05 -30.4 25.45 -27.55L21 -27.2C20.6 -28.9 20 -30.2 19.25 -31C18.05 -32.3 16.55 -32.95 14.75 -32.95C13.35 -32.95 12.05 -32.55 10.95 -31.75C9.55 -30.75 8.45 -29.25 7.6 -27.25C6.8 -25.3 6.4 -22.5 6.35 -18.8C7.4 -20.45 8.7 -21.7 10.3 -22.5C11.85 -23.3 13.5 -23.7 15.2 -23.7C18.2 -23.7 20.75 -22.6 22.85 -20.4" />
</g>
<g id="ShapeID_2558" transform="matrix(0.470588, 0, 0, 0.470588, 21.95, 21.6)" >
 <clipPath  id="PathID4217_ClipPathURL" clip-rule="nonzero">
<path d="M22.8 -32C23.75 -30.55 24.5 -28.75 25.05 -26.6C25.6 -24.5 25.9 -21.6 25.9 -18C25.9 -13.7 25.45 -10.25 24.55 -7.6C23.7 -5 22.4 -2.95 20.6 -1.5C18.9 -0.1 16.7 0.6 14 0.6C10.5 0.6 7.7 -0.65 5.7 -3.15C3.3 -6.15 2.1 -11.1 2.1 -18C2.1 -22.3 2.5 -25.75 3.4 -28.4C4.3 -31 5.6 -33.05 7.35 -34.5C9.1 -35.9 11.3 -36.65 14 -36.65C15.9 -36.65 17.6 -36.25 19.1 -35.45C20.6 -34.65 21.8 -33.5 22.8 -32M19.15 -6.05C20.55 -8 21.3 -12 21.3 -18C21.3 -24 20.6 -27.95 19.2 -29.95C17.8 -31.95 16.05 -32.95 13.95 -32.95C11.9 -32.95 10.25 -32.1 9 -30.3C7.5 -28.1 6.7 -24 6.7 -18C6.7 -12 7.4 -8.05 8.8 -6.05C10.2 -4.1 11.9 -3.1 14 -3.1C16 -3.1 17.75 -4.05 19.15 -6.05"/>
</clipPath>
<path 
style="clip-path:url(#PathID4217_ClipPathURL);fill:#000000;fill-opacity:1" d="M22.8 -32C23.75 -30.55 24.5 -28.75 25.05 -26.6C25.6 -24.5 25.9 -21.6 25.9 -18C25.9 -13.7 25.45 -10.25 24.55 -7.6C23.7 -5 22.4 -2.95 20.6 -1.5C18.9 -0.1 16.7 0.6 14 0.6C10.5 0.6 7.7 -0.65 5.7 -3.15C3.3 -6.15 2.1 -11.1 2.1 -18C2.1 -22.3 2.5 -25.75 3.4 -28.4C4.3 -31 5.6 -33.05 7.35 -34.5C9.1 -35.9 11.3 -36.65 14 -36.65C15.9 -36.65 17.6 -36.25 19.1 -35.45C20.6 -34.65 21.8 -33.5 22.8 -32" />
</g>
<g id="ShapeID_2559" transform="matrix(0.470588, 0, 0, 0.470588, 35.25, 21.6)" >
 <clipPath  id="PathID4219_ClipPathURL" clip-rule="nonzero">
<path d="M22.8 -32C23.75 -30.55 24.5 -28.75 25.05 -26.6C25.6 -24.5 25.9 -21.6 25.9 -18C25.9 -13.7 25.45 -10.25 24.55 -7.6C23.7 -5 22.4 -2.95 20.6 -1.5C18.9 -0.1 16.7 0.6 14 0.6C10.5 0.6 7.7 -0.65 5.7 -3.15C3.3 -6.15 2.1 -11.1 2.1 -18C2.1 -22.3 2.5 -25.75 3.4 -28.4C4.3 -31 5.6 -33.05 7.35 -34.5C9.1 -35.9 11.3 -36.65 14 -36.65C15.9 -36.65 17.6 -36.25 19.1 -35.45C20.6 -34.65 21.8 -33.5 22.8 -32M19.15 -6.05C20.55 -8 21.3 -12 21.3 -18C21.3 -24 20.6 -27.95 19.2 -29.95C17.8 -31.95 16.05 -32.95 13.95 -32.95C11.9 -32.95 10.25 -32.1 9 -30.3C7.5 -28.1 6.7 -24 6.7 -18C6.7 -12 7.4 -8.05 8.8 -6.05C10.2 -4.1 11.9 -3.1 14 -3.1C16 -3.1 17.75 -4.05 19.15 -6.05"/>
</clipPath>
<path 
style="clip-path:url(#PathID4219_ClipPathURL);fill:#000000;fill-opacity:1" d="M22.8 -32C23.75 -30.55 24.5 -28.75 25.05 -26.6C25.6 -24.5 25.9 -21.6 25.9 -18C25.9 -13.7 25.45 -10.25 24.55 -7.6C23.7 -5 22.4 -2.95 20.6 -1.5C18.9 -0.1 16.7 0.6 14 0.6C10.5 0.6 7.7 -0.65 5.7 -3.15C3.3 -6.15 2.1 -11.1 2.1 -18C2.1 -22.3 2.5 -25.75 3.4 -28.4C4.3 -31 5.6 -33.05 7.35 -34.5C9.1 -35.9 11.3 -36.65 14 -36.65C15.9 -36.65 17.6 -36.25 19.1 -35.45C20.6 -34.65 21.8 -33.5 22.8 -32" />
</g>
<g id="ShapeID_2560" transform="matrix(0.470588, 0, 0, 0.470588, 48.55, 21.6)" >
 <clipPath  id="PathID4221_ClipPathURL" clip-rule="nonzero">
<path d="M22.8 -32C23.75 -30.55 24.5 -28.75 25.05 -26.6C25.6 -24.5 25.9 -21.6 25.9 -18C25.9 -13.7 25.45 -10.25 24.55 -7.6C23.7 -5 22.4 -2.95 20.6 -1.5C18.9 -0.1 16.7 0.6 14 0.6C10.5 0.6 7.7 -0.65 5.7 -3.15C3.3 -6.15 2.1 -11.1 2.1 -18C2.1 -22.3 2.5 -25.75 3.4 -28.4C4.3 -31 5.6 -33.05 7.35 -34.5C9.1 -35.9 11.3 -36.65 14 -36.65C15.9 -36.65 17.6 -36.25 19.1 -35.45C20.6 -34.65 21.8 -33.5 22.8 -32M19.15 -6.05C20.55 -8 21.3 -12 21.3 -18C21.3 -24 20.6 -27.95 19.2 -29.95C17.8 -31.95 16.05 -32.95 13.95 -32.95C11.9 -32.95 10.25 -32.1 9 -30.3C7.5 -28.1 6.7 -24 6.7 -18C6.7 -12 7.4 -8.05 8.8 -6.05C10.2 -4.1 11.9 -3.1 14 -3.1C16 -3.1 17.75 -4.05 19.15 -6.05"/>
</clipPath>
<path 
style="clip-path:url(#PathID4221_ClipPathURL);fill:#000000;fill-opacity:1" d="M22.8 -32C23.75 -30.55 24.5 -28.75 25.05 -26.6C25.6 -24.5 25.9 -21.6 25.9 -18C25.9 -13.7 25.45 -10.25 24.55 -7.6C23.7 -5 22.4 -2.95 20.6 -1.5C18.9 -0.1 16.7 0.6 14 0.6C10.5 0.6 7.7 -0.65 5.7 -3.15C3.3 -6.15 2.1 -11.1 2.1 -18C2.1 -22.3 2.5 -25.75 3.4 -28.4C4.3 -31 5.6 -33.05 7.35 -34.5C9.1 -35.9 11.3 -36.65 14 -36.65C15.9 -36.65 17.6 -36.25 19.1 -35.45C20.6 -34.65 21.8 -33.5 22.8 -32" />
</g>
<g id="ShapeID_2561" transform="matrix(0.470588, 0, 0, 0.470588, 68.5, 21.6)" >
 <clipPath  id="PathID4223_ClipPathURL" clip-rule="nonzero">
<path d="M27.75 -34.4C28.95 -33.6 29.9 -32.4 30.65 -30.9C31.4 -29.4 31.8 -27.75 31.8 -25.9C31.8 -22.8 30.8 -20.2 28.8 -18.05C26.85 -15.95 23.3 -14.85 18.1 -14.85L8.8 -14.85L8.8 0L3.95 0L3.95 -36.5L17.7 -36.5C20.1 -36.5 21.95 -36.4 23.25 -36.15C25.05 -35.85 26.55 -35.3 27.75 -34.4M26.8 -25.75C26.8 -27.25 26.4 -28.6 25.6 -29.7C24.85 -30.8 23.85 -31.5 22.6 -31.85C21.8 -32.05 20.3 -32.2 18.1 -32.2L8.8 -32.2L8.8 -19.15L18.2 -19.15C21.3 -19.15 23.5 -19.7 24.8 -20.85C26.1 -22 26.8 -23.65 26.8 -25.75"/>
</clipPath>
<path 
style="clip-path:url(#PathID4223_ClipPathURL);fill:#000000;fill-opacity:1" d="M27.75 -34.4C28.95 -33.6 29.9 -32.4 30.65 -30.9C31.4 -29.4 31.8 -27.75 31.8 -25.9C31.8 -22.8 30.8 -20.2 28.8 -18.05C26.85 -15.95 23.3 -14.85 18.1 -14.85L8.8 -14.85L8.8 0L3.95 0L3.95 -36.5L17.7 -36.5C20.1 -36.5 21.95 -36.4 23.25 -36.15C25.05 -35.85 26.55 -35.3 27.75 -34.4" />
</g>
<g id="ShapeID_2562" transform="matrix(0.470588, 0, 0, 0.470588, 84.5, 21.6)" >
 <clipPath  id="PathID4225_ClipPathURL" clip-rule="nonzero">
<path d="M37.35 -18.2C37.35 -14.5 36.6 -11.2 35.1 -8.25C33.6 -5.35 31.5 -3.15 28.75 -1.65C26.05 -0.15 23.1 0.6 19.9 0.6C16.45 0.6 13.35 -0.2 10.65 -1.85C7.95 -3.5 5.9 -5.75 4.5 -8.65C3.15 -11.5 2.45 -14.55 2.45 -17.75C2.45 -23.8 4.05 -28.55 7.3 -32C10.55 -35.4 14.75 -37.15 19.9 -37.15C23.25 -37.15 26.3 -36.35 29 -34.7C31.7 -33.1 33.75 -30.85 35.2 -27.95C36.6 -25.1 37.35 -21.85 37.35 -18.2M32.35 -18.25C32.35 -21.2 31.85 -23.8 30.8 -26C29.8 -28.2 28.35 -29.9 26.4 -31.15C24.5 -32.35 22.35 -33 19.95 -33C16.55 -33 13.6 -31.85 11.1 -29.45C8.7 -27.15 7.45 -23.2 7.45 -17.7C7.45 -13.3 8.6 -9.85 10.95 -7.3C13.3 -4.8 16.25 -3.55 19.85 -3.55C23.45 -3.55 26.45 -4.8 28.8 -7.35C31.15 -9.9 32.35 -13.55 32.35 -18.25"/>
</clipPath>
<path 
style="clip-path:url(#PathID4225_ClipPathURL);fill:#000000;fill-opacity:1" d="M37.35 -18.2C37.35 -14.5 36.6 -11.2 35.1 -8.25C33.6 -5.35 31.5 -3.15 28.75 -1.65C26.05 -0.15 23.1 0.6 19.9 0.6C16.45 0.6 13.35 -0.2 10.65 -1.85C7.95 -3.5 5.9 -5.75 4.5 -8.65C3.15 -11.5 2.45 -14.55 2.45 -17.75C2.45 -23.8 4.05 -28.55 7.3 -32C10.55 -35.4 14.75 -37.15 19.9 -37.15C23.25 -37.15 26.3 -36.35 29 -34.7C31.7 -33.1 33.75 -30.85 35.2 -27.95C36.6 -25.1 37.35 -21.85 37.35 -18.2" />
</g>
<g id="ShapeID_2563" transform="matrix(0.470588, 0, 0, 0.470588, 103.15, 21.6)" >
 <clipPath  id="PathID4227_ClipPathURL" clip-rule="nonzero">
<path d="M34.1 0L28.6 0L24.35 -11.05L9 -11.05L5.05 0L-0.1 0L13.85 -36.5L19.15 -36.5L34.1 0M19 -25.1C17.9 -28.15 17 -30.7 16.4 -32.7C15.9 -30.35 15.25 -28 14.4 -25.7L10.4 -15L22.85 -15L19 -25.1"/>
</clipPath>
<path 
style="clip-path:url(#PathID4227_ClipPathURL);fill:#000000;fill-opacity:1" d="M34.1 0L28.6 0L24.35 -11.05L9 -11.05L5.05 0L-0.1 0L13.85 -36.5L19.15 -36.5L34.1 0" />
<path 
style="fill:#000000;fill-opacity:1" d="M9.6 -43.85L14.3 -43.85L14.3 -38.75L9.6 -38.75L9.6 -43.85" />
<path 
style="fill:#000000;fill-opacity:1" d="M18.9 -43.85L23.6 -43.85L23.6 -38.75L18.9 -38.75L18.9 -43.85" />
</g>
<g id="ShapeID_2564" transform="matrix(0.470588, 0, 0, 0.470588, 119.15, 21.6)" >
<path 
style="fill:#000000;fill-opacity:1" d="M28 -36.5L32.65 -36.5L32.65 0L27.65 0L8.55 -28.6L8.55 0L3.9 0L3.9 -36.5L8.85 -36.5L28 -7.85L28 -36.5" />
</g>
<g id="ShapeID_2565" transform="matrix(0.470588, 0, 0, 0.470588, 136.45, 21.6)" >
<path 
style="fill:#000000;fill-opacity:1" d="M35.9 -26.25L31.5 -25.05C31 -26.9 30.3 -28.35 29.45 -29.45C28.65 -30.5 27.5 -31.35 26 -32C24.5 -32.65 22.85 -33 20.95 -33C18.75 -33 16.85 -32.65 15.25 -31.95C13.65 -31.3 12.35 -30.4 11.35 -29.3C10.4 -28.2 9.65 -27 9.05 -25.7C8.15 -23.45 7.7 -21 7.7 -18.35C7.7 -15.1 8.25 -12.35 9.35 -10.15C10.45 -7.95 12.1 -6.35 14.25 -5.25C16.35 -4.25 18.65 -3.7 21.05 -3.7C23.1 -3.7 25.15 -4.1 27.15 -4.9C29.15 -5.7 30.65 -6.55 31.7 -7.45L31.7 -14.3L21 -14.3L21 -18.6L36.45 -18.6L36.45 -5.05C34.05 -3.2 31.6 -1.8 29.05 -0.8C26.55 0.1 24 0.6 21.3 0.6C17.75 0.6 14.5 -0.15 11.55 -1.7C8.65 -3.2 6.4 -5.45 4.9 -8.35C3.45 -11.25 2.7 -14.5 2.7 -18.1C2.7 -21.6 3.4 -24.9 4.9 -28C6.4 -31.1 8.5 -33.4 11.3 -34.9C14.1 -36.4 17.3 -37.15 20.95 -37.15C23.55 -37.15 25.95 -36.75 28.1 -35.85C30.2 -35 31.9 -33.8 33.1 -32.25C34.3 -30.75 35.25 -28.75 35.9 -26.25" />
</g>
</svg>
