<?xml version="1.0" encoding="utf-8"?>
<svg version="1.1" id="Layer_1"
xmlns="http://www.w3.org/2000/svg"
xmlns:xlink="http://www.w3.org/1999/xlink"
width="550px" height="400px"
xml:space="preserve">
<g id="ShapeID_2212" transform="matrix(0.764706, 0, 0, 0.764706, 0, 35)" >
 <clipPath  id="PathID3741_ClipPathURL" clip-rule="nonzero">
<path d="M26.05 -23.4C28.2 -21 29.3 -17.65 29.3 -13.35C29.3 -8.95 28.25 -5.5 26.05 -3.05C23.9 -0.65 21.25 0.6 18.15 0.6C16.7 0.6 15.35 0.35 14.15 -0.25C13 -0.8 11.75 -1.8 10.45 -3.25L10.45 10.05L3.45 10.05L3.45 -26.45L9.95 -26.45L9.95 -22.55C10.75 -23.85 11.9 -24.95 13.35 -25.8C14.8 -26.6 16.4 -27.05 18.2 -27.05C21.3 -27.05 23.9 -25.85 26.05 -23.4M20.5 -6.9C21.6 -8.2 22.15 -10.3 22.15 -13.3C22.15 -16.05 21.6 -18.1 20.45 -19.45C19.35 -20.8 18 -21.5 16.3 -21.5C14.6 -21.5 13.2 -20.85 12.05 -19.5C10.95 -18.2 10.35 -16.25 10.35 -13.65C10.35 -10.7 10.9 -8.5 12.1 -7.05C13.3 -5.65 14.75 -4.95 16.45 -4.95C18.05 -4.95 19.4 -5.6 20.5 -6.9"/>
</clipPath>
<path 
style="clip-path:url(#PathID3741_ClipPathURL);fill:#FFFFFF;fill-opacity:1" d="M26.05 -23.4C28.2 -21 29.3 -17.65 29.3 -13.35C29.3 -8.95 28.25 -5.5 26.05 -3.05C23.9 -0.65 21.25 0.6 18.15 0.6C16.7 0.6 15.35 0.35 14.15 -0.25C13 -0.8 11.75 -1.8 10.45 -3.25L10.45 10.05L3.45 10.05L3.45 -26.45L9.95 -26.45L9.95 -22.55C10.75 -23.85 11.9 -24.95 13.35 -25.8C14.8 -26.6 16.4 -27.05 18.2 -27.05C21.3 -27.05 23.9 -25.85 26.05 -23.4" />
</g>
<g id="ShapeID_2213" transform="matrix(0.764706, 0, 0, 0.764706, 23.8, 35)" >
 <clipPath  id="PathID3743_ClipPathURL" clip-rule="nonzero">
<path d="M25.45 -23.15C28 -20.55 29.3 -17.3 29.3 -13.3C29.3 -9.3 28 -5.95 25.4 -3.3C22.85 -0.7 19.6 0.6 15.7 0.6C13.3 0.6 10.95 0.1 8.75 -1C6.55 -2.1 4.9 -3.7 3.75 -5.8C2.65 -7.9 2.05 -10.5 2.05 -13.55C2.05 -15.85 2.6 -18.1 3.75 -20.3C4.85 -22.5 6.5 -24.15 8.6 -25.3C10.7 -26.45 13.05 -27.05 15.65 -27.05C19.6 -27.05 22.85 -25.75 25.45 -23.15M20.2 -7.15C21.45 -8.55 22.1 -10.55 22.1 -13.25C22.1 -15.85 21.5 -17.85 20.2 -19.25C19 -20.65 17.45 -21.35 15.65 -21.35C13.85 -21.35 12.3 -20.65 11.05 -19.25C9.85 -17.85 9.2 -15.85 9.2 -13.2C9.2 -10.6 9.8 -8.55 11.05 -7.15C12.25 -5.8 13.8 -5.1 15.65 -5.1C17.45 -5.1 18.95 -5.75 20.2 -7.15"/>
</clipPath>
<path 
style="clip-path:url(#PathID3743_ClipPathURL);fill:#FFFFFF;fill-opacity:1" d="M25.45 -23.15C28 -20.55 29.3 -17.3 29.3 -13.3C29.3 -9.3 28 -5.95 25.4 -3.3C22.85 -0.7 19.6 0.6 15.7 0.6C13.3 0.6 10.95 0.1 8.75 -1C6.55 -2.1 4.9 -3.7 3.75 -5.8C2.65 -7.9 2.05 -10.5 2.05 -13.55C2.05 -15.85 2.6 -18.1 3.75 -20.3C4.85 -22.5 6.5 -24.15 8.6 -25.3C10.7 -26.45 13.05 -27.05 15.65 -27.05C19.6 -27.05 22.85 -25.75 25.45 -23.15" />
</g>
<g id="ShapeID_2214" transform="matrix(0.764706, 0, 0, 0.764706, 47.6, 35)" >
<path 
style="fill:#FFFFFF;fill-opacity:1" d="M3.6 -36.5L10.6 -36.5L10.6 -30L3.6 -30L3.6 -36.5" />
<path 
style="fill:#FFFFFF;fill-opacity:1" d="M3.6 -26.45L10.6 -26.45L10.6 0L3.6 0L3.6 -26.45" />
</g>
<g id="ShapeID_2215" transform="matrix(0.764706, 0, 0, 0.764706, 58.45, 35)" >
<path 
style="fill:#FFFFFF;fill-opacity:1" d="M10.6 -11.95L10.6 0L3.6 0L3.6 -26.45L10.1 -26.45L10.1 -22.55C12.4 -25.55 15.25 -27.05 18.75 -27.05C20.25 -27.05 21.65 -26.8 22.95 -26.2C24.25 -25.65 25.2 -24.95 25.85 -24.05C26.5 -23.2 26.95 -22.2 27.25 -21.1C27.5 -20.05 27.65 -18.5 27.65 -16.4L27.65 0L20.65 0L20.65 -13.5C20.65 -16.3 20.5 -18.15 20.2 -19C19.9 -19.85 19.45 -20.5 18.75 -21C18.1 -21.45 17.3 -21.7 16.3 -21.7C15.1 -21.7 14.05 -21.4 13.05 -20.7C12.15 -20.05 11.5 -19.15 11.1 -18.05C10.8 -16.95 10.6 -14.95 10.6 -11.95" />
</g>
<g id="ShapeID_2216" transform="matrix(0.764706, 0, 0, 0.764706, 82.25, 35)" >
<path 
style="fill:#FFFFFF;fill-opacity:1" d="M10.75 0.6C9.5 0.6 8.35 0.4 7.35 0C6.35 -0.4 5.6 -0.95 5.1 -1.65C4.65 -2.3 4.35 -3.2 4.15 -4.4C4.05 -5.2 3.95 -6.8 3.95 -9.3L3.95 -20.85L0.75 -20.85L0.75 -26.45L3.95 -26.45L3.95 -31.7L10.95 -35.8L10.95 -26.45L15.75 -26.45L15.75 -20.85L10.95 -20.85L10.95 -10.2C10.95 -8.05 10.95 -6.8 11.05 -6.4C11.15 -6.05 11.35 -5.75 11.7 -5.5C12 -5.3 12.4 -5.2 12.9 -5.2C13.5 -5.2 14.45 -5.4 15.7 -5.85L16.3 -0.4C14.7 0.25 12.85 0.6 10.75 0.6" />
</g>
<g id="ShapeID_2217" transform="matrix(0.764706, 0, 0, 0.764706, 95.25, 35)" >
<path 
style="fill:#FFFFFF;fill-opacity:1" d="M26.7 -34.1C29 -32.1 30.25 -29.4 30.4 -26L23.05 -25.75C22.75 -27.6 22.05 -28.95 21 -29.8C20 -30.6 18.45 -31.05 16.35 -31.05C14.25 -31.05 12.55 -30.6 11.35 -29.7C10.6 -29.15 10.2 -28.4 10.2 -27.45C10.2 -26.6 10.55 -25.85 11.25 -25.2C12.15 -24.45 14.4 -23.65 18 -22.75C21.6 -21.95 24.25 -21.05 25.95 -20.1C27.65 -19.2 28.95 -18 29.95 -16.4C30.95 -14.85 31.45 -12.9 31.45 -10.6C31.45 -8.5 30.9 -6.55 29.7 -4.7C28.55 -2.9 26.9 -1.5 24.75 -0.6C22.65 0.25 20 0.7 16.8 0.7C12.2 0.7 8.7 -0.35 6.2 -2.5C3.75 -4.6 2.3 -7.75 1.8 -11.85L8.95 -12.55C9.35 -10.15 10.2 -8.35 11.55 -7.2C12.85 -6.1 14.65 -5.55 16.9 -5.55C19.25 -5.55 21.05 -6.05 22.25 -7.05C23.45 -8.05 24.1 -9.2 24.1 -10.55C24.1 -11.4 23.85 -12.15 23.3 -12.75C22.8 -13.35 21.95 -13.85 20.65 -14.35C19.85 -14.65 17.9 -15.15 14.8 -15.95C10.85 -16.9 8.1 -18.1 6.5 -19.55C4.3 -21.55 3.15 -24 3.15 -26.9C3.15 -28.75 3.65 -30.5 4.7 -32.15C5.75 -33.75 7.25 -35 9.25 -35.85C11.2 -36.7 13.6 -37.15 16.4 -37.15C20.95 -37.15 24.4 -36.15 26.7 -34.1" />
</g>
<g id="ShapeID_2218" transform="matrix(0.764706, 0, 0, 0.764706, 121.25, 35)" >
 <clipPath  id="PathID3750_ClipPathURL" clip-rule="nonzero">
<path d="M25.45 -23.15C28 -20.55 29.3 -17.3 29.3 -13.3C29.3 -9.3 28 -5.95 25.4 -3.3C22.85 -0.7 19.6 0.6 15.7 0.6C13.3 0.6 10.95 0.1 8.75 -1C6.55 -2.1 4.9 -3.7 3.75 -5.8C2.65 -7.9 2.05 -10.5 2.05 -13.55C2.05 -15.85 2.6 -18.1 3.75 -20.3C4.85 -22.5 6.5 -24.15 8.6 -25.3C10.7 -26.45 13.05 -27.05 15.65 -27.05C19.6 -27.05 22.85 -25.75 25.45 -23.15M20.2 -7.15C21.45 -8.55 22.1 -10.55 22.1 -13.25C22.1 -15.85 21.5 -17.85 20.2 -19.25C19 -20.65 17.45 -21.35 15.65 -21.35C13.85 -21.35 12.3 -20.65 11.05 -19.25C9.85 -17.85 9.2 -15.85 9.2 -13.2C9.2 -10.6 9.8 -8.55 11.05 -7.15C12.25 -5.8 13.8 -5.1 15.65 -5.1C17.45 -5.1 18.95 -5.75 20.2 -7.15"/>
</clipPath>
<path 
style="clip-path:url(#PathID3750_ClipPathURL);fill:#FFFFFF;fill-opacity:1" d="M25.45 -23.15C28 -20.55 29.3 -17.3 29.3 -13.3C29.3 -9.3 28 -5.95 25.4 -3.3C22.85 -0.7 19.6 0.6 15.7 0.6C13.3 0.6 10.95 0.1 8.75 -1C6.55 -2.1 4.9 -3.7 3.75 -5.8C2.65 -7.9 2.05 -10.5 2.05 -13.55C2.05 -15.85 2.6 -18.1 3.75 -20.3C4.85 -22.5 6.5 -24.15 8.6 -25.3C10.7 -26.45 13.05 -27.05 15.65 -27.05C19.6 -27.05 22.85 -25.75 25.45 -23.15" />
</g>
<g id="ShapeID_2219" transform="matrix(0.764706, 0, 0, 0.764706, 145.05, 35)" >
<path 
style="fill:#FFFFFF;fill-opacity:1" d="M10.5 -14.3C10.5 -10.6 10.6 -8.3 10.85 -7.45C11.1 -6.65 11.55 -5.95 12.25 -5.45C12.95 -5 13.8 -4.75 14.85 -4.75C16.05 -4.75 17.1 -5.05 18.05 -5.7C19 -6.35 19.65 -7.15 20 -8.15C20.35 -9.1 20.55 -11.5 20.55 -15.3L20.55 -26.45L27.55 -26.45L27.55 0L21.05 0L21.05 -3.95C20.1 -2.55 18.85 -1.4 17.25 -0.6C15.7 0.2 14.05 0.6 12.25 0.6C10.5 0.6 8.9 0.25 7.45 -0.55C6.05 -1.3 5.05 -2.4 4.4 -3.8C3.8 -5.2 3.5 -7.2 3.5 -9.7L3.5 -26.45L10.5 -26.45L10.5 -14.3" />
</g>
<g id="ShapeID_2220" transform="matrix(0.764706, 0, 0, 0.764706, 168.85, 35)" >
<path 
style="fill:#FFFFFF;fill-opacity:1" d="M10.6 -11.95L10.6 0L3.6 0L3.6 -26.45L10.1 -26.45L10.1 -22.55C12.4 -25.55 15.25 -27.05 18.75 -27.05C20.25 -27.05 21.65 -26.8 22.95 -26.2C24.25 -25.65 25.2 -24.95 25.85 -24.05C26.5 -23.2 26.95 -22.2 27.25 -21.1C27.5 -20.05 27.65 -18.5 27.65 -16.4L27.65 0L20.65 0L20.65 -13.5C20.65 -16.3 20.5 -18.15 20.2 -19C19.9 -19.85 19.45 -20.5 18.75 -21C18.1 -21.45 17.3 -21.7 16.3 -21.7C15.1 -21.7 14.05 -21.4 13.05 -20.7C12.15 -20.05 11.5 -19.15 11.1 -18.05C10.8 -16.95 10.6 -14.95 10.6 -11.95" />
</g>
<g id="ShapeID_2221" transform="matrix(0.764706, 0, 0, 0.764706, 192.65, 35)" >
 <clipPath  id="PathID3754_ClipPathURL" clip-rule="nonzero">
<path d="M5.3 -3.05C3.2 -5.45 2.1 -8.9 2.1 -13.3C2.1 -17.8 3.15 -21.2 5.25 -23.55C7.35 -25.85 10 -27.05 13.2 -27.05C16.15 -27.05 18.7 -25.85 20.9 -23.35L20.9 -36.5L27.9 -36.5L27.9 0L21.4 0L21.4 -3.85C20.3 -2.35 19.05 -1.25 17.55 -0.5C16.1 0.2 14.6 0.6 13.1 0.6C10.1 0.6 7.5 -0.6 5.3 -3.05M19.25 -7C20.35 -8.35 20.95 -10.4 20.95 -13.1C20.95 -16.1 20.4 -18.3 19.3 -19.65C18.2 -21 16.8 -21.7 15.1 -21.7C13.45 -21.7 12.05 -21.05 10.9 -19.7C9.8 -18.4 9.25 -16.4 9.25 -13.8C9.25 -11 9.6 -8.95 10.4 -7.65C11.5 -5.85 13.1 -4.95 15.15 -4.95C16.75 -4.95 18.1 -5.6 19.25 -7"/>
</clipPath>
<path 
style="clip-path:url(#PathID3754_ClipPathURL);fill:#FFFFFF;fill-opacity:1" d="M5.3 -3.05C3.2 -5.45 2.1 -8.9 2.1 -13.3C2.1 -17.8 3.15 -21.2 5.25 -23.55C7.35 -25.85 10 -27.05 13.2 -27.05C16.15 -27.05 18.7 -25.85 20.9 -23.35L20.9 -36.5L27.9 -36.5L27.9 0L21.4 0L21.4 -3.85C20.3 -2.35 19.05 -1.25 17.55 -0.5C16.1 0.2 14.6 0.6 13.1 0.6C10.1 0.6 7.5 -0.6 5.3 -3.05" />
</g>
<g id="ShapeID_2222" transform="matrix(0.764706, 0, 0, 0.764706, 216.45, 35)" >
<path 
style="fill:#FFFFFF;fill-opacity:1" d="M38.85 -36.5L38.85 0L32.05 0L32 -28.7L24.75 0L17.65 0L10.45 -28.7L10.45 0L3.65 0L3.65 -36.5L14.7 -36.5L21.25 -11.6L27.75 -36.5L38.85 -36.5" />
</g>
<g id="ShapeID_2223" transform="matrix(0.764706, 0, 0, 0.764706, 248.95, 35)" >
<path 
style="fill:#FFFFFF;fill-opacity:1" d="M18.35 -6.2C19.2 -6.95 19.8 -8.25 20.2 -10.15L27.05 -9C26.35 -5.85 24.95 -3.45 22.9 -1.8C20.9 -0.2 18.2 0.6 14.75 0.6C10.9 0.6 7.8 -0.6 5.5 -3.05C3.25 -5.45 2.1 -8.85 2.1 -13.2C2.1 -17.55 3.25 -20.95 5.55 -23.4C7.85 -25.8 10.95 -27.05 14.9 -27.05C18.1 -27.05 20.7 -26.35 22.6 -24.95C24.5 -23.6 25.85 -21.5 26.7 -18.7L19.8 -17.45C19.6 -18.75 19.05 -19.8 18.2 -20.5C17.4 -21.2 16.3 -21.55 15 -21.55C13.25 -21.55 11.85 -20.95 10.8 -19.7C9.8 -18.5 9.25 -16.5 9.25 -13.65C9.25 -10.55 9.75 -8.3 10.8 -7C11.85 -5.75 13.3 -5.1 15.1 -5.1C16.4 -5.1 17.5 -5.45 18.35 -6.2" />
</g>
</svg>
