<?xml version="1.0" encoding="utf-8"?>
<svg version="1.1" id="Layer_1"
xmlns="http://www.w3.org/2000/svg"
xmlns:xlink="http://www.w3.org/1999/xlink"
width="550px" height="400px"
xml:space="preserve">
<g id="ShapeID_2129" transform="matrix(0.784314, 0, 0, 0.784314, 0, 36.05)" >
<path 
style="fill:#FFFFFF;fill-opacity:1" d="M7.1 -16.7L2.9 -17.3L6.45 -36.05L24.6 -36.05L24.6 -31.75L10 -31.75L8 -21.95C10.2 -23.45 12.5 -24.25 14.9 -24.25C18.1 -24.25 20.8 -23.15 23 -20.9C25.2 -18.7 26.3 -15.9 26.3 -12.4C26.3 -9.1 25.35 -6.25 23.4 -3.8C21.1 -0.9 17.9 0.6 13.8 0.6C10.5 0.6 7.75 -0.3 5.65 -2.15C3.55 -4 2.4 -6.5 2.1 -9.6L6.8 -9.95C7.1 -7.65 7.9 -5.95 9.2 -4.8C10.45 -3.7 12 -3.1 13.8 -3.1C16 -3.1 17.8 -3.9 19.3 -5.5C20.8 -7.1 21.55 -9.3 21.55 -12C21.55 -14.55 20.85 -16.55 19.4 -18.05C18 -19.55 16.1 -20.3 13.75 -20.3C12.3 -20.3 11 -19.95 9.8 -19.25C8.65 -18.6 7.75 -17.75 7.1 -16.7" />
</g>
<g id="ShapeID_2130" transform="matrix(0.784314, 0, 0, 0.784314, 22.2, 36.05)" >
 <clipPath  id="PathID3637_ClipPathURL" clip-rule="nonzero">
<path d="M22.8 -32C23.75 -30.55 24.5 -28.75 25.05 -26.6C25.6 -24.5 25.9 -21.6 25.9 -18C25.9 -13.7 25.45 -10.25 24.55 -7.6C23.7 -5 22.4 -2.95 20.6 -1.5C18.9 -0.1 16.7 0.6 14 0.6C10.5 0.6 7.7 -0.65 5.7 -3.15C3.3 -6.15 2.1 -11.1 2.1 -18C2.1 -22.3 2.5 -25.75 3.4 -28.4C4.3 -31 5.6 -33.05 7.35 -34.5C9.1 -35.9 11.3 -36.65 14 -36.65C15.9 -36.65 17.6 -36.25 19.1 -35.45C20.6 -34.65 21.8 -33.5 22.8 -32M19.15 -6.05C20.55 -8 21.3 -12 21.3 -18C21.3 -24 20.6 -27.95 19.2 -29.95C17.8 -31.95 16.05 -32.95 13.95 -32.95C11.9 -32.95 10.25 -32.1 9 -30.3C7.5 -28.1 6.7 -24 6.7 -18C6.7 -12 7.4 -8.05 8.8 -6.05C10.2 -4.1 11.9 -3.1 14 -3.1C16 -3.1 17.75 -4.05 19.15 -6.05"/>
</clipPath>
<path 
style="clip-path:url(#PathID3637_ClipPathURL);fill:#FFFFFF;fill-opacity:1" d="M22.8 -32C23.75 -30.55 24.5 -28.75 25.05 -26.6C25.6 -24.5 25.9 -21.6 25.9 -18C25.9 -13.7 25.45 -10.25 24.55 -7.6C23.7 -5 22.4 -2.95 20.6 -1.5C18.9 -0.1 16.7 0.6 14 0.6C10.5 0.6 7.7 -0.65 5.7 -3.15C3.3 -6.15 2.1 -11.1 2.1 -18C2.1 -22.3 2.5 -25.75 3.4 -28.4C4.3 -31 5.6 -33.05 7.35 -34.5C9.1 -35.9 11.3 -36.65 14 -36.65C15.9 -36.65 17.6 -36.25 19.1 -35.45C20.6 -34.65 21.8 -33.5 22.8 -32" />
</g>
</svg>
