<?xml version="1.0" encoding="utf-8"?>
<svg version="1.1" id="Layer_1"
xmlns="http://www.w3.org/2000/svg"
xmlns:xlink="http://www.w3.org/1999/xlink"
width="550px" height="400px"
xml:space="preserve">
<g id="ShapeID_2387" transform="matrix(0.764706, 0, 0, 0.764706, 0, 35)" >
<path 
style="fill:#FFFFFF;fill-opacity:1" d="M3.6 -36.5L10.6 -36.5L10.6 0L3.6 0L3.6 -36.5" />
</g>
<g id="ShapeID_2388" transform="matrix(0.764706, 0, 0, 0.764706, 10.85, 35)" >
 <clipPath  id="PathID3965_ClipPathURL" clip-rule="nonzero">
<path d="M25.45 -23.15C28 -20.55 29.3 -17.3 29.3 -13.3C29.3 -9.3 28 -5.95 25.4 -3.3C22.85 -0.7 19.6 0.6 15.7 0.6C13.3 0.6 10.95 0.1 8.75 -1C6.55 -2.1 4.9 -3.7 3.75 -5.8C2.65 -7.9 2.05 -10.5 2.05 -13.55C2.05 -15.85 2.6 -18.1 3.75 -20.3C4.85 -22.5 6.5 -24.15 8.6 -25.3C10.7 -26.45 13.05 -27.05 15.65 -27.05C19.6 -27.05 22.85 -25.75 25.45 -23.15M20.2 -7.15C21.45 -8.55 22.1 -10.55 22.1 -13.25C22.1 -15.85 21.5 -17.85 20.2 -19.25C19 -20.65 17.45 -21.35 15.65 -21.35C13.85 -21.35 12.3 -20.65 11.05 -19.25C9.85 -17.85 9.2 -15.85 9.2 -13.2C9.2 -10.6 9.8 -8.55 11.05 -7.15C12.25 -5.8 13.8 -5.1 15.65 -5.1C17.45 -5.1 18.95 -5.75 20.2 -7.15"/>
</clipPath>
<path 
style="clip-path:url(#PathID3965_ClipPathURL);fill:#FFFFFF;fill-opacity:1" d="M25.45 -23.15C28 -20.55 29.3 -17.3 29.3 -13.3C29.3 -9.3 28 -5.95 25.4 -3.3C22.85 -0.7 19.6 0.6 15.7 0.6C13.3 0.6 10.95 0.1 8.75 -1C6.55 -2.1 4.9 -3.7 3.75 -5.8C2.65 -7.9 2.05 -10.5 2.05 -13.55C2.05 -15.85 2.6 -18.1 3.75 -20.3C4.85 -22.5 6.5 -24.15 8.6 -25.3C10.7 -26.45 13.05 -27.05 15.65 -27.05C19.6 -27.05 22.85 -25.75 25.45 -23.15" />
</g>
<g id="ShapeID_2389" transform="matrix(0.764706, 0, 0, 0.764706, 34.65, 35)" >
 <clipPath  id="PathID3967_ClipPathURL" clip-rule="nonzero">
<path d="M25.45 -23.15C28 -20.55 29.3 -17.3 29.3 -13.3C29.3 -9.3 28 -5.95 25.4 -3.3C22.85 -0.7 19.6 0.6 15.7 0.6C13.3 0.6 10.95 0.1 8.75 -1C6.55 -2.1 4.9 -3.7 3.75 -5.8C2.65 -7.9 2.05 -10.5 2.05 -13.55C2.05 -15.85 2.6 -18.1 3.75 -20.3C4.85 -22.5 6.5 -24.15 8.6 -25.3C10.7 -26.45 13.05 -27.05 15.65 -27.05C19.6 -27.05 22.85 -25.75 25.45 -23.15M20.2 -7.15C21.45 -8.55 22.1 -10.55 22.1 -13.25C22.1 -15.85 21.5 -17.85 20.2 -19.25C19 -20.65 17.45 -21.35 15.65 -21.35C13.85 -21.35 12.3 -20.65 11.05 -19.25C9.85 -17.85 9.2 -15.85 9.2 -13.2C9.2 -10.6 9.8 -8.55 11.05 -7.15C12.25 -5.8 13.8 -5.1 15.65 -5.1C17.45 -5.1 18.95 -5.75 20.2 -7.15"/>
</clipPath>
<path 
style="clip-path:url(#PathID3967_ClipPathURL);fill:#FFFFFF;fill-opacity:1" d="M25.45 -23.15C28 -20.55 29.3 -17.3 29.3 -13.3C29.3 -9.3 28 -5.95 25.4 -3.3C22.85 -0.7 19.6 0.6 15.7 0.6C13.3 0.6 10.95 0.1 8.75 -1C6.55 -2.1 4.9 -3.7 3.75 -5.8C2.65 -7.9 2.05 -10.5 2.05 -13.55C2.05 -15.85 2.6 -18.1 3.75 -20.3C4.85 -22.5 6.5 -24.15 8.6 -25.3C10.7 -26.45 13.05 -27.05 15.65 -27.05C19.6 -27.05 22.85 -25.75 25.45 -23.15" />
</g>
<g id="ShapeID_2390" transform="matrix(0.764706, 0, 0, 0.764706, 58.45, 35)" >
 <clipPath  id="PathID3969_ClipPathURL" clip-rule="nonzero">
<path d="M26.05 -23.4C28.2 -21 29.3 -17.65 29.3 -13.35C29.3 -8.95 28.25 -5.5 26.05 -3.05C23.9 -0.65 21.25 0.6 18.15 0.6C16.7 0.6 15.35 0.35 14.15 -0.25C13 -0.8 11.75 -1.8 10.45 -3.25L10.45 10.05L3.45 10.05L3.45 -26.45L9.95 -26.45L9.95 -22.55C10.75 -23.85 11.9 -24.95 13.35 -25.8C14.8 -26.6 16.4 -27.05 18.2 -27.05C21.3 -27.05 23.9 -25.85 26.05 -23.4M20.5 -6.9C21.6 -8.2 22.15 -10.3 22.15 -13.3C22.15 -16.05 21.6 -18.1 20.45 -19.45C19.35 -20.8 18 -21.5 16.3 -21.5C14.6 -21.5 13.2 -20.85 12.05 -19.5C10.95 -18.2 10.35 -16.25 10.35 -13.65C10.35 -10.7 10.9 -8.5 12.1 -7.05C13.3 -5.65 14.75 -4.95 16.45 -4.95C18.05 -4.95 19.4 -5.6 20.5 -6.9"/>
</clipPath>
<path 
style="clip-path:url(#PathID3969_ClipPathURL);fill:#FFFFFF;fill-opacity:1" d="M26.05 -23.4C28.2 -21 29.3 -17.65 29.3 -13.35C29.3 -8.95 28.25 -5.5 26.05 -3.05C23.9 -0.65 21.25 0.6 18.15 0.6C16.7 0.6 15.35 0.35 14.15 -0.25C13 -0.8 11.75 -1.8 10.45 -3.25L10.45 10.05L3.45 10.05L3.45 -26.45L9.95 -26.45L9.95 -22.55C10.75 -23.85 11.9 -24.95 13.35 -25.8C14.8 -26.6 16.4 -27.05 18.2 -27.05C21.3 -27.05 23.9 -25.85 26.05 -23.4" />
</g>
</svg>
