<?xml version="1.0" encoding="utf-8"?>
<svg version="1.1" id="Layer_1"
xmlns="http://www.w3.org/2000/svg"
xmlns:xlink="http://www.w3.org/1999/xlink"
width="550px" height="400px"
xml:space="preserve">
<g id="ShapeID_2419" transform="matrix(0.313726, 0, 0, 0.313726, 0, 14.4)" >
 <clipPath  id="PathID4009_ClipPathURL" clip-rule="nonzero">
<path d="M17.3 -36.5L20.95 -36.5L20.95 -12.85L25.9 -12.85L25.9 -8.75L20.95 -8.75L20.95 0L16.45 0L16.45 -8.75L0.6 -8.75L0.6 -12.85L17.3 -36.5M16.45 -12.85L16.45 -29.2L5 -12.85L16.45 -12.85"/>
</clipPath>
<path 
style="clip-path:url(#PathID4009_ClipPathURL);fill:#FFFFFF;fill-opacity:1" d="M17.3 -36.5L20.95 -36.5L20.95 -12.85L25.9 -12.85L25.9 -8.75L20.95 -8.75L20.95 0L16.45 0L16.45 -8.75L0.6 -8.75L0.6 -12.85L17.3 -36.5" />
</g>
<g id="ShapeID_2420" transform="matrix(0.313726, 0, 0, 0.313726, 8.85, 14.4)" >
<path 
style="fill:#FFFFFF;fill-opacity:1" d="M7.1 -16.7L2.9 -17.3L6.45 -36.05L24.6 -36.05L24.6 -31.75L10 -31.75L8 -21.95C10.2 -23.45 12.5 -24.25 14.9 -24.25C18.1 -24.25 20.8 -23.15 23 -20.9C25.2 -18.7 26.3 -15.9 26.3 -12.4C26.3 -9.1 25.35 -6.25 23.4 -3.8C21.1 -0.9 17.9 0.6 13.8 0.6C10.5 0.6 7.75 -0.3 5.65 -2.15C3.55 -4 2.4 -6.5 2.1 -9.6L6.8 -9.95C7.1 -7.65 7.9 -5.95 9.2 -4.8C10.45 -3.7 12 -3.1 13.8 -3.1C16 -3.1 17.8 -3.9 19.3 -5.5C20.8 -7.1 21.55 -9.3 21.55 -12C21.55 -14.55 20.85 -16.55 19.4 -18.05C18 -19.55 16.1 -20.3 13.75 -20.3C12.3 -20.3 11 -19.95 9.8 -19.25C8.65 -18.6 7.75 -17.75 7.1 -16.7" />
</g>
</svg>
