<?xml version="1.0" encoding="utf-8"?>
<svg version="1.1" id="Layer_1"
xmlns="http://www.w3.org/2000/svg"
xmlns:xlink="http://www.w3.org/1999/xlink"
width="550px" height="400px"
xml:space="preserve">
<g id="ShapeID_2281" transform="matrix(0.352941, 0, 0, 0.352941, 0, 17)" >
<path 
style="fill:#000000;fill-opacity:1" d="M33.3 -36.5L17.95 -21.65L33.95 0L27.55 0L14.55 -18.35L8.6 -12.65L8.6 0L3.75 0L3.75 -36.5L8.6 -36.5L8.6 -18.4L26.7 -36.5L33.3 -36.5" />
</g>
<g id="ShapeID_2282" transform="matrix(0.352941, 0, 0, 0.352941, 10.7, 17)" >
<path 
style="fill:#000000;fill-opacity:1" d="M3.25 -36.5L7.75 -36.5L7.75 0L3.25 0L3.25 -36.5" />
</g>
<g id="ShapeID_2283" transform="matrix(0.352941, 0, 0, 0.352941, 19.5, 17)" >
<path 
style="fill:#000000;fill-opacity:1" d="M3.4 -36.5L7.9 -36.5L7.9 -31.4L3.4 -31.4L3.4 -36.5" />
<path 
style="fill:#000000;fill-opacity:1" d="M3.4 -26.45L7.9 -26.45L7.9 0L3.4 0L3.4 -26.45" />
</g>
<g id="ShapeID_2284" transform="matrix(0.352941, 0, 0, 0.352941, 24.85, 17)" >
<path 
style="fill:#000000;fill-opacity:1" d="M24.3 -26.45L14.15 -16.6L25.3 0L19.75 0L10.95 -13.5L7.85 -10.5L7.85 0L3.35 0L3.35 -36.5L7.85 -36.5L7.85 -15.7L18.45 -26.45L24.3 -26.45" />
</g>
<g id="ShapeID_2285" transform="matrix(0.352941, 0, 0, 0.352941, 35.55, 17)" >
<path 
style="fill:#000000;fill-opacity:1" d="M24.3 -26.45L14.15 -16.6L25.3 0L19.75 0L10.95 -13.5L7.85 -10.5L7.85 0L3.35 0L3.35 -36.5L7.85 -36.5L7.85 -15.7L18.45 -26.45L24.3 -26.45" />
</g>
<g id="ShapeID_2286" transform="matrix(0.352941, 0, 0, 0.352941, 46.25, 17)" >
 <clipPath  id="PathID3829_ClipPathURL" clip-rule="nonzero">
<path d="M13.9 -23.35C11.8 -23.35 10.25 -23 9.2 -22.2C8.2 -21.5 7.5 -20.2 7 -18.3L2.6 -18.9C3 -20.75 3.65 -22.25 4.55 -23.4C5.45 -24.55 6.8 -25.45 8.55 -26.1C10.25 -26.7 12.25 -27.05 14.55 -27.05C16.8 -27.05 18.65 -26.8 20.05 -26.25C21.45 -25.75 22.5 -25.05 23.2 -24.2C23.85 -23.4 24.3 -22.4 24.6 -21.15C24.75 -20.45 24.85 -19.05 24.85 -17.05L24.85 -11.05C24.85 -6.9 24.9 -4.25 25.1 -3.15C25.25 -2.05 25.6 -1 26.2 0L21.5 0C21.1 -0.9 20.8 -2 20.7 -3.3C19.05 -1.9 17.45 -0.85 15.85 -0.25C14.35 0.3 12.7 0.6 10.9 0.6C8 0.6 5.8 -0.1 4.2 -1.5C2.65 -2.9 1.85 -4.75 1.85 -6.95C1.85 -8.25 2.1 -9.4 2.7 -10.5C3.3 -11.55 4.05 -12.4 5.05 -13.05C6 -13.7 7.1 -14.2 8.3 -14.55C9.15 -14.75 10.5 -15 12.3 -15.25C15.9 -15.65 18.6 -16.2 20.3 -16.8C20.3 -17.4 20.35 -17.75 20.35 -17.95C20.35 -19.75 19.95 -21.05 19.05 -21.8C17.9 -22.8 16.2 -23.35 13.9 -23.35M6.65 -7.1C6.65 -5.9 7.1 -4.9 8 -4.1C8.9 -3.3 10.2 -2.9 12 -2.9C13.7 -2.9 15.25 -3.25 16.6 -4C17.95 -4.75 18.95 -5.8 19.6 -7.1C20.05 -8.1 20.3 -9.6 20.3 -11.6L20.35 -13.3C18.7 -12.65 16.25 -12.1 12.95 -11.6C11.15 -11.35 9.85 -11.05 9.05 -10.7C8.3 -10.4 7.7 -9.9 7.25 -9.2C6.85 -8.6 6.65 -7.9 6.65 -7.1"/>
</clipPath>
<path 
style="clip-path:url(#PathID3829_ClipPathURL);fill:#000000;fill-opacity:1" d="M13.9 -23.35C11.8 -23.35 10.25 -23 9.2 -22.2C8.2 -21.5 7.5 -20.2 7 -18.3L2.6 -18.9C3 -20.75 3.65 -22.25 4.55 -23.4C5.45 -24.55 6.8 -25.45 8.55 -26.1C10.25 -26.7 12.25 -27.05 14.55 -27.05C16.8 -27.05 18.65 -26.8 20.05 -26.25C21.45 -25.75 22.5 -25.05 23.2 -24.2C23.85 -23.4 24.3 -22.4 24.6 -21.15C24.75 -20.45 24.85 -19.05 24.85 -17.05L24.85 -11.05C24.85 -6.9 24.9 -4.25 25.1 -3.15C25.25 -2.05 25.6 -1 26.2 0L21.5 0C21.1 -0.9 20.8 -2 20.7 -3.3C19.05 -1.9 17.45 -0.85 15.85 -0.25C14.35 0.3 12.7 0.6 10.9 0.6C8 0.6 5.8 -0.1 4.2 -1.5C2.65 -2.9 1.85 -4.75 1.85 -6.95C1.85 -8.25 2.1 -9.4 2.7 -10.5C3.3 -11.55 4.05 -12.4 5.05 -13.05C6 -13.7 7.1 -14.2 8.3 -14.55C9.15 -14.75 10.5 -15 12.3 -15.25C15.9 -15.65 18.6 -16.2 20.3 -16.8C20.3 -17.4 20.35 -17.75 20.35 -17.95C20.35 -19.75 19.95 -21.05 19.05 -21.8C17.9 -22.8 16.2 -23.35 13.9 -23.35" />
</g>
<g id="ShapeID_2287" transform="matrix(0.352941, 0, 0, 0.352941, 57.05, 17)" >
 <clipPath  id="PathID3831_ClipPathURL" clip-rule="nonzero">
<path d="M13.9 -23.35C11.8 -23.35 10.25 -23 9.2 -22.2C8.2 -21.5 7.5 -20.2 7 -18.3L2.6 -18.9C3 -20.75 3.65 -22.25 4.55 -23.4C5.45 -24.55 6.8 -25.45 8.55 -26.1C10.25 -26.7 12.25 -27.05 14.55 -27.05C16.8 -27.05 18.65 -26.8 20.05 -26.25C21.45 -25.75 22.5 -25.05 23.2 -24.2C23.85 -23.4 24.3 -22.4 24.6 -21.15C24.75 -20.45 24.85 -19.05 24.85 -17.05L24.85 -11.05C24.85 -6.9 24.9 -4.25 25.1 -3.15C25.25 -2.05 25.6 -1 26.2 0L21.5 0C21.1 -0.9 20.8 -2 20.7 -3.3C19.05 -1.9 17.45 -0.85 15.85 -0.25C14.35 0.3 12.7 0.6 10.9 0.6C8 0.6 5.8 -0.1 4.2 -1.5C2.65 -2.9 1.85 -4.75 1.85 -6.95C1.85 -8.25 2.1 -9.4 2.7 -10.5C3.3 -11.55 4.05 -12.4 5.05 -13.05C6 -13.7 7.1 -14.2 8.3 -14.55C9.15 -14.75 10.5 -15 12.3 -15.25C15.9 -15.65 18.6 -16.2 20.3 -16.8C20.3 -17.4 20.35 -17.75 20.35 -17.95C20.35 -19.75 19.95 -21.05 19.05 -21.8C17.9 -22.8 16.2 -23.35 13.9 -23.35M6.65 -7.1C6.65 -5.9 7.1 -4.9 8 -4.1C8.9 -3.3 10.2 -2.9 12 -2.9C13.7 -2.9 15.25 -3.25 16.6 -4C17.95 -4.75 18.95 -5.8 19.6 -7.1C20.05 -8.1 20.3 -9.6 20.3 -11.6L20.35 -13.3C18.7 -12.65 16.25 -12.1 12.95 -11.6C11.15 -11.35 9.85 -11.05 9.05 -10.7C8.3 -10.4 7.7 -9.9 7.25 -9.2C6.85 -8.6 6.65 -7.9 6.65 -7.1"/>
</clipPath>
<path 
style="clip-path:url(#PathID3831_ClipPathURL);fill:#000000;fill-opacity:1" d="M13.9 -23.35C11.8 -23.35 10.25 -23 9.2 -22.2C8.2 -21.5 7.5 -20.2 7 -18.3L2.6 -18.9C3 -20.75 3.65 -22.25 4.55 -23.4C5.45 -24.55 6.8 -25.45 8.55 -26.1C10.25 -26.7 12.25 -27.05 14.55 -27.05C16.8 -27.05 18.65 -26.8 20.05 -26.25C21.45 -25.75 22.5 -25.05 23.2 -24.2C23.85 -23.4 24.3 -22.4 24.6 -21.15C24.75 -20.45 24.85 -19.05 24.85 -17.05L24.85 -11.05C24.85 -6.9 24.9 -4.25 25.1 -3.15C25.25 -2.05 25.6 -1 26.2 0L21.5 0C21.1 -0.9 20.8 -2 20.7 -3.3C19.05 -1.9 17.45 -0.85 15.85 -0.25C14.35 0.3 12.7 0.6 10.9 0.6C8 0.6 5.8 -0.1 4.2 -1.5C2.65 -2.9 1.85 -4.75 1.85 -6.95C1.85 -8.25 2.1 -9.4 2.7 -10.5C3.3 -11.55 4.05 -12.4 5.05 -13.05C6 -13.7 7.1 -14.2 8.3 -14.55C9.15 -14.75 10.5 -15 12.3 -15.25C15.9 -15.65 18.6 -16.2 20.3 -16.8C20.3 -17.4 20.35 -17.75 20.35 -17.95C20.35 -19.75 19.95 -21.05 19.05 -21.8C17.9 -22.8 16.2 -23.35 13.9 -23.35" />
</g>
<g id="ShapeID_2288" transform="matrix(0.352941, 0, 0, 0.352941, 76.65, 17)" >
<path 
style="fill:#000000;fill-opacity:1" d="M4.15 -26.45L4.15 -32.95L8.65 -35.65L8.65 -26.45L13.15 -26.45L13.15 -22.95L8.65 -22.95L8.65 -7.5C8.65 -6.2 8.7 -5.4 8.85 -5C9 -4.65 9.25 -4.35 9.6 -4.15C9.95 -3.95 10.45 -3.85 11.15 -3.85C11.65 -3.85 12.3 -3.9 13.15 -4L13.75 -0.05C12.5 0.2 11.35 0.35 10.35 0.35C8.75 0.35 7.45 0.1 6.55 -0.4C5.65 -0.9 5.05 -1.55 4.65 -2.4C4.35 -3.25 4.15 -5 4.15 -7.7L4.15 -22.95L0.85 -22.95L0.85 -26.45L4.15 -26.45" />
</g>
<g id="ShapeID_2289" transform="matrix(0.352941, 0, 0, 0.352941, 85.85, 17)" >
 <clipPath  id="PathID3834_ClipPathURL" clip-rule="nonzero">
<path d="M34.1 0L28.6 0L24.35 -11.05L9 -11.05L5.05 0L-0.1 0L13.85 -36.5L19.15 -36.5L34.1 0M19 -25.1C17.9 -28.15 17 -30.7 16.4 -32.7C15.9 -30.35 15.25 -28 14.4 -25.7L10.4 -15L22.85 -15L19 -25.1"/>
</clipPath>
<path 
style="clip-path:url(#PathID3834_ClipPathURL);fill:#000000;fill-opacity:1" d="M34.1 0L28.6 0L24.35 -11.05L9 -11.05L5.05 0L-0.1 0L13.85 -36.5L19.15 -36.5L34.1 0" />
</g>
<g id="ShapeID_2290" transform="matrix(0.352941, 0, 0, 0.352941, 96.65, 17)" >
<path 
style="fill:#000000;fill-opacity:1" d="M20.95 -23.7C21.7 -22.7 22.25 -21.35 22.55 -19.65L18.15 -19.05C17.95 -20.35 17.4 -21.4 16.4 -22.2C15.45 -22.95 14.1 -23.35 12.35 -23.35C10.3 -23.35 8.85 -23 7.95 -22.3C7.1 -21.65 6.65 -20.85 6.65 -19.9C6.65 -19.35 6.8 -18.85 7.15 -18.35C7.5 -17.9 8.1 -17.5 8.9 -17.15C9.3 -17 10.65 -16.6 12.85 -16C16 -15.2 18.2 -14.5 19.5 -13.95C20.75 -13.45 21.75 -12.65 22.45 -11.6C23.15 -10.6 23.55 -9.3 23.55 -7.75C23.55 -6.25 23.1 -4.85 22.2 -3.5C21.35 -2.2 20.1 -1.2 18.4 -0.45C16.8 0.25 14.95 0.6 12.85 0.6C9.45 0.6 6.8 -0.1 4.95 -1.5C3.15 -2.9 2.05 -5.05 1.55 -7.9L6 -8.6C6.2 -6.8 6.9 -5.45 8.05 -4.5C9.15 -3.6 10.75 -3.1 12.85 -3.1C14.9 -3.1 16.45 -3.5 17.45 -4.35C18.45 -5.15 18.95 -6.15 18.95 -7.25C18.95 -8.25 18.5 -9.05 17.6 -9.65C17 -10.05 15.45 -10.55 13 -11.2C9.7 -12 7.45 -12.7 6.15 -13.3C4.9 -13.9 3.95 -14.75 3.25 -15.85C2.65 -16.9 2.3 -18.1 2.3 -19.4C2.3 -20.55 2.55 -21.65 3.1 -22.65C3.6 -23.65 4.35 -24.5 5.3 -25.2C6 -25.7 6.95 -26.1 8.15 -26.5C9.35 -26.85 10.65 -27.05 12.05 -27.05C14.1 -27.05 15.9 -26.75 17.5 -26.15C19.05 -25.55 20.2 -24.75 20.95 -23.7" />
</g>
<g id="ShapeID_2291" transform="matrix(0.352941, 0, 0, 0.352941, 105.8, 17)" >
<path 
style="fill:#000000;fill-opacity:1" d="M4.15 -26.45L4.15 -32.95L8.65 -35.65L8.65 -26.45L13.15 -26.45L13.15 -22.95L8.65 -22.95L8.65 -7.5C8.65 -6.2 8.7 -5.4 8.85 -5C9 -4.65 9.25 -4.35 9.6 -4.15C9.95 -3.95 10.45 -3.85 11.15 -3.85C11.65 -3.85 12.3 -3.9 13.15 -4L13.75 -0.05C12.5 0.2 11.35 0.35 10.35 0.35C8.75 0.35 7.45 0.1 6.55 -0.4C5.65 -0.9 5.05 -1.55 4.65 -2.4C4.35 -3.25 4.15 -5 4.15 -7.7L4.15 -22.95L0.85 -22.95L0.85 -26.45L4.15 -26.45" />
</g>
<g id="ShapeID_2292" transform="matrix(0.352941, 0, 0, 0.352941, 115, 17)" >
 <clipPath  id="PathID3838_ClipPathURL" clip-rule="nonzero">
<path d="M34.1 0L28.6 0L24.35 -11.05L9 -11.05L5.05 0L-0.1 0L13.85 -36.5L19.15 -36.5L34.1 0M19 -25.1C17.9 -28.15 17 -30.7 16.4 -32.7C15.9 -30.35 15.25 -28 14.4 -25.7L10.4 -15L22.85 -15L19 -25.1"/>
</clipPath>
<path 
style="clip-path:url(#PathID3838_ClipPathURL);fill:#000000;fill-opacity:1" d="M34.1 0L28.6 0L24.35 -11.05L9 -11.05L5.05 0L-0.1 0L13.85 -36.5L19.15 -36.5L34.1 0" />
</g>
</svg>
