<?xml version="1.0" encoding="utf-8"?>
<svg version="1.1" id="Layer_1"
xmlns="http://www.w3.org/2000/svg"
xmlns:xlink="http://www.w3.org/1999/xlink"
width="550px" height="400px"
xml:space="preserve">
<g id="ShapeID_2302" transform="matrix(0.764706, 0, 0, 0.764706, 0, 35)" >
 <clipPath  id="PathID3853_ClipPathURL" clip-rule="nonzero">
<path d="M5.3 -3.05C3.2 -5.45 2.1 -8.9 2.1 -13.3C2.1 -17.8 3.15 -21.2 5.25 -23.55C7.35 -25.85 10 -27.05 13.2 -27.05C16.15 -27.05 18.7 -25.85 20.9 -23.35L20.9 -36.5L27.9 -36.5L27.9 0L21.4 0L21.4 -3.85C20.3 -2.35 19.05 -1.25 17.55 -0.5C16.1 0.2 14.6 0.6 13.1 0.6C10.1 0.6 7.5 -0.6 5.3 -3.05M19.25 -7C20.35 -8.35 20.95 -10.4 20.95 -13.1C20.95 -16.1 20.4 -18.3 19.3 -19.65C18.2 -21 16.8 -21.7 15.1 -21.7C13.45 -21.7 12.05 -21.05 10.9 -19.7C9.8 -18.4 9.25 -16.4 9.25 -13.8C9.25 -11 9.6 -8.95 10.4 -7.65C11.5 -5.85 13.1 -4.95 15.15 -4.95C16.75 -4.95 18.1 -5.6 19.25 -7"/>
</clipPath>
<path 
style="clip-path:url(#PathID3853_ClipPathURL);fill:#FFFFFF;fill-opacity:1" d="M5.3 -3.05C3.2 -5.45 2.1 -8.9 2.1 -13.3C2.1 -17.8 3.15 -21.2 5.25 -23.55C7.35 -25.85 10 -27.05 13.2 -27.05C16.15 -27.05 18.7 -25.85 20.9 -23.35L20.9 -36.5L27.9 -36.5L27.9 0L21.4 0L21.4 -3.85C20.3 -2.35 19.05 -1.25 17.55 -0.5C16.1 0.2 14.6 0.6 13.1 0.6C10.1 0.6 7.5 -0.6 5.3 -3.05" />
</g>
<g id="ShapeID_2303" transform="matrix(0.764706, 0, 0, 0.764706, 23.8, 35)" >
 <clipPath  id="PathID3855_ClipPathURL" clip-rule="nonzero">
<path d="M5 -23.3C7.3 -25.8 10.2 -27.05 13.7 -27.05C17.6 -27.05 20.7 -25.75 23 -23.1C25.25 -20.5 26.4 -16.55 26.3 -11.2L8.75 -11.2C8.75 -9.1 9.3 -7.5 10.4 -6.35C11.5 -5.25 12.85 -4.65 14.5 -4.65C15.6 -4.65 16.5 -4.95 17.25 -5.55C18 -6.15 18.6 -7.1 19 -8.45L25.95 -7.3C25.05 -4.7 23.65 -2.75 21.65 -1.4C19.75 -0.1 17.3 0.6 14.4 0.6C9.8 0.6 6.4 -0.9 4.2 -3.9C2.5 -6.3 1.6 -9.3 1.6 -13C1.6 -17.4 2.7 -20.8 5 -23.3M17.75 -20.1C16.75 -21.15 15.55 -21.7 14.1 -21.7C12.6 -21.7 11.3 -21.15 10.3 -20C9.3 -18.9 8.8 -17.4 8.85 -15.5L19.35 -15.5C19.3 -17.5 18.75 -19 17.75 -20.1"/>
</clipPath>
<path 
style="clip-path:url(#PathID3855_ClipPathURL);fill:#FFFFFF;fill-opacity:1" d="M5 -23.3C7.3 -25.8 10.2 -27.05 13.7 -27.05C17.6 -27.05 20.7 -25.75 23 -23.1C25.25 -20.5 26.4 -16.55 26.3 -11.2L8.75 -11.2C8.75 -9.1 9.3 -7.5 10.4 -6.35C11.5 -5.25 12.85 -4.65 14.5 -4.65C15.6 -4.65 16.5 -4.95 17.25 -5.55C18 -6.15 18.6 -7.1 19 -8.45L25.95 -7.3C25.05 -4.7 23.65 -2.75 21.65 -1.4C19.75 -0.1 17.3 0.6 14.4 0.6C9.8 0.6 6.4 -0.9 4.2 -3.9C2.5 -6.3 1.6 -9.3 1.6 -13C1.6 -17.4 2.7 -20.8 5 -23.3" />
</g>
<g id="ShapeID_2304" transform="matrix(0.764706, 0, 0, 0.764706, 45.5, 35)" >
 <clipPath  id="PathID3857_ClipPathURL" clip-rule="nonzero">
<path d="M18.8 -2.9C17.6 -1.75 16.35 -0.85 14.95 -0.25C13.6 0.3 12.15 0.6 10.6 0.6C7.9 0.6 5.75 -0.1 4.15 -1.6C2.6 -3.05 1.8 -4.9 1.8 -7.2C1.8 -8.7 2.15 -10 2.85 -11.2C3.55 -12.35 4.55 -13.25 5.85 -13.85C7.15 -14.45 9 -15 11.4 -15.5C14.7 -16.1 16.95 -16.7 18.25 -17.25L18.25 -17.95C18.25 -19.25 17.9 -20.2 17.2 -20.8C16.55 -21.4 15.3 -21.7 13.4 -21.7C12.2 -21.7 11.2 -21.45 10.5 -20.95C9.8 -20.45 9.25 -19.6 8.8 -18.35L2.5 -19.5C3.2 -22.05 4.4 -23.95 6.15 -25.2C7.9 -26.4 10.5 -27.05 13.95 -27.05C17.05 -27.05 19.4 -26.7 20.95 -25.9C22.45 -25.2 23.55 -24.25 24.2 -23.1C24.8 -22 25.15 -19.9 25.15 -16.85L25.05 -8.65C25.05 -6.35 25.15 -4.65 25.35 -3.5C25.55 -2.4 26 -1.25 26.65 0L19.75 0C19.55 -0.45 19.35 -1.15 19.05 -2.05C18.95 -2.45 18.9 -2.75 18.8 -2.9M8.8 -7.95C8.8 -6.95 9.15 -6.1 9.85 -5.4C10.55 -4.7 11.5 -4.35 12.65 -4.35C13.9 -4.35 15.1 -4.75 16.3 -5.55C17.1 -6.15 17.65 -6.95 17.95 -7.9C18.15 -8.45 18.25 -9.6 18.25 -11.3L18.25 -12.7C17.35 -12.4 15.95 -12.05 13.95 -11.6C12.05 -11.2 10.75 -10.8 10.15 -10.4C9.25 -9.75 8.8 -8.95 8.8 -7.95"/>
</clipPath>
<path 
style="clip-path:url(#PathID3857_ClipPathURL);fill:#FFFFFF;fill-opacity:1" d="M18.8 -2.9C17.6 -1.75 16.35 -0.85 14.95 -0.25C13.6 0.3 12.15 0.6 10.6 0.6C7.9 0.6 5.75 -0.1 4.15 -1.6C2.6 -3.05 1.8 -4.9 1.8 -7.2C1.8 -8.7 2.15 -10 2.85 -11.2C3.55 -12.35 4.55 -13.25 5.85 -13.85C7.15 -14.45 9 -15 11.4 -15.5C14.7 -16.1 16.95 -16.7 18.25 -17.25L18.25 -17.95C18.25 -19.25 17.9 -20.2 17.2 -20.8C16.55 -21.4 15.3 -21.7 13.4 -21.7C12.2 -21.7 11.2 -21.45 10.5 -20.95C9.8 -20.45 9.25 -19.6 8.8 -18.35L2.5 -19.5C3.2 -22.05 4.4 -23.95 6.15 -25.2C7.9 -26.4 10.5 -27.05 13.95 -27.05C17.05 -27.05 19.4 -26.7 20.95 -25.9C22.45 -25.2 23.55 -24.25 24.2 -23.1C24.8 -22 25.15 -19.9 25.15 -16.85L25.05 -8.65C25.05 -6.35 25.15 -4.65 25.35 -3.5C25.55 -2.4 26 -1.25 26.65 0L19.75 0C19.55 -0.45 19.35 -1.15 19.05 -2.05C18.95 -2.45 18.9 -2.75 18.8 -2.9" />
</g>
<g id="ShapeID_2305" transform="matrix(0.764706, 0, 0, 0.764706, 67.2, 35)" >
<path 
style="fill:#FFFFFF;fill-opacity:1" d="M10.75 0.6C9.5 0.6 8.35 0.4 7.35 0C6.35 -0.4 5.6 -0.95 5.1 -1.65C4.65 -2.3 4.35 -3.2 4.15 -4.4C4.05 -5.2 3.95 -6.8 3.95 -9.3L3.95 -20.85L0.75 -20.85L0.75 -26.45L3.95 -26.45L3.95 -31.7L10.95 -35.8L10.95 -26.45L15.75 -26.45L15.75 -20.85L10.95 -20.85L10.95 -10.2C10.95 -8.05 10.95 -6.8 11.05 -6.4C11.15 -6.05 11.35 -5.75 11.7 -5.5C12 -5.3 12.4 -5.2 12.9 -5.2C13.5 -5.2 14.45 -5.4 15.7 -5.85L16.3 -0.4C14.7 0.25 12.85 0.6 10.75 0.6" />
</g>
<g id="ShapeID_2306" transform="matrix(0.764706, 0, 0, 0.764706, 80.2, 35)" >
<path 
style="fill:#FFFFFF;fill-opacity:1" d="M20.65 -13.95C20.65 -16.7 20.55 -18.45 20.25 -19.2C20 -19.95 19.5 -20.55 18.8 -21C18.15 -21.45 17.3 -21.7 16.3 -21.7C15.15 -21.7 14.1 -21.45 13.2 -20.85C12.3 -20.3 11.65 -19.45 11.2 -18.25C10.8 -17.15 10.6 -15.45 10.6 -13.25L10.6 0L3.6 0L3.6 -36.5L10.6 -36.5L10.6 -23.05C12.8 -25.7 15.5 -27.05 18.65 -27.05C20.25 -27.05 21.7 -26.75 23 -26.15C24.3 -25.55 25.25 -24.8 25.9 -23.85C26.55 -22.95 27 -21.9 27.25 -20.75C27.5 -19.65 27.65 -17.9 27.65 -15.5L27.65 0L20.65 0L20.65 -13.95" />
</g>
</svg>
