<?xml version="1.0" encoding="utf-8"?>
<svg version="1.1" id="Layer_1"
xmlns="http://www.w3.org/2000/svg"
xmlns:xlink="http://www.w3.org/1999/xlink"
width="550px" height="400px"
xml:space="preserve">
<g id="ShapeID_2297" transform="matrix(0.764706, 0, 0, 0.764706, 0, 35)" >
<path 
style="fill:#FFFFFF;fill-opacity:1" d="M34.3 -20.2C33.7 -21.2 32.7 -21.7 31.3 -21.7C30.35 -21.7 29.45 -21.4 28.55 -20.8C27.7 -20.2 27.1 -19.35 26.7 -18.15C26.35 -17 26.15 -15.2 26.15 -12.7L26.15 0L19.15 0L19.15 -14.5C19.15 -17.05 19.05 -18.7 18.75 -19.45C18.55 -20.2 18.15 -20.75 17.6 -21.15C17.1 -21.5 16.35 -21.7 15.45 -21.7C14.4 -21.7 13.45 -21.4 12.55 -20.8C11.7 -20.25 11.1 -19.4 10.7 -18.3C10.35 -17.2 10.15 -15.4 10.15 -12.85L10.15 0L3.15 0L3.15 -26.45L9.6 -26.45L9.6 -22.8C11.9 -25.6 14.65 -27.05 17.85 -27.05C19.5 -27.05 20.95 -26.7 22.2 -26C23.45 -25.3 24.5 -24.25 25.3 -22.8C26.45 -24.2 27.7 -25.3 29.05 -26C30.4 -26.7 31.85 -27.05 33.35 -27.05C35.3 -27.05 36.95 -26.65 38.3 -25.85C39.6 -25.05 40.6 -23.9 41.3 -22.35C41.8 -21.25 42.05 -19.4 42.05 -16.9L42.05 0L35.05 0L35.05 -15.1C35.05 -17.7 34.8 -19.4 34.3 -20.2" />
</g>
<g id="ShapeID_2298" transform="matrix(0.764706, 0, 0, 0.764706, 34.7, 35)" >
<path 
style="fill:#FFFFFF;fill-opacity:1" d="M10.5 -14.3C10.5 -10.6 10.6 -8.3 10.85 -7.45C11.1 -6.65 11.55 -5.95 12.25 -5.45C12.95 -5 13.8 -4.75 14.85 -4.75C16.05 -4.75 17.1 -5.05 18.05 -5.7C19 -6.35 19.65 -7.15 20 -8.15C20.35 -9.1 20.55 -11.5 20.55 -15.3L20.55 -26.45L27.55 -26.45L27.55 0L21.05 0L21.05 -3.95C20.1 -2.55 18.85 -1.4 17.25 -0.6C15.7 0.2 14.05 0.6 12.25 0.6C10.5 0.6 8.9 0.25 7.45 -0.55C6.05 -1.3 5.05 -2.4 4.4 -3.8C3.8 -5.2 3.5 -7.2 3.5 -9.7L3.5 -26.45L10.5 -26.45L10.5 -14.3" />
</g>
<g id="ShapeID_2299" transform="matrix(0.764706, 0, 0, 0.764706, 58.5, 35)" >
<path 
style="fill:#FFFFFF;fill-opacity:1" d="M21.35 -25.25C23.1 -24.05 24.3 -22.3 25 -20L18.4 -18.8C18.1 -19.8 17.55 -20.6 16.75 -21.15C16 -21.7 14.9 -22 13.4 -22C11.55 -22 10.2 -21.75 9.4 -21.2C8.9 -20.85 8.65 -20.4 8.65 -19.8C8.65 -19.3 8.85 -18.9 9.3 -18.5C9.9 -18.05 12.1 -17.4 15.85 -16.55C19.55 -15.75 22.2 -14.7 23.7 -13.45C25.15 -12.2 25.9 -10.45 25.9 -8.25C25.9 -5.85 24.9 -3.75 22.85 -2C20.85 -0.3 17.85 0.6 13.85 0.6C10.25 0.6 7.4 -0.1 5.3 -1.55C3.2 -3 1.85 -5 1.2 -7.5L8.2 -8.55C8.5 -7.2 9.1 -6.15 10 -5.45C10.9 -4.8 12.2 -4.45 13.85 -4.45C15.65 -4.45 17.05 -4.75 17.95 -5.4C18.55 -5.85 18.9 -6.5 18.9 -7.3C18.9 -7.8 18.75 -8.25 18.4 -8.6C18.05 -8.9 17.25 -9.25 16.05 -9.55C10.4 -10.75 6.8 -11.9 5.25 -12.95C3.2 -14.35 2.15 -16.35 2.15 -18.9C2.15 -21.2 3.05 -23.1 4.85 -24.7C6.65 -26.25 9.45 -27.05 13.25 -27.05C16.85 -27.05 19.55 -26.45 21.35 -25.25" />
</g>
<g id="ShapeID_2300" transform="matrix(0.764706, 0, 0, 0.764706, 80.2, 35)" >
<path 
style="fill:#FFFFFF;fill-opacity:1" d="M3.6 -36.5L10.6 -36.5L10.6 -30L3.6 -30L3.6 -36.5" />
<path 
style="fill:#FFFFFF;fill-opacity:1" d="M3.6 -26.45L10.6 -26.45L10.6 0L3.6 0L3.6 -26.45" />
</g>
<g id="ShapeID_2301" transform="matrix(0.764706, 0, 0, 0.764706, 91.05, 35)" >
<path 
style="fill:#FFFFFF;fill-opacity:1" d="M18.35 -6.2C19.2 -6.95 19.8 -8.25 20.2 -10.15L27.05 -9C26.35 -5.85 24.95 -3.45 22.9 -1.8C20.9 -0.2 18.2 0.6 14.75 0.6C10.9 0.6 7.8 -0.6 5.5 -3.05C3.25 -5.45 2.1 -8.85 2.1 -13.2C2.1 -17.55 3.25 -20.95 5.55 -23.4C7.85 -25.8 10.95 -27.05 14.9 -27.05C18.1 -27.05 20.7 -26.35 22.6 -24.95C24.5 -23.6 25.85 -21.5 26.7 -18.7L19.8 -17.45C19.6 -18.75 19.05 -19.8 18.2 -20.5C17.4 -21.2 16.3 -21.55 15 -21.55C13.25 -21.55 11.85 -20.95 10.8 -19.7C9.8 -18.5 9.25 -16.5 9.25 -13.65C9.25 -10.55 9.75 -8.3 10.8 -7C11.85 -5.75 13.3 -5.1 15.1 -5.1C16.4 -5.1 17.5 -5.45 18.35 -6.2" />
</g>
</svg>
