<?xml version="1.0" encoding="utf-8"?>
<svg version="1.1" id="Layer_1"
xmlns="http://www.w3.org/2000/svg"
xmlns:xlink="http://www.w3.org/1999/xlink"
width="550px" height="400px"
xml:space="preserve">
<g id="ShapeID_2433" transform="matrix(0.862745, 0, 0, 0.862745, 0, 48)" >
<path 
style="fill:#FFFFFF;fill-opacity:1" d="M24 -27.5L24 0L12.7 0L12.7 -27.5L1.2 -27.5L1.2 -36.5L35.5 -36.5L35.5 -27.5L24 -27.5" />
</g>
<g id="ShapeID_2434" transform="matrix(0.862745, 0, 0, 0.862745, 31.8, 48)" >
<path 
style="fill:#FFFFFF;fill-opacity:1" d="M15.5 -36.5L15.5 0L4.2 0L4.2 -36.5L15.5 -36.5" />
</g>
<g id="ShapeID_2435" transform="matrix(0.862745, 0, 0, 0.862745, 48.9, 48)" >
<path 
style="fill:#FFFFFF;fill-opacity:1" d="M44.7 0L35.45 0L35.45 -27.8L28.3 0L19.95 0L12.85 -27.8L12.85 0L3.6 0L3.6 -36.5L18.4 -36.5L24.15 -14.25L29.85 -36.5L44.7 -36.5L44.7 0" />
</g>
<g id="ShapeID_2436" transform="matrix(0.862745, 0, 0, 0.862745, 90.45, 48)" >
<path 
style="fill:#FFFFFF;fill-opacity:1" d="M32.6 -22.9L32.6 -15.45L15 -15.45L15 -8.25L34.5 -8.25L34.5 0L3.7 0L3.7 -36.5L33.95 -36.5L33.95 -28.7L15 -28.7L15 -22.9L32.6 -22.9" />
</g>
<g id="ShapeID_2437" transform="matrix(0.862745, 0, 0, 0.862745, 122.25, 48)" >
<path 
style="fill:#FFFFFF;fill-opacity:1" d="M33.7 -26.2L23.05 -25.6C22.75 -27.2 22.15 -28.4 21.25 -29.15C20.35 -29.9 19.1 -30.3 17.5 -30.3C16.2 -30.3 15.25 -30.05 14.55 -29.45C13.95 -28.9 13.6 -28.2 13.6 -27.4C13.6 -26.85 13.85 -26.35 14.4 -25.85C14.9 -25.4 16.15 -24.95 18.15 -24.5C23.05 -23.45 26.6 -22.35 28.75 -21.25C30.85 -20.2 32.4 -18.85 33.4 -17.25C34.4 -15.65 34.9 -13.85 34.9 -11.85C34.9 -9.55 34.25 -7.4 32.95 -5.4C31.65 -3.45 29.85 -1.95 27.5 -0.9C25.2 0.1 22.25 0.6 18.7 0.6C12.5 0.6 8.2 -0.55 5.8 -2.95C3.45 -5.35 2.1 -8.35 1.8 -12.05L12.55 -12.75C12.75 -11 13.2 -9.65 13.95 -8.75C15.1 -7.3 16.75 -6.55 18.9 -6.55C20.5 -6.55 21.7 -6.9 22.6 -7.65C23.5 -8.4 23.95 -9.3 23.95 -10.3C23.95 -11.2 23.55 -12.05 22.7 -12.8C21.9 -13.55 19.95 -14.25 16.9 -14.95C12 -16.05 8.45 -17.5 6.3 -19.35C4.2 -21.15 3.15 -23.5 3.15 -26.4C3.15 -28.25 3.65 -30 4.75 -31.7C5.85 -33.35 7.45 -34.65 9.65 -35.65C11.85 -36.6 14.85 -37.1 18.65 -37.1C23.3 -37.1 26.85 -36.25 29.3 -34.45C31.75 -32.75 33.2 -30 33.7 -26.2" />
</g>
<g id="ShapeID_2438" transform="matrix(0.862745, 0, 0, 0.862745, 168.7, 48)" >
<path 
style="fill:#FFFFFF;fill-opacity:1" d="M11.05 -1.2C9.65 -1.95 8.35 -3 7.15 -4.35C6 -5.7 5.2 -7.1 4.75 -8.6C4.1 -10.9 3.75 -12.95 3.75 -14.75L3.75 -36.5L15 -36.5L15 -14.2C15 -12.25 15.55 -10.7 16.65 -9.55C17.75 -8.45 19.25 -7.9 21.25 -7.9C23.15 -7.9 24.7 -8.45 25.8 -9.55C26.9 -10.65 27.5 -12.2 27.5 -14.2L27.5 -36.5L38.75 -36.5L38.75 -14.75C38.75 -12.6 38.4 -10.55 37.7 -8.6C37.05 -6.7 36 -5.05 34.55 -3.6C33.15 -2.2 31.65 -1.2 30.05 -0.6C27.85 0.2 25.25 0.6 22.15 0.6C20.35 0.6 18.4 0.5 16.3 0.25C14.2 0.05 12.45 -0.45 11.05 -1.2" />
</g>
<g id="ShapeID_2439" transform="matrix(0.862745, 0, 0, 0.862745, 205.35, 48)" >
 <clipPath  id="PathID4033_ClipPathURL" clip-rule="nonzero">
<path d="M34.7 -25.25C34.7 -21.6 33.6 -18.75 31.35 -16.65C29.15 -14.6 25.8 -13.55 21.2 -13.55L15.05 -13.55L15.05 0L3.7 0L3.7 -36.5L22.45 -36.5C26.5 -36.5 29.55 -35.55 31.6 -33.55C33.65 -31.65 34.7 -28.85 34.7 -25.25M22.35 -22.05C23.25 -22.8 23.7 -23.75 23.7 -24.95C23.7 -26.1 23.35 -27.1 22.55 -27.9C21.8 -28.7 20.35 -29.1 18.25 -29.1L15.05 -29.1L15.05 -20.95L17.8 -20.95C19.95 -20.95 21.45 -21.3 22.35 -22.05"/>
</clipPath>
<path 
style="clip-path:url(#PathID4033_ClipPathURL);fill:#FFFFFF;fill-opacity:1" d="M34.7 -25.25C34.7 -21.6 33.6 -18.75 31.35 -16.65C29.15 -14.6 25.8 -13.55 21.2 -13.55L15.05 -13.55L15.05 0L3.7 0L3.7 -36.5L22.45 -36.5C26.5 -36.5 29.55 -35.55 31.6 -33.55C33.65 -31.65 34.7 -28.85 34.7 -25.25" />
</g>
</svg>
