<?xml version="1.0" encoding="utf-8"?>
<svg version="1.1" id="Layer_1"
xmlns="http://www.w3.org/2000/svg"
xmlns:xlink="http://www.w3.org/1999/xlink"
width="550px" height="400px"
xml:space="preserve">
<g id="ShapeID_2425" transform="matrix(0.862745, 0, 0, 0.862745, 0, 42)" >
<path 
style="fill:#FFFFFF;fill-opacity:1" d="M35.9 -26.25L31.5 -25.05C31 -26.9 30.3 -28.35 29.45 -29.45C28.65 -30.5 27.5 -31.35 26 -32C24.5 -32.65 22.85 -33 20.95 -33C18.75 -33 16.85 -32.65 15.25 -31.95C13.65 -31.3 12.35 -30.4 11.35 -29.3C10.4 -28.2 9.65 -27 9.05 -25.7C8.15 -23.45 7.7 -21 7.7 -18.35C7.7 -15.1 8.25 -12.35 9.35 -10.15C10.45 -7.95 12.1 -6.35 14.25 -5.25C16.35 -4.25 18.65 -3.7 21.05 -3.7C23.1 -3.7 25.15 -4.1 27.15 -4.9C29.15 -5.7 30.65 -6.55 31.7 -7.45L31.7 -14.3L21 -14.3L21 -18.6L36.45 -18.6L36.45 -5.05C34.05 -3.2 31.6 -1.8 29.05 -0.8C26.55 0.1 24 0.6 21.3 0.6C17.75 0.6 14.5 -0.15 11.55 -1.7C8.65 -3.2 6.4 -5.45 4.9 -8.35C3.45 -11.25 2.7 -14.5 2.7 -18.1C2.7 -21.6 3.4 -24.9 4.9 -28C6.4 -31.1 8.5 -33.4 11.3 -34.9C14.1 -36.4 17.3 -37.15 20.95 -37.15C23.55 -37.15 25.95 -36.75 28.1 -35.85C30.2 -35 31.9 -33.8 33.1 -32.25C34.3 -30.75 35.25 -28.75 35.9 -26.25" />
</g>
<g id="ShapeID_2426" transform="matrix(0.862745, 0, 0, 0.862745, 26.6, 42)" >
 <clipPath  id="PathID4017_ClipPathURL" clip-rule="nonzero">
<path d="M34.1 0L28.6 0L24.35 -11.05L9 -11.05L5.05 0L-0.1 0L13.85 -36.5L19.15 -36.5L34.1 0M19 -25.1C17.9 -28.15 17 -30.7 16.4 -32.7C15.9 -30.35 15.25 -28 14.4 -25.7L10.4 -15L22.85 -15L19 -25.1"/>
</clipPath>
<path 
style="clip-path:url(#PathID4017_ClipPathURL);fill:#FFFFFF;fill-opacity:1" d="M34.1 0L28.6 0L24.35 -11.05L9 -11.05L5.05 0L-0.1 0L13.85 -36.5L19.15 -36.5L34.1 0" />
</g>
<g id="ShapeID_2427" transform="matrix(0.862745, 0, 0, 0.862745, 53, 42)" >
<path 
style="fill:#FFFFFF;fill-opacity:1" d="M23.35 -11.05L32.15 -36.5L38.65 -36.5L38.65 0L34 0L34 -30.55L23.3 0L18.95 0L8.45 -31.05L8.45 0L3.8 0L3.8 -36.5L11 -36.5L19.65 -10.65C20.45 -8.25 21 -6.4 21.4 -5.2C21.8 -6.5 22.45 -8.45 23.35 -11.05" />
</g>
<g id="ShapeID_2428" transform="matrix(0.862745, 0, 0, 0.862745, 87.9, 42)" >
<path 
style="fill:#FFFFFF;fill-opacity:1" d="M8.9 -21.05L29.05 -21.05L29.05 -16.75L8.9 -16.75L8.9 -4.3L31.25 -4.3L31.25 0L4.05 0L4.05 -36.5L30.4 -36.5L30.4 -32.2L8.9 -32.2L8.9 -21.05" />
</g>
<g id="ShapeID_2429" transform="matrix(0.862745, 0, 0, 0.862745, 132.7, 42)" >
 <clipPath  id="PathID4021_ClipPathURL" clip-rule="nonzero">
<path d="M37.35 -18.2C37.35 -14.5 36.6 -11.2 35.1 -8.25C33.6 -5.35 31.5 -3.15 28.75 -1.65C26.05 -0.15 23.1 0.6 19.9 0.6C16.45 0.6 13.35 -0.2 10.65 -1.85C7.95 -3.5 5.9 -5.75 4.5 -8.65C3.15 -11.5 2.45 -14.55 2.45 -17.75C2.45 -23.8 4.05 -28.55 7.3 -32C10.55 -35.4 14.75 -37.15 19.9 -37.15C23.25 -37.15 26.3 -36.35 29 -34.7C31.7 -33.1 33.75 -30.85 35.2 -27.95C36.6 -25.1 37.35 -21.85 37.35 -18.2M32.35 -18.25C32.35 -21.2 31.85 -23.8 30.8 -26C29.8 -28.2 28.35 -29.9 26.4 -31.15C24.5 -32.35 22.35 -33 19.95 -33C16.55 -33 13.6 -31.85 11.1 -29.45C8.7 -27.15 7.45 -23.2 7.45 -17.7C7.45 -13.3 8.6 -9.85 10.95 -7.3C13.3 -4.8 16.25 -3.55 19.85 -3.55C23.45 -3.55 26.45 -4.8 28.8 -7.35C31.15 -9.9 32.35 -13.55 32.35 -18.25"/>
</clipPath>
<path 
style="clip-path:url(#PathID4021_ClipPathURL);fill:#FFFFFF;fill-opacity:1" d="M37.35 -18.2C37.35 -14.5 36.6 -11.2 35.1 -8.25C33.6 -5.35 31.5 -3.15 28.75 -1.65C26.05 -0.15 23.1 0.6 19.9 0.6C16.45 0.6 13.35 -0.2 10.65 -1.85C7.95 -3.5 5.9 -5.75 4.5 -8.65C3.15 -11.5 2.45 -14.55 2.45 -17.75C2.45 -23.8 4.05 -28.55 7.3 -32C10.55 -35.4 14.75 -37.15 19.9 -37.15C23.25 -37.15 26.3 -36.35 29 -34.7C31.7 -33.1 33.75 -30.85 35.2 -27.95C36.6 -25.1 37.35 -21.85 37.35 -18.2" />
</g>
<g id="ShapeID_2430" transform="matrix(0.862745, 0, 0, 0.862745, 159.3, 42)" >
<path 
style="fill:#FFFFFF;fill-opacity:1" d="M14.95 -9.95C15.7 -7.85 16.35 -5.9 16.85 -4C17.4 -6 18.05 -7.95 18.8 -9.95L28.7 -36.5L33.6 -36.5L19.35 0L14.35 0L0.2 -36.5L5.45 -36.5L14.95 -9.95" />
</g>
<g id="ShapeID_2431" transform="matrix(0.862745, 0, 0, 0.862745, 184.4, 42)" >
<path 
style="fill:#FFFFFF;fill-opacity:1" d="M8.9 -21.05L29.05 -21.05L29.05 -16.75L8.9 -16.75L8.9 -4.3L31.25 -4.3L31.25 0L4.05 0L4.05 -36.5L30.4 -36.5L30.4 -32.2L8.9 -32.2L8.9 -21.05" />
</g>
<g id="ShapeID_2432" transform="matrix(0.862745, 0, 0, 0.862745, 207.65, 42)" >
 <clipPath  id="PathID4025_ClipPathURL" clip-rule="nonzero">
<path d="M25.8 -14.75C27.2 -13.45 28.5 -11.85 29.8 -9.9L36.15 0L30.1 0L25.25 -7.55C23.85 -9.75 22.7 -11.4 21.75 -12.6C20.85 -13.75 20.05 -14.55 19.3 -15.05C18.6 -15.5 17.9 -15.8 17.1 -16C16.6 -16.1 15.7 -16.2 14.45 -16.2L8.85 -16.2L8.85 0L4 0L4 -36.5L20.2 -36.5C23.4 -36.5 25.9 -36.2 27.6 -35.5C29.3 -34.85 30.65 -33.7 31.65 -32C32.65 -30.4 33.2 -28.55 33.2 -26.5C33.2 -23.95 32.35 -21.75 30.65 -19.95C29 -18.2 26.4 -17.1 22.9 -16.6C24.15 -16 25.1 -15.35 25.8 -14.75M27.2 -23.25C27.85 -24.25 28.2 -25.3 28.2 -26.5C28.2 -28.2 27.6 -29.65 26.3 -30.75C25.1 -31.85 23.1 -32.45 20.4 -32.45L8.85 -32.45L8.85 -20.4L19.2 -20.4C21.4 -20.4 23.1 -20.6 24.35 -21.05C25.6 -21.5 26.55 -22.25 27.2 -23.25"/>
</clipPath>
<path 
style="clip-path:url(#PathID4025_ClipPathURL);fill:#FFFFFF;fill-opacity:1" d="M25.8 -14.75C27.2 -13.45 28.5 -11.85 29.8 -9.9L36.15 0L30.1 0L25.25 -7.55C23.85 -9.75 22.7 -11.4 21.75 -12.6C20.85 -13.75 20.05 -14.55 19.3 -15.05C18.6 -15.5 17.9 -15.8 17.1 -16C16.6 -16.1 15.7 -16.2 14.45 -16.2L8.85 -16.2L8.85 0L4 0L4 -36.5L20.2 -36.5C23.4 -36.5 25.9 -36.2 27.6 -35.5C29.3 -34.85 30.65 -33.7 31.65 -32C32.65 -30.4 33.2 -28.55 33.2 -26.5C33.2 -23.95 32.35 -21.75 30.65 -19.95C29 -18.2 26.4 -17.1 22.9 -16.6C24.15 -16 25.1 -15.35 25.8 -14.75" />
</g>
</svg>
